<svg xmlns="http://www.w3.org/2000/svg" xmlns:xlink="http://www.w3.org/1999/xlink" width="304.625" height="304.625" viewBox="0 0 304.625 304.625">
  <defs>
    <linearGradient id="linear-gradient" x1="0.5" x2="0.5" y2="1" gradientUnits="objectBoundingBox">
      <stop offset="0" stop-color="#8ebeff"/>
      <stop offset="1" stop-color="#d3adff"/>
    </linearGradient>
    <linearGradient id="linear-gradient-2" x1="0.5" y1="-0.007" x2="0.5" y2="1.017" gradientUnits="objectBoundingBox">
      <stop offset="0" stop-color="#1a6dff"/>
      <stop offset="1" stop-color="#c822ff"/>
    </linearGradient>
  </defs>
  <g id="Group_22" data-name="Group 22" transform="translate(-2258 -2095)">
    <path id="iconfinder_java_4691382" d="M38.783,116s-5.731,3.338,4.081,4.463c11.888,1.363,17.963,1.169,31.057-1.319a54.441,54.441,0,0,0,8.256,4.038C52.808,135.765,15.72,122.446,38.783,116M35.189,99.583s-6.425,4.756,3.388,5.775c12.7,1.306,22.725,1.419,40.082-1.925a17.815,17.815,0,0,0,6.169,3.763c-35.494,10.381-75.045.813-49.638-7.613M65.44,71.72c7.238,8.331-1.9,15.832-1.9,15.832s18.369-9.488,9.931-21.363C65.59,55.113,59.546,49.613,92.265,30.638c0-.006-51.351,12.819-26.825,41.082m38.838,56.432s4.244,3.494-4.669,6.194c-16.95,5.138-70.551,6.681-85.433.206-5.35-2.331,4.688-5.563,7.838-6.238a20.466,20.466,0,0,1,5.175-.581c-5.956-4.194-38.476,8.231-16.519,11.794,59.876,9.706,109.139-4.375,93.608-11.375M41.539,82.564s-27.263,6.475-9.65,8.825c7.431.994,22.257.769,36.063-.388,11.288-.95,22.613-2.981,22.613-2.981A47.542,47.542,0,0,0,83.7,91.689c-27.682,7.281-81.164,3.894-65.764-3.55,13.013-6.288,23.6-5.575,23.6-5.575M90.44,109.9c28.144-14.625,15.131-28.682,6.05-26.782a21.536,21.536,0,0,0-3.219.863,5.131,5.131,0,0,1,2.406-1.856c17.969-6.319,31.788,18.632-5.8,28.513a2.443,2.443,0,0,0,.563-.738M73.471,0S89.059,15.588,58.69,39.563c-24.35,19.232-5.55,30.2-.006,42.726C44.471,69.457,34.039,58.176,41.033,47.67,51.308,32.238,79.765,24.763,73.471,0M44.3,149.527c27.013,1.731,68.495-.956,69.476-13.738,0,0-1.888,4.844-22.325,8.694-23.05,4.338-51.495,3.831-68.357,1.05,0-.006,3.456,2.856,21.207,3.994" transform="translate(2351.85 2172)" fill="url(#linear-gradient)"/>
    <path id="Path_46" data-name="Path 46" d="M232.422,311.625H86.2A79.294,79.294,0,0,1,7,232.422V86.2A79.294,79.294,0,0,1,86.2,7h146.22a79.294,79.294,0,0,1,79.2,79.2v146.22A79.294,79.294,0,0,1,232.422,311.625ZM86.2,19.185A67.1,67.1,0,0,0,19.185,86.2v146.22A67.1,67.1,0,0,0,86.2,299.44h146.22a67.1,67.1,0,0,0,67.017-67.017V86.2a67.1,67.1,0,0,0-67.017-67.017Z" transform="translate(2251 2088)" fill="url(#linear-gradient-2)"/>
  </g>
</svg>
