<svg xmlns="http://www.w3.org/2000/svg" xmlns:xlink="http://www.w3.org/1999/xlink" width="304.625" height="304.625" viewBox="0 0 304.625 304.625">
  <defs>
    <linearGradient id="linear-gradient" x1="0.5" y1="-0.007" x2="0.5" y2="1.017" gradientUnits="objectBoundingBox">
      <stop offset="0" stop-color="#1a6dff"/>
      <stop offset="1" stop-color="#c822ff"/>
    </linearGradient>
    <linearGradient id="linear-gradient-2" x1="0.5" x2="0.5" y2="1" gradientUnits="objectBoundingBox">
      <stop offset="0" stop-color="#8ebeff"/>
      <stop offset="1" stop-color="#d3adff"/>
    </linearGradient>
  </defs>
  <g id="Group_36" data-name="Group 36" transform="translate(-2671 -1029)">
    <path id="Path_3" data-name="Path 3" d="M232.422,311.625H86.2A79.294,79.294,0,0,1,7,232.422V86.2A79.294,79.294,0,0,1,86.2,7h146.22a79.294,79.294,0,0,1,79.2,79.2v146.22A79.294,79.294,0,0,1,232.422,311.625ZM86.2,19.185A67.1,67.1,0,0,0,19.185,86.2v146.22A67.1,67.1,0,0,0,86.2,299.44h146.22a67.1,67.1,0,0,0,67.017-67.017V86.2a67.1,67.1,0,0,0-67.017-67.017Z" transform="translate(2664 1022)" fill="url(#linear-gradient)"/>
    <path id="icons8-amazon-web-services" d="M47.516,9.108c-11.331,0-22.835,4.418-24.751,6.835-.5,1-1.659,9.08,1.09,9.08.916,0,1.337.159,4-1.09,10-3.916,16.333-3.824,17.249-3.824,11.248-1.083,17.744,6.586,16.745,16.5v5.826a71.943,71.943,0,0,0-17.591-2.327C30.431,39.275,17.655,46.567,17.655,62.6c0,17.58,15.691,21.339,21.773,21.089A29.953,29.953,0,0,0,62.926,72.6c4.582,10.248,7.5,9.568,7.583,9.568a3.984,3.984,0,0,0,2.164-.749l4.752-3.336A3.093,3.093,0,0,0,79,75.761c-.083-2.416-4.418-6.165-4.084-14.58V35.193A26.485,26.485,0,0,0,68.264,15.6,28.5,28.5,0,0,0,47.516,9.108Zm161.409,0c-16.663,0-26.237,10.411-25.988,20.992,0,14.5,14.655,19.092,16.322,19.592,14.08,4.416,16,4.576,19.918,7.909a8.545,8.545,0,0,1-2,13c-1.416.833-7.5,4.493-21.252,1.66a47.79,47.79,0,0,1-10.74-3.58c-1-.333-3.336-.918-3.336,2.164v4.084a5.029,5.029,0,0,0,2.913,4.491c8.748,4.416,19.247,4.589,21.5,4.589.333,0,19.491.01,25.906-12.921,1.325-2.666,4.756-12.4-1.66-20.731-5.332-6.249-9.915-6.916-23.579-11.082-1.166-.333-11.246-2.926-11.163-10.008-.5-9.081,11.835-9.572,14.418-9.406,10.415-.167,15.572,3.737,18.4,3.987,1.25,0,1.839-.742,1.839-2.408V17.6a4.054,4.054,0,0,0-.749-2.571C226.34,10.7,213.591,9.108,208.925,9.108ZM82.453,11.191a1.768,1.768,0,0,0-1.416,2,15.305,15.305,0,0,0,.749,3.255l18.665,61.56c.417,2,1.738,4.174,4.654,3.84h6.835c4.166.417,4.75-3.587,4.833-4L129.026,26.52l12.416,51.406c.083.417.669,4.42,4.752,4h6.916c3,.333,4.416-1.841,4.833-3.84,21-67.57,19.572-62.976,19.739-63.643.333-3.5-1.668-3.257-2-3.173h-7.42c-3.749-.417-4.487,3.007-4.654,3.84L149.774,68.52l-12.5-53.407a4.078,4.078,0,0,0-4.752-3.84h-6.411c-3.666-.333-4.583,2.591-4.833,3.84L108.864,67.771,95.537,15.113c-.333-1.666-1.421-4.255-4.67-3.922ZM47.011,49.774A70.106,70.106,0,0,1,61.771,51.6c0,4.166.152,6.5-.765,10.252-1.166,4-6.322,11.257-18.486,11.423A10.441,10.441,0,0,1,31.357,61.848C30.941,51.85,41.263,49.357,47.011,49.774ZM234.62,100.691c-7.777.108-16.956,1.85-23.921,6.737-2.15,1.491-1.773,3.562.618,3.287,7.832-.941,25.264-3.055,28.38.928s-3.455,20.413-6.363,27.761c-.9,2.191,1,3.1,3.01,1.432,13.031-10.914,16.417-33.795,13.75-37.086C248.758,102.1,242.4,100.583,234.62,100.691ZM2.8,109.023c-1.817.25-2.6,2.553-.7,4.377,32.635,30.61,75.758,45.6,123.64,45.6,34.151,0,73.8-11.143,101.167-32.139,4.524-3.491.67-8.722-3.971-6.656a237.824,237.824,0,0,1-94.349,20.064c-44.957,0-88.479-9.386-123.689-30.707A3.243,3.243,0,0,0,2.8,109.023Z" transform="translate(2696.999 1097.004)" fill="url(#linear-gradient-2)"/>
  </g>
</svg>
