<svg xmlns="http://www.w3.org/2000/svg" height="512pt" viewBox="0 0 512 512" width="512pt"><path d="m416 512h-320c-53.023438 0-96-42.976562-96-96v-320c0-53.023438 42.976562-96 96-96h320c53.023438 0 96 42.976562 96 96v320c0 53.023438-42.976562 96-96 96zm0 0" fill="#f5e6fe"></path><path d="m232.015625 362.65625c-.847656 0-1.726563-.113281-2.589844-.320312-5.714843-1.425782-9.203125-7.214844-7.761719-12.929688l48-192c1.425782-5.726562 7.214844-9.230469 12.929688-7.757812 5.710938 1.421874 9.199219 7.214843 7.757812 12.925781l-48 192c-1.214843 4.851562-5.566406 8.082031-10.335937 8.082031zm0 0" fill="#d9a4fc"></path><g fill="#be63f9"><path d="m202.671875 330.65625c-2.734375 0-5.457031-1.039062-7.535156-3.121094l-64-64c-4.160157-4.160156-4.160157-10.910156 0-15.085937l64-64c4.160156-4.160157 10.910156-4.160157 15.085937 0 4.175782 4.160156 4.160156 10.910156 0 15.085937l-56.460937 56.464844 56.460937 56.464844c4.160156 4.160156 4.160156 10.910156 0 15.085937-2.09375 2.066407-4.832031 3.105469-7.550781 3.105469zm0 0"></path><path d="m309.328125 330.65625c-2.734375 0-5.457031-1.039062-7.535156-3.121094-4.160157-4.160156-4.160157-10.910156 0-15.085937l56.464843-56.464844-56.464843-56.464844c-4.160157-4.160156-4.160157-10.910156 0-15.085937 4.160156-4.175782 10.910156-4.160156 15.085937 0l64 64c4.160156 4.160156 4.160156 10.910156 0 15.085937l-64 64c-2.09375 2.097657-4.816406 3.136719-7.550781 3.136719zm0 0"></path></g></svg>