<svg xmlns="http://www.w3.org/2000/svg" height="512pt" viewBox="-39 0 512 512" width="512pt"><path d="m354.707031 153.917969c0-80.863281-65.597656-146.414063-146.511719-146.414063-80.917968 0-146.515624 65.550782-146.515624 146.414063 0 80.867187 65.597656 146.417969 146.515624 146.417969 80.914063 0 146.511719-65.550782 146.511719-146.417969zm0 0" fill="#fdd559"></path><path d="m354.710938 153.921875c0 51.5625-26.679688 96.894531-66.996094 122.984375 14.839844-22.894531 23.449218-50.175781 23.449218-79.476562 0-3.535157-.121093-7.050782-.375-10.523438 3.363282-10.394531 5.164063-21.476562 5.164063-32.984375 0-59.476563-48.242187-107.691406-107.757813-107.691406-11.515624 0-22.613281 1.804687-33.019531 5.152343-3.476562-.253906-6.992187-.375-10.527343-.375-29.320313 0-56.621094 8.617188-79.519532 23.433594 26.101563-40.277344 71.46875-66.9375 123.066406-66.9375 80.917969 0 146.515626 65.554688 146.515626 146.417969zm0 0" fill="#fdc259"></path><path d="m315.957031 153.921875c0 11.507813-1.804687 22.589844-5.167969 32.988281-5.148437-72.484375-63.082031-130.382812-135.609374-135.523437 10.402343-3.351563 21.5-5.15625 33.015624-5.15625 59.515626.003906 107.761719 48.214843 107.761719 107.691406zm0 0" fill="#ff8812"></path><path d="m310.789062 186.910156c-13.921874 43.34375-54.59375 74.703125-102.59375 74.703125-59.515624 0-107.757812-48.214843-107.757812-107.691406 0-47.96875 31.375-88.605469 74.738281-102.535156 72.53125 5.140625 130.464844 63.039062 135.613281 135.523437zm0 0" fill="#fdb659"></path><path d="m217.070312 300.046875c0 7.636719-3.097656 14.554687-8.109374 19.5625-5.003907 5.011719-11.933594 8.109375-19.578126 8.109375h-54.449218c-.9375 0-1.875-.195312-2.742188-.5625l-14.207031-5.964844-4.273437-1.792968 7.765624 39.71875-47.007812 5.425781-21.820312-58.863281c-4.453126-12.589844-2.109376-26.570313 6.199218-37.019532l.316406-.398437c3.636719-4.582031 9.710938-6.464844 15.304688-4.765625l51.515625 28.902344.019531.011718 13.617188 7.636719zm0 0" fill="#fecbaa"></path><path d="m121.476562 359.117188 13.070313 63.285156c.617187 2.988281 2.207031 5.6875 4.53125 7.671875l37.242187 31.851562c1.585938 1.359375 1.5625 3.816407-.046874 5.144531l-9.679688 7.980469c-1.359375 1.121094-3.265625 1.28125-4.792969.40625l-45.382812-25.976562c-4.828125-2.863281-9.25-5.039063-11.453125-9.820313l-30.496094-75.109375zm0 0" fill="#38627c"></path><path d="m121.476562 359.117188.734376 3.25c4.714843 20.875-4.734376 42.382812-23.300782 53.046874l-27.273437 15.660157c-5.957031 3.421875-9.378907 9.996093-8.753907 16.835937l2.925782 32.167969c.066406.761719-.535156 1.421875-1.300782 1.421875h-18.246093c-.605469 0-1.128907-.417969-1.269531-1.007812l-11.359376-48.429688c-1.347656-3.910156-.875-8.222656 1.285157-11.753906l39.550781-55.757813zm0 0" fill="#4f7693"></path><path d="m15.4375 275.132812 16.132812 9.308594c7.578126 4.371094 17.261719 1.777344 21.636719-5.796875l3.679688-6.375c4.378906-7.578125 1.78125-17.273437-5.796875-21.644531l-16.136719-9.3125c-7.574219-4.367188-17.257813-1.773438-21.632813 5.796875l-3.683593 6.378906c-4.378907 7.574219-1.78125 17.269531 5.800781 21.644531zm0 0" fill="#fecbaa"></path><path d="m113.710938 319.398438 7.765624 39.71875-47.007812 5.425781-21.820312-58.863281c-4.453126-12.589844-2.109376-26.570313 6.199218-37.019532l.316406-.398437c3.636719-4.582031 9.710938-6.464844 15.304688-4.765625l51.515625 28.902344.019531.011718-8.019531 28.777344zm0 0" fill="#83d9ff"></path><path d="m94.417969 311.300781 19.292969 8.097657 7.765624 39.71875zm0 0" fill="#43a3f9"></path><path d="m217.070312 300.046875c0 7.636719 3.097657 14.554687 8.113282 19.5625 5.003906 5.011719 11.933594 8.109375 19.578125 8.109375h54.449219c.9375 0 1.875-.195312 2.742187-.5625l14.207031-5.964844 4.273438-1.792968-7.765625 39.71875 47.007812 5.425781 21.816407-58.863281c4.453124-12.589844 2.109374-26.570313-6.195313-37.019532l-.316406-.398437c-3.636719-4.582031-9.710938-6.464844-15.304688-4.765625l-51.515625 28.902344-.019531.011718-13.617187 7.636719zm0 0" fill="#fecbaa"></path><path d="m312.667969 359.117188-13.066407 63.285156c-.617187 2.988281-2.210937 5.6875-4.53125 7.671875l-37.246093 31.851562c-1.585938 1.359375-1.5625 3.816407.046875 5.144531l9.679687 7.980469c1.359375 1.121094 3.265625 1.28125 4.792969.40625l45.382812-25.976562c4.832032-2.863281 9.25-5.039063 11.453126-9.820313l30.496093-75.109375zm0 0" fill="#38627c"></path><path d="m312.667969 359.117188-.734375 3.25c-4.710938 20.875 4.734375 42.382812 23.300781 53.046874l27.273437 15.660157c5.960938 3.421875 9.378907 9.996093 8.757813 16.835937l-2.925781 32.167969c-.070313.761719.53125 1.421875 1.296875 1.421875h18.242187c.605469 0 1.132813-.417969 1.269532-1.007812l11.359374-48.429688c1.351563-3.910156.878907-8.222656-1.28125-11.753906l-39.550781-55.757813zm0 0" fill="#4f7693"></path><path d="m418.707031 275.132812-16.132812 9.308594c-7.578125 4.371094-17.261719 1.777344-21.636719-5.796875l-3.683594-6.375c-4.375-7.578125-1.78125-17.273437 5.800782-21.644531l16.136718-9.3125c7.574219-4.367188 17.257813-1.773438 21.632813 5.796875l3.683593 6.378906c4.378907 7.574219 1.78125 17.269531-5.800781 21.644531zm0 0" fill="#fecbaa"></path><path d="m320.433594 319.398438-7.765625 39.71875 47.007812 5.425781 21.816407-58.863281c4.453124-12.589844 2.109374-26.570313-6.195313-37.019532l-.316406-.398437c-3.636719-4.582031-9.710938-6.464844-15.304688-4.765625l-51.515625 28.902344-.019531.011718 8.019531 28.777344zm0 0" fill="#83d9ff"></path><path d="m339.726562 311.300781-19.292968 8.097657-7.765625 39.71875zm0 0" fill="#43a3f9"></path><path d="m208.195312 269.113281c63.554688 0 115.261719-51.675781 115.261719-115.195312 0-22.492188-6.492187-44.285157-18.769531-63.027344-2.273438-3.464844-6.921875-4.433594-10.386719-2.160156-3.46875 2.269531-4.433593 6.917969-2.164062 10.386719 10.671875 16.289062 16.316406 35.238281 16.316406 54.800781 0 55.246093-44.976563 100.191406-100.257813 100.191406-55.285156 0-100.257812-44.945313-100.257812-100.191406 0-55.242188 44.972656-100.1875 100.257812-100.1875 22.308594 0 43.417969 7.164062 61.054688 20.714843 3.289062 2.527344 7.996094 1.90625 10.523438-1.375 2.523437-3.285156 1.90625-7.996093-1.378907-10.519531-20.28125-15.585937-44.558593-23.824219-70.199219-23.824219-63.558593 0-115.261718 51.675782-115.261718 115.191407 0 63.519531 51.703125 115.195312 115.261718 115.195312zm0 0"></path><path d="m208.195312 229.734375c4.140626 0 7.5-3.359375 7.5-7.503906v-8.707031c15.035157-3.515626 26.269532-17.015626 26.269532-33.101563 0-17.140625-12.753906-31.351563-29.273438-33.667969-.707031-.21875-1.457031-.335937-2.234375-.335937-10.484375 0-19.015625-8.523438-19.015625-19 0-10.476563 8.53125-19 19.015625-19 6.328125 0 12.226563 3.132812 15.777344 8.386719 2.320313 3.429687 6.980469 4.332031 10.414063 2.011718 3.433593-2.320312 4.335937-6.984375 2.015624-10.417968-5.351562-7.914063-13.695312-13.121094-22.96875-14.5625v-8.226563c0-4.144531-3.359374-7.503906-7.5-7.503906-4.144531 0-7.503906 3.359375-7.503906 7.503906v9.242187c-14.011718 4.203126-24.253906 17.210938-24.253906 32.566407 0 17.140625 12.757812 31.351562 29.277344 33.667969.707031.21875 1.453125.335937 2.230468.335937 10.484376 0 19.015626 8.523437 19.015626 19s-8.527344 19-19.015626 19c-6.308593 0-12.191406-3.117187-15.742187-8.34375-2.332031-3.425781-7-4.3125-10.421875-1.984375-3.429688 2.332031-4.316406 6.996094-1.988281 10.421875 4.960937 7.292969 12.472656 12.273437 20.898437 14.113281v8.601563c0 4.144531 3.359375 7.503906 7.503906 7.503906zm0 0"></path><path d="m431.003906 249.734375-3.683594-6.375c-6.433593-11.144531-20.738281-14.972656-31.875-8.542969l-16.136718 9.308594c-4.707032 2.714844-8.242188 6.886719-10.144532 11.902344-3.75-.945313-7.769531-.898438-11.671874.292968-.515626.15625-1.015626.371094-1.484376.632813l-63.445312 35.59375h-17.46875c51.507812-24.929687 87.113281-77.699219 87.113281-138.628906.003907-84.871094-69.085937-153.917969-154.011719-153.917969-84.925781 0-154.015624 69.046875-154.015624 153.917969 0 53.585937 27.542968 100.851562 69.21875 128.425781l-45.257813-25.390625c-.472656-.265625-.972656-.476563-1.484375-.632813-3.90625-1.191406-7.921875-1.242187-11.671875-.292968-1.902344-5.015625-5.4375-9.1875-10.144531-11.902344l-16.136719-9.308594c-11.140625-6.429687-25.441406-2.601562-31.878906 8.542969l-3.683594 6.375c-3.1210938 5.402344-3.949219 11.691406-2.335937 17.71875 1.613281 6.023437 5.480468 11.0625 10.882812 14.175781l16.136719 9.3125c3.664062 2.113282 7.667969 3.117188 11.625 3.117188 1.164062 0 2.320312-.097656 3.464843-.269532.121094 4.824219 1 9.675782 2.667969 14.390626.011719.035156.027344.066406.039063.101562l10.9375 29.535156c1.125 3.023438 3.988281 4.894532 7.039062 4.894532.863282 0 1.742188-.148438 2.601563-.46875 3.886719-1.4375 5.871093-5.753907 4.429687-9.640626l-10.917968-29.480468c-2.414063-6.839844-2.351563-14.101563-.027344-20.699219.003906-.007813.011718-.015625.015625-.023437l5.335937-9.472657c1.597656-2.007812 4.132813-2.921875 6.601563-2.417969l64.3125 36.082032c1.121093.628906 2.386719.957031 3.671875.957031h59.25c3.019531.183594 6.058594.285156 9.121094.289063-3.054688 7.261718-10.238282 12.375-18.605469 12.375h-54.367188l-18.292969-7.683594c-.015624-.007813-.027343-.011719-.042968-.015625-.03125-.015625-.066406-.03125-.101563-.046875l-19.253906-8.085938c-3.820313-1.601562-8.214844.191406-9.820313 4.011719-1.605468 3.820313.191407 8.21875 4.011719 9.824219l15.597657 6.550781 5.441406 27.828125-38.949219 4.496094c-1.078125.125-2.074219.476562-2.953125.996094-.898438.535156-1.703125 1.265624-2.308594 2.121093l-39.546875 55.757813c-.097656.140625-.191406.277344-.28125.421875-3.269531 5.339843-4.03125 11.773437-2.109375 17.71875l11.28125 48.105469c.941406 3.996093 4.46875 6.789062 8.574219 6.789062h18.242187c2.46875 0 4.839844-1.046875 6.503907-2.867188 1.664062-1.824218 2.488281-4.277343 2.265625-6.738281l-2.925782-32.164062c-.355468-3.910157 1.613282-7.695313 5.019532-9.652344l16.75-9.617187 5.890625 14.511718c.042969.109375.089843.21875.140625.328125 2.980468 6.445313 8.324218 9.5625 13.035156 12.3125.464844.269531 46.914062 26.875 46.914062 26.875 1.816407 1.03125 3.8125 1.539063 5.792969 1.539063 2.648438 0 5.285157-.90625 7.476563-2.6875l9.695312-7.996094c2.480469-2.050781 3.914063-5.074219 3.933594-8.292969.023438-3.210937-1.367188-6.25-3.804688-8.324219l-37.238281-31.851562c-1.058593-.90625-1.789062-2.140625-2.0625-3.488281l-18.121093-89.125 5.511718 2.316406c1.800782.753906 3.703125 1.140625 5.652344 1.140625h54.453125c11.226563 0 21.238281-5.292969 27.683594-13.503906 6.449219 8.210937 16.457031 13.503906 27.6875 13.503906h53.363281c2.671875 0 5.273438-.523438 7.742188-1.5625l4.644531-1.949219-5.167969 25.808594-.722656 3.199219c-.273438 1.21875-.496094 2.441406-.691406 3.660156l-11.679688 56.527344c-.269531 1.332031-1.003906 2.566406-2.050781 3.46875l-37.253907 31.863281c-2.4375 2.085937-3.816406 5.125-3.789062 8.335937.027344 3.207032 1.460938 6.226563 3.949219 8.289063l9.703125 8c2.132812 1.742187 4.78125 2.640625 7.449218 2.640625 2 0 4.011719-.503906 5.820313-1.527344 0 0 46.425781-26.59375 46.894531-26.867187 4.714844-2.75 10.0625-5.863281 13.027344-12.316407.046875-.101562.09375-.207031.136719-.3125l5.886719-14.515624 16.753906 9.621093c3.402344 1.953125 5.375 5.742188 5.019531 9.648438l-2.925781 32.167969c-.226563 2.457031.601562 4.914062 2.265625 6.734374 1.664062 1.824219 4.035156 2.867188 6.503906 2.867188h18.242187c4.105469 0 7.632813-2.789062 8.574219-6.792969l11.28125-48.101562c1.917969-5.941407 1.15625-12.375-2.109375-17.714844-2.167968-3.53125-6.78125-4.644531-10.316406-2.480469-3.535156 2.164063-4.644531 6.78125-2.480469 10.316406.996094 1.625 1.210938 3.589844.589844 5.390626-.082031.242187-.152344.484374-.210937.730468l-10.238282 43.648438h-6.542968l2.308593-25.40625c.886719-9.726563-4.015625-19.15625-12.488281-24.023438l-27.277344-15.660156c-14.816406-8.507812-22.707031-24.890625-20.332031-41.546875l34.804687 4.019531 2.050782.238282 20.625 29.074218c2.394531 3.378906 7.078125 4.179688 10.457031 1.78125 3.378906-2.398437 4.175781-7.082031 1.78125-10.460937l-20.265625-28.570313 20.433594-55.160156c.011718-.035156.023437-.066406.039062-.101562 1.667969-4.714844 2.546875-9.566407 2.664063-14.390626 1.148437.171876 2.304687.269532 3.46875.269532 3.953125 0 7.960937-1.003906 11.625-3.121094l16.136719-9.308594c5.402343-3.117187 9.269531-8.152344 10.882812-14.175781 1.609375-6.027344.78125-12.316406-2.339844-17.71875zm-395.683594 28.210937-16.136718-9.3125c-1.929688-1.113281-3.308594-2.910156-3.886719-5.0625-.574219-2.152343-.28125-4.402343.835937-6.332031l3.683594-6.375c2.300782-3.980469 7.410156-5.347656 11.386719-3.050781l16.136719 9.308594c1.929687 1.113281 3.3125 2.914062 3.886718 5.066406.363282 1.34375.378907 2.730469.070313 4.050781-2.085937 2.972657-3.777344 6.136719-5.09375 9.421875-2.480469 3.378906-7.167969 4.425782-10.882813 2.285156zm32.578126 146.621094c-8.472657 4.867188-13.375 14.296875-12.488282 24.023438l2.308594 25.40625h-6.542969l-10.238281-43.648438c-.058594-.246094-.128906-.488281-.210938-.730468-.597656-1.734376-.417968-3.625.484376-5.214844l37.441406-52.785156 36.855468-4.257813c2.375 16.652344-5.515624 33.035156-20.332031 41.546875zm66.296874 11.203125 33.5 28.65625-4.128906 3.40625-43.378906-24.835937c-.484375-.285156-.964844-.566406-1.441406-.84375-3.738282-2.179688-5.933594-3.53125-6.914063-5.519532l-6.613281-16.296874c7.292969-4.710938 13.21875-10.875 17.535156-17.949219l4.441406 21.515625c.9375 4.582031 3.417969 8.796875 7 11.867187zm-65.011718-281.851562c0-76.597657 62.359375-138.914063 139.011718-138.914063 76.648438 0 139.011719 62.316406 139.011719 138.914063 0 73.625-57.617187 134.046875-130.152343 138.628906h-17.71875c-72.539063-4.582031-130.152344-65.003906-130.152344-138.628906zm259.742187 266.417969-6.617187 16.304687c-.96875 1.976563-3.160156 3.324219-6.894532 5.5-.480468.28125-.96875.566406-1.460937.855469l-43.367187 24.832031-4.132813-3.410156 33.507813-28.65625c3.570312-3.0625 6.050781-7.277344 6.984374-11.84375l4.449219-21.53125c4.316407 7.070312 10.238281 13.238281 17.53125 17.949219zm45.511719-117.214844-19.746094 53.296875-33.066406-3.820313 5.589844-27.910156 15.410156-6.472656c3.820312-1.605469 5.617188-6.003906 4.011719-9.820313-1.605469-3.820312-6.003907-5.617187-9.820313-4.015625l-36.761718 15.445313c-.617188.257812-1.265626.390625-1.933594.390625h-53.363282c-8.476562 0-15.75-5.25-18.734374-12.664063h68.5c1.285156 0 2.550781-.332031 3.671874-.960937l64.3125-36.078125c2.472657-.503907 5.007813.410156 6.605469 2.417969 0 0 .320313.40625.324219.410156.382812.914062 5.007812 9.058594 5.007812 9.058594.003907.007812.007813.015624.011719.023437 2.332031 6.597656 2.390625 13.859375-.019531 20.699219zm44.410156-39.550782c-.578125 2.152344-1.957031 3.949219-3.886718 5.0625l-16.136719 9.3125c-3.710938 2.136719-8.402344 1.09375-10.882813-2.285156-1.316406-3.285156-3.003906-6.449218-5.089844-9.417968-.3125-1.320313-.292968-2.707032.066407-4.054688.578125-2.152344 1.957031-3.953125 3.890625-5.066406l16.136718-9.308594c1.308594-.757812 2.738282-1.113281 4.148438-1.113281 2.886719 0 5.691406 1.492187 7.238281 4.164062l3.683594 6.375c1.113281 1.929688 1.410156 4.179688.832031 6.332031zm0 0"></path><path d="m398.652344 496.996094h-30.3125c-4.144532 0-7.503906 3.359375-7.503906 7.5 0 4.144531 3.359374 7.503906 7.503906 7.503906h30.3125c4.144531 0 7.5-3.359375 7.5-7.503906 0-4.140625-3.355469-7.5-7.5-7.5zm0 0"></path><path d="m266.25 496.640625-24.421875-21.355469c-3.121094-2.730468-7.859375-2.414062-10.585937.707032-2.726563 3.117187-2.410157 7.859374.707031 10.585937l24.421875 21.355469c1.421875 1.246094 3.183594 1.855468 4.9375 1.855468 2.085937 0 4.167968-.867187 5.648437-2.5625 2.726563-3.121093 2.410157-7.859374-.707031-10.585937zm0 0"></path><path d="m65.808594 496.996094h-30.3125c-4.144532 0-7.503906 3.359375-7.503906 7.5 0 4.144531 3.359374 7.503906 7.503906 7.503906h30.3125c4.140625 0 7.5-3.359375 7.5-7.503906 0-4.140625-3.359375-7.5-7.5-7.5zm0 0"></path><path d="m192.320312 475.285156-24.421874 21.355469c-3.121094 2.726563-3.4375 7.464844-.710938 10.585937 1.484375 1.695313 3.5625 2.5625 5.652344 2.5625 1.75 0 3.511718-.609374 4.933594-1.855468l24.421874-21.355469c3.117188-2.726563 3.4375-7.46875.707032-10.585937-2.722656-3.117188-7.464844-3.4375-10.582032-.707032zm0 0"></path></svg>