<svg xmlns="http://www.w3.org/2000/svg" xmlns:xlink="http://www.w3.org/1999/xlink" width="304.625" height="304.625" viewBox="0 0 304.625 304.625">
  <defs>
    <linearGradient id="linear-gradient" x1="0.5" x2="0.5" y2="1" gradientUnits="objectBoundingBox">
      <stop offset="0" stop-color="#8ebeff"/>
      <stop offset="1" stop-color="#d3adff"/>
    </linearGradient>
    <linearGradient id="linear-gradient-2" x1="0.5" y1="-0.007" x2="0.5" y2="1.017" gradientUnits="objectBoundingBox">
      <stop offset="0" stop-color="#1a6dff"/>
      <stop offset="1" stop-color="#c822ff"/>
    </linearGradient>
  </defs>
  <g id="Group_23" data-name="Group 23" transform="translate(-1250 -2415)">
    <path id="iconfinder_firebase_4691533" d="M6.909,97.957,21.691,2.88A3.388,3.388,0,0,1,28.034,1.8l15.894,29.82Zm104.972,23.069L97.805,33.53a3.394,3.394,0,0,0-5.738-1.844L3.315,121.027,52.423,148.7a10.125,10.125,0,0,0,9.919,0l49.539-27.676ZM71.973,44.675,60.6,22.911a3.388,3.388,0,0,0-6,0L4.659,112.4Z" transform="translate(1344.685 2492)" fill="url(#linear-gradient)"/>
    <path id="Path_57" data-name="Path 57" d="M232.422,311.625H86.2A79.294,79.294,0,0,1,7,232.422V86.2A79.294,79.294,0,0,1,86.2,7h146.22a79.294,79.294,0,0,1,79.2,79.2v146.22A79.294,79.294,0,0,1,232.422,311.625ZM86.2,19.185A67.1,67.1,0,0,0,19.185,86.2v146.22A67.1,67.1,0,0,0,86.2,299.44h146.22a67.1,67.1,0,0,0,67.017-67.017V86.2a67.1,67.1,0,0,0-67.017-67.017Z" transform="translate(1243 2408)" fill="url(#linear-gradient-2)"/>
  </g>
</svg>
