<svg xmlns="http://www.w3.org/2000/svg" xmlns:xlink="http://www.w3.org/1999/xlink" id="Layer_1" x="0px" y="0px" viewBox="0 0 511.968 511.968" style="enable-background:new 0 0 511.968 511.968;" xml:space="preserve" width="512" height="512">
<g id="XMLID_929_">
	<g id="XMLID_1819_">
		<g id="XMLID_2144_">
			<path id="XMLID_1625_" style="fill:#D0EC7E;" d="M148.172,63.956c-31.78,18.384-53.163,52.743-53.163,92.098     c0,39.355,21.383,73.713,53.163,92.098c31.78-18.385,53.163-52.743,53.163-92.098C201.335,116.699,179.952,82.341,148.172,63.956     z"></path>
			<path id="XMLID_1624_" style="fill:#C0E549;" d="M282.027,260.22c-35.472-9.472-74.887-0.297-102.715,27.531     c-27.828,27.828-37.003,67.243-27.531,102.715c35.472,9.472,74.887,0.297,102.715-27.531     C282.324,335.107,291.499,295.691,282.027,260.22z"></path>
			<path id="XMLID_1623_" style="fill:#C0E549;" d="M13.609,260.22c35.472-9.472,74.887-0.297,102.715,27.531     c27.828,27.828,37.003,67.243,27.531,102.715c-35.472,9.472-74.887,0.297-102.715-27.531     C13.312,335.107,4.136,295.691,13.609,260.22z"></path>
		</g>
		<g id="XMLID_2057_">
			<circle id="XMLID_2065_" style="fill:#93E7F8;" cx="384" cy="127.956" r="118"></circle>
		</g>
	</g>
	<g id="XMLID_792_">
		<g id="XMLID_793_">
			<g id="XMLID_794_">
				<path id="XMLID_928_" d="M329,491.956c-2.63,0-5.21,1.069-7.07,2.93s-2.93,4.44-2.93,7.07s1.069,5.21,2.93,7.069      c1.86,1.86,4.44,2.931,7.07,2.931s5.21-1.07,7.069-2.931c1.86-1.859,2.931-4.439,2.931-7.069s-1.07-5.21-2.931-7.07      C334.21,493.026,331.63,491.956,329,491.956z"></path>
				<path id="XMLID_896_" d="M288.999,491.956H158.172V402.13c6.959,1.277,13.968,1.918,20.947,1.918      c30.515,0,60.396-11.991,82.447-34.042c29.271-29.271,40.813-72.327,30.121-112.366c-0.923-3.457-3.623-6.158-7.081-7.081      c-40.035-10.693-83.093,0.85-112.366,30.121c-5.278,5.278-9.97,11.01-14.068,17.086V253.73      c32.929-21.348,53.163-58.24,53.163-97.676c0-41.396-22.284-80.003-58.155-100.755c-3.098-1.791-6.918-1.791-10.016,0      c-35.871,20.752-58.155,59.358-58.155,100.755c0,39.436,20.234,76.328,53.163,97.676v45.089      c-4.262-6.469-9.195-12.556-14.777-18.139c-29.271-29.27-72.324-40.813-112.366-30.121c-3.458,0.923-6.158,3.624-7.081,7.081      c-10.691,40.039,0.851,83.095,30.121,112.366c22.054,22.053,51.931,34.042,82.447,34.042c7.215,0,14.465-0.681,21.656-2.047      v89.955H10c-5.522,0-10,4.478-10,10s4.478,10,10,10h278.999c5.522,0,10-4.478,10-10S294.521,491.956,288.999,491.956z       M186.383,294.823c22.848-22.849,55.836-32.649,87.327-26.286c6.365,31.486-3.438,64.479-26.286,87.327      c-19.844,19.844-47.341,29.839-74.855,27.957l59.867-59.867c3.905-3.905,3.905-10.237,0-14.143      c-3.906-3.904-10.236-3.904-14.143,0l-59.867,59.867C156.543,342.162,166.539,314.666,186.383,294.823z M105.009,156.055      c0-32.312,16.397-62.573,43.163-80.337c26.766,17.764,43.163,48.025,43.163,80.337c0,28.063-12.375,54.575-33.163,72.7v-77.286      c0-5.522-4.478-10-10-10s-10,4.478-10,10v77.286C117.384,210.63,105.009,184.118,105.009,156.055z M48.211,355.864      c-22.848-22.848-32.65-55.84-26.285-87.327c31.483-6.368,64.479,3.437,87.326,26.286c19.845,19.844,29.841,47.341,27.958,74.856      l-61.839-61.839c-3.905-3.903-10.235-3.904-14.143,0c-3.905,3.905-3.905,10.237,0,14.143l61.838,61.839      C95.548,385.705,68.054,375.708,48.211,355.864z"></path>
				<path id="XMLID_814_" d="M499.803,73.349c-2.355-4.996-8.313-7.135-13.31-4.78c-4.995,2.355-7.136,8.314-4.78,13.31      c19.377,41.096,10.799,90.303-21.346,122.445c-42.109,42.109-110.625,42.109-152.734,0s-42.109-110.625,0-152.734      c31.932-31.934,80.898-40.624,121.845-21.626c5.013,2.325,10.956,0.146,13.28-4.862c2.324-5.01,0.147-10.956-4.862-13.28      C389.364-10.695,331.334-0.396,293.49,37.447c-49.907,49.907-49.907,131.112,0,181.02c24.957,24.956,57.728,37.434,90.51,37.43      c32.774-0.003,65.559-12.479,90.51-37.43C512.604,180.373,522.768,122.055,499.803,73.349z"></path>
				<path id="XMLID_803_" d="M460.562,138.052h7.264c5.522,0,10-4.478,10-10c0-5.522-4.478-10-10-10h-7.264c-5.522,0-10,4.478-10,10      C450.562,133.574,455.039,138.052,460.562,138.052z"></path>
				<path id="XMLID_801_" d="M300.175,117.861c-5.522,0-10,4.478-10,10c0,5.522,4.478,10,10,10h7.264c5.522,0,10-4.478,10-10      c0-5.522-4.478-10-10-10H300.175z"></path>
				<path id="XMLID_800_" d="M383.904,194.518c-5.522,0-10,4.478-10,10v7.264c0,5.522,4.478,10,10,10s10-4.478,10-10v-7.264      C393.904,198.995,389.427,194.518,383.904,194.518z"></path>
				<path id="XMLID_796_" d="M426.071,85.885c-3.906-3.904-10.236-3.904-14.143,0l-17.898,17.898l0.065-52.045      c0.007-5.523-4.465-10.006-9.987-10.013c-0.005,0-0.009,0-0.013,0c-5.518,0-9.993,4.469-10,9.987L374,127.944      c-0.005,4.047,2.43,7.698,6.167,9.249c1.239,0.515,2.54,0.764,3.831,0.764c2.602,0,5.16-1.016,7.073-2.929l35-35      C429.977,96.122,429.977,89.79,426.071,85.885z"></path>
				<path id="XMLID_795_" d="M467.439,54.516c2.63,0,5.21-1.069,7.07-2.93s2.93-4.44,2.93-7.07s-1.069-5.21-2.93-7.069      c-1.86-1.86-4.44-2.931-7.07-2.931s-5.21,1.07-7.069,2.931c-1.86,1.859-2.931,4.439-2.931,7.069s1.07,5.21,2.931,7.07      C462.229,53.447,464.81,54.516,467.439,54.516z"></path>
			</g>
		</g>
	</g>
</g>















</svg>