<svg xmlns="http://www.w3.org/2000/svg" height="512pt" viewBox="0 -24 512.00034 512" width="512pt"><path d="m205.128906 212.511719-.328125-.417969c-3.773437-4.753906-10.0625-6.714844-15.863281-4.945312l-117.785156 70.542968c2.699218 12.238282 16.128906 18.71875 27.375 13.210938l49.648437-24.300782-7.960937 39.8125 48.722656 5.640626 22.609375-61.117188c4.617187-13.0625 2.195313-27.582031-6.417969-38.425781zm0 0" fill="#83d9ff"></path><path d="m197.386719 220.222656c4.816406-1.46875 9.964843-.359375 13.734375 2.777344-1.441406-3.730469-3.4375-7.273438-5.992188-10.488281l-.328125-.417969c-3.773437-4.753906-10.0625-6.714844-15.863281-4.945312l-117.785156 70.542968c1.238281 5.613282 4.738281 10.011719 9.242187 12.597656zm0 0" fill="#43a3f9"></path><path d="m140.210938 306.414062-13.542969 65.699219c-.640625 3.101563-2.292969 5.902344-4.695313 7.964844l-38.605468 33.066406c-1.644532 1.40625-1.621094 3.957031.046874 5.335938l10.035157 8.285156c1.40625 1.164063 3.386719 1.332031 4.96875.421875l47.035156-26.964844c5.007813-2.972656 9.589844-5.230468 11.875-10.199218l31.609375-77.96875zm0 0" fill="#38627c"></path><path d="m140.210938 306.414062-.757813 3.375c-4.886719 21.667969 4.90625 43.996094 24.148437 55.066407l28.269532 16.257812c6.175781 3.554688 9.722656 10.378907 9.078125 17.480469l-3.035157 33.390625c-.070312.792969.554688 1.476563 1.347657 1.476563h18.910156c.628906 0 1.171875-.433594 1.316406-1.042969l11.773438-50.277344c1.398437-4.0625.910156-8.539063-1.328125-12.203125l-40.996094-57.882812zm0 0" fill="#4f7693"></path><path d="m250.136719 219.21875-16.710938 9.660156c-7.863281 4.542969-17.921875 1.847656-22.457031-6.019531l-3.824219-6.628906c-4.53125-7.855469-1.84375-17.898438 6.011719-22.4375l16.710938-9.65625c7.863281-4.546875 17.917968-1.851563 22.457031 6.015625l3.824219 6.628906c4.53125 7.859375 1.839843 17.902344-6.011719 22.4375zm0 0" fill="#fecbaa"></path><path d="m369.503906 98.984375c-15.496094 9.28125-22.808594 27.839844-17.8125 45.210937l14.773438 51.398438c1.730468 6.027344-.273438 12.507812-5.105469 16.5l-.332031.414062c-8.609375 10.847657-11.035156 25.367188-6.414063 38.425782l22.609375 61.117187 48.722656-5.636719zm0 0" fill="#69d998"></path><path d="m369.503906 98.984375c-7.128906 4.269531-12.519531 10.507813-15.785156 17.6875 5.945312 21.847656 31.234375 114.785156 44.078125 161.988281 3.972656 14.605469-5.976563 29.320313-21 31.058594l-.421875.046875c.539062 1.457031.847656 2.285156.847656 2.285156l48.722656-5.636719zm0 0" fill="#3dc5a1"></path><path d="m425.945312 306.414062 13.546876 65.699219c.640624 3.101563 2.292968 5.902344 4.695312 7.964844l38.605469 33.066406c1.640625 1.40625 1.617187 3.957031-.050781 5.335938l-10.03125 8.285156c-1.410157 1.164063-3.386719 1.332031-4.96875.421875l-47.039063-26.964844c-5.007813-2.972656-9.585937-5.230468-11.871094-10.199218l-31.609375-77.96875zm0 0" fill="#38627c"></path><path d="m425.945312 306.414062.761719 3.375c4.886719 21.667969-4.90625 43.996094-24.152343 55.066407l-28.269532 16.257812c-6.175781 3.554688-9.71875 10.378907-9.074218 17.480469l3.03125 33.390625c.074218.792969-.550782 1.476563-1.347657 1.476563h-18.90625c-.628906 0-1.175781-.433594-1.316406-1.042969l-11.777344-50.277344c-1.394531-4.0625-.90625-8.539063 1.332031-12.203125l40.992188-57.882812zm0 0" fill="#4f7693"></path><path d="m316.023438 219.21875 16.710937 9.660156c7.863281 4.542969 17.917969 1.847656 22.457031-6.019531l3.824219-6.628906c4.53125-7.855469 1.839844-17.898438-6.011719-22.4375l-16.714844-9.65625c-7.859374-4.546875-17.917968-1.851563-22.453124 6.015625l-3.824219 6.628906c-4.535157 7.859375-1.84375 17.902344 6.011719 22.4375zm0 0" fill="#fecbaa"></path><path d="m387.347656 88.289062-96.625 57.890626-34.738281 20.8125-197.441406 118.296874c-6.886719 4.121094-15.972657 1.636719-20.269531-5.550781l-28.542969-47.726562c-4.296875-7.1875-2.195313-16.375 4.691406-20.507813l328.804687-196.988281 10.824219 18.097656 8.132813 13.609375zm0 0" fill="#ff84a7"></path><path d="m49.386719 190.558594 44.125 73.78125-34.964844 20.949218c-6.890625 4.125-15.96875 1.640626-20.269531-5.550781l-28.546875-47.730469c-4.296875-7.1875-2.195313-16.375 4.691406-20.503906zm0 0" fill="#fedfc5"></path><path d="m434.875 14.335938-47.53125 73.957031-44.125-73.78125 87.578125-6.988281c3.570313-.285157 6.011719 3.800781 4.078125 6.8125zm0 0" fill="#fedfc5"></path><path d="m434.875 14.335938-21.347656 33.214843-22.0625-36.890625 39.332031-3.136718c3.570313-.285157 6.011719 3.800781 4.078125 6.8125zm0 0" fill="#4f7693"></path><path d="m119.78125 248.601562-26.269531 15.738282-44.125-73.78125 26.269531-15.738282zm0 0" fill="#aa6344"></path><path d="m229.332031 449.832031h-31.417969c-4.144531 0-7.503906 3.359375-7.503906 7.503907 0 4.148437 3.359375 7.507812 7.503906 7.507812h31.417969c4.148438 0 7.507813-3.359375 7.507813-7.507812 0-4.144532-3.359375-7.503907-7.507813-7.503907zm0 0"></path><path d="m91.925781 449.394531-25.316406-22.171875c-3.117187-2.726562-7.859375-2.414062-10.589844.703125-2.734375 3.117188-2.417969 7.859375.699219 10.59375l25.3125 22.167969c1.425781 1.246094 3.191406 1.859375 4.945312 1.859375 2.085938 0 4.164063-.867187 5.648438-2.5625 2.730469-3.117187 2.417969-7.859375-.699219-10.589844zm0 0"></path><path d="m487.515625 424.273438c2.507813-2.066407 3.964844-5.117188 3.996094-8.371094.035156-3.253906-1.359375-6.335938-3.835938-8.460938l-38.609375-33.074218c-1.132812-.96875-1.917968-2.300782-2.21875-3.773438l-19.910156-89.121094c-1.089844-4.003906-5.21875-6.359375-9.210938-5.273437-4.003906 1.085937-6.363281 5.210937-5.273437 9.210937l3.957031 14.550782-9.839844 1.136718-3.65625.425782-20.699218 2.394531-20.542969-55.535157c-2.527344-7.179687-2.460937-14.800781-.011719-21.71875.007813-.019531.019532-.035156.03125-.054687l3.824219-6.628906c.035156-.058594.0625-.117188.097656-.175781l4.394531 15.289062c1.144532 3.984375 5.304688 6.285156 9.285157 5.140625 3.984375-1.144531 6.285156-5.304687 5.140625-9.289063l-25.53125-88.824218c-3.050782-10.613282-.425782-21.796875 6.425781-29.886719l38.707031 142.242187c.90625 3.34375 3.933594 5.539063 7.234375 5.539063.65625 0 1.316407-.085937 1.976563-.265625 4-1.089844 6.359375-5.214844 5.273437-9.214844l-40.28125-148.035156 12.960938-7.765625c.128906-.078125.246093-.164063.363281-.246094.070312-.046875.140625-.089843.207031-.136719.238281-.171874.464844-.355468.675781-.550781.003907-.003906.007813-.011719.011719-.015625.210938-.195312.402344-.402344.585938-.617187.042969-.050781.085937-.101563.125-.152344.148437-.183594.289062-.371094.414062-.5625.023438-.035156.054688-.066406.078125-.101563l26.179688-40.738281s0-.003906.003906-.003906l21.34375-33.214844c2.449219-3.8125 2.507812-8.625.148438-12.5625-2.355469-3.933593-6.613282-6.15625-11.136719-5.7929685l-39.332031 3.1406255h-.003907l-48.242187 3.847656c-.054688.003906-.105469.019531-.160156.023437-.214844.023438-.421876.050781-.632813.09375-.089844.015625-.179687.03125-.269531.050781-.234375.054688-.46875.117188-.699219.195313-.042969.015625-.089844.027344-.132813.039063-.269531.097656-.53125.207031-.789062.335937-.074219.035156-.144531.078125-.21875.113281-.121094.0625-.242188.121094-.359375.191406l-328.796875 196.996094c-10.429688 6.25-13.691406 20.0625-7.273438 30.796875l28.542969 47.730469c3.082031 5.148438 7.917969 8.839844 13.625 10.402344 1.953125.535156 3.929688.800781 5.886719.800781 3.875 0 7.667969-1.039063 11.058594-3.070313l5.355468-3.207031c2.621094 3.902344 6.246094 7.085938 10.625 9.199219 7.460938 3.597656 16.003907 3.570312 23.445313-.070312l36.007813-17.628907-18.527344 90.59375c-.296875 1.453125-1.082032 2.789063-2.21875 3.757813l-38.617188 33.082031c-2.464844 2.117187-3.859375 5.199219-3.828125 8.453125.035157 3.253906 1.492188 6.304688 3.992188 8.363281l10.03125 8.289063c2.160156 1.785156 4.859375 2.703125 7.574219 2.703125 2.027343 0 4.070312-.511719 5.90625-1.554688l47.039062-26.972656c.03125-.019531.0625-.035156.097656-.054687.496094-.296876.988282-.582032 1.476563-.867188 4.851562-2.832031 10.347656-6.042969 13.386719-12.65625.046874-.105469.09375-.210938.136718-.316406l6.21875-15.351563 17.625 10.136719c3.625 2.082031 5.722656 6.125 5.34375 10.292969l-3.035156 33.386719c-.222656 2.476562.605469 4.945312 2.28125 6.78125 1.675781 1.832031 4.058594 2.886718 6.542969 2.886718h18.90625c4.132812 0 7.683593-2.8125 8.628906-6.839844l11.695313-49.945312c1.964843-6.089844 1.1875-12.6875-2.15625-18.160156-.089844-.144532-.183594-.285156-.28125-.425782l-38.707032-54.652343 21.238282-57.40625c.011718-.035157.023437-.070313.035156-.105469 1.757812-4.964844 2.660156-10.082031 2.75-15.164062 1.289062.210937 2.582031.328124 3.871094.328124 4.148437 0 8.246093-1.089843 11.9375-3.222656l16.714843-9.65625c11.417969-6.601562 15.347657-21.265625 8.757813-32.691406l-3.824219-6.628906c-1.863281-3.226563-4.40625-5.898438-7.417969-7.914063l8.433594-5.050781c3.558594-2.132812 4.710938-6.742188 2.582031-10.296875-2.128906-3.558594-6.742187-4.710937-10.296875-2.582031l-66.808594 40.027344c-.078124.042968-.164062.078124-.242187.125l-62.722656 37.566406-6.988281-11.683594 167.578124-100.40625c3.558594-2.128906 4.714844-6.738281 2.582032-10.296875-2.128906-3.554687-6.742188-4.710937-10.296875-2.578125l-167.570313 100.394531-21.710937-36.304687 254.683593-152.589844 5.390626 9.011719 1.800781 3.011719-219.4375 131.472656c-3.554688 2.132812-4.710938 6.742187-2.582031 10.296875 1.40625 2.347656 3.894531 3.648437 6.445312 3.648437 1.316406 0 2.644531-.34375 3.851562-1.066406l219.429688-131.464844 21.519531 35.988282-11.40625 6.832031v.003906l-83.867187 50.246094c-3.554688 2.128906-4.710938 6.742187-2.582032 10.296875 2.132813 3.554687 6.742188 4.710937 10.296876 2.582031l54.214843-32.484375c-1.617187 7.464844-1.445312 15.375.769531 23.082031l11.695313 40.683594-16.125-9.316406c-5.539063-3.203125-11.992187-4.050781-18.175781-2.398438-6.179688 1.65625-11.339844 5.621094-14.539063 11.164063l-3.824219 6.628906c-6.589843 11.425781-2.660156 26.085938 8.757813 32.6875l16.714844 9.660156c3.691406 2.132813 7.785156 3.21875 11.9375 3.21875 1.289062 0 2.582031-.117187 3.871093-.328125.089844 5.082031.992188 10.199219 2.75 15.167969.011719.035156.023438.066406.035157.101562l21.234375 57.40625-38.703125 54.65625c-.097657.136719-.191407.277344-.277344.421876-3.347656 5.472656-4.128906 12.070312-2.160156 18.160156l11.695312 49.949218c.945313 4.027344 4.492188 6.835938 8.628907 6.835938h18.90625c2.484374 0 4.867187-1.050781 6.542968-2.886719 1.675782-1.835937 2.503906-4.304687 2.28125-6.777343l-3.035156-33.390626c-.378906-4.167968 1.71875-8.207031 5.34375-10.292968l17.625-10.136719 6.21875 15.355469c.042969.101562.089844.207031.136719.3125 3.039062 6.613281 8.535156 9.824218 13.386719 12.65625.484374.285156.980468.574218 1.476562.867187.03125.019531.066406.039063.097656.058594l47.066406 26.984375c1.820313 1.035156 3.851563 1.542969 5.871094 1.542969 2.714844 0 5.414063-.917969 7.578125-2.703125zm-62.3125-408.773438-11.445313 17.8125-9.644531-16.128906zm-37.789063 3.015625 17.28125 28.894531-17.121093 26.644532-31.707031-53.019532zm-337.992187 261.003906c-1.953125-.535156-3.621094-1.824219-4.703125-3.632812l-28.546875-47.730469c-2.171875-3.632812-1.226563-8.214844 2.109375-10.210938l28.519531-17.089843 6.882813 11.511719 29.519531 49.359374-15.90625 9.527344c-.136719.082032-.253906.183594-.382813.273438l-12.222656 7.324218c-1.5625.933594-3.433594 1.171876-5.269531.667969zm101.027344 107.492188c-1.039063 2.128906-3.335938 3.546875-7.253907 5.835937-.503906.289063-1.007812.585938-1.519531.890625l-45.113281 25.867188-4.683594-3.871094 34.972656-29.960937c3.660157-3.128907 6.203126-7.449219 7.164063-12.148438l4.746094-23.023438c4.519531 7.617188 10.824219 14.242188 18.636719 19.253907zm73.714843-7.3125c-.082031.242187-.152343.484375-.210937.730469l-10.660156 45.527343h-7.292969l2.425781-26.683593c.90625-9.988282-4.121093-19.667969-12.808593-24.664063l-28.273438-16.261719c-15.523438-8.929687-23.757812-26.15625-21.175781-43.640625l.007812-.046875 12.675781 1.46875 25.898438 3 38.882812 54.902344c.984376 1.726562 1.179688 3.78125.53125 5.667969zm-19.679687-131.316407-20.542969 55.535157-26.570312-3.074219-8.199219-.949219 5.632813-28.183593 16.746093-8.195313c3.722657-1.824219 5.265625-6.316406 3.441407-10.042969-1.820313-3.722656-6.316407-5.265625-10.042969-3.441406l-19.960938 9.773438c-.074219.035156-.144531.070312-.222656.109374l-49.539063 24.25c-3.277343 1.601563-7.039062 1.613282-10.324218.03125-1.683594-.8125-3.117188-1.988281-4.222656-3.417968l111.226562-66.636719c2.632812-.503906 5.316406.480469 7.015625 2.621094l.328125.414062c.011719.011719.019531.027344.03125.039063.390625.9375.839844 1.863281 1.359375 2.765625l3.824219 6.628906c.011718.023437.023437.039063.035156.058594 2.445312 6.917969 2.511719 14.539062-.015625 21.714843zm41.894531-35.660156-16.710937 9.65625c-2.066407 1.195313-4.472657 1.511719-6.777344.894532-1.992187-.535157-3.699219-1.714844-4.894531-3.359376-1.363282-3.414062-3.121094-6.703124-5.289063-9.789062-.90625-3.746094.699219-7.808594 4.203125-9.832031l16.714844-9.660157c1.375-.792968 2.902344-1.199218 4.449219-1.199218.777343 0 1.558593.101562 2.324219.308594 2.304687.617187 4.230468 2.09375 5.421874 4.160156l3.824219 6.628906c2.460938 4.261719.996094 9.730469-3.265625 12.191406zm-150.296875 41.289063-18.671875-31.222657-17.730468-29.648437 13.390624-8.023437 25.5625 42.746093 10.84375 18.125zm247.183594-30.738281c-2.300781.617187-4.707031.300781-6.773437-.894532l-16.714844-9.660156c-4.257813-2.460938-5.722656-7.925781-3.265625-12.1875l3.824219-6.628906c1.191406-2.066406 3.117187-3.546875 5.421874-4.164063 2.304688-.617187 4.710938-.296875 6.777344.894531l16.710938 9.660157c3.503906 2.023437 5.113281 6.085937 4.203125 9.832031-2.167969 3.085938-3.921875 6.371094-5.285157 9.785156-1.195312 1.648438-2.902343 2.828125-4.898437 3.363282zm27.277344 151.332031c-8.6875 4.996093-13.714844 14.679687-12.808594 24.667969l2.425781 26.683593h-7.292968l-10.660157-45.527343c-.058593-.246094-.128906-.488282-.210937-.730469-.648438-1.886719-.453125-3.941407.53125-5.667969l38.882812-54.902344 26.09375-3.023437 12.480469-1.445313.007813.046875c2.582031 17.484375-5.652344 34.710938-21.175782 43.640625zm99.050781 45-45.109375-25.867188c-.511719-.304687-1.019531-.601562-1.519531-.890625-3.917969-2.289062-6.214844-3.707031-7.253906-5.835937l-6.949219-17.15625c7.8125-5.011719 14.117187-11.636719 18.632812-19.253907l4.746094 23.007813c.960937 4.714844 3.503906 9.035156 7.160156 12.160156l34.980469 29.964844zm0 0"></path><path d="m368.242188 449.832031h-31.417969c-4.144531 0-7.503907 3.359375-7.503907 7.503907 0 4.148437 3.359376 7.507812 7.503907 7.507812h31.417969c4.148437 0 7.507812-3.359375 7.507812-7.507812 0-4.144532-3.359375-7.503907-7.507812-7.503907zm0 0"></path><path d="m510.140625 427.925781c-2.730469-3.117187-7.472656-3.429687-10.59375-.703125l-25.3125 22.171875c-3.117187 2.730469-3.433594 7.472657-.703125 10.59375 1.484375 1.691407 3.5625 2.558594 5.652344 2.558594 1.753906 0 3.519531-.609375 4.941406-1.859375l25.3125-22.167969c3.121094-2.730469 3.433594-7.476562.703125-10.59375zm0 0"></path></svg>