<svg xmlns="http://www.w3.org/2000/svg" id="bold" height="512" viewBox="0 0 32 32" width="512"><path d="m26 32h-20c-3.314 0-6-2.686-6-6v-20c0-3.314 2.686-6 6-6h20c3.314 0 6 2.686 6 6v20c0 3.314-2.686 6-6 6z" fill="#ffe6e2"></path><path d="m16.153 9.113c-1.173-.953-2.706-1.313-4.22-1.006-1.96.407-3.513 2.02-3.86 4.007-.053.299-.073.593-.073.886 0 1.5.653 2.907 1.847 3.88.473.38.747.933.747 1.507v.613h4.813v-.613c0-.58.247-1.113.667-1.44 1.226-.967 1.926-2.4 1.926-3.947 0-1.513-.673-2.927-1.847-3.887zm-1.108 4.34c-.376 0-.682-.305-.682-.682 0-.627-.51-1.136-1.136-1.136-.376 0-.682-.305-.682-.682s.305-.682.682-.682c1.379 0 2.5 1.121 2.5 2.5 0 .377-.305.682-.682.682z" fill="#fc573b"></path><path d="m10.593 20.247c0 1.233.8 1.8 1.54 1.8h1.733c.853 0 1.54-.693 1.54-1.547v-.5h-4.813z" fill="#fc573b"></path><g fill="#fd907e"><path d="m19.333 22.667c-1.838 0-3.333-1.495-3.333-3.333s1.495-3.334 3.333-3.334 3.333 1.495 3.333 3.333-1.495 3.334-3.333 3.334zm0-5.334c-1.103 0-2 .897-2 2s.897 2 2 2 2-.897 2-2-.897-2-2-2z"></path><path d="m23.333 24c-.171 0-.341-.065-.471-.195l-1.879-1.879c-.26-.26-.26-.682 0-.943s.682-.26.943 0l1.879 1.879c.26.26.26.682 0 .943-.13.13-.301.195-.472.195z"></path></g></svg>