<svg xmlns="http://www.w3.org/2000/svg" xmlns:xlink="http://www.w3.org/1999/xlink" width="304.625" height="304.625" viewBox="0 0 304.625 304.625">
  <defs>
    <linearGradient id="linear-gradient" x1="0.5" y1="-0.007" x2="0.5" y2="1.017" gradientUnits="objectBoundingBox">
      <stop offset="0" stop-color="#1a6dff"/>
      <stop offset="1" stop-color="#c822ff"/>
    </linearGradient>
    <linearGradient id="linear-gradient-2" x1="0.5" x2="0.5" y2="1" gradientUnits="objectBoundingBox">
      <stop offset="0" stop-color="#98bbff"/>
      <stop offset="1" stop-color="#ceaeff"/>
    </linearGradient>
  </defs>
  <g id="Group_37" data-name="Group 37" transform="translate(-3028 -1220)">
    <path id="Path_73" data-name="Path 73" d="M232.422,311.625H86.2A79.294,79.294,0,0,1,7,232.422V86.2A79.294,79.294,0,0,1,86.2,7h146.22a79.294,79.294,0,0,1,79.2,79.2v146.22A79.294,79.294,0,0,1,232.422,311.625ZM86.2,19.185A67.1,67.1,0,0,0,19.185,86.2v146.22A67.1,67.1,0,0,0,86.2,299.44h146.22a67.1,67.1,0,0,0,67.017-67.017V86.2a67.1,67.1,0,0,0-67.017-67.017Z" transform="translate(3021 1213)" fill="url(#linear-gradient)"/>
    <path id="Intersection_1" data-name="Intersection 1" d="M170.391,187.754V177.089a19.239,19.239,0,0,0,3.75.41q7.5,0,7.5-8.73V95h15v75.41q0,8.671-5.01,13.505t-13.74,4.834A21.784,21.784,0,0,1,170.391,187.754Zm79.336-18.574a22.036,22.036,0,0,1-8.262-5.185,25.5,25.5,0,0,1-5.244-8.262,45.122,45.122,0,0,1-2.841-10.576,88.708,88.708,0,0,1-.821-12.715V102.5a88.708,88.708,0,0,1,.821-12.715,45.121,45.121,0,0,1,2.841-10.576,25.14,25.14,0,0,1,5.244-8.232,22.235,22.235,0,0,1,8.262-5.156,37.616,37.616,0,0,1,24.316.292,19.766,19.766,0,0,1,8.526,6.387,29.734,29.734,0,0,1,4.8,9.785,54.786,54.786,0,0,1,1.9,13.008q.059,1.114.059,3.457h-15V95.41q-.059-3.1-.235-5.3a39.06,39.06,0,0,0-.644-4.54,12.616,12.616,0,0,0-1.377-3.9,13.21,13.21,0,0,0-2.285-2.871,8.307,8.307,0,0,0-3.487-1.933,17.635,17.635,0,0,0-4.921-.616,15.146,15.146,0,0,0-6.241,1.172,10.645,10.645,0,0,0-4.072,3.018,13.1,13.1,0,0,0-2.255,4.951,36.071,36.071,0,0,0-1.025,6.065q-.235,2.959-.235,7.295v37.5a64.981,64.981,0,0,0,.322,6.8,31.583,31.583,0,0,0,1.26,6.064,17.224,17.224,0,0,0,2.432,5.069,10.923,10.923,0,0,0,3.984,3.31,12.758,12.758,0,0,0,5.83,1.26,12,12,0,0,0,5.742-1.289,10.561,10.561,0,0,0,3.779-3.281,15.786,15.786,0,0,0,2.168-5.1,36.079,36.079,0,0,0,1.025-6.035q.235-2.93.235-6.8V132.5h15v3.75a63.342,63.342,0,0,1-1.435,14.3,32.243,32.243,0,0,1-4.629,10.869,20.224,20.224,0,0,1-8.671,7.177,32.106,32.106,0,0,1-13.213,2.462A33.338,33.338,0,0,1,249.727,169.179Zm-106.816-.292A35.983,35.983,0,0,1,136,163.2V170H121V65.058h15v37.383q2.109-2.228,3.163-3.223a38.019,38.019,0,0,1,3.076-2.519,12.736,12.736,0,0,1,4.189-2.139,17.6,17.6,0,0,1,4.805-.615,16.067,16.067,0,0,1,6.8,1.377,16.862,16.862,0,0,1,4.922,3.31,15.325,15.325,0,0,1,3.281,5.566,53.934,53.934,0,0,1,2.021,6.563,53.722,53.722,0,0,1,1.025,7.91q.351,4.98.41,8.056t.059,8.467v1a87.613,87.613,0,0,1-.5,9.492A58.421,58.421,0,0,1,167.432,155a34.493,34.493,0,0,1-3.34,8.2,16.765,16.765,0,0,1-5.39,5.654,13.789,13.789,0,0,1-7.706,2.2A15.087,15.087,0,0,1,142.91,168.887ZM136,109.238v47.168a29.946,29.946,0,0,0,11.25,2.344,5.22,5.22,0,0,0,4.013-1.758,10.8,10.8,0,0,0,2.344-5.01,46.85,46.85,0,0,0,1-6.475q.265-3.222.264-7.5,0-3.164-.029-8.379t-.03-7.852q0-2.637-.117-4.6a27.314,27.314,0,0,0-.586-4.13,12.874,12.874,0,0,0-1.26-3.575,6.554,6.554,0,0,0-2.2-2.314,6.13,6.13,0,0,0-3.4-.908A21.631,21.631,0,0,0,136,109.238Zm-69.99,59.413a20.878,20.878,0,0,1-8.995-7.031,30.86,30.86,0,0,1-4.863-10.869,61.523,61.523,0,0,1-1.524-14.5V98.164A60.4,60.4,0,0,1,52.149,83.75a29.988,29.988,0,0,1,4.863-10.694,20.334,20.334,0,0,1,8.995-6.826A36.177,36.177,0,0,1,79.57,63.945q15.352,0,22.149,8.789t6.8,25.429V136.25a59.886,59.886,0,0,1-1.552,14.385,31.589,31.589,0,0,1-4.893,10.9,21,21,0,0,1-8.994,7.09,34.061,34.061,0,0,1-13.506,2.432A34.58,34.58,0,0,1,66.006,168.652Zm2.607-87.89q-2.989,4.512-2.988,13.653V140q0,9.257,2.988,14,3.047,4.747,10.957,4.747T90.5,154q3.019-4.745,3.018-14V94.415q0-9.141-2.988-13.653T79.57,76.25Q71.6,76.25,68.613,80.762ZM181.641,83.75v-15h15v15Z" transform="translate(3010.375 1246.055)" fill="url(#linear-gradient-2)"/>
  </g>
</svg>
