<svg xmlns="http://www.w3.org/2000/svg" xmlns:xlink="http://www.w3.org/1999/xlink" width="304.625" height="304.625" viewBox="0 0 304.625 304.625">
  <defs>
    <linearGradient id="linear-gradient" x1="0.5" x2="0.5" y2="1" gradientUnits="objectBoundingBox">
      <stop offset="0" stop-color="#8ebeff"/>
      <stop offset="1" stop-color="#d3adff"/>
    </linearGradient>
    <linearGradient id="linear-gradient-2" x1="0.5" y1="-0.007" x2="0.5" y2="1.017" gradientUnits="objectBoundingBox">
      <stop offset="0" stop-color="#1a6dff"/>
      <stop offset="1" stop-color="#c822ff"/>
    </linearGradient>
  </defs>
  <g id="Group_33" data-name="Group 33" transform="translate(-1929 -3060)">
    <path id="iconfinder_jenkins_4691319" d="M12.073,150H5.979c-.156-.412-.306-.819-.437-1.231-1.344-4.162-3.712-9.312-4.325-13.462-.912-6.15,4.875-6.494,8.587-9.156,5.719-4.125,10.218-6.406,16.418-10.131,1.844-1.112,7.387-3.894,8.006-5.175,1.256-2.55-2.156-6.137-3.062-8.131a24.862,24.862,0,0,1-2.35-8.962,17.5,17.5,0,0,1-11.525-7.406c-3.937-5.781-6.662-16.468-3.281-24.6.281-.644,1.587-1.906,1.781-2.894.375-1.931-.656-4.5-.756-6.556-.375-10.575,1.781-19.687,8.912-22.874C26.841,17.922,37.153,14.091,46.9,8.379A71.9,71.9,0,0,1,58.715,3.335c14.824-5.481,37.674-4.45,49.967,4.894,5.225,3.956,13.6,12.318,16.6,18.368,7.887,15.968,7.312,42.661,1.794,62.092a62.275,62.275,0,0,1-3.331,9.581c-1.05,2.181-4.306,6.562-3.906,8.5.4,1.962,7.431,7.312,8.95,8.718,2.712,2.637,7.875,6.094,8.275,9.375.437,3.481-1.55,8.35-2.562,11.718-1.356,4.506-2.725,9.006-4.087,13.318H12.06l.012.1Zm69.4-22.13a48.476,48.476,0,0,0-12.906-4.725c-5.431-1.025-4.869,7.425-4.687,12.462.187,4.019,2.256,8.225,3.194,10.9.469,1.231.556,2.562,1.594,2.806,1.875.425,8.062-2.037,9.843-2.994,3.75-2.05,6.65-5.275,9.837-7.431.1-1.062.1-2.125.194-3.175a16.55,16.55,0,0,0-6.85-1.731c1.962-.937,4.687-.937,6.469-2.075l.1-1.206c-3.1-.194-4.306-1.587-6.381-2.725l-.406-.106Zm46.592,18.349a111.129,111.129,0,0,0,2.906-10.95c.369-1.794,1.344-5.737,1.112-7.35-.369-2.869-4.275-4.994-6.275-6.787-3.65-3.281-5.944-6.094-9.756-9.181-1.55,2.344-4.869,3.844-6.137,5.712,9.043-4.306,10.681,16.406,7.131,23.055.562,2.062,2.444,2.819,3.212,4.6l-.537,1.037h8.056a.36.36,0,0,1,.281.087l.006-.225ZM86.6,146.143c-.306-.462-.625-.844-.937-1.306l-1.881,1.219H86.6v.087Zm17.318,0c.05-1.306.112-2.525.181-3.737-3.306.181-5.15-3-7.468-3.294-2.025-.281-3.75,2.256-6.375,1.219a26.157,26.157,0,0,1-1.781,1.975,29.156,29.156,0,0,1,2.65,3.65h5.1a1.86,1.86,0,0,1,1.869-1.781,1.7,1.7,0,0,1,1.781,1.687h4.125l-.081.281Zm13.225,0c-1.962-2.994-5.919-5.612-10.5-3.469l-.194,3.381h10.693Zm-53.186,0-.656-2.15a58.986,58.986,0,0,1-2.531-10.5c-5.712-2.725-11.718-5.444-16.587-8.912-.937-.656-6.931-8.437-7.687-8.156C25.622,120.65,15.5,128.044,6.4,135.075c1.6,3.481,3,7.131,4.312,10.875H63.871l.081.194Zm51.655-13.206c-.181-3.2-1.025-9.756-3-10.875-4.125-2.444-11.537,4.869-14.625,5.894a11.393,11.393,0,0,1,.937,3,8.837,8.837,0,0,1,5.612.575c-1.869.181-3.931.181-5.15,1.025-.462,1.219.1,3-.181,4.775a62.5,62.5,0,0,0,14.906,2.075c1.025-1.419,1.406-4.031,1.319-6.762l.181.294Zm-25.5-2.25c-.281,2.344.281,3.187.744,5.894,7.875,2.444,6.469-10.875-.844-5.994l.1.1Zm-41.236-8.812c-2.812,2.856,7.943,6.762,11.337,6.968,0-1.819,1.031-3.525.844-4.819-4.056-.731-9.387-.256-12.156-2.162l-.025.013Zm34.78,1.344c0,.269-.381.181-.425.4,3.625,2.819,6.337,3.406,11.268,3.187,2.212-1.637,4.187-3.519,6.519-5.044-5.344.462-12.075,3.794-17.343,1.431Zm21.374-110.79C94.995,6.767,77.839,2.485,67.052,7.86c-8.625,4.325-20.437,11.506-24.368,20.574,3.75,8.762-1.037,16.787-1.412,25.68-.112,4.737,2.25,8.875,2.444,14.018-1.25,2.112-5.156,2.375-7.875,2.225-.912-4.556-2.506-9.681-7.219-10.193-6.65-.719-11.531,4.781-11.818,10.525-.375,6.744,5.212,17.9,13.037,17.156,3.05-.287,3.8-3.381,7.119-3.381,1.781,3.562-2.781,4.687-3.269,7.218a22.164,22.164,0,0,0,.65,4.406,61.672,61.672,0,0,0,7.781,18c3.969,5.625,11.775,6.569,20.181,7.131,1.5-3.281,7.031-3,10.662-2.162-4.319-1.687-8.35-5.906-11.718-9.556-3.844-4.225-7.687-8.812-7.881-14.25C60.584,105.276,66.49,113.994,79.62,118.4c9.937,3.281,21.556-1.587,29.149-6.931,3.187-2.244,5.069-5.812,7.312-8.993,8.437-12.1,12.375-29.437,11.537-46.217-.381-6.944-.381-13.881-2.725-18.468-2.431-4.881-10.593-9.193-15.468-4.881-.937-4.775,3.931-7.681,9.656-5.994-4.125-5.344-8.35-11.618-14.162-14.906l.106.419ZM79,93.1c3.844,9.65,17.031,8.518,28.162,8.268a6.127,6.127,0,0,1-2.906,3.219c-3.562,1.45-13.412,2.55-18.362-.075-3.162-1.694-5.15-5.456-6.887-7.668-.856-1.075-4.969-3.8-.075-3.806Zm1.025-5.444c5.581,2.906,15.749,3.237,23.324,3a25.9,25.9,0,0,1,.425,5.712c-9.693.5-21.168-1.9-23.718-8.718h-.031ZM121.75,84c-2.956,5.625-7.156,11.856-15.868,12.05a24.89,24.89,0,0,1,0-5.65c6.65-.644,10.793-4.037,15.893-6.356L121.75,84Zm-4.056-4.169c-6.375,4.125-13.462,8.593-23.9,7.562a7.136,7.136,0,0,1-.881-9.112c1.137,1.956.381,5.531,3.562,6.056,5.906,1.037,12.743-3.612,17.062-5.25,2.625-4.45-.281-6.094-2.625-8.95C106.032,64.321,99.476,57.015,99.657,48.2c1.962-1.406,2.162,2.156,2.444,2.806,2.525,6.006,8.9,13.6,13.587,18.749,1.125,1.319,3,2.444,3.187,3.281.575,2.431-1.587,5.337-1.306,6.931l.125-.137Zm-84-4.219c-1.962-1.15-2.456-6.187-4.8-6.312-3.344-.187-2.737,6.556-2.725,10.493-2.312-2.056-2.719-8.525-1.025-11.812-1.925-.937-2.781,1.031-3.862,1.781,1.375-9.937,14.625-4.587,12.431,6l-.019-.15ZM23.579,37.465C19.3,42.19,20.2,51.053,20.71,57.39c7.775-4.906,18.112.375,18.018,8.718,3.719-.1,1.394-4.65.719-7.593-2.206-9.556,3.7-19.924.256-28.687a23.861,23.861,0,0,0-16.112,7.587l-.012.05Zm57,6.956c1.919,3.512,2.525,7.175,5.25,9.812,1.219,1.194,3.587,2.65,2.419,5.944A7.8,7.8,0,0,1,84.8,62.99c-4.212,1.219-14.087.187-10.756-5.062,3.519.094,8.212,2.244,10.825-.281-1.962-3.281-5.531-9.562-4.212-13.312l-.081.087Zm38.742-.081h.425c2.062,4.175,3.75,8.593,6.275,12.281-1.687,3.931-12.831,7.437-12.643.356,2.431-1.062,6.556-.219,8.718-1.562-1.206-3.475-3-6.287-2.712-11.068l-.062-.006Zm-43.3-10.106c-8.887-2.062-13.318,3.7-16,9.706-2.4-.587-1.444-3.844-.844-5.519,1.594-4.381,8-10.206,13.243-9.412,2.244.356,5.3,2.412,3.6,5.212ZM54.384,9.954c-9.75,2.75-22.249,9.837-26.249,18.587,3.094-.437,5.25-2.006,8.312-2.194,1.162-.1,2.675.462,4.006.094,2.65-.65,4.875-6.656,6.887-8.806,1.944-2.162,4.281-3.106,5.881-5.069,1.037-.562,2.55-.462,2.625-2.062-.462-.469-.937-.844-1.456-.656v.106Z" transform="translate(2011.879 3137.001)" fill="url(#linear-gradient)"/>
    <path id="Path_69" data-name="Path 69" d="M232.422,311.625H86.2A79.294,79.294,0,0,1,7,232.422V86.2A79.294,79.294,0,0,1,86.2,7h146.22a79.294,79.294,0,0,1,79.2,79.2v146.22A79.294,79.294,0,0,1,232.422,311.625ZM86.2,19.185A67.1,67.1,0,0,0,19.185,86.2v146.22A67.1,67.1,0,0,0,86.2,299.44h146.22a67.1,67.1,0,0,0,67.017-67.017V86.2a67.1,67.1,0,0,0-67.017-67.017Z" transform="translate(1922 3053)" fill="url(#linear-gradient-2)"/>
  </g>
</svg>
