<svg xmlns="http://www.w3.org/2000/svg" xmlns:xlink="http://www.w3.org/1999/xlink" width="304.625" height="304.625" viewBox="0 0 304.625 304.625">
  <defs>
    <linearGradient id="linear-gradient" x1="0.5" x2="0.5" y2="1" gradientUnits="objectBoundingBox">
      <stop offset="0" stop-color="#8ebeff"/>
      <stop offset="1" stop-color="#d3adff"/>
    </linearGradient>
    <linearGradient id="linear-gradient-2" x1="0.5" y1="-0.007" x2="0.5" y2="1.017" gradientUnits="objectBoundingBox">
      <stop offset="0" stop-color="#1a6dff"/>
      <stop offset="1" stop-color="#c822ff"/>
    </linearGradient>
  </defs>
  <g id="Group_25" data-name="Group 25" transform="translate(-1921 -2421)">
    <path id="Laravel" d="M222.939,78.623c-1.453-1.627-21.509-26.738-25.043-31s-5.258-3.486-7.428-3.176-27.551,4.581-30.5,5.075-4.8,1.675-2.992,4.213c1.608,2.256,18.293,25.905,21.973,31.115l-66.327,15.892L59.876,12.548c-2.1-3.118-2.537-4.2-7.312-3.98s-41.38,3.254-43.986,3.477S3.108,13.42,5.723,19.579,49.9,115.307,51.054,117.912s4.174,6.837,11.224,5.142c7.224-1.733,32.287-8.28,45.98-11.863,7.234,13.1,21.993,39.676,24.724,43.492,3.641,5.084,6.149,4.242,11.747,2.547,4.368-1.327,68.332-24.327,71.217-25.508s4.658-2.034,2.712-4.92c-1.433-2.121-18.3-24.724-27.145-36.548l29.876-7.96c2.673-.726,3.041-2.034,1.588-3.67ZM102.351,103.279c-.794.165-37.943,9.064-39.928,9.51s-1.985.223-2.208-.455-44.17-91.293-44.78-92.426-.581-2.034,0-2.034,35.086-3.089,36.306-3.147,1.094.194,1.54.968l49.525,85.482c.852,1.472.339,1.927-.455,2.092ZM207.1,122.909c.591.93,1.181,1.52-.678,2.2s-62.879,21.266-64.061,21.78-2.121.678-3.641-1.53S117.342,108.8,117.342,108.8l64.671-16.831c1.608-.5,2.121-.843,3.138.765S206.5,121.97,207.1,122.9ZM211.24,77c-1.453.32-25.2,6.208-25.2,6.208L166.615,56.553c-.542-.765-1-1.54.358-1.724s23.426-4.174,24.423-4.4,1.859-.494,3.08,1.181S212.5,74.546,213.129,75.36s-.455,1.317-1.908,1.627Z" transform="translate(1959.311 2489.46)" fill="url(#linear-gradient)"/>
    <path id="Path_61" data-name="Path 61" d="M232.422,311.625H86.2A79.294,79.294,0,0,1,7,232.422V86.2A79.294,79.294,0,0,1,86.2,7h146.22a79.294,79.294,0,0,1,79.2,79.2v146.22A79.294,79.294,0,0,1,232.422,311.625ZM86.2,19.185A67.1,67.1,0,0,0,19.185,86.2v146.22A67.1,67.1,0,0,0,86.2,299.44h146.22a67.1,67.1,0,0,0,67.017-67.017V86.2a67.1,67.1,0,0,0-67.017-67.017Z" transform="translate(1914 2414)" fill="url(#linear-gradient-2)"/>
  </g>
</svg>
