<svg id="Capa_1" enable-background="new 0 0 512 512" height="512" viewBox="0 0 512 512" width="512" xmlns="http://www.w3.org/2000/svg"><g><g><g><g><path d="m256 50.788c-5.523 0-10-4.477-10-10v-30.788c0-5.523 4.477-10 10-10 5.522 0 10 4.477 10 10v30.788c0 5.523-4.478 10-10 10z"/></g></g><g><g><g><path d="m125.919 104.669c-2.56 0-5.118-.976-7.071-2.929l-21.771-21.77c-3.905-3.905-3.905-10.237 0-14.143 3.906-3.905 10.236-3.905 14.143 0l21.771 21.771c3.905 3.905 3.905 10.237 0 14.143-1.954 1.952-4.512 2.928-7.072 2.928z"/></g></g><g><g><path d="m386.081 104.669c-2.56 0-5.118-.976-7.071-2.929-3.905-3.905-3.905-10.237 0-14.143l21.771-21.771c3.906-3.905 10.236-3.905 14.143 0 3.905 3.905 3.905 10.237 0 14.143l-21.771 21.771c-1.954 1.953-4.512 2.929-7.072 2.929z"/></g></g></g><g><g><path d="m64.124 374.462c-2.56 0-5.118-.976-7.071-2.929-3.905-3.905-3.905-10.237 0-14.143l21.77-21.771c3.906-3.905 10.236-3.905 14.143 0 3.905 3.905 3.905 10.237 0 14.143l-21.771 21.771c-1.953 1.953-4.511 2.929-7.071 2.929z"/></g></g><g><g><path d="m447.876 374.462c-2.56 0-5.118-.976-7.071-2.929l-21.77-21.771c-3.905-3.905-3.905-10.237 0-14.143 3.906-3.905 10.236-3.905 14.143 0l21.771 21.771c3.905 3.905 3.905 10.237 0 14.143-1.955 1.953-4.514 2.929-7.073 2.929z"/></g></g><g><g><path d="m481.298 234.751h-30.788c-5.522 0-10-4.477-10-10s4.478-10 10-10h30.788c5.522 0 10 4.477 10 10s-4.478 10-10 10z"/></g><g><path d="m61.49 234.751h-30.788c-5.522 0-10-4.477-10-10s4.478-10 10-10h30.788c5.523 0 10 4.477 10 10s-4.477 10-10 10z"/></g></g></g><g><g><g><g><path d="m418.315 236.309c0-88.825-71.349-160.986-159.863-162.297-89.379-1.324-163.587 70.749-164.754 160.13-.778 59.631 30.614 111.993 77.172 140.841 18.47 11.444 29.724 31.607 29.724 53.334h110.81v-.002c0-21.693 11.196-41.867 29.643-53.282 46.039-28.487 77.268-79.958 77.268-138.724z" fill="#b8ecff"/></g><path d="m225.086 467.021h61.829v34.979h-61.829z" fill="#6eb4c7"/><g><path d="m401.45 318.56c-9.787.014-13.712-12.902-5.551-18.31 3.267-2.243 7.837-2.241 11.101 0 8.18 5.411 4.233 18.322-5.55 18.31z"/></g><g><path d="m200.595 428.316h110.81v38.704h-110.81z" fill="#ff5d5d"/></g></g></g><g><g><g><path d="m226.915 217.066h58.17l-29.085-44.777z" fill="#6eb4c7"/></g><g><path d="m301.504 267.056v-14.128c0-6.908-2.003-13.669-5.766-19.462l-10.653-16.4h-58.17l-10.653 16.4c-3.763 5.793-5.766 12.554-5.766 19.462v14.128" fill="#fff"/></g><g><path d="m210.496 428.316h45.504v-153.914c-6.06-8.06-15.703-13.273-26.563-13.273-7.04 0-13.568 2.19-18.941 5.927z" fill="#fee77b"/></g><g><g><path d="m256 428.316h45.504v-161.26c-5.373-3.736-11.901-5.927-18.941-5.927-10.86 0-20.503 5.213-26.563 13.273z" fill="#ffc857"/></g><path d="m378.696 115.321c-31.964-32.413-74.615-50.634-120.096-51.308-45.924-.656-89.482 16.697-122.626 48.929-33.111 32.202-51.676 75.199-52.274 121.07-.398 30.456 7.25 60.538 22.115 86.993 14.344 25.526 35.019 47.131 59.789 62.479 15.648 9.695 24.99 26.456 24.99 44.833v38.705c0 5.523 4.478 10 10 10h14.491v24.978c0 5.523 4.478 10 10 10h61.828c5.522 0 10-4.477 10-10v-24.979h14.491c5.522 0 10-4.477 10-10v-38.706c0-18.389 9.31-35.129 24.904-44.778 9.23-5.712 17.985-12.357 26.02-19.75 4.064-3.74 4.327-10.066.587-14.13-3.739-4.063-10.066-4.327-14.13-.587-7.105 6.539-14.844 12.413-23 17.46-10.182 6.301-18.424 14.789-24.282 24.669v-138.271c0-8.863-2.552-17.477-7.38-24.909l-39.738-61.177c-1.844-2.839-5-4.553-8.386-4.553s-6.542 1.713-8.386 4.553l-39.739 61.177c-4.827 7.433-7.379 16.046-7.379 24.909v138.307c-5.873-9.905-14.141-18.422-24.358-24.753-45.38-28.117-73.137-78.777-72.439-132.21.528-40.523 16.943-78.52 46.221-106.993 29.31-28.503 67.846-43.871 108.385-43.269 82.717 1.225 150.012 69.546 150.012 152.298 0 7.136-.498 14.316-1.479 21.34-.765 5.469 3.049 10.523 8.519 11.288 5.473.764 10.524-3.05 11.288-8.52 1.11-7.938 1.673-16.05 1.673-24.109-.002-45.572-17.624-88.54-49.621-120.986zm-154.048 123.592 7.696-11.848h47.313l7.695 11.848c2.557 3.936 3.979 8.461 4.137 13.138-2.911-.611-5.898-.922-8.925-.922-9.824 0-19.074 3.23-26.564 9.095-7.489-5.865-16.74-9.095-26.564-9.095-3.027 0-6.015.311-8.925.922.158-4.677 1.58-9.202 4.137-13.138zm41.352 179.403v-140.244c4.346-4.445 10.234-6.943 16.564-6.943 3.106 0 6.132.608 8.94 1.781v145.406zm-45.504-145.405c2.809-1.173 5.834-1.781 8.94-1.781 6.329 0 12.218 2.498 16.564 6.943v140.244h-25.504zm56.418 219.089h-41.828v-14.979h41.828zm24.491-34.979h-90.811v-18.705h90.811zm-45.405-266.375 10.665 16.419h-21.33z"/></g></g></g></g></g></svg>