<svg xmlns="http://www.w3.org/2000/svg" xmlns:xlink="http://www.w3.org/1999/xlink" width="304.625" height="304.625" viewBox="0 0 304.625 304.625">
  <defs>
    <linearGradient id="linear-gradient" x1="0.5" x2="0.5" y2="1" gradientUnits="objectBoundingBox">
      <stop offset="0" stop-color="#8ebeff"/>
      <stop offset="1" stop-color="#d3adff"/>
    </linearGradient>
    <linearGradient id="linear-gradient-2" x1="0.5" y1="-0.007" x2="0.5" y2="1.017" gradientUnits="objectBoundingBox">
      <stop offset="0" stop-color="#1a6dff"/>
      <stop offset="1" stop-color="#c822ff"/>
    </linearGradient>
  </defs>
  <g id="Group_28" data-name="Group 28" transform="translate(-1597 -2726)">
    <path id="iconfinder_mongodb_4691284" d="M72.63,59.487C64.737,24.737,46.118,13.319,44.118,8.95A56.159,56.159,0,0,1,39.537,0c-.012.119-.025.194-.031.306V.387H39.5c-.013.094-.019.156-.025.244V.725h-.012c0,.063-.013.113-.013.162V1.05H39.43a1.19,1.19,0,0,1-.019.156v.131H39.4a.446.446,0,0,1-.013.131v.125h-.012c0,.062-.006.138-.012.2v.012c-.019.106-.037.213-.056.313v.05h-.012a.329.329,0,0,0-.019.075V2.35h-.019v.138h-.031V2.6h-.031v.131h-.025V2.85h-.025v.106h-.037v.087H39.08v.113h-.025v.087h-.031v.081h-.019v.094H38.98a.038.038,0,0,0-.006.025v.063h-.019a.079.079,0,0,0-.006.037v.037h-.013a.275.275,0,0,0-.012.063c-.019.044-.044.087-.062.131v.012a.19.19,0,0,0-.031.044v.05h-.025v.05h-.031v.05h-.019v.063h-.037v.087h-.025v.025h-.025v.05h-.025v.069h-.025v.05H38.58v.069h-.025v.05h-.031v.05h-.019v.063h-.031v.05h-.025v.037h-.025v.05h-.037V4.75h-.025v.037H38.33v.05h-.025v.069h-.031v.025h-.019v.05h-.037v.025h-.025v.063h-.025v.025h-.025v.05h-.031v.037h-.019l-.012.025v.025h-.012c-.006.012-.012.012-.012.025v.006h-.006a.1.1,0,0,1-.025.044v.019h-.006a1.173,1.173,0,0,0-.075.113v.006a.281.281,0,0,0-.056.063v.012H37.88c-.006.006-.019.012-.019.019v.019h-.012l-.019.019v.006h-.006c0,.006-.012.013-.019.025v.025h-.019l-.012.012v.012h-.012c0,.012-.013.012-.013.019v.019h-.025c0,.006-.006.012-.012.019V5.75h-.019v.025h-.025v.037h-.025v.05h-.031v-.05H37.58v.025h-.025v.037h-.031v.05h-.031V5.95h-.025v.037h-.025v.025h-.025v.05H37.38v.025h-.025v.037h-.031V6.15H37.3v.031h-.031v.063h-.012v.025h-.037V6.3h-.025v.012h-.025v.025h-.031V6.4h-.025v.025H37.08V6.45h-.025v.038h-.031v.025h-.031v.025h-.025v.025h-.025v.063h-.025v.031H36.88v.025h-.025v.025h-.031v.038H36.8v.025h-.031v.044h-.025v.025h-.037v.038h-.013V6.9h-.025v.025h-.031V6.95h-.025v.037H36.58v.025h-.019a.019.019,0,0,0-.006.012v.012h-.012l-.025.025a.117.117,0,0,1-.025.019v.037h-.025V7.15h-.025v.025h-.025V7.2H36.4l-.019.019v.019h-.012l-.012.012v.019h-.013a.626.626,0,0,1-.087.1c-.013.012-.05.044-.075.063a2.286,2.286,0,0,0-.244.2,1.316,1.316,0,0,0-.138.106v.006h-.006c-.1.081-.194.156-.306.244v.006c-.15.125-.294.244-.463.388V8.375h-.013c-.356.294-.731.625-1.162.994v.006h-.006c-1.056.925-2.312,2.113-3.719,3.55l-.094.094-.025.025C21.505,21.837,8.112,40.163,6.7,69.775a64.788,64.788,0,0,0,.038,7.15v.056a68.1,68.1,0,0,0,8.925,29.725v.006a78.285,78.285,0,0,0,5.787,8.781v.006a79.98,79.98,0,0,0,15.712,15.788c2.756,6.394,2.5,17.369,2.5,17.369L43.687,150s-.819-10.631.331-15.762A9.737,9.737,0,0,1,46.2,130.1a52.383,52.383,0,0,0,4.981-4.031c.112-.119.175-.225.275-.338,9.506-8.862,27.263-30.688,21.175-66.244Z" transform="translate(1709.382 2803)" fill="url(#linear-gradient)"/>
    <path id="Path_58" data-name="Path 58" d="M232.422,311.625H86.2A79.294,79.294,0,0,1,7,232.422V86.2A79.294,79.294,0,0,1,86.2,7h146.22a79.294,79.294,0,0,1,79.2,79.2v146.22A79.294,79.294,0,0,1,232.422,311.625ZM86.2,19.185A67.1,67.1,0,0,0,19.185,86.2v146.22A67.1,67.1,0,0,0,86.2,299.44h146.22a67.1,67.1,0,0,0,67.017-67.017V86.2a67.1,67.1,0,0,0-67.017-67.017Z" transform="translate(1590 2719)" fill="url(#linear-gradient-2)"/>
  </g>
</svg>
