<svg xmlns="http://www.w3.org/2000/svg" xmlns:xlink="http://www.w3.org/1999/xlink" width="304.625" height="304.625" viewBox="0 0 304.625 304.625">
  <defs>
    <linearGradient id="linear-gradient" x1="0.5" x2="0.5" y2="1" gradientUnits="objectBoundingBox">
      <stop offset="0" stop-color="#8ebeff"/>
      <stop offset="1" stop-color="#d3adff"/>
    </linearGradient>
    <linearGradient id="linear-gradient-2" x1="0.5" y1="-0.007" x2="0.5" y2="1.017" gradientUnits="objectBoundingBox">
      <stop offset="0" stop-color="#1a6dff"/>
      <stop offset="1" stop-color="#c822ff"/>
    </linearGradient>
  </defs>
  <g id="Group_30" data-name="Group 30" transform="translate(-2268 -2732)">
    <path id="iconfinder_mysql_4691303" d="M150.995,19.212a10.157,10.157,0,0,0-2.522.3v.12h.129a20.766,20.766,0,0,0,1.97,2.513c.5.985.92,1.97,1.417,2.945l.129-.138a3.424,3.424,0,0,0,1.289-3.065c-.368-.433-.423-.865-.736-1.289-.368-.617-1.16-.92-1.657-1.408ZM53.108,140.652H44.576c-.276-14.377-1.132-27.889-2.485-40.59h-.074l-12.978,40.59H22.55L9.664,100.062H9.572q-1.422,18.266-1.795,40.59H0q.759-27.143,3.774-50.9H14.359l12.288,37.406h.074l12.4-37.406H49.2q3.341,27.82,3.939,50.9ZM90.081,103.1q-5.219,28.234-13.733,41.051-6.655,9.885-14.57,9.876a14.367,14.367,0,0,1-5.21-1.27v-4.547a23.621,23.621,0,0,0,3.553.239,8.582,8.582,0,0,0,5.955-2.043,7.415,7.415,0,0,0,2.715-5.569q0-2.14-2.117-8.689L57.342,103.1h8.376l6.691,21.722q2.264,7.4,1.887,10.336A140.416,140.416,0,0,0,81.982,103.1h8.1Zm113.442,37.553H179.316v-50.9h8.146v44.64h16.061Zm-30.558,1.243-9.351-4.6a19.768,19.768,0,0,0,2.347-2.3q5.978-6.986,5.964-20.737,0-25.265-19.835-25.275-9.72,0-15.187,6.415-5.937,7.014-5.946,20.663,0,13.42,5.283,19.7,4.832,5.661,14.57,5.661a23.4,23.4,0,0,0,6.673-.9l12.2,7.106,3.314-5.725Zm-30.3-11.432c-2.071-3.314-3.1-8.652-3.1-15.978q0-19.232,11.689-19.237c4.077,0,7.087,1.537,8.992,4.6q3.093,5,3.093,15.859,0,19.384-11.689,19.4c-4.1,0-7.087-1.537-9-4.6ZM127.4,126.552a13.484,13.484,0,0,1-4.749,10.64c-3.166,2.761-7.391,4.142-12.739,4.142a25.528,25.528,0,0,1-14.478-4.74l2.181-4.381a24.7,24.7,0,0,0,10.953,3.019,11.5,11.5,0,0,0,7.207-2.025,6.936,6.936,0,0,0,2.761-5.661c0-3.037-2.117-5.615-5.964-7.778-3.571-1.96-10.7-6.047-10.7-6.047-3.884-2.826-5.817-5.854-5.817-10.833a12.633,12.633,0,0,1,4.326-9.987c2.9-2.559,6.627-3.82,11.229-3.82A23.1,23.1,0,0,1,124.5,92.855l-1.96,4.381a25.091,25.091,0,0,0-9.793-2.117,8.666,8.666,0,0,0-6.02,1.9,6.3,6.3,0,0,0-2.283,4.823c0,3.019,2.154,5.615,6.13,7.824,3.617,1.979,10.925,6.167,10.925,6.167,3.985,2.807,5.964,5.8,5.964,10.75Zm86.354-53.863c-4.924-.129-8.744.368-11.938,1.73-.92.368-2.393.368-2.522,1.537.506.488.58,1.289,1.012,1.97a14.121,14.121,0,0,0,3.185,3.746c1.289,1.012,2.577,1.988,3.93,2.853,2.393,1.473,5.108,2.347,7.455,3.829,1.335.865,2.7,1.96,4.05,2.881.672.46,1.1,1.289,1.97,1.583v-.184c-.423-.552-.552-1.353-.966-1.97-.617-.617-1.233-1.169-1.841-1.776a29.665,29.665,0,0,0-6.4-6.213c-1.97-1.344-6.277-3.221-7.087-5.477l-.12-.129a24.768,24.768,0,0,0,4.234-.976c2.089-.552,4-.433,6.167-.976.976-.249,1.96-.552,2.945-.865V73.7c-1.1-1.1-1.933-2.6-3.074-3.636A81.616,81.616,0,0,0,204.6,62.49c-1.933-1.233-4.381-2.025-6.415-3.074-.736-.368-1.97-.552-2.393-1.169a23.731,23.731,0,0,1-2.531-4.731c-1.767-3.387-3.5-7.133-5.035-10.7-1.1-2.411-1.776-4.814-3.129-7.023-6.351-10.465-13.226-16.807-23.8-23.01-2.273-1.289-5-1.841-7.879-2.522-1.537-.074-3.074-.184-4.6-.249-1.012-.433-1.988-1.6-2.853-2.163-3.5-2.209-12.555-7-15.132-.663-1.657,3.995,2.458,7.934,3.884,9.959a28.376,28.376,0,0,1,3.129,4.6c.433,1.068.552,2.163.985,3.277a73.655,73.655,0,0,0,3.194,8.256,28.228,28.228,0,0,0,2.273,3.8c.5.672,1.344.985,1.537,2.089-.865,1.252-.92,3.074-1.417,4.6-2.209,6.968-1.344,15.583,1.786,20.709.985,1.528,3.332,4.915,6.471,3.617,2.761-1.1,2.154-4.6,2.945-7.685.184-.736.064-1.224.442-1.721v.138c.865,1.73,1.73,3.378,2.522,5.108a34.632,34.632,0,0,0,7.98,8.238c1.473,1.1,2.642,3.019,4.482,3.7v-.184H170.9a8.215,8.215,0,0,0-1.417-1.224,31.707,31.707,0,0,1-3.221-3.682,80.628,80.628,0,0,1-6.876-11.211c-1.012-1.933-1.859-4.013-2.669-5.918-.368-.736-.368-1.841-.985-2.209-.92,1.344-2.273,2.513-2.945,4.169-1.169,2.651-1.289,5.909-1.73,9.3-.249.064-.129,0-.249.129-1.97-.479-2.642-2.522-3.378-4.234-1.841-4.372-2.145-11.395-.552-16.429.433-1.289,2.273-5.357,1.537-6.59-.387-1.169-1.6-1.841-2.273-2.789a22.805,22.805,0,0,1-2.209-3.93c-1.473-3.442-2.209-7.253-3.811-10.7a31.88,31.88,0,0,0-3.074-4.722c-1.169-1.657-2.458-2.826-3.387-4.786-.3-.672-.736-1.786-.249-2.522a1.048,1.048,0,0,1,.865-.828c.81-.663,3.083.2,3.884.571a31.478,31.478,0,0,1,6.093,3.074c.865.607,1.795,1.776,2.9,2.08h1.289c1.97.433,4.188.129,6.029.672a39.384,39.384,0,0,1,8.854,4.234,54.794,54.794,0,0,1,19.191,21.041c.736,1.417,1.058,2.715,1.73,4.188,1.289,3.037,2.881,6.1,4.188,9.039a40.076,40.076,0,0,0,4.381,8.256c.92,1.289,4.62,1.96,6.277,2.632a44.72,44.72,0,0,1,4.234,1.73c2.117,1.289,4.179,2.761,6.167,4.179,1.012.7,4.077,2.237,4.262,3.479Z" transform="translate(2310 2804.974)" fill="url(#linear-gradient)"/>
    <path id="Path_62" data-name="Path 62" d="M232.422,311.625H86.2A79.294,79.294,0,0,1,7,232.422V86.2A79.294,79.294,0,0,1,86.2,7h146.22a79.294,79.294,0,0,1,79.2,79.2v146.22A79.294,79.294,0,0,1,232.422,311.625ZM86.2,19.185A67.1,67.1,0,0,0,19.185,86.2v146.22A67.1,67.1,0,0,0,86.2,299.44h146.22a67.1,67.1,0,0,0,67.017-67.017V86.2a67.1,67.1,0,0,0-67.017-67.017Z" transform="translate(2261 2725)" fill="url(#linear-gradient-2)"/>
  </g>
</svg>
