<svg xmlns="http://www.w3.org/2000/svg" xmlns:xlink="http://www.w3.org/1999/xlink" width="304.625" height="304.625" viewBox="0 0 304.625 304.625">
  <defs>
    <linearGradient id="linear-gradient" x1="0.5" x2="0.5" y2="1" gradientUnits="objectBoundingBox">
      <stop offset="0" stop-color="#8ebeff"/>
      <stop offset="1" stop-color="#d3adff"/>
    </linearGradient>
    <linearGradient id="linear-gradient-2" x1="0.5" y1="-0.007" x2="0.5" y2="1.017" gradientUnits="objectBoundingBox">
      <stop offset="0" stop-color="#1a6dff"/>
      <stop offset="1" stop-color="#c822ff"/>
    </linearGradient>
  </defs>
  <g id="Group_29" data-name="Group 29" transform="translate(-1927 -2732)">
    <path id="icons8-nodejs" d="M162.372,6a2.293,2.293,0,0,0-2.293,2.293v41.9l-9.5-5.538a3.855,3.855,0,0,0-3.871,0L123.886,57.96a3.839,3.839,0,0,0-1.921,3.32v26.65a3.829,3.829,0,0,0,1.921,3.32l22.824,13.31a3.855,3.855,0,0,0,3.871,0L173.4,91.251a3.839,3.839,0,0,0,1.921-3.32V15.38a3.82,3.82,0,0,0-1.891-3.29L163.5,6.313A2.248,2.248,0,0,0,162.372,6ZM87.663,44.129a3.857,3.857,0,0,0-1.935.521L62.9,57.96a3.839,3.839,0,0,0-1.921,3.32v26.65a3.829,3.829,0,0,0,1.921,3.32l22.824,13.31a3.86,3.86,0,0,0,3.871,0l22.824-13.31a3.839,3.839,0,0,0,1.921-3.32V61.28a3.829,3.829,0,0,0-1.921-3.32L89.6,44.65A3.857,3.857,0,0,0,87.663,44.129Zm121.965,0a3.8,3.8,0,0,0-1.935.521L184.868,57.96a3.839,3.839,0,0,0-1.921,3.32v26.65a3.829,3.829,0,0,0,1.921,3.32l22.139,13.385a3.8,3.8,0,0,0,3.886.03l10.883-6.328a1.7,1.7,0,0,0,0-2.948L198.194,81.5V67.816l11.434-6.655,11.434,6.655v9.529a1.12,1.12,0,0,0,1.787,1.042c2.881-1.692,11.568-6.73,11.568-6.73a3.811,3.811,0,0,0,1.891-3.29V61.28a3.829,3.829,0,0,0-1.921-3.32L211.563,44.65A3.824,3.824,0,0,0,209.628,44.129ZM26.68,44.144a3.8,3.8,0,0,0-1.935.521L1.921,57.96A3.863,3.863,0,0,0,0,61.3v34.02a2.151,2.151,0,0,0,3.231,1.861l10.124-5.9a3.82,3.82,0,0,0,1.891-3.29V67.846l11.434-6.67,11.434,6.67V87.99A3.82,3.82,0,0,0,40,91.28l10.124,5.9a2.148,2.148,0,0,0,3.231-1.861V61.3a3.863,3.863,0,0,0-1.921-3.335l-22.824-13.3A3.8,3.8,0,0,0,26.68,44.144ZM148.645,61.161l11.434,6.67V81.38l-11.434,6.67-11.434-6.67V67.831Zm60.983,5.851-6.536,3.811v7.608l6.536,3.8,6.536-3.8V70.824ZM117.439,97.459a4.613,4.613,0,0,0-2.263.581L93.737,110.427a4.467,4.467,0,0,0-2.263,3.9v24.744a4.585,4.585,0,0,0,2.263,3.9l5.643,3.216c2.706,1.334,3.7,1.34,4.928,1.34,4.04,0,6.342-2.416,6.342-6.685V116.4a.627.627,0,0,0-.625-.64h-2.71a.639.639,0,0,0-.64.64v24.447c0,1.852-1.957,3.752-5.151,2.159l-5.866-3.38a.693.693,0,0,1-.328-.566V114.313a.674.674,0,0,1,.328-.6L117.1,101.36a.7.7,0,0,1,.67,0l21.454,12.357a.634.634,0,0,1,.328.6v24.744a.711.711,0,0,1-.328.6l-21.454,12.4a.7.7,0,0,1-.67,0l-5.479-3.261a.628.628,0,0,0-.521-.045,12.835,12.835,0,0,1-3.231,1.489c-.374.114-.881.343.194.938l7.117,4.228a4.891,4.891,0,0,0,2.263.6,4.151,4.151,0,0,0,2.233-.625l21.439-12.4a4.467,4.467,0,0,0,2.263-3.9V114.328a4.594,4.594,0,0,0-2.263-3.9L119.672,98.04A4.45,4.45,0,0,0,117.439,97.459Zm33.439,11.419a4.117,4.117,0,1,0,4.109,4.109A4.068,4.068,0,0,0,150.878,108.878Zm-.045.655a3.461,3.461,0,0,1,3.5,3.454,3.559,3.559,0,0,1-3.5,3.5,3.477,3.477,0,0,1,0-6.953Zm-1.5,1.117v4.63h.878v-1.846h.819c.335,0,.415.143.491.4,0,.038.141,1.238.179,1.459h.953a5.454,5.454,0,0,1-.223-1.236c-.107-.595-.141-1-.774-1.042a1.086,1.086,0,0,0,.893-1.146c0-1.227-1.066-1.221-1.623-1.221Zm.878.744h.744c.229,0,.67-.007.67.625a.628.628,0,0,1-.715.67h-.7Zm-27.022,3.782c-6.121,0-9.752,2.609-9.752,6.908,0,4.711,3.637,5.971,9.5,6.566,7.013.7,7.563,1.71,7.563,3.082,0,2.409-1.934,3.409-6.462,3.409-5.679,0-6.928-1.408-7.34-4.228a.621.621,0,0,0-.64-.521H113.27a.627.627,0,0,0-.625.64c0,3.6,1.961,7.906,11.345,7.906,6.883-.008,10.779-2.674,10.779-7.355,0-4.635-3.121-5.867-9.722-6.759-6.678-.892-7.34-1.341-7.34-2.9,0-1.3.547-2.993,5.479-2.993,4.414,0,6.059.965,6.73,3.931a.577.577,0,0,0,.581.476h2.784a.628.628,0,0,0,.447-.179.559.559,0,0,0,.149-.476C133.434,117.557,130.054,115.176,123.186,115.176Z" transform="translate(1961 2803)" fill="url(#linear-gradient)"/>
    <path id="Path_59" data-name="Path 59" d="M232.422,311.625H86.2A79.294,79.294,0,0,1,7,232.422V86.2A79.294,79.294,0,0,1,86.2,7h146.22a79.294,79.294,0,0,1,79.2,79.2v146.22A79.294,79.294,0,0,1,232.422,311.625ZM86.2,19.185A67.1,67.1,0,0,0,19.185,86.2v146.22A67.1,67.1,0,0,0,86.2,299.44h146.22a67.1,67.1,0,0,0,67.017-67.017V86.2a67.1,67.1,0,0,0-67.017-67.017Z" transform="translate(1920 2725)" fill="url(#linear-gradient-2)"/>
  </g>
</svg>
