<svg xmlns="http://www.w3.org/2000/svg" id="bold" height="512" viewBox="0 0 32 32" width="512"><path d="m26 32h-20c-3.314 0-6-2.686-6-6v-20c0-3.314 2.686-6 6-6h20c3.314 0 6 2.686 6 6v20c0 3.314-2.686 6-6 6z" fill="#e3f8fa"></path><g fill="#26c6da"><path d="m10.5 11.667c-.368 0-.667-.299-.667-.667v-2.333c0-.369.299-.667.667-.667s.667.299.667.667v2.333c0 .368-.299.667-.667.667z"></path><path d="m13.667 11.667c-.369 0-.667-.299-.667-.667v-2.333c0-.369.298-.667.667-.667.368 0 .667.299.667.667v2.333c-.001.368-.299.667-.667.667z"></path><path d="m16.833 11.667c-.368 0-.667-.299-.667-.667v-2.333c.001-.369.299-.667.667-.667s.667.298.667.667v2.333c0 .368-.298.667-.667.667z"></path><path d="m17.5 9.5h-7.667c-1.013 0-1.833.82-1.833 1.833v8.833c0 1.014.82 1.834 1.833 1.834h4.92l.147-.82c.067-.373.24-.707.507-.98l3.927-3.92v-4.947c-.001-1.013-.821-1.833-1.834-1.833zm-4.167 3.167c.367 0 .667.3.667.667 0 .366-.3.666-.667.666h-2.667c-.366 0-.666-.3-.666-.667s.3-.667.667-.667h2.666zm2 4h-4.667c-.366 0-.666-.3-.666-.667s.3-.667.667-.667h4.667c.366 0 .666.3.666.667s-.3.667-.667.667z"></path></g><path d="m16.352 24c-.132 0-.259-.052-.354-.146-.115-.115-.167-.28-.139-.44l.354-2.004c.018-.101.066-.194.139-.267l4.95-4.95c.608-.609 1.205-.445 1.532-.118l.825.825c.455.455.455 1.195 0 1.65l-4.95 4.95c-.072.073-.165.121-.267.139l-2.003.354c-.029.004-.058.007-.087.007zm2.003-.853h.007z" fill="#8ce1eb"></path></svg>