<svg xmlns="http://www.w3.org/2000/svg" xmlns:xlink="http://www.w3.org/1999/xlink" width="304.625" height="304.625" viewBox="0 0 304.625 304.625">
  <defs>
    <linearGradient id="linear-gradient" x1="0.5" y1="-0.007" x2="0.5" y2="1.017" gradientUnits="objectBoundingBox">
      <stop offset="0" stop-color="#1a6dff"/>
      <stop offset="1" stop-color="#c822ff"/>
    </linearGradient>
    <linearGradient id="linear-gradient-2" x1="0.5" x2="0.5" y2="1" gradientUnits="objectBoundingBox">
      <stop offset="0" stop-color="#9bbaff"/>
      <stop offset="1" stop-color="#cbaeff"/>
    </linearGradient>
  </defs>
  <g id="Group_42" data-name="Group 42" transform="translate(-2687 -1220)">
    <path id="Path_81" data-name="Path 81" d="M232.422,311.625H86.2A79.294,79.294,0,0,1,7,232.422V86.2A79.294,79.294,0,0,1,86.2,7h146.22a79.294,79.294,0,0,1,79.2,79.2v146.22A79.294,79.294,0,0,1,232.422,311.625ZM86.2,19.185A67.1,67.1,0,0,0,19.185,86.2v146.22A67.1,67.1,0,0,0,86.2,299.44h146.22a67.1,67.1,0,0,0,67.017-67.017V86.2a67.1,67.1,0,0,0-67.017-67.017Z" transform="translate(2680 1213)" fill="url(#linear-gradient)"/>
    <path id="Php" d="M67.483,41.7H23.643L4.69,160.818H27.2l4.741-30.878H53.271c20.135,1.468,42.658-19.122,42.658-54.417,0-20.59-9.482-32.359-28.435-33.827ZM50.9,107.882H36.672L42.6,63.767H58c8.288,0,14.223,4.417,14.223,13.237C71.041,102.011,61.559,106.415,50.9,107.882ZM146.864,41.7H125.535l4.741-30.878H107.764L88.812,129.94h22.511l10.664-66.173h17.77c8.3,0,8.3,4.417,7.106,11.77l-8.288,54.417h23.694l8.288-60.3c2.365-14.705-4.741-26.475-23.694-27.942Zm79.381,0H182.4L163.451,160.818h22.511L190.7,129.94h21.329c20.146,1.468,42.658-19.122,42.658-54.417,0-20.59-9.482-32.359-28.435-33.827Zm-16.588,66.187H195.434l5.923-44.115h15.405c8.3,0,14.223,4.417,14.223,13.237C229.8,102.011,220.321,106.415,209.656,107.882Z" transform="translate(2709.31 1286.182)" fill="url(#linear-gradient-2)"/>
  </g>
</svg>
