<svg xmlns="http://www.w3.org/2000/svg" xmlns:xlink="http://www.w3.org/1999/xlink" width="304.625" height="304.625" viewBox="0 0 304.625 304.625">
  <defs>
    <linearGradient id="linear-gradient" x1="0.5" x2="0.5" y2="1" gradientUnits="objectBoundingBox">
      <stop offset="0" stop-color="#8ebeff"/>
      <stop offset="1" stop-color="#d3adff"/>
    </linearGradient>
    <linearGradient id="linear-gradient-2" x1="0.5" y1="-0.007" x2="0.5" y2="1.017" gradientUnits="objectBoundingBox">
      <stop offset="0" stop-color="#1a6dff"/>
      <stop offset="1" stop-color="#c822ff"/>
    </linearGradient>
  </defs>
  <g id="Group_16" data-name="Group 16" transform="translate(-1240 -1778)">
    <g id="iconfinder_codeigniter-icon_1285073" transform="translate(1324.959 1851.8)">
      <path id="Path_1" data-name="Path 1" d="M45.12,153.15c-9-3.9-17.4-13.75-17.4-23.85,0-11,6.95-20.35,15.65-26.5-1.05,3.95-1.6,7.55.95,11.1a10.363,10.363,0,0,0,10.6,4c9.3-2.05,9.7-12.25,4.2-18.2-5.45-5.95-10.7-12.6-8.6-21.15a21.759,21.759,0,0,1,7-11.15c-2.55,6.75,4.7,13.35,9.5,16.7,8.3,5.75,17.45,10.05,25.1,16.8,8.05,7.05,14,16.65,12.8,27.7-1.3,12-10.85,20.35-21.55,24.6,22.65-5,46-22.55,46.5-47.65.4-20.65-13.75-36.55-31.3-45.65l-.9-.5a6.6,6.6,0,0,1,.6,3.05,13.493,13.493,0,0,0,.3-2.05,9.674,9.674,0,0,1-.3,2.45l.05-.4a9.963,9.963,0,0,1-1.3,3.1l.25-.3c-3.5,5.8-13,7.05-17.65,1.05-7.55-9.65.15-20.1,1.25-30.35,1.35-12.85-6.7-25.3-16.7-32.75,5.5,8.9-1.75,20.65-7.55,27.25-5.6,6.4-12.45,11.7-18.65,17.5A156.6,156.6,0,0,0,19.42,68C8.47,82.6,1.77,101,6.67,119.2c4.85,18.25,20.65,29.85,38.45,33.95Z" transform="translate(0)" fill="url(#linear-gradient)"/>
    </g>
    <path id="Path_41" data-name="Path 41" d="M232.422,311.625H86.2A79.294,79.294,0,0,1,7,232.422V86.2A79.294,79.294,0,0,1,86.2,7h146.22a79.294,79.294,0,0,1,79.2,79.2v146.22A79.294,79.294,0,0,1,232.422,311.625ZM86.2,19.185A67.1,67.1,0,0,0,19.185,86.2v146.22A67.1,67.1,0,0,0,86.2,299.44h146.22a67.1,67.1,0,0,0,67.017-67.017V86.2a67.1,67.1,0,0,0-67.017-67.017Z" transform="translate(1233 1771)" fill="url(#linear-gradient-2)"/>
  </g>
</svg>
