<svg xmlns="http://www.w3.org/2000/svg" xmlns:xlink="http://www.w3.org/1999/xlink" width="304.625" height="304.625" viewBox="0 0 304.625 304.625">
  <defs>
    <linearGradient id="linear-gradient" x1="0.5" x2="0.5" y2="1" gradientUnits="objectBoundingBox">
      <stop offset="0" stop-color="#8ebeff"/>
      <stop offset="1" stop-color="#d3adff"/>
    </linearGradient>
    <linearGradient id="linear-gradient-2" x1="0.5" y1="-0.007" x2="0.5" y2="1.017" gradientUnits="objectBoundingBox">
      <stop offset="0" stop-color="#1a6dff"/>
      <stop offset="1" stop-color="#c822ff"/>
    </linearGradient>
  </defs>
  <g id="Group_19" data-name="Group 19" transform="translate(-2258 -1790)">
    <path id="iconfinder_postgresql_4691328" d="M104.948,0A63.338,63.338,0,0,0,87.729,2.519l-.394.125A68.263,68.263,0,0,0,76.648,1.613,35.7,35.7,0,0,0,57.86,6.25C52.835,4.506,42.41,1.5,31.423,2.1c-7.65.419-16,2.744-22.188,9.275C3.066,17.906-.2,28.013.491,41.763c.188,3.794,1.269,9.981,3.063,17.994a211.879,211.879,0,0,0,7.456,25.95c3.144,8.563,6.588,16.25,11.969,21.475,2.688,2.619,6.388,4.819,10.75,4.638a13.793,13.793,0,0,0,8.219-3.45,9.862,9.862,0,0,0,3.538,2.819,17.159,17.159,0,0,0,4.25,1.663,29.528,29.528,0,0,0,12.175.625,23.012,23.012,0,0,0,5.469-1.688c.069,2.063.15,4.081.231,6.125.256,6.475.419,12.456,2.363,17.7a23.08,23.08,0,0,0,4.544,9.163c3.375,3.9,9.988,6.331,17.519,4.719,5.313-1.138,12.069-3.188,16.556-9.575,4.438-6.313,6.438-15.369,6.831-30.057.1-.794.219-1.469.344-2.1l1.056.094h.125A37.126,37.126,0,0,0,133.9,104.92c4.55-2.106,7.994-4.238,10.5-8.019a8.022,8.022,0,0,0,1.5-4.019,8.165,8.165,0,0,0-2.788-6.406c-3.719-2.825-6.056-1.75-8.563-1.231a39.189,39.189,0,0,1-7.513.913A143.78,143.78,0,0,0,142.4,49.625a79.64,79.64,0,0,0,2.813-18.419c.081-5.444-.363-10.263-3.625-14.431C131.4,3.75,117.067.15,105.979.025c-.344-.006-.688-.013-1.031-.006Zm-.294,4c10.488-.1,23.888,2.844,33.507,15.138,2.163,2.763,2.806,6.8,2.731,11.775a76.907,76.907,0,0,1-2.681,17.438A140.133,140.133,0,0,1,120.1,88.9a4.725,4.725,0,0,0,.988.538c1.813.75,5.944,1.394,14.188-.3,2.075-.437,3.594-.731,5.169.469a3.25,3.25,0,0,1,1.144,2.656,4.4,4.4,0,0,1-.813,2.1c-1.594,2.394-4.738,4.663-8.769,6.531a34.516,34.516,0,0,1-13.225,2.581,20.263,20.263,0,0,1-6.156-.706l-.113-.044c-.688,6.625-2.269,19.706-3.3,25.675-.825,4.813-2.269,8.638-5.025,11.5s-6.644,4.588-11.881,5.713c-6.488,1.394-11.219-.106-14.269-2.675a19.506,19.506,0,0,1-5.275-8.044,23.5,23.5,0,0,1-1.163-5.788c-.287-2.488-.5-5.531-.644-8.963q-.287-7.881-.187-15.769a19.131,19.131,0,0,1-9.7,4.75,25.589,25.589,0,0,1-10.444-.562,14.226,14.226,0,0,1-3.25-1.256,6.007,6.007,0,0,1-2.75-2.481,3.5,3.5,0,0,1-.356-2.381,3.813,3.813,0,0,1,1.363-2.069,12.069,12.069,0,0,1,5.344-2.081c4.494-.925,6.063-1.556,7.019-2.313a38.418,38.418,0,0,0,3.356-3.888q-.012-.128-.019-.256A18.5,18.5,0,0,1,53.023,89.6c-.938.988-5.725,6.05-11.563,13.075-2.456,2.938-5.169,4.625-8.031,4.744s-5.45-1.319-7.65-3.45c-4.394-4.269-7.9-11.613-10.956-19.913A208.181,208.181,0,0,1,7.529,58.638,125.157,125.157,0,0,1,4.566,41.35C3.91,28.338,6.954,19.569,12.172,14.038S24.56,6.413,31.541,6.013c12.531-.719,24.431,3.65,26.838,4.588A30.561,30.561,0,0,1,76.454,5.613,46.188,46.188,0,0,1,86.961,6.975l.125-.056A42.838,42.838,0,0,1,91.7,5.581a60.163,60.163,0,0,1,12.944-1.569Zm.95,4.188h-.913a54.625,54.625,0,0,0-10.65,1.2A46.829,46.829,0,0,1,111.854,23.45a52.751,52.751,0,0,1,7.075,12,28.739,28.739,0,0,1,1.413,4.125,8.566,8.566,0,0,1,.25,1.475,2.751,2.751,0,0,1-.075.9c0,.019-.031.063-.038.081.188,5.475-1.169,9.188-1.331,14.413-.125,3.788.844,8.238,1.081,13.094a24.8,24.8,0,0,1-3.288,14.494c.25.3.475.6.713.9a136.556,136.556,0,0,0,16.5-37.644,73.585,73.585,0,0,0,2.544-16.45c.063-4.5-.775-7.763-1.844-9.125C126.467,10.988,115.117,8.256,105.6,8.181Zm-29.938,1.6c-7.388.019-12.688,2.25-16.706,5.594a30.938,30.938,0,0,0-8.75,13.031A55.275,55.275,0,0,0,47,43.5l.081-.05a32.384,32.384,0,0,1,8.3-3.225,16.41,16.41,0,0,1,9.581.244,10.873,10.873,0,0,1,6.513,8.219c4.4,20.356-1.369,27.925-3.494,33.638a60.064,60.064,0,0,0-2.069,6.331,6.143,6.143,0,0,1,.806-.162,6.836,6.836,0,0,1,3.375.675,8.212,8.212,0,0,1,4.4,4.875,8.583,8.583,0,0,1,.444,1.775,2.1,2.1,0,0,1,.125.794q-.355,11.679.081,23.363c.144,3.362.356,6.325.625,8.662a23.868,23.868,0,0,0,.894,4.706,15.877,15.877,0,0,0,4.081,6.4c2.113,1.775,5.144,2.963,10.681,1.775,4.8-1.031,7.763-2.463,9.744-4.519s3.156-4.919,3.913-9.3c1.131-6.563,3.406-25.594,3.681-29.175A11.975,11.975,0,0,1,109.9,92.17a7.4,7.4,0,0,1,3.45-3.156,11.734,11.734,0,0,1,1.606-.581q-.725-1.041-1.519-2.031a27.851,27.851,0,0,1-4.163-6.869q-.753-1.535-1.606-3.019c-.831-1.5-1.881-3.375-2.981-5.481a68.074,68.074,0,0,1-5.838-14.313c-1.238-4.975-1.419-10.125,1.756-13.756,2.813-3.225,7.75-4.563,15.163-3.813-.219-.656-.35-1.2-.719-2.075a48.856,48.856,0,0,0-6.506-11.025C102.267,18.019,92.1,10.056,76.385,9.8h-.719Zm-41.513.325c-.794,0-1.588.025-2.375.069-6.313.363-12.281,2.194-16.55,6.719S8.141,28.844,8.754,41.125A131.726,131.726,0,0,0,11.622,57.7,205.679,205.679,0,0,0,18.76,82.588c2.956,8.044,6.538,15.044,9.938,18.356,1.713,1.656,3.2,2.325,4.55,2.269s2.988-.844,4.981-3.238q5.453-6.577,11.313-12.8a21.856,21.856,0,0,1-7.294-19.688,77.671,77.671,0,0,0,.656-12.35c-.075-3.325-.313-5.538-.313-6.919q0-.059,0-.119v-.031l-.006-.038v-.006a61.832,61.832,0,0,1,3.7-21.1,36.091,36.091,0,0,1,8.263-13.2,70.816,70.816,0,0,0-18.025-3.55q-1.187-.061-2.375-.063Zm77.488,33.013c-4.244.056-6.625,1.15-7.875,2.581-1.769,2.031-1.938,5.594-.838,9.981a65.224,65.224,0,0,0,5.481,13.388c1.063,2.044,2.094,3.881,2.925,5.375a37.8,37.8,0,0,1,1.825,3.469,20.091,20.091,0,0,0,1.113,2.263,21.032,21.032,0,0,0,1.769-10.425c-.219-4.394-1.238-8.888-1.088-13.438.169-5.319,1.219-8.781,1.313-12.894A36.206,36.206,0,0,0,111.642,43.125Zm-51.463.719a17.625,17.625,0,0,0-3.85.463,29.157,29.157,0,0,0-7.206,2.806,15.107,15.107,0,0,0-2.181,1.425l-.138.125c.038.913.219,3.125.294,6.381a81.96,81.96,0,0,1-.7,13.025C44.9,78.757,52.66,87.607,61.773,87.62a61.135,61.135,0,0,1,2.281-6.763c2.538-6.838,7.531-11.825,3.325-31.288-.687-3.188-2.05-4.475-3.925-5.2a9.213,9.213,0,0,0-3.275-.525Zm49.482,1.275h.313a5.484,5.484,0,0,1,1.125.138,2.569,2.569,0,0,1,.863.344,1.025,1.025,0,0,1,.469.688l-.006.05h0a1.5,1.5,0,0,1-.219.844,4.176,4.176,0,0,1-.688.938,4.231,4.231,0,0,1-2.413,1.325,3.688,3.688,0,0,1-2.563-.644,3.8,3.8,0,0,1-.812-.738,1.625,1.625,0,0,1-.394-.794,1.063,1.063,0,0,1,.262-.8,2.4,2.4,0,0,1,.731-.563,6.971,6.971,0,0,1,2.331-.725,8.073,8.073,0,0,1,1-.081Zm-48.875,1.05a7.543,7.543,0,0,1,1.038.081,6.847,6.847,0,0,1,2.456.763,2.788,2.788,0,0,1,.831.663,1.394,1.394,0,0,1,.338,1.063,1.888,1.888,0,0,1-.469.963,4.057,4.057,0,0,1-.894.813,4,4,0,0,1-2.8.706,4.55,4.55,0,0,1-2.625-1.425,4.438,4.438,0,0,1-.737-1.025,1.75,1.75,0,0,1-.256-1.106,1.6,1.6,0,0,1,1.194-1.219,5.412,5.412,0,0,1,1.919-.25Zm56.626,45.894-.019.006c-.919.331-1.675.469-2.313.75a2.825,2.825,0,0,0-1.494,1.338,8.031,8.031,0,0,0-.631,4.163,3.188,3.188,0,0,0,.925.438,17.433,17.433,0,0,0,4.863.506,32.576,32.576,0,0,0,11.5-2.188,24.688,24.688,0,0,0,5.894-3.844h-.006c-8.706,1.8-13.625,1.319-16.644.075a8.218,8.218,0,0,1-2.075-1.25Zm-50.194.588h-.131c-.331.031-.813.144-1.744,1.175-2.175,2.438-2.938,3.969-4.731,5.4s-4.125,2.188-8.781,3.144a11.989,11.989,0,0,0-2.881.9,1.626,1.626,0,0,0,.438.331,10.423,10.423,0,0,0,2.263.888,21.811,21.811,0,0,0,8.719.5,14.926,14.926,0,0,0,10.044-6.5,3.225,3.225,0,0,0,.15-2.994,4.64,4.64,0,0,0-2.069-2.456,4.081,4.081,0,0,0-1.275-.375Z" transform="translate(2337.599 1867)" fill="url(#linear-gradient)"/>
    <path id="Path_44" data-name="Path 44" d="M232.422,311.625H86.2A79.294,79.294,0,0,1,7,232.422V86.2A79.294,79.294,0,0,1,86.2,7h146.22a79.294,79.294,0,0,1,79.2,79.2v146.22A79.294,79.294,0,0,1,232.422,311.625ZM86.2,19.185A67.1,67.1,0,0,0,19.185,86.2v146.22A67.1,67.1,0,0,0,86.2,299.44h146.22a67.1,67.1,0,0,0,67.017-67.017V86.2a67.1,67.1,0,0,0-67.017-67.017Z" transform="translate(2251 1783)" fill="url(#linear-gradient-2)"/>
  </g>
</svg>
