<svg xmlns="http://www.w3.org/2000/svg" xmlns:xlink="http://www.w3.org/1999/xlink" width="304.625" height="304.625" viewBox="0 0 304.625 304.625">
  <defs>
    <linearGradient id="linear-gradient" x1="0.5" x2="0.5" y2="1" gradientUnits="objectBoundingBox">
      <stop offset="0" stop-color="#8ebeff"/>
      <stop offset="1" stop-color="#d3adff"/>
    </linearGradient>
    <linearGradient id="linear-gradient-2" x1="0.5" y1="-0.007" x2="0.5" y2="1.017" gradientUnits="objectBoundingBox">
      <stop offset="0" stop-color="#1a6dff"/>
      <stop offset="1" stop-color="#c822ff"/>
    </linearGradient>
  </defs>
  <g id="Group_24" data-name="Group 24" transform="translate(-1597 -2421)">
    <path id="iconfinder_shopify_4691375" d="M88.254,149.869l45.1-9.756S117.079,30.031,116.948,29.3a1.38,1.38,0,0,0-1.319-1.2c-.606,0-12.056-.85-12.056-.85s-7.969-7.963-8.994-8.819a2.4,2.4,0,0,0-.756-.463l-5.713,131.9ZM65.586,70.656A26.685,26.685,0,0,0,54.5,68.006c-9.044,0-9.4,5.662-9.4,7.131,0,7.7,20.25,10.719,20.25,28.931,0,14.344-9,23.5-21.288,23.5-14.713,0-22.125-9.156-22.125-9.156l4.037-13.038s7.781,6.663,14.25,6.663a5.9,5.9,0,0,0,6.094-5.825c0-10.119-16.588-10.588-16.588-27.244-.212-13.981,9.819-27.6,30.169-27.6,7.856,0,11.719,2.256,11.719,2.256L65.711,70.594l-.125.063ZM62.21,5.188a4.2,4.2,0,0,1,2.531.844c-6.15,2.906-12.9,10.244-15.675,24.95-4.1,1.331-8.081,2.531-11.806,3.613C40.5,23.438,48.342,5.25,62.21,5.25Zm7.719,18.431v.844c-4.713,1.45-9.894,3.025-14.963,4.6C57.879,17.956,63.3,12.531,68,10.494c1.206,3.131,1.931,7.35,1.931,13.125ZM73.3,9.656c4.338.462,7.131,5.419,8.931,10.969-2.181.713-4.594,1.444-7.238,2.288V21.337A35.541,35.541,0,0,0,73.3,9.644v.012ZM92,17.712c-.125,0-.375.131-.487.131s-1.806.469-4.463,1.313C84.4,11.45,79.7,4.344,71.373,4.344h-.719C68.242,1.306,65.329,0,62.8,0,43.392,0,34.117,24.231,31.21,36.538c-7.463,2.281-12.894,3.975-13.5,4.213-4.219,1.331-4.338,1.45-4.825,5.438-.469,2.887-11.438,87.894-11.438,87.894L86.2,150,92,17.712Z" transform="translate(1681.552 2498)" fill="url(#linear-gradient)"/>
    <path id="Path_56" data-name="Path 56" d="M232.422,311.625H86.2A79.294,79.294,0,0,1,7,232.422V86.2A79.294,79.294,0,0,1,86.2,7h146.22a79.294,79.294,0,0,1,79.2,79.2v146.22A79.294,79.294,0,0,1,232.422,311.625ZM86.2,19.185A67.1,67.1,0,0,0,19.185,86.2v146.22A67.1,67.1,0,0,0,86.2,299.44h146.22a67.1,67.1,0,0,0,67.017-67.017V86.2a67.1,67.1,0,0,0-67.017-67.017Z" transform="translate(1590 2414)" fill="url(#linear-gradient-2)"/>
  </g>
</svg>
