<svg xmlns="http://www.w3.org/2000/svg" xmlns:xlink="http://www.w3.org/1999/xlink" width="304.625" height="304.625" viewBox="0 0 304.625 304.625">
  <defs>
    <linearGradient id="linear-gradient" x1="0.5" x2="0.5" y2="1" gradientUnits="objectBoundingBox">
      <stop offset="0" stop-color="#8ebeff"/>
      <stop offset="1" stop-color="#d3adff"/>
    </linearGradient>
    <linearGradient id="linear-gradient-2" x1="0.5" y1="-0.007" x2="0.5" y2="1.017" gradientUnits="objectBoundingBox">
      <stop offset="0" stop-color="#1a6dff"/>
      <stop offset="1" stop-color="#c822ff"/>
    </linearGradient>
  </defs>
  <g id="Group_17" data-name="Group 17" transform="translate(-1587 -1784)">
    <path id="Path_2" data-name="Path 2" d="M138.371,154.921a90.086,90.086,0,0,1-20.625,7.518,66.462,66.462,0,0,1-14.3,1.562,93.671,93.671,0,0,1-15.781-1.319,103.577,103.577,0,0,1-23.4-6.984A116,116,0,0,1,12,111.059c5.916,5.515,28.54,22.059,56.126,22.059,28.143,0,38.766-11.122,38.757-11.131C75.432,98.825,36.821,53.154,25.235,36.059c21.657,19.734,58.65,44.665,70.893,51.715-25.9-27.256-48.834-60.538-48.834-60.538a468.472,468.472,0,0,0,83.735,66.728c3.86-7.721,4.416-18.485,4.416-24.816,0-19.853-9.834-43.015-21.975-55.147,32.135,19.4,52.765,53.144,52.875,84.926a68.422,68.422,0,0,1-2.131,17.51l-.349,1.024s1.84,2.126,1.95,2.263c19.028,23.338,13.654,48.4,11.3,43.7-5.369-10.482-13.143-12.485-20.7-12.662A40.714,40.714,0,0,0,138.371,154.921Z" transform="translate(1643 1847)" fill="url(#linear-gradient)"/>
    <path id="Path_40" data-name="Path 40" d="M232.422,311.625H86.2A79.294,79.294,0,0,1,7,232.422V86.2A79.294,79.294,0,0,1,86.2,7h146.22a79.294,79.294,0,0,1,79.2,79.2v146.22A79.294,79.294,0,0,1,232.422,311.625ZM86.2,19.185A67.1,67.1,0,0,0,19.185,86.2v146.22A67.1,67.1,0,0,0,86.2,299.44h146.22a67.1,67.1,0,0,0,67.017-67.017V86.2a67.1,67.1,0,0,0-67.017-67.017Z" transform="translate(1580 1777)" fill="url(#linear-gradient-2)"/>
  </g>
</svg>
