<svg xmlns="http://www.w3.org/2000/svg" height="512pt" viewBox="0 -89 512.00211 512" width="512pt"><path d="m380.421875 126.859375h-93.269531c-7.199219 0-13.035156-5.839844-13.035156-13.039063v-93.28125c0-7.199218 5.835937-13.035156 13.035156-13.035156h93.269531c7.199219 0 13.035156 5.835938 13.035156 13.035156v93.28125c0 7.199219-5.835937 13.039063-13.035156 13.039063zm0 0" fill="#fecbaa"></path><path d="m380.421875 7.503906h-24.953125c7.203125 0 13.039062 5.835938 13.039062 13.039063v93.277343c0 7.199219-5.835937 13.039063-13.039062 13.039063h24.953125c7.199219 0 13.035156-5.839844 13.035156-13.039063v-93.277343c0-7.203125-5.835937-13.039063-13.035156-13.039063zm0 0" fill="#ffae85"></path><path d="m215.964844 146.683594h-89.957032c-6.945312 0-12.574218-5.628906-12.574218-12.574219v-89.964844c0-6.945312 5.632812-12.574219 12.574218-12.574219h89.957032c6.945312 0 12.574218 5.628907 12.574218 12.574219v89.964844c0 6.945313-5.628906 12.574219-12.574218 12.574219zm0 0" fill="#fedfc5"></path><path d="m215.964844 31.566406h-27.628906c6.945312 0 12.574218 5.632813 12.574218 12.578125v89.964844c0 6.945313-5.628906 12.574219-12.574218 12.574219h27.628906c6.945312 0 12.574218-5.628906 12.574218-12.574219v-89.964844c0-6.945312-5.628906-12.578125-12.574218-12.578125zm0 0" fill="#fecbaa"></path><path d="m328.957031 327.277344h-122.980469c-9.492187 0-17.191406-7.695313-17.191406-17.191406v-122.996094c0-9.496094 7.699219-17.191406 17.191406-17.191406h122.980469c9.496094 0 17.191407 7.695312 17.191407 17.191406v122.996094c0 9.496093-7.699219 17.191406-17.191407 17.191406zm0 0" fill="#ffae85"></path><path d="m328.957031 169.902344h-46.214843c9.492187 0 17.191406 7.695312 17.191406 17.191406v122.992188c0 9.496093-7.699219 17.191406-17.191406 17.191406h46.214843c9.496094 0 17.191407-7.695313 17.191407-17.191406v-122.996094c0-9.492188-7.695313-17.1875-17.191407-17.1875zm0 0" fill="#ea9e7d"></path><path d="m504.496094 153.757812-.582032-70.613281c-.628906-13.804687-12.449218-24.410156-26.238281-23.550781l-122.570312 8.03125c.105469 12.765625 10.546875 23.027344 23.316406 22.902344l72.027344-.503906 2.6875 63.042968zm0 0" fill="#ff84a7"></path><path d="m433.542969 90.144531c-.378907-8.820312-7.667969-15.761719-16.496094-15.699219l-56.207031.394532c-1.597656.015625-3.15625-.132813-4.660156-.425782 2.984374 9.425782 11.839843 16.214844 22.242187 16.113282zm0 0" fill="#ef6085"></path><path d="m503.914062 83.144531c-.515624-11.308593-8.546874-20.46875-19.015624-22.9375.816406 2.273438 1.316406 4.707031 1.433593 7.246094l.296875 36.171875c.160156 18.902344-15.253906 34.234375-34.152344 33.980469l.660157 15.460937 51.363281.691406zm0 0" fill="#ef6085"></path><path d="m453.136719 153.066406-52.417969 54.527344c-4.832031 4.90625-5.722656 12.464844-2.160156 18.359375l31.242187 76.019531h18.039063l-15.109375-67.257812c-.71875-1.800782-.460938-3.839844.675781-5.410156l71.09375-75.542969zm0 0" fill="#38627c"></path><path d="m504.5 153.757812-51.363281-.691406-17.074219 57.785156c-1.058594 3.722657-.234375 7.726563 2.210938 10.726563l42.464843 80.394531h18.035157l-22.246094-77.691406c-.71875-2.507812-.539063-5.191406.503906-7.582031zm0 0" fill="#4f7693"></path><path d="m501.648438 29.203125-5.546876 16.359375c-2.605468 7.683594-10.945312 11.804688-18.632812 9.199219l-6.472656-2.195313c-7.6875-2.605468-11.804688-10.949218-9.199219-18.632812l5.542969-16.359375c2.605468-7.6875 10.949218-11.804688 18.636718-9.199219l6.472657 2.195312c7.683593 2.605469 11.804687 10.945313 9.199219 18.632813zm0 0" fill="#fedfc5"></path><path d="m117.507812 97.136719c-2.175781.230469-4.367187-.269531-6.230468-1.417969l-45.023438-28.855469c-7.980468-5.117187-18.5-3.644531-24.769531 3.46875l-3.414063 3.875c-5.082031 5.761719-7.914062 13.164063-7.976562 20.851563l-.488281 58.699218 51.363281-.691406.566406-45.347656 25.789063 14.335938c1.824219 1.015624 3.925781 1.425781 5.996093 1.171874l37.6875-4.640624c13.949219-1.714844 24.429688-13.566407 24.429688-27.625zm0 0" fill="#69d998"></path><path d="m126.707031 112.316406c-26.453125.914063-45.058593-13.257812-52.847656-20.519531-1.429687-1.332031-3.753906-.328125-3.777344 1.625-.003906.152344-.003906.300781-.007812.453125-.273438 21.992188-18.023438 39.761719-40.011719 40.058594l-.292969.003906-.164062 19.820312 51.359375-.691406.570312-45.347656 25.789063 14.339844c1.824219 1.015625 3.921875 1.425781 5.996093 1.167968l37.6875-4.636718c13.949219-1.71875 24.429688-13.570313 24.429688-27.625-3.964844 3.945312-21.363281 20.402344-48.730469 21.351562zm0 0" fill="#3dc5a1"></path><path d="m80.964844 153.066406 52.417968 54.527344c4.835938 4.90625 5.726563 12.464844 2.160157 18.359375l-31.242188 76.019531h-18.035156l15.109375-67.257812c.714844-1.800782.460938-3.839844-.679688-5.410156l-71.089843-75.546876zm0 0" fill="#38627c"></path><path d="m29.605469 153.757812 51.359375-.691406-51.359375 148.90625h-19.105469zm0 0" fill="#4f7693"></path><path d="m43.640625 31.109375-1.625 17.195313c-.761719 8.078124 5.167969 15.246093 13.246094 16.011718l6.804687.640625c8.078125.765625 15.25-5.167969 16.011719-13.246093l1.621094-17.199219c.765625-8.078125-5.167969-15.246094-13.246094-16.007813l-6.804687-.644531c-8.078126-.761719-15.246094 5.167969-16.007813 13.25zm0 0" fill="#fedfc5"></path><path d="m429.804688 309.472656h18.035156c2.277344 0 4.433594-1.035156 5.855468-2.8125 1.425782-1.78125 1.964844-4.109375 1.464844-6.332031l-12.011718-53.453125 30.957031 58.601562c1.296875 2.457032 3.851562 3.996094 6.632812 3.996094h18.035157c2.351562 0 4.570312-1.105468 5.988281-2.984375 1.417969-1.878906 1.871093-4.316406 1.222656-6.582031l-22.25-77.691406c-.234375-.832032-.175781-1.726563.167969-2.519532l27.46875-62.929687c.011718-.03125.023437-.066406.035156-.097656.042969-.09375.074219-.195313.113281-.292969.046875-.128906.097657-.253906.136719-.386719.007812-.03125.023438-.0625.03125-.09375.011719-.035156.019531-.074219.027344-.113281.015625-.050781.027344-.105469.042968-.160156.027344-.109375.058594-.222656.082032-.335938.015625-.070312.027344-.144531.042968-.214844.015626-.089843.023438-.179687.039063-.269531.007813-.078125.023437-.152343.03125-.234375.011719-.113281.019531-.226562.027344-.34375.003906-.09375.011719-.1875.011719-.28125 0-.027344.003906-.050781.003906-.078125 0-.011719 0-.027343 0-.039062 0-.042969.007812-.085938.007812-.128907l-.585937-70.613281c-.003907-.09375-.003907-.1875-.007813-.28125-.398437-8.703125-4.1875-16.699219-10.667968-22.515625-1.195313-1.070312-2.449219-2.039062-3.757813-2.910156 2.824219-2.519531 4.976563-5.722656 6.226563-9.40625l5.542968-16.359375c3.929688-11.589844-2.304687-24.214844-13.894531-28.144531l-6.472656-2.195313c-5.613281-1.902343-11.636719-1.503906-16.949219 1.117188-5.320312 2.628906-9.292969 7.164062-11.199219 12.78125l-5.542969 16.355469c-2.632812 7.773437-.695312 16.003906 4.359376 21.773437l-104.4375 6.839844c-3.96875.261719-7.042969 3.570312-7.011719 7.546875.066406 8.179687 3.320312 15.84375 9.15625 21.578125 5.835937 5.730469 13.507812 8.835937 21.714843 8.765625l7.480469-.050782v15.84375c0 3.050782-2.480469 5.53125-5.53125 5.53125h-93.273437c-3.050782 0-5.53125-2.480468-5.53125-5.53125v-93.277343c0-3.054688 2.480468-5.539063 5.53125-5.539063h93.273437c3.050781 0 5.53125 2.484375 5.53125 5.539063v14.820312c0 4.140625 3.359375 7.5 7.5 7.5 4.144531 0 7.503907-3.359375 7.503907-7.5v-14.820312c0-11.324219-9.210938-20.542969-20.535157-20.542969h-93.273437c-11.324219 0-20.53125 9.214844-20.53125 20.542969v93.277343c0 11.324219 9.207031 20.535157 20.53125 20.535157h93.273437c11.324219 0 20.535157-9.210938 20.535157-20.535157v-15.949218l42.242187-.296875 2.300781 52.613281-50.125 52.136719c-7.101562 7.207031-8.527344 18.210937-3.558594 26.96875l31.050782 75.53125c1.152344 2.8125 3.894531 4.648437 6.933594 4.648437zm40.351562-95.773437c-1.738281 3.980469-2.035156 8.472656-.839844 12.644531l19.507813 68.128906h-3.566407l-39.535156-74.851562c-.019531-.039063-.039062-.078125-.0625-.113282l-.753906-1.433593c-.230469-.4375-.507812-.851563-.820312-1.238281-.894532-1.097657-1.195313-2.5625-.828126-3.859376l15.460938-52.328124 34.386719.464843zm-1.253906-177.355469 5.542968-16.359375c.617188-1.820313 1.90625-3.292969 3.628907-4.140625 1.007812-.496094 2.089843-.75 3.179687-.75.777344 0 1.558594.128906 2.3125.386719l6.472656 2.191406c3.757813 1.273437 5.777344 5.367187 4.503907 9.121094l-5.542969 16.359375c-.617188 1.820312-1.90625 3.292968-3.628906 4.144531-1.722656.847656-3.675782.980469-5.492188.359375l-6.472656-2.191406c-3.757812-1.273438-5.777344-5.367188-4.503906-9.121094zm-75.386719 46.578125c-.019531 0-.039063-.003906-.058594-.003906-.027343 0-.054687.003906-.078125.003906l-15.03125.105469c-4.207031.035156-8.101562-1.546875-11.074218-4.46875-1.21875-1.191406-2.210938-2.550782-2.964844-4.023438l113.835937-7.457031c4.640625-.289063 9.109375 1.265625 12.574219 4.371094 3.433594 3.082031 5.449219 7.304687 5.695312 11.90625l.519532 62.800781-36.613282-.496094-2.109374-48.191406 5.878906-.039062c4.140625-.03125 7.476562-3.414063 7.445312-7.554688-.027344-4.125-3.378906-7.449219-7.5-7.449219-.015625 0-.035156 0-.050781 0zm11.464844 139.15625c-1.792969-2.964844-1.347657-6.757813 1.144531-9.289063l31.101562-32.347656-8.375 28.351563c-1.277343 4.472656-.875 9.195312 1.007813 13.332031l-1.914063 2.039062c-.222656.234376-.429687.480469-.617187.742188-2.515625 3.472656-3.171875 7.875-1.8125 11.910156l12.953125 57.65625h-3.636719l-29.335937-71.363281c-.144532-.359375-.316406-.703125-.515625-1.03125zm0 0"></path><path d="m504.5 319.777344h-29.882812c-4.144532 0-7.503907 3.355468-7.503907 7.5 0 4.144531 3.359375 7.5 7.503907 7.5h29.882812c4.140625 0 7.5-3.355469 7.5-7.5 0-4.144532-3.359375-7.5-7.5-7.5zm0 0"></path><path d="m450.550781 319.777344h-29.882812c-4.144531 0-7.5 3.355468-7.5 7.5 0 4.144531 3.355469 7.5 7.5 7.5h29.882812c4.144531 0 7.5-3.355469 7.5-7.5 0-4.144532-3.355469-7.5-7.5-7.5zm0 0"></path><path d="m88.507812 150.09375.398438-29.695312 14.769531 8.214843c.734375.40625 1.488281.75 2.257813 1.042969v4.453125c0 11.066406 9.003906 20.070313 20.070312 20.070313h89.960938c11.066406 0 20.070312-9.003907 20.070312-20.070313v-89.96875c0-11.070313-9.003906-20.074219-20.070312-20.074219h-89.960938c-11.066406 0-20.070312 9.003906-20.070312 20.074219v39.246094l-26.917969-17.253907c3.726563-3.660156 6.03125-8.457031 6.53125-13.71875l1.621094-17.199218c1.152343-12.183594-7.824219-23.03125-20.007813-24.179688l-6.804687-.644531c-5.890625-.558594-11.667969 1.21875-16.234375 4.996094-4.570313 3.78125-7.390625 9.113281-7.949219 15.015625l-1.625 17.195312c-.523437 5.566406 1.066406 10.847656 4.109375 15.058594-.980469.832031-1.921875 1.722656-2.796875 2.714844l-3.417969 3.875c-6.273437 7.117187-9.769531 16.261718-9.851562 25.75l-.480469 58.253906-4.222656 32.726562c-.527344 4.105469 2.371093 7.867188 6.480469 8.394532 4.109374.535156 7.871093-2.371094 8.398437-6.476563l3.445313-26.71875 34.183593-.460937-10.441406 30.265625c-.03125.097656-.066406.191406-.097656.285156l-35.597657 103.207031h-5.230468l9.589844-74.398437c.53125-4.109375-2.371094-7.871094-6.476563-8.398438-4.097656-.527343-7.871094 2.371094-8.398437 6.476563l-10.683594 82.859375c-.273438 2.140625.382812 4.292969 1.808594 5.914062 1.421874 1.621094 3.476562 2.546875 5.632812 2.546875h19.105469c3.199219 0 6.046875-2.027344 7.089843-5.054687l33.363282-96.722657 23.972656 25.46875-15.082031 67.164063c-.496094 2.222656.039062 4.554687 1.464843 6.332031 1.421876 1.777344 3.578126 2.8125 5.855469 2.8125h18.035157c3.039062 0 5.78125-1.835937 6.9375-4.648437l31.035156-75.53125c4.964844-8.75 3.554687-19.730469-3.519532-26.929688zm37.496094-111.023438h89.960938c2.796875 0 5.070312 2.273438 5.070312 5.070313v89.96875c0 2.792969-2.273437 5.066406-5.070312 5.066406h-89.960938c-2.792968 0-5.066406-2.273437-5.066406-5.066406v-4.261719l30.984375-3.816406c17.683594-2.175781 31.015625-17.25 31.015625-35.066406 0-2.128906-.902344-4.15625-2.484375-5.578125s-3.691406-2.105469-5.8125-1.882813l-53.703125 5.722656v-45.085937c0-2.796875 2.273438-5.070313 5.066406-5.070313zm-76.519531 9.941407 1.625-17.199219c.179687-1.914062 1.09375-3.640625 2.574219-4.867188 1.300781-1.074218 2.902344-1.648437 4.570312-1.648437.230469 0 .460938.007813.691406.03125l6.800782.640625c3.949218.375 6.859375 3.890625 6.488281 7.839844l-1.625 17.195312c-.179687 1.914063-1.09375 3.640625-2.574219 4.867188-1.214844 1.003906-2.691406 1.5625-4.234375 1.632812-3.214843-1.007812-6.539062-1.371094-9.816406-1.140625-2.886719-1.152343-4.808594-4.101562-4.5-7.351562zm-11.890625 46.109375c.046875-5.878906 2.214844-11.546875 6.101562-15.953125l3.414063-3.875c1.683594-1.90625 3.839844-3.140625 6.144531-3.675781.429688.066406.867188.125 1.304688.167968l6.152344.578125c.507812.234375 1.007812.503907 1.492187.816407l45.027344 28.855468c.03125.019532.066406.042969.101562.0625 1.121094.691406 2.316407 1.242188 3.554688 1.660156.113281.039063.21875.085938.332031.121094 2.273438.71875 4.691406.96875 7.085938.714844l47.746093-5.085938c-2.882812 6.195313-8.800781 10.753907-15.960937 11.636719l-37.6875 4.636719c-.5.066406-.996094-.035156-1.4375-.277344l-25.609375-14.242187c-.09375-.054688-.191407-.109375-.289063-.160157l-17.375-9.660156c-3.617187-2.015625-8.1875-.710937-10.199218 2.910156-2.011719 3.621094-.710938 8.1875 2.910156 10.199219l13.609375 7.566407-.449219 33.546874-36.394531.492188zm91.527344 126.957031c-.199219.328125-.371094.671875-.519532 1.03125l-29.324218 71.363281h-3.636719l12.941406-57.648437c1.371094-4.027344.714844-8.433594-1.808593-11.917969-.1875-.261719-.394532-.507812-.617188-.742188l-30.574219-32.484374 8.476563-24.570313 43.914062 45.679687c.023438.023438.046875.046876.070313.070313 2.429687 2.460937 2.871093 6.25 1.078125 9.21875zm0 0"></path><path d="m37.382812 319.777344h-29.882812c-4.140625 0-7.5 3.355468-7.5 7.5 0 4.144531 3.359375 7.5 7.5 7.5h29.882812c4.144532 0 7.503907-3.355469 7.503907-7.5 0-4.144532-3.359375-7.5-7.503907-7.5zm0 0"></path><path d="m113.433594 319.777344h-29.882813c-4.140625 0-7.5 3.355468-7.5 7.5 0 4.144531 3.359375 7.5 7.5 7.5h29.882813c4.144531 0 7.503906-3.355469 7.503906-7.5 0-4.144532-3.359375-7.5-7.503906-7.5zm0 0"></path><path d="m368.507812 319.777344h-16.84375c1.277344-2.976563 1.984376-6.253906 1.984376-9.691406v-122.996094c0-13.613282-11.074219-24.691406-24.691407-24.691406h-69.769531c-4.144531 0-7.5 3.359374-7.5 7.503906 0 4.140625 3.355469 7.5 7.5 7.5h69.769531c5.34375 0 9.691407 4.347656 9.691407 9.6875v122.996094c0 5.34375-4.347657 9.691406-9.691407 9.691406h-122.980469c-5.34375 0-9.691406-4.347656-9.691406-9.691406v-122.996094c0-5.339844 4.347656-9.6875 9.691406-9.6875h16.511719c4.144531 0 7.503907-3.359375 7.503907-7.5 0-4.144532-3.359376-7.503906-7.503907-7.503906h-16.511719c-13.613281 0-24.691406 11.078124-24.691406 24.691406v122.996094c0 3.4375.707032 6.714843 1.984375 9.691406h-19.722656c-4.144531 0-7.5 3.355468-7.5 7.5 0 4.144531 3.355469 7.5 7.5 7.5h204.960937c4.140626 0 7.5-3.355469 7.5-7.5 0-4.144532-3.359374-7.5-7.5-7.5zm0 0"></path></svg>