<svg xmlns="http://www.w3.org/2000/svg" xmlns:xlink="http://www.w3.org/1999/xlink" width="304.625" height="304.625" viewBox="0 0 304.625 304.625">
  <defs>
    <linearGradient id="linear-gradient" x1="0.5" x2="0.5" y2="1" gradientUnits="objectBoundingBox">
      <stop offset="0" stop-color="#8ebeff"/>
      <stop offset="1" stop-color="#d3adff"/>
    </linearGradient>
    <linearGradient id="linear-gradient-2" x1="0.5" y1="-0.007" x2="0.5" y2="1.017" gradientUnits="objectBoundingBox">
      <stop offset="0" stop-color="#1a6dff"/>
      <stop offset="1" stop-color="#c822ff"/>
    </linearGradient>
  </defs>
  <g id="Group_15" data-name="Group 15" transform="translate(-1246 -2089)">
    <path id="icons8-woocommerce" d="M28.125,4A28.123,28.123,0,0,0,0,32.125V97.75a28.123,28.123,0,0,0,28.125,28.125h68.3l56.342,27.7a4.684,4.684,0,0,0,6.409-5.585L150,125.876h46.875A28.139,28.139,0,0,0,225,97.732V32.125A28.123,28.123,0,0,0,196.876,4ZM96.076,22.75a6.882,6.882,0,0,1,2.71.549,7,7,0,0,1,3.79,9.174c-6.047,14.522-9.1,37.274-9.1,67.621a7.03,7.03,0,0,1-12.561,4.34C72.13,93.259,65.262,75.146,60.846,61.074L44.019,102.731a7.132,7.132,0,0,1-6.94,4.376,7.042,7.042,0,0,1-6.372-5.164c-.431-1.575-10.57-38.991-11.939-71.869a7,7,0,0,1,6.72-7.306,6.886,6.886,0,0,1,7.306,6.72c.675,16.2,3.725,33.981,6.5,47.406l16.3-40.375a6.875,6.875,0,0,1,7.086-4.358,7.029,7.029,0,0,1,6.3,5.457,274.187,274.187,0,0,0,11.3,36.2c1.378-19.641,4.482-35.047,9.338-46.729A7.037,7.037,0,0,1,96.076,22.75Zm33.252,9.375a17.551,17.551,0,0,1,3.607.348C145.517,35.1,152.61,51.384,149.1,69.534c-2.081,10.772-7.569,20.04-14.685,24.774a19.314,19.314,0,0,1-10.73,3.442,17.627,17.627,0,0,1-3.5-.348c-12.572-2.625-19.675-18.911-16.168-37.061,2.081-10.772,7.569-20.04,14.685-24.774A19.357,19.357,0,0,1,129.328,32.125Zm56.25,0a17.551,17.551,0,0,1,3.607.348c12.581,2.625,19.675,18.911,16.168,37.061-2.081,10.772-7.569,20.04-14.685,24.774a19.314,19.314,0,0,1-10.73,3.442,17.627,17.627,0,0,1-3.5-.348c-12.572-2.625-19.675-18.911-16.168-37.061,2.081-10.772,7.569-20.04,14.685-24.774A19.357,19.357,0,0,1,185.578,32.125ZM129.456,46.188a5.471,5.471,0,0,0-2.948,1.08c-3.928,2.606-7.329,8.8-8.679,15.747-2.213,11.456,1.636,19.849,5.255,20.6a4.774,4.774,0,0,0,3.552-1.007c3.928-2.606,7.329-8.8,8.679-15.747,2.2-11.456-1.636-19.849-5.255-20.6A2.54,2.54,0,0,0,129.456,46.188Zm56.25,0a5.471,5.471,0,0,0-2.948,1.08c-3.928,2.606-7.329,8.8-8.679,15.747-2.213,11.456,1.636,19.849,5.255,20.6a4.764,4.764,0,0,0,3.552-1.007c3.928-2.606,7.329-8.8,8.679-15.747,2.2-11.456-1.636-19.849-5.255-20.6A2.54,2.54,0,0,0,185.707,46.188Z" transform="translate(1286 2162)" fill="url(#linear-gradient)"/>
    <path id="Path_39" data-name="Path 39" d="M232.422,311.625H86.2A79.294,79.294,0,0,1,7,232.422V86.2A79.294,79.294,0,0,1,86.2,7h146.22a79.294,79.294,0,0,1,79.2,79.2v146.22A79.294,79.294,0,0,1,232.422,311.625ZM86.2,19.185A67.1,67.1,0,0,0,19.185,86.2v146.22A67.1,67.1,0,0,0,86.2,299.44h146.22a67.1,67.1,0,0,0,67.017-67.017V86.2a67.1,67.1,0,0,0-67.017-67.017Z" transform="translate(1239 2082)" fill="url(#linear-gradient-2)"/>
  </g>
</svg>
