<svg xmlns="http://www.w3.org/2000/svg" xmlns:xlink="http://www.w3.org/1999/xlink" width="304.625" height="304.625" viewBox="0 0 304.625 304.625">
  <defs>
    <linearGradient id="linear-gradient" x1="0.5" x2="0.5" y2="1" gradientUnits="objectBoundingBox">
      <stop offset="0" stop-color="#8ebeff"/>
      <stop offset="1" stop-color="#d3adff"/>
    </linearGradient>
    <linearGradient id="linear-gradient-3" x1="0.5" y1="-0.007" x2="0.5" y2="1.017" gradientUnits="objectBoundingBox">
      <stop offset="0" stop-color="#1a6dff"/>
      <stop offset="1" stop-color="#c822ff"/>
    </linearGradient>
  </defs>
  <g id="Group_18" data-name="Group 18" transform="translate(-1911 -1784)">
    <g id="icon" transform="translate(1988 1861)">
      <path id="Path_6" data-name="Path 6" d="M1.843,75a73.169,73.169,0,0,0,41.232,65.842L8.172,45.23A72.945,72.945,0,0,0,1.843,75Zm122.543-3.7c0-9.039-3.244-15.3-6.033-20.171-3.7-6.033-7.184-11.125-7.184-17.158,0-6.717,5.1-12.98,12.283-12.98.322,0,.632.039.954.053A73.142,73.142,0,0,0,13.876,34.822c1.717.053,3.336.086,4.711.086,7.652,0,19.494-.934,19.494-.934,3.941-.23,4.408,5.566.467,6.033,0,0-3.967.461-8.369.691L56.818,119.94,72.832,71.927,61.437,40.7c-3.941-.23-7.678-.691-7.678-.691-3.947-.237-3.48-6.27.461-6.033,0,0,12.079.934,19.264.934,7.652,0,19.5-.934,19.5-.934,3.947-.23,4.408,5.566.467,6.033,0,0-3.974.461-8.369.691l26.435,78.638,7.3-24.381Q124.387,80.694,124.386,71.3Zm-48.1,10.1L54.332,145.177A73.24,73.24,0,0,0,99.3,144.012a8.083,8.083,0,0,1-.526-1.007ZM139.2,39.9a54.837,54.837,0,0,1,.493,7.526c0,7.421-1.395,15.763-5.566,26.2l-22.343,64.6A73.166,73.166,0,0,0,139.2,39.9Z" transform="translate(0 0)" fill="url(#linear-gradient)"/>
      <g id="Group_2" data-name="Group 2">
        <path id="Path_7" data-name="Path 7" d="M0,75A75,75,0,1,0,75,0,75.089,75.089,0,0,0,0,75Zm3.437,0A71.563,71.563,0,1,1,75,146.557,71.643,71.643,0,0,1,3.437,75Z" fill="url(#linear-gradient)"/>
      </g>
    </g>
    <path id="Path_45" data-name="Path 45" d="M232.422,311.625H86.2A79.294,79.294,0,0,1,7,232.422V86.2A79.294,79.294,0,0,1,86.2,7h146.22a79.294,79.294,0,0,1,79.2,79.2v146.22A79.294,79.294,0,0,1,232.422,311.625ZM86.2,19.185A67.1,67.1,0,0,0,19.185,86.2v146.22A67.1,67.1,0,0,0,86.2,299.44h146.22a67.1,67.1,0,0,0,67.017-67.017V86.2a67.1,67.1,0,0,0-67.017-67.017Z" transform="translate(1904 1777)" fill="url(#linear-gradient-3)"/>
  </g>
</svg>
