<svg xmlns="http://www.w3.org/2000/svg" xmlns:xlink="http://www.w3.org/1999/xlink" width="304.625" height="304.625" viewBox="0 0 304.625 304.625">
  <defs>
    <linearGradient id="linear-gradient" x1="0.5" x2="0.5" y2="1" gradientUnits="objectBoundingBox">
      <stop offset="0" stop-color="#8ebeff"/>
      <stop offset="1" stop-color="#d3adff"/>
    </linearGradient>
    <linearGradient id="linear-gradient-2" x1="0.5" y1="-0.007" x2="0.5" y2="1.017" gradientUnits="objectBoundingBox">
      <stop offset="0" stop-color="#1a6dff"/>
      <stop offset="1" stop-color="#c822ff"/>
    </linearGradient>
  </defs>
  <g id="Group_32" data-name="Group 32" transform="translate(-1599 -3054)">
    <path id="surface1" d="M166.35,73.452,131.441,11.517A12.946,12.946,0,0,0,120.379,5H50.629a12.946,12.946,0,0,0-11.062,6.517L4.657,73.452a13.751,13.751,0,0,0,0,13.1l34.909,61.935A12.946,12.946,0,0,0,50.629,155h69.75a12.978,12.978,0,0,0,11.062-6.518L166.35,86.548A13.747,13.747,0,0,0,166.35,73.452ZM117.8,117.5H106.365a1.526,1.526,0,0,1-1.32-.821L85.68,80.75c-.1-.187-.251-.187-.353,0L65.9,116.683a1.481,1.481,0,0,1-1.245.821H53.22a1.624,1.624,0,0,1-1.29-2.329L70.856,80,51.93,44.757a1.625,1.625,0,0,1,.994-2.257H64.642a1.561,1.561,0,0,1,1.26.776L85.327,79.224c.1.188.251.188.353,0l19.35-35.948a1.564,1.564,0,0,1,1.331-.776H117.8a1.618,1.618,0,0,1,1.275,2.257L100.151,80l18.926,35.171A1.624,1.624,0,0,1,117.8,117.5Z" transform="translate(1666.001 3126)" fill="url(#linear-gradient)"/>
    <path id="Path_68" data-name="Path 68" d="M232.422,311.625H86.2A79.294,79.294,0,0,1,7,232.422V86.2A79.294,79.294,0,0,1,86.2,7h146.22a79.294,79.294,0,0,1,79.2,79.2v146.22A79.294,79.294,0,0,1,232.422,311.625ZM86.2,19.185A67.1,67.1,0,0,0,19.185,86.2v146.22A67.1,67.1,0,0,0,86.2,299.44h146.22a67.1,67.1,0,0,0,67.017-67.017V86.2a67.1,67.1,0,0,0-67.017-67.017Z" transform="translate(1592 3047)" fill="url(#linear-gradient-2)"/>
  </g>
</svg>
