<svg id="Capa_1" enable-background="new 0 0 512 512" height="512" viewBox="0 0 512 512" width="512" xmlns="http://www.w3.org/2000/svg" xmlns:xlink="http://www.w3.org/1999/xlink"><linearGradient id="SVGID_1_" gradientUnits="userSpaceOnUse" x1="-6.647" x2="545.624" y1="161.431" y2="323.863"><stop offset="0" stop-color="#ffdbed"/><stop offset="1" stop-color="#dcfdee"/></linearGradient><g><path d="m505.626 289.418c-11.826-34.61-38.138-60.16-69.852-72.202-16.43-6.239-27.346-21.856-27.587-39.429-.005-.384-.012-.769-.021-1.154-1.507-64.582-55.488-116.33-120.077-115.221-38.094.654-71.788 19.355-92.905 47.92-18.185 24.599-46.49 39.965-77.08 39.949-.898 0-1.797.009-2.7.029-61.917 1.353-114.567 54.478-115.393 116.403-.879 65.932 52.303 119.654 118.032 119.654 50.947 0 94.349-32.277 110.886-77.497 4.327-11.832 17.152-18.174 29.283-14.772.151.042.303.085.455.127 11.099 3.064 18.458 13.64 17.55 25.119-1.217 15.383.581 31.255 5.798 46.796 20.521 61.135 87.188 94.685 148.493 74.68 62.711-20.465 96.379-88.184 75.118-150.402z" fill="url(#SVGID_1_)"/><path d="m460.567 363.017-16.276-4.635c-1.594-6.498-4.16-12.617-7.537-18.186l8.235-14.791c.698-1.258.479-2.831-.538-3.848l-11.124-11.124c-1.018-1.018-2.591-1.236-3.848-.538l-14.792 8.235c-5.569-3.377-11.688-5.943-18.186-7.536l-4.635-16.276c-.395-1.388-1.661-2.343-3.104-2.343h-7.865v-246.986c0-8.274-6.715-14.99-14.99-14.99h-219.847c-8.274 0-14.99 6.715-14.99 14.99v34.083h-41.907c-8.271 0-14.992 6.721-14.992 14.992v314.006c0 8.281 6.721 14.992 14.992 14.992h219.845c3.538 0 6.786-1.235 9.352-3.288l-1.555 2.792c-.698 1.257-.479 2.831.538 3.848l11.124 11.124c1.018 1.018 2.591 1.236 3.848.538l14.792-8.235c5.568 3.377 11.688 5.943 18.186 7.537l4.635 16.276c.395 1.388 1.661 2.343 3.104 2.343h15.73c1.443 0 2.709-.955 3.104-2.343l4.635-16.276c6.498-1.594 12.617-4.159 18.186-7.537l14.792 8.235c1.258.698 2.83.479 3.848-.538l11.124-11.124c1.018-1.018 1.236-2.591.538-3.848l-8.235-14.792c3.377-5.568 5.943-11.688 7.537-18.186l16.276-4.635c1.388-.395 2.343-1.661 2.343-3.104v-15.729c0-1.442-.955-2.708-2.343-3.103zm-136.683 46.834c.069-.585.115-1.177.115-1.781v-2.087c.339.602.683 1.201 1.041 1.791zm57.013-10.07c-14.245 0-25.794-11.549-25.796-25.793h10.806c8.274 0 14.99-6.715 14.99-14.99v-10.809c14.246 0 25.796 11.55 25.796 25.796s-11.55 25.796-25.796 25.796z" fill="#2626bc" opacity=".1"/><path d="m324 115.066v314.006c0 8.281-6.721 14.992-14.992 14.992h-219.845c-8.271 0-14.992-6.711-14.992-14.992v-314.006c0-8.271 6.721-14.992 14.992-14.992h219.845c8.271 0 14.992 6.721 14.992 14.992z" fill="#d2deff"/><path d="m299.546 299.634v-123.916c0-1.656-1.342-2.998-2.998-2.998h-194.925c-1.656 0-2.998 1.342-2.998 2.998v123.914c0 1.656 1.342 2.998 2.998 2.998h194.925c1.656.002 2.998-1.341 2.998-2.996z" fill="#9fb0fe"/><path d="m323.999 254.15v157.437h-177.937c-8.274 0-14.99-6.715-14.99-14.99v-142.447z" fill="#9fb0fe"/><path d="m324.002 148.211v-33.148c0-8.279-6.711-14.99-14.99-14.99h-219.848c-8.279 0-14.99 6.711-14.99 14.99v33.148z" fill="#4369fd"/><path d="m380.897 65.991v314.009c0 8.274-6.715 14.99-14.99 14.99h-219.847c-8.274 0-14.99-6.715-14.99-14.99v-314.009c0-8.274 6.715-14.99 14.99-14.99h219.848c8.274 0 14.989 6.716 14.989 14.99z" fill="#9fb0fe"/><path d="m131.07 356.307v23.694c0 8.274 6.715 14.99 14.99 14.99h219.848c8.274 0 14.99-6.715 14.99-14.99v-23.694z" fill="#b7c5ff"/><path d="m185.615 51.002h-39.555c-8.274 0-14.99 6.715-14.99 14.99v314.009c0 8.274 6.715 14.99 14.99 14.99h39.555z" fill="#fff"/><path d="m380.897 99.139v-33.148c0-8.279-6.711-14.99-14.99-14.99h-219.847c-8.279 0-14.99 6.711-14.99 14.99v33.148z" fill="#ff7eb8"/><path d="m460.567 384.019-16.276-4.635c-1.594-6.498-4.159-12.617-7.537-18.186l8.235-14.792c.698-1.258.479-2.83-.538-3.848l-11.124-11.124c-1.018-1.018-2.591-1.236-3.848-.538l-14.792 8.235c-5.568-3.377-11.688-5.943-18.186-7.537l-4.635-16.276c-.395-1.388-1.661-2.343-3.104-2.343h-15.73c-1.443 0-2.708.955-3.104 2.343l-4.635 16.276c-6.498 1.594-12.617 4.159-18.186 7.537l-14.792-8.235c-1.258-.698-2.83-.479-3.848.538l-11.124 11.124c-1.018 1.018-1.237 2.591-.538 3.848l8.235 14.792c-3.377 5.568-5.943 11.688-7.537 18.186l-16.276 4.635c-1.388.395-2.343 1.661-2.343 3.104v15.73c0 1.443.955 2.709 2.343 3.104l16.276 4.635c1.594 6.498 4.159 12.617 7.537 18.186l-8.235 14.792c-.698 1.258-.479 2.83.538 3.848l11.124 11.124c1.018 1.018 2.591 1.237 3.848.538l14.792-8.235c5.568 3.377 11.688 5.943 18.186 7.537l4.635 16.276c.395 1.388 1.661 2.343 3.104 2.343h15.73c1.443 0 2.708-.955 3.104-2.343l4.635-16.276c6.498-1.594 12.617-4.159 18.186-7.537l14.792 8.235c1.258.698 2.83.479 3.848-.538l11.124-11.124c1.018-1.018 1.237-2.591.538-3.848l-8.235-14.792c3.377-5.568 5.943-11.688 7.537-18.186l16.276-4.635c1.388-.395 2.343-1.661 2.343-3.104v-15.73c0-1.443-.955-2.709-2.343-3.104zm-79.67 36.764c-14.246 0-25.796-11.55-25.796-25.796s11.55-25.796 25.796-25.796 25.796 11.55 25.796 25.796-11.55 25.796-25.796 25.796z" fill="#ff7eb8"/><path d="m99.521 63.872c-2.761 0-5-2.238-5-5 0-3.309-2.692-6.001-6.001-6.001-2.761 0-5-2.238-5-5s2.239-5 5-5c3.309 0 6.001-2.692 6.001-6.002 0-2.762 2.239-5 5-5s5 2.238 5 5c0 3.31 2.692 6.002 6.001 6.002 2.761 0 5 2.238 5 5s-2.239 5-5 5c-3.309 0-6.001 2.692-6.001 6.001 0 2.762-2.239 5-5 5z" fill="#ff7eb8"/><path d="m411.816 116.083h40.871c2.83 0 5.123-2.294 5.123-5.123s-2.293-5.123-5.123-5.123h-40.871c-2.83 0-5.123 2.294-5.123 5.123s2.294 5.123 5.123 5.123z" fill="#ff7eb8"/><path d="m411.816 134.085h19.869c2.83 0 5.123-2.294 5.123-5.123s-2.293-5.123-5.123-5.123h-19.869c-2.83 0-5.123 2.294-5.123 5.123s2.294 5.123 5.123 5.123z" fill="#4369fd"/><path d="m411.816 152.087h19.869c2.83 0 5.123-2.294 5.123-5.123s-2.293-5.123-5.123-5.123h-19.869c-2.83 0-5.123 2.294-5.123 5.123s2.294 5.123 5.123 5.123z" fill="#4369fd"/><path d="m411.816 188.091h40.871c2.83 0 5.123-2.294 5.123-5.123s-2.293-5.123-5.123-5.123h-40.871c-2.83 0-5.123 2.294-5.123 5.123s2.294 5.123 5.123 5.123z" fill="#ff7eb8"/><path d="m411.816 206.094h19.869c2.83 0 5.123-2.294 5.123-5.123s-2.293-5.123-5.123-5.123h-19.869c-2.83 0-5.123 2.294-5.123 5.123 0 2.828 2.294 5.123 5.123 5.123z" fill="#4369fd"/><path d="m411.816 224.096h19.869c2.83 0 5.123-2.294 5.123-5.123s-2.293-5.123-5.123-5.123h-19.869c-2.83 0-5.123 2.294-5.123 5.123s2.294 5.123 5.123 5.123z" fill="#4369fd"/><path d="m452.688 159.843h-19.869c-2.83 0-5.123 2.294-5.123 5.123s2.293 5.123 5.123 5.123h19.869c2.83 0 5.123-2.294 5.123-5.123s-2.294-5.123-5.123-5.123z" fill="#4369fd"/><path d="m411.816 260.1h40.871c2.83 0 5.123-2.294 5.123-5.123s-2.293-5.123-5.123-5.123h-40.871c-2.83 0-5.123 2.294-5.123 5.123s2.294 5.123 5.123 5.123z" fill="#ff7eb8"/><path d="m411.816 278.102h19.869c2.83 0 5.123-2.294 5.123-5.123s-2.293-5.123-5.123-5.123h-19.869c-2.83 0-5.123 2.294-5.123 5.123s2.294 5.123 5.123 5.123z" fill="#4369fd"/><path d="m411.816 296.104h19.869c2.83 0 5.123-2.294 5.123-5.123s-2.293-5.123-5.123-5.123h-19.869c-2.83 0-5.123 2.294-5.123 5.123 0 2.83 2.294 5.123 5.123 5.123z" fill="#4369fd"/><path d="m452.688 231.852h-19.869c-2.83 0-5.123 2.294-5.123 5.123s2.293 5.123 5.123 5.123h19.869c2.83 0 5.123-2.294 5.123-5.123s-2.294-5.123-5.123-5.123z" fill="#4369fd"/><g fill="#fff"><path d="m244.026 134.511c-.925-3.821-4.316-6.489-8.247-6.489h-4.892c-3.931 0-7.322 2.668-8.247 6.489l-10.193 42.122c-.649 2.684 1 5.386 3.684 6.036 2.683.651 5.387-1 6.036-3.684l4.493-18.569h13.342l4.493 18.569c.554 2.289 2.601 3.826 4.857 3.826.389 0 .785-.046 1.18-.142 2.684-.649 4.334-3.352 3.685-6.036zm-14.943 15.904 2.999-12.392h2.505l2.999 12.392z"/><path d="m285.288 128.022h-17.651c-2.762 0-5.001 2.239-5.001 5.001v44.786c0 2.762 2.239 5.001 5.001 5.001s5.001-2.239 5.001-5.001v-14.623h12.65c4.678 0 8.484-3.806 8.484-8.484v-18.195c-.001-4.679-3.806-8.485-8.484-8.485zm-1.518 25.163h-11.133v-15.162h11.133z"/><path d="m316.548 173.104v-35.377c1.955-.679 3.368-2.518 3.368-4.705 0-2.762-2.239-5.001-5.001-5.001h-6.735c-2.762 0-5.001 2.239-5.001 5.001 0 2.187 1.412 4.026 3.368 4.705v35.377c-1.955.679-3.368 2.518-3.368 4.705 0 2.762 2.239 5.001 5.001 5.001h6.735c2.762 0 5.001-2.239 5.001-5.001 0-2.187-1.413-4.026-3.368-4.705z"/><path d="m335.93 182.918c-2.762 0-5.001-2.239-5.001-5.001v-.145c0-2.762 2.239-5.001 5.001-5.001s5.001 2.239 5.001 5.001v.145c0 2.762-2.239 5.001-5.001 5.001z"/></g><path d="m231.19 223.643h-15.733c-2.615 0-4.951 1.912-5.199 4.515-.285 2.987 2.056 5.5 4.984 5.5h15.948c2.766 0 5.008-2.242 5.008-5.008 0-2.765-2.242-5.007-5.008-5.007z" fill="#d2deff"/><path d="m291.621 223.643h-37.414c-2.766 0-5.008 2.242-5.008 5.008s2.242 5.008 5.008 5.008h37.629c2.928 0 5.269-2.513 4.984-5.5-.248-2.604-2.584-4.516-5.199-4.516z" fill="#97ffd2"/><path d="m267.194 244.609h-51.737c-2.615 0-4.951 1.912-5.199 4.515-.285 2.987 2.056 5.5 4.984 5.5h51.952c2.766 0 5.008-2.242 5.008-5.008 0-2.765-2.242-5.007-5.008-5.007z" fill="#d2deff"/><path d="m321.624 244.609h-31.414c-2.766 0-5.008 2.242-5.008 5.008s2.242 5.008 5.008 5.008h31.629c2.929 0 5.269-2.514 4.984-5.5-.248-2.604-2.583-4.516-5.199-4.516z" fill="#97ffd2"/><path d="m252.192 265.576h-36.735c-2.615 0-4.951 1.912-5.199 4.515-.285 2.987 2.056 5.5 4.984 5.5h36.951c2.766 0 5.008-2.242 5.008-5.008-.001-2.765-2.243-5.007-5.009-5.007z" fill="#d2deff"/><path d="m291.621 265.576h-16.412c-2.766 0-5.008 2.242-5.008 5.008s2.242 5.008 5.008 5.008h16.627c2.928 0 5.269-2.513 4.984-5.5-.248-2.604-2.584-4.516-5.199-4.516z" fill="#97ffd2"/><path d="m321.625 286.542h-61.417c-2.766 0-5.008 2.242-5.008 5.008s2.242 5.008 5.008 5.008h61.632c2.928 0 5.269-2.513 4.984-5.5-.249-2.604-2.584-4.516-5.199-4.516z" fill="#97ffd2"/><path d="m237.191 286.542h-21.734c-2.615 0-4.951 1.912-5.199 4.515-.285 2.987 2.056 5.5 4.984 5.5h21.949c2.766 0 5.008-2.242 5.008-5.008-.001-2.765-2.243-5.007-5.008-5.007z" fill="#d2deff"/><g fill="#2626bc"><path d="m461.938 379.21-13.551-3.858c-1.433-4.938-3.404-9.694-5.884-14.199l6.857-12.318c1.775-3.194 1.209-7.229-1.374-9.811l-11.124-11.124c-2.582-2.583-6.617-3.148-9.817-1.372l-12.314 6.855c-4.506-2.48-9.262-4.451-14.198-5.885l-3.859-13.551c-1.002-3.517-4.256-5.973-7.913-5.973h-2.865v-241.983c0-11.022-8.967-19.989-19.99-19.989h-219.846c-11.022 0-19.99 8.967-19.99 19.989v29.082h-36.906c-11.022 0-19.989 8.967-19.989 19.989v33.145.005c0 2.762 2.239 5 5 5h51.896v226.785c0 11.022 8.967 19.989 19.99 19.989h125.298c2.761 0 5-2.238 5-5s-2.239-5-5-5h-125.299c-5.508 0-9.99-4.481-9.99-9.989v-275.857h239.827v203.834h-2.865c-3.657 0-6.91 2.456-7.913 5.974l-3.858 13.55c-4.936 1.434-9.692 3.404-14.198 5.885l-12.319-6.858c-3.194-1.773-7.23-1.208-9.811 1.375l-11.123 11.123c-2.584 2.583-3.149 6.617-1.373 9.815l6.855 12.314c-2.48 4.506-4.451 9.262-5.884 14.199l-13.551 3.858c-3.516 1.002-5.972 4.256-5.972 7.913v15.729c0 3.656 2.456 6.91 5.974 7.912l13.55 3.858c1.433 4.938 3.404 9.693 5.884 14.199l-4.775 8.578c-1.633 1.083-3.522 1.66-5.505 1.66h-219.849c-5.508 0-9.989-4.481-9.989-9.99v-253.312c0-2.762-2.239-5-5-5s-5 2.238-5 5v253.313c0 11.022 8.967 19.99 19.989 19.99h219.848c1.101 0 2.188-.089 3.254-.263.387.784.902 1.515 1.543 2.156l11.124 11.124c2.584 2.584 6.617 3.148 9.816 1.372l12.314-6.855c4.505 2.479 9.261 4.45 14.198 5.884l3.859 13.551c1.002 3.517 4.256 5.973 7.913 5.973h15.729c3.657 0 6.91-2.456 7.913-5.974l3.858-13.55c4.938-1.434 9.693-3.404 14.198-5.884l12.319 6.858c3.193 1.771 7.228 1.207 9.811-1.375l11.125-11.124c2.581-2.583 3.146-6.617 1.371-9.815l-6.855-12.314c2.479-4.505 4.451-9.262 5.884-14.199l13.552-3.858c3.516-1.002 5.972-4.256 5.972-7.912v-15.729c0-3.659-2.456-6.913-5.972-7.915zm-335.868-235.998h-46.895v-28.149c0-5.508 4.481-9.989 9.989-9.989h36.906zm10-49.072v-28.149c0-5.508 4.481-9.989 9.99-9.989h219.848c5.508 0 9.99 4.481 9.99 9.989v28.148zm321.84 307.374-14.988 4.269c-1.728.492-3.059 1.873-3.487 3.617-1.453 5.922-3.793 11.569-6.956 16.784-.932 1.536-.967 3.455-.093 5.024l7.583 13.62-9.23 9.23-13.62-7.583c-1.57-.873-3.489-.838-5.025.094-5.215 3.163-10.862 5.503-16.784 6.955-1.745.429-3.126 1.76-3.618 3.487l-4.268 14.989h-13.054l-4.268-14.988c-.492-1.728-1.874-3.059-3.618-3.487-5.921-1.452-11.568-3.792-16.784-6.955-1.537-.932-3.454-.966-5.025-.094l-13.62 7.582-9.229-9.229 7.583-13.62c.874-1.569.838-3.488-.093-5.024-3.164-5.216-5.504-10.863-6.956-16.784-.428-1.744-1.759-3.125-3.487-3.617l-14.988-4.269v-13.053l14.988-4.269c1.728-.492 3.059-1.873 3.487-3.617 1.452-5.921 3.792-11.568 6.956-16.784.932-1.536.967-3.455.093-5.024l-7.582-13.62 9.23-9.229 13.619 7.582c1.569.874 3.488.839 5.025-.093 5.217-3.164 10.864-5.505 16.784-6.956 1.745-.429 3.126-1.76 3.618-3.487l4.268-14.988h13.054l4.268 14.988c.492 1.728 1.873 3.059 3.618 3.487 5.92 1.452 11.567 3.792 16.784 6.956 1.537.932 3.456.967 5.025.093l13.619-7.582 9.23 9.229-7.582 13.62c-.874 1.569-.838 3.488.093 5.024 3.163 5.215 5.503 10.862 6.956 16.784.428 1.744 1.759 3.125 3.487 3.617l14.988 4.269v13.052z"/><path d="m380.897 364.191c-16.981 0-30.796 13.815-30.796 30.796s13.815 30.796 30.796 30.796 30.796-13.815 30.796-30.796-13.815-30.796-30.796-30.796zm-5 10.633v5.174c0 5.508-4.481 9.989-9.99 9.989h-5.173c1.85-7.45 7.713-13.313 15.163-15.163zm5 40.959c-9.74 0-17.915-6.741-20.163-15.796h5.173c11.022 0 19.99-8.967 19.99-19.989v-5.174c9.055 2.248 15.796 10.422 15.796 20.163 0 11.467-9.329 20.796-20.796 20.796z"/><path d="m112.23 129.215c2.761 0 5-2.238 5-5v-.145c0-2.762-2.239-5-5-5s-5 2.238-5 5v.145c0 2.762 2.239 5 5 5z"/><path d="m169.126 69.998c-2.761 0-5 2.238-5 5v.145c0 2.762 2.239 5 5 5s5-2.238 5-5v-.145c0-2.762-2.239-5-5-5z"/><path d="m188.438 69.998c-2.761 0-5 2.238-5 5v.145c0 2.762 2.239 5 5 5s5-2.238 5-5v-.145c0-2.762-2.239-5-5-5z"/><path d="m207.749 69.998c-2.761 0-5 2.238-5 5v.145c0 2.762 2.239 5 5 5s5-2.238 5-5v-.145c0-2.762-2.239-5-5-5z"/><path d="m163.343 228.578c0-2.762-2.239-5-5.001-5s-5.001 2.239-5.001 5v.145c0 2.762 2.239 5.001 5.001 5.001s5.001-2.239 5.001-5.001z"/><path d="m158.343 286.477c-2.762 0-5.001 2.239-5.001 5.001v.145c0 2.762 2.239 5 5.001 5s5.001-2.239 5.001-5v-.145c-.001-2.762-2.24-5.001-5.001-5.001z"/></g><path d="m427.696 77.992c-1.28 0-2.559-.488-3.536-1.465l-10.996-10.995c-.938-.938-1.464-2.209-1.464-3.535s.527-2.598 1.464-3.535l10.996-10.996c.938-.938 2.209-1.465 3.536-1.465 1.326 0 2.598.527 3.536 1.465l10.995 10.996c1.953 1.952 1.953 5.118 0 7.07l-10.995 10.995c-.977.977-2.256 1.465-3.536 1.465zm-3.925-15.995 3.924 3.924 3.924-3.924-3.924-3.925z" fill="#97ffd2"/><path d="m468.828 328.992c-2.761 0-5-2.238-5-5 0-3.318-2.699-6.018-6.017-6.018-2.761 0-5-2.238-5-5s2.239-5 5-5c3.318 0 6.017-2.699 6.017-6.017 0-2.762 2.239-5 5-5s5 2.238 5 5c0 3.317 2.699 6.017 6.017 6.017 2.761 0 5 2.238 5 5s-2.239 5-5 5c-3.318 0-6.017 2.699-6.017 6.018 0 2.762-2.239 5-5 5z" fill="#6583fe"/><path d="m43.172 171.433c-2.761 0-5-2.238-5-5 0-3.317-2.699-6.017-6.017-6.017-2.761 0-5-2.238-5-5s2.239-5 5-5c3.318 0 6.017-2.699 6.017-6.018 0-2.762 2.239-5 5-5s5 2.238 5 5c0 3.318 2.699 6.018 6.017 6.018 2.761 0 5 2.238 5 5s-2.239 5-5 5c-3.318 0-6.017 2.699-6.017 6.017 0 2.761-2.238 5-5 5z" fill="#6583fe"/></g></svg>