<svg height="512pt" viewBox="0 -5 512 512" width="512pt" xmlns="http://www.w3.org/2000/svg"><path d="m431.546875 191.296875c-9.210937 0-18 1.785156-26.066406 4.996094 2.453125-10.855469 3.757812-22.148438 3.757812-33.746094-.003906-84.25-68.34375-152.546875-152.652343-152.546875-69.914063 0-128.851563 46.976562-146.933594 111.0625-55.558594 3.125-99.652344 49.132812-99.652344 105.4375 0 58.324219 47.316406 105.609375 105.679688 105.609375h315.867187c38.910156 0 70.453125-31.523437 70.453125-70.40625 0-38.886719-31.542969-70.40625-70.453125-70.40625zm0 0" fill="#b2edf7"/><path d="m156 371.960938 99.1875-100.035157 99.125 100.035157h-68.3125v120.039062h-61v-120.039062zm0 0" fill="#ffd469"/><path d="m371.097656 226.070312c-5.523437 0-10.003906-4.480468-10.003906-10 0-5.523437 4.46875-10 9.992188-10h.011718c5.523438 0 10 4.476563 10 10 0 5.519532-4.476562 10-10 10zm0 0"/><path d="m431.550781 181.300781c-4.5625 0-9.082031.378907-13.53125 1.128907.808594-6.589844 1.21875-13.230469 1.21875-19.878907 0-89.628906-72.96875-162.550781-162.648437-162.550781-36.160156 0-70.390625 11.609375-99 33.570312-25.839844 19.828126-45.371094 47.371094-55.519532 78.121094-57.78125 6.757813-102.070312 55.886719-102.070312 114.808594 0 63.75 51.890625 115.609375 115.679688 115.609375h55.839843l-22.621093 22.8125c-2.839844 2.867187-3.679688 7.15625-2.128907 10.886719 1.550781 3.722656 5.191407 6.152344 9.230469 6.152344h59v110.039062c0 5.519531 4.480469 10 10 10h61c5.519531 0 10-4.480469 10-10v-110.039062h58.308594c4.042968 0 7.679687-2.429688 9.230468-6.152344 1.5625-3.730469.722657-8.019532-2.117187-10.886719l-22.601563-22.8125h92.730469c44.359375 0 80.449219-36.070313 80.449219-80.410156 0-44.328125-36.089844-80.398438-80.449219-80.398438zm-145.550781 180.660157c-5.519531 0-10 4.480468-10 10v110.039062h-41v-110.039062c0-5.519532-4.480469-10-10-10h-45l19.679688-19.851563 19.832031-20 35.667969-35.980469 35.660156 35.980469 19.820312 20 19.667969 19.851563zm145.550781-39.851563h-112.550781l-56.710938-57.21875c-.9375-.949219-2.050781-1.691406-3.257812-2.191406-1.210938-.5-2.511719-.769531-3.839844-.769531-2.671875 0-5.230468 1.058593-7.113281 2.960937l-56.726563 57.21875h-75.671874c-52.757813 0-95.679688-42.890625-95.679688-95.609375 0-50.679688 39.628906-92.609375 90.210938-95.449219 4.269531-.242187 7.910156-3.160156 9.070312-7.269531 8.257812-29.292969 26.1875-55.703125 50.488281-74.351562 25.082031-19.25 55.101563-29.429688 86.820313-29.429688 78.648437 0 142.648437 63.949219 142.648437 142.550781 0 10.621094-1.179687 21.230469-3.507812 31.539063-.820313 3.621094.429687 7.398437 3.25 9.808594 2.828125 2.410156 6.75 3.0625 10.199219 1.679687 7.140624-2.839844 14.671874-4.277344 22.371093-4.277344 33.328125 0 60.449219 27.089844 60.449219 60.398438 0 33.3125-27.121094 60.410156-60.449219 60.410156zm0 0"/></svg>