<svg xmlns="http://www.w3.org/2000/svg" xmlns:xlink="http://www.w3.org/1999/xlink" id="Layer_1" x="0px" y="0px" viewBox="0 0 512 512" style="enable-background:new 0 0 512 512;" xml:space="preserve" width="512" height="512">
<g id="XMLID_1739_">
	<rect id="XMLID_941_" x="10" y="454" style="fill:#FFD89B;" width="164" height="48"></rect>
	<rect id="XMLID_940_" x="174" y="382" style="fill:#FFBE52;" width="164" height="120"></rect>
	<rect id="XMLID_939_" x="338" y="422" style="fill:#FFCB78;" width="164" height="80"></rect>
	<g id="XMLID_1505_">
		<polygon id="XMLID_1521_" style="fill:#FF6371;" points="328.207,25.072 443.134,74.906 328.207,124.741   "></polygon>
		<path id="XMLID_1520_" style="fill:#5DDEF5;" d="M256,145.333l2.313,6.102c8.315,21.933,24.173,40.185,44.728,51.483l0,0    c11.319,6.221,25.166-1.968,25.166-14.885v0c0-5.678-2.837-10.981-7.561-14.131l0,0c-14.01-9.343-23.807-23.797-27.296-40.27    l-4.768-22.507c-3.524-16.638-18.211-28.54-35.219-28.54H176c-19.882,0-36,16.118-36,36v75.439c0,19.882,16.118,36,36,36h0"></path>
		<path id="XMLID_1518_" style="fill:#FED2A4;" d="M216,10L216,10c-18.374,0-33.268,14.895-33.268,33.268v6.049    c0,18.374,14.895,33.268,33.268,33.268h0c18.374,0,33.268-14.895,33.268-33.268v-6.049C249.268,24.895,234.374,10,216,10z"></path>
		<rect id="XMLID_1516_" x="179.707" y="82.585" style="fill:#5DDEF5;" width="72.585" height="120.976"></rect>
		<path id="XMLID_754_" style="fill:#FFBE52;" d="M176,192.667V362c0,11.046,8.954,20,20,20l0,0c11.046,0,20-8.954,20-20    c0,11.046,8.954,20,20,20l0,0c11.046,0,20-8.954,20-20V192.667H176z"></path>
	</g>
	<g id="XMLID_121_">
		<path id="XMLID_142_" d="M502,412h-42c-5.522,0-10,4.477-10,10s4.478,10,10,10h32v60H348v-60h32c5.522,0,10-4.477,10-10    s-4.478-10-10-10h-32v-30c0-5.453-4.367-9.878-9.793-9.99V131.305l108.905-47.224c3.655-1.585,6.021-5.19,6.021-9.175    s-2.366-7.589-6.021-9.175L332.186,15.897c-3.093-1.34-6.648-1.034-9.466,0.815c-2.816,1.848-4.513,4.991-4.513,8.36v50.096    v49.573v34.355c-7.583-7.436-12.829-16.934-15.074-27.536l-4.768-22.507c-4.477-21.131-23.402-36.468-45.002-36.468h-0.913    c4.308-6.725,6.818-14.707,6.818-23.269v-6.049C259.269,19.41,239.858,0,216,0s-43.269,19.41-43.269,43.268v6.049    c0,8.562,2.51,16.544,6.818,23.269H176c-25.364,0-46,20.636-46,46v75.439c0,21.93,15.43,40.312,36,44.892V260.5    c0,5.523,4.478,10,10,10s10-4.477,10-10v-57.833h60V362c0,5.514-4.486,10-10,10s-10-4.486-10-10V243.5V235c0-5.523-4.478-10-10-10    s-10,4.477-10,10v8.5V362c0,5.514-4.486,10-10,10s-10-4.486-10-10v-21.5c0-5.523-4.478-10-10-10s-10,4.477-10,10V362    c0,4.158,0.852,8.12,2.387,11.724C165.74,375.523,164,378.558,164,382v62H10c-5.522,0-10,4.477-10,10v48c0,5.523,4.478,10,10,10    h164h164h164c5.522,0,10-4.477,10-10v-80C512,416.477,507.522,412,502,412z M338.207,40.308l79.79,34.599l-79.79,34.599V75.168    V40.308z M192.731,49.317v-6.049C192.731,30.438,203.17,20,216,20s23.269,10.438,23.269,23.268v6.049    c0,12.831-10.438,23.269-23.269,23.269S192.731,62.147,192.731,49.317z M186,182.667V130.22c0-5.523-4.478-10-10-10    s-10,4.477-10,10v87.802c-9.387-3.926-16-13.203-16-23.997v-75.439c0-14.336,11.663-26,26-26h30v18.748c0,5.523,4.478,10,10,10    s10-4.477,10-10V92.585h27.363c12.209,0,22.906,8.669,25.436,20.612l4.768,22.507c4.055,19.141,15.253,35.662,31.531,46.518    c1.947,1.298,3.109,3.471,3.109,5.812c0,3.596-2.397,5.402-3.429,6.012c-1.03,0.609-3.767,1.842-6.921,0.109    c-18.454-10.144-32.729-26.574-40.193-46.265L266,143.501V130.22c0-5.523-4.478-10-10-10s-10,4.477-10,10v52.447H186z M266,362    V184.66c8.822,10.937,19.737,20.159,32.226,27.023c6.25,3.435,13.35,4.234,19.981,2.432V372H264.28    C265.39,368.87,266,365.506,266,362z M20,464h144v28H20V464z M184,454v-62h144v30v70H184V454z"></path>
		<path id="XMLID_154_" d="M412.93,414.93c-1.86,1.86-2.93,4.44-2.93,7.07c0,2.63,1.069,5.21,2.93,7.07S417.37,432,420,432    s5.21-1.07,7.069-2.93c1.86-1.86,2.931-4.44,2.931-7.07c0-2.63-1.07-5.21-2.931-7.07C425.21,413.07,422.63,412,420,412    S414.79,413.07,412.93,414.93z"></path>
		<path id="XMLID_155_" d="M176,310.5c2.63,0,5.21-1.07,7.069-2.93c1.86-1.86,2.931-4.44,2.931-7.07c0-2.63-1.07-5.21-2.931-7.07    c-1.859-1.86-4.439-2.93-7.069-2.93s-5.21,1.07-7.07,2.93c-1.86,1.86-2.93,4.44-2.93,7.07c0,2.63,1.069,5.21,2.93,7.07    S173.37,310.5,176,310.5z"></path>
	</g>
</g>















</svg>