<svg height="512pt" viewBox="0 0 512 512" width="512pt" xmlns="http://www.w3.org/2000/svg"><path d="m360.589844 10h-270.589844c-13.253906 0-24 10.742188-24 24v444c0 13.253906 10.746094 24 24 24h324c13.253906 0 24-10.746094 24-24v-390.59375zm0 0" fill="#fff"/><path d="m360.589844 63.34375c0 13.289062 10.773437 24.0625 24.066406 24.0625h53.34375l-77.410156-77.40625zm0 0" fill="#e5ecec"/><path d="m246 384h64v64h-64zm0 0" fill="#d8ec84"/><path d="m310 322h64v126h-64zm0 0" fill="#91def5"/><path d="m374 262h64v186h-64zm0 0" fill="#f5737f"/><path d="m438 322h64v126h-64zm0 0" fill="#ffcb7c"/><path d="m108 84c-54.125 0-98 43.875-98 98 0 54.121094 43.875 98 98 98s98-43.878906 98-98h-98zm0 0" fill="#b0e7f8"/><path d="m177.238281 251.351562c17.769531-17.738281 28.761719-42.261718 28.761719-69.351562h-97.628906l-.242188.242188zm0 0" fill="#ffcb7c"/><path d="m108 64v118h118c0-65.171875-52.828125-118-118-118zm0 0" fill="#f5737f"/><path d="m502 312h-54v-224.59375c-.007812 0-.015625-.003906-.023438-.007812-.003906-2.597657-.996093-5.152344-2.90625-7.0625l-77.410156-77.40625c-1.910156-1.914063-4.46875-2.9062505-7.066406-2.9062505 0-.0078125-.003906-.015625-.003906-.0234375h-270.589844c-18.746094 0-34 15.25-34 34v53.367188c-33.355469 18.402343-56 53.917968-56 94.632812 0 40.710938 22.644531 76.226562 56 94.628906v201.371094c0 18.746094 15.253906 34 34 34h324c18.746094 0 34-15.253906 34-34v-20h54c5.523438 0 10-4.480469 10-10v-126c0-5.523438-4.476562-10-10-10zm-246 126v-44h44v44zm64-54v-52h44v106h-44zm64-112h44v166h-44zm-13.410156-237.859375 43.269531 43.269531h-29.203125c-7.753906 0-14.066406-6.3125-14.066406-14.066406zm-350.589844 147.859375c0-45.144531 34.167969-82.449219 78-87.429688v87.429688c0 2.761719 1.117188 5.261719 2.929688 7.070312l61.792968 61.792969c-15.035156 11.972657-34.058594 19.136719-54.722656 19.136719-48.523438 0-88-39.476562-88-88zm156.863281 54.722656-44.71875-44.722656h63.285157c-1.910157 16.78125-8.550782 32.148438-18.566407 44.722656zm-58.863281-64.722656v-97.542969c51.59375 4.757813 92.785156 45.949219 97.539062 97.542969zm296 320h-324c-7.71875 0-14-6.28125-14-14v-192.839844c10.117188 3.144532 20.863281 4.839844 32 4.839844 56.179688 0 102.46875-43.121094 107.53125-98h10.46875c5.523438 0 10-4.480469 10-10 0-70.578125-57.421875-128-128-128-5.523438 0-10 4.476562-10 10v10.464844c-7.585938.699218-14.945312 2.179687-22 4.375v-44.839844c0-7.722656 6.28125-14 14-14h260.589844v43.34375c0 18.785156 15.28125 34.0625 34.066406 34.0625h43.34375v154.59375h-54c-5.523438 0-10 4.480469-10 10v50h-54c-5.523438 0-10 4.480469-10 10v52h-54c-5.523438 0-10 4.476562-10 10v64c0 5.519531 4.476562 10 10 10h182v20c0 7.71875-6.28125 14-14 14zm78-54h-44v-106h44zm0 0"/><path d="m271 145.40625h29c5.523438 0 10-4.476562 10-10 0-5.519531-4.476562-10-10-10h-29c-5.523438 0-10 4.480469-10 10 0 5.523438 4.476562 10 10 10zm0 0"/><path d="m347 145.40625h37c5.523438 0 10-4.476562 10-10 0-5.519531-4.476562-10-10-10h-37c-5.523438 0-10 4.480469-10 10 0 5.523438 4.476562 10 10 10zm0 0"/><path d="m271 193.410156c2.628906 0 5.210938-1.070312 7.070312-2.933594 1.859376-1.859374 2.929688-4.4375 2.929688-7.066406 0-2.632812-1.070312-5.210937-2.929688-7.070312-1.859374-1.859375-4.441406-2.929688-7.070312-2.929688s-5.210938 1.066406-7.070312 2.929688c-1.859376 1.859375-2.929688 4.4375-2.929688 7.070312 0 2.628906 1.070312 5.207032 2.929688 7.066406 1.859374 1.863282 4.441406 2.933594 7.070312 2.933594zm0 0"/><path d="m306 183.40625c0 5.523438 4.476562 10 10 10h68c5.523438 0 10-4.476562 10-10 0-5.519531-4.476562-10-10-10h-68c-5.523438 0-10 4.480469-10 10zm0 0"/><path d="m118.792969 410h37c5.523437 0 10-4.480469 10-10 0-5.523438-4.476563-10-10-10h-37c-5.523438 0-10 4.476562-10 10 0 5.519531 4.476562 10 10 10zm0 0"/><path d="m192.792969 438h-74c-5.523438 0-10 4.476562-10 10 0 5.519531 4.476562 10 10 10h74c5.523437 0 10-4.480469 10-10 0-5.523438-4.476563-10-10-10zm0 0"/></svg>