<svg height="512pt" viewBox="-45 0 512 512" width="512pt" xmlns="http://www.w3.org/2000/svg"><path d="m317.289062 71.738281h94.359376v93.742188h-94.359376zm0 0" fill="#fcdd6d"/><g fill="#ff9274"><path d="m18.457031 84.351562h298.828125v81.125h-298.828125zm0 0"/><path d="m18.457031 201.328125h366.25v81.058594h-366.25zm0 0"/><path d="m18.457031 318.195312h366.25v81.132813h-366.25zm0 0"/></g><path d="m51.0625 165.480469h301.039062v35.847656h-301.039062zm0 0" fill="#fc6c49"/><path d="m352.101562 318.195312h-301.039062v-35.808593l301.039062-.144531zm0 0" fill="#fc6c49"/><path d="m173.96875 446.78125h55.226562v55.226562h-55.226562zm0 0" fill="#6a79ff"/><path d="m411.867188 61.730469h-4.90625v-20.160157c-.003907-22.921874-18.652344-41.570312-41.574219-41.570312h-1.398438c-22.921875 0-41.574219 18.648438-41.574219 41.570312v20.160157h-4.90625c-5.523437 0-10 4.476562-10 10v2.613281h-288.835937c-5.519531 0-10 4.476562-10 10v81.125c0 5.523438 4.480469 10 10 10h22.605469v15.847656h-22.601563c-5.523437 0-10 4.480469-10 10v81.0625c0 5.523438 4.476563 10 10 10h22.601563v15.808594h-22.601563c-5.523437 0-10 4.476562-10 10v81.132812c0 5.523438 4.476563 10 10 10h173.125v27.453126h-17.613281c-5.523438 0-10 4.480468-10 10v17.613281h-154.1875c-5.523438 0-10 4.476562-10 10 0 5.523437 4.476562 10 10 10h154.1875v17.613281c0 5.523438 4.476562 10 10 10h55.226562c5.523438 0 10-4.476562 10-10v-17.613281h154.1875c5.519532 0 10-4.476563 10-10 0-5.523438-4.480468-10-10-10h-154.1875v-17.613281c0-5.523438-4.480468-10-10-10h-17.613281v-27.453126h173.125c2.652344 0 5.195313-1.054687 7.070313-2.929687s2.929687-4.417969 2.929687-7.070313v-81.132812c0-5.523438-4.480469-10-10-10h-22.605469v-15.808594h22.605469c5.519531 0 10-4.476562 10-10v-81.0625c0-5.523437-4.480469-10-10-10h-22.605469v-15.847656h49.546876c5.523437 0 10-4.480469 10-10v-93.742188c0-5.519531-4.476563-9.996093-10-9.996093zm-192.453126 430.269531h-35.226562v-35.226562h35.226562zm123-450.429688c0-11.894531 9.679688-21.570312 21.574219-21.570312h1.398438c11.894531 0 21.570312 9.675781 21.570312 21.570312v20.160157h-44.542969zm-313.742187 52.773438h278.832031v28.429688c-.046875.390624-.078125.78125-.078125 1.175781 0 .390625.03125.78125.078125 1.171875v30.351562h-278.832031zm346.253906 294.976562h-346.25v-61.132812h346.25zm-32.605469-81.132812h-281.039062v-15.808594h281.039062zm32.605469-35.808594h-20.976562c-.535157-.089844-1.078125-.144531-1.628907-.144531h-.003906l-301.042968.144531h-22.597657v-61.0625h346.25zm-32.605469-96.90625v15.847656h-281.039062v-15.847656zm59.546876-20.003906-74.359376.003906v-73.742187h74.359376zm0 0"/><path d="m288.074219 113.945312h-157.089844c-5.519531 0-10 4.480469-10 10 0 5.523438 4.480469 10 10 10h157.089844c5.523437 0 10-4.476562 10-10 0-5.519531-4.476563-10-10-10zm0 0"/><path d="m335.664062 238.019531c-1.636718-3.925781-5.703124-6.445312-9.949218-6.136719-4.214844.304688-7.84375 3.300782-8.941406 7.378907-1.035157 3.851562.382812 8.097656 3.5625 10.519531 3.382812 2.570312 8.097656 2.726562 11.636718.378906 3.941406-2.613281 5.476563-7.78125 3.691406-12.140625zm0 0"/><path d="m288.074219 231.847656h-157.089844c-5.519531 0-10 4.476563-10 10 0 5.523438 4.480469 10 10 10h157.089844c5.523437 0 10-4.476562 10-10 0-5.523437-4.476563-10-10-10zm0 0"/><path d="m335.664062 355.808594c-1.636718-3.925782-5.703124-6.449219-9.949218-6.140625-4.21875.304687-7.835938 3.308593-8.941406 7.382812-1.074219 3.957031.480468 8.335938 3.828124 10.714844 3.386719 2.40625 7.996094 2.46875 11.4375.144531 3.890626-2.632812 5.402344-7.765625 3.625-12.101562zm0 0"/><path d="m288.074219 349.636719h-157.089844c-5.519531 0-10 4.476562-10 10 0 5.523437 4.480469 10 10 10h157.089844c5.523437 0 10-4.476563 10-10 0-5.523438-4.476563-10-10-10zm0 0"/><path d="m376.445312 98.539062-17.023437 16.976563-4.222656-4.550781c-3.761719-4.050782-10.085938-4.28125-14.132813-.527344-4.050781 3.757812-4.285156 10.085938-.527344 14.132812l11.277344 12.148438c1.847656 1.988281 4.421875 3.140625 7.136719 3.191406.0625.003906.128906.003906.191406.003906 2.644531 0 5.1875-1.046874 7.0625-2.917968l24.359375-24.292969c3.910156-3.898437 3.917969-10.230469.019532-14.144531-3.902344-3.910156-10.230469-3.917969-14.140626-.019532zm0 0"/><path d="m93.269531 113.945312h-17.992187c-5.519532 0-10 4.480469-10 10 0 5.523438 4.480468 10 10 10h17.992187c5.523438 0 10-4.476562 10-10 0-5.519531-4.476562-10-10-10zm0 0"/><path d="m93.269531 231.847656h-17.992187c-5.519532 0-10 4.476563-10 10 0 5.523438 4.480468 10 10 10h17.992187c5.523438 0 10-4.476562 10-10 0-5.523437-4.476562-10-10-10zm0 0"/><path d="m93.269531 349.75h-17.992187c-5.519532 0-10 4.476562-10 10s4.480468 10 10 10h17.992187c5.523438 0 10-4.476562 10-10s-4.476562-10-10-10zm0 0"/></svg>