<svg xmlns="http://www.w3.org/2000/svg" width="450.000000pt" height="450.000000pt" viewBox="0 0 450.000000 450.000000" preserveAspectRatio="xMidYMid meet"><g transform="translate(0.000000,450.000000) scale(0.100000,-0.100000)" fill="#000000" stroke="none"><path d="M0 3110 c0 -764 2 -1390 5 -1390 3 0 24 19 47 43 60 60 91 77 138 77 30 0 42 -5 47 -17 4 -10 14 -23 22 -30 9 -7 12 -13 8 -13 -4 0 -3 -8 2 -19 8 -14 5 -23 -15 -42 -14 -13 -38 -44 -52 -69 -15 -25 -35 -54 -45 -65 -10 -11 -27 -36 -38 -55 -21 -40 -44 -70 -52 -70 -15 0 -67 -64 -67 -83 0 -20 6 -22 58 -24 54 -2 60 1 117 44 58 45 137 83 173 83 9 0 42 12 72 27 30 14 59 25 64 24 21 -5 -17 28 -47 40 -36 15 -106 86 -107 109 0 23 38 80 54 80 8 0 16 4 18 9 1 5 145 11 318 15 173 3 329 9 345 13 39 8 108 55 134 92 12 16 21 31 21 34 0 13 -79 84 -111 100 -41 21 -116 19 -202 -4 -40 -10 -50 -10 -57 1 -4 7 -15 10 -24 7 -21 -8 -117 66 -139 108 -23 42 -38 187 -35 345 1 74 -4 196 -11 270 -8 74 -12 173 -10 220 4 89 5 247 2 435 -1 61 0 250 3 420 3 171 6 326 6 345 0 19 -1 90 -3 157 -4 116 -3 123 19 143 12 11 22 23 22 25 0 3 -153 5 -340 5 l-340 0 0 -1390z m239 979 c46 -24 47 -25 61 -142 10 -79 25 -127 40 -127 3 0 12 26 20 57 8 31 20 58 25 60 9 3 35 -41 35 -60 0 -5 6 -15 14 -23 23 -23 37 -107 24 -144 -15 -44 -4 -139 28 -251 20 -70 28 -121 30 -199 4 -154 4 -293 -1 -300 -8 -13 17 -85 36 -106 24 -25 24 -29 0 -51 -10 -10 -20 -27 -23 -38 -2 -14 -12 -21 -37 -23 -18 -2 -38 1 -44 7 -7 7 -14 7 -24 0 -10 -9 -22 -4 -50 20 -21 18 -43 36 -49 41 -17 13 -35 157 -33 257 1 48 1 106 0 128 -7 154 -9 140 23 140 34 0 43 16 21 38 -8 9 -15 18 -15 21 0 3 -9 15 -20 26 -11 11 -20 29 -20 39 0 21 -37 91 -55 103 -5 4 -11 15 -11 25 -1 10 -9 45 -18 78 -9 32 -16 70 -16 84 0 37 -21 143 -34 170 -6 13 -11 45 -11 70 0 37 6 53 28 76 15 16 27 33 27 37 0 12 5 10 49 -13z m-141 -500 c29 -36 25 -61 -10 -73 -47 -17 -83 34 -62 88 10 25 47 18 72 -15z m336 -1088 c10 -21 29 -44 42 -51 25 -14 45 -62 50 -117 3 -37 -10 -50 -31 -33 -13 10 -15 8 -15 -13 0 -14 -6 -27 -12 -29 -9 -3 -8 -9 4 -22 13 -13 17 -31 15 -76 -1 -33 -4 -55 -6 -49 -2 6 -10 1 -18 -10 -18 -26 -33 -27 -33 -3 0 11 -9 27 -21 38 -42 38 -49 67 -53 219 -2 101 0 145 8 145 6 0 17 9 24 20 18 29 27 25 46 -19z"></path><path d="M2370 4491 c0 -17 18 -21 24 -6 3 9 0 15 -9 15 -8 0 -15 -4 -15 -9z"></path><path d="M2706 4473 c4 -16 15 -38 24 -50 15 -19 19 -21 24 -7 3 9 6 31 6 50 0 31 -2 34 -30 34 -28 0 -30 -2 -24 -27z"></path><path d="M3310 4495 c0 -2 10 -28 23 -57 19 -42 24 -73 25 -153 1 -54 6 -101 10 -105 5 -3 11 -13 15 -23 4 -9 12 -16 19 -15 14 4 37 -55 37 -98 1 -17 8 -37 16 -44 13 -11 21 -7 50 24 29 32 32 40 22 57 -6 10 -19 19 -28 19 -9 0 -22 14 -29 31 -11 26 -10 54 4 167 10 76 21 152 23 170 l6 32 -97 0 c-53 0 -96 -2 -96 -5z"></path><path d="M3735 4483 c4 -10 14 -58 22 -108 22 -126 13 -191 -34 -240 -28 -29 -41 -35 -66 -33 -27 3 -33 -1 -35 -20 -3 -22 -1 -23 27 -17 23 5 38 1 61 -15 16 -11 37 -20 47 -18 24 4 41 -61 53 -212 6 -69 15 -141 20 -160 6 -19 10 -63 10 -97 0 -49 3 -63 15 -63 12 0 15 -13 15 -59 0 -55 -10 -79 -35 -80 -16 0 -18 -41 -5 -114 11 -61 10 -70 -7 -99 -11 -18 -27 -35 -38 -36 -25 -5 -35 -14 -132 -109 -46 -46 -86 -83 -88 -83 -2 0 -15 4 -29 10 -16 6 -46 5 -85 -1 -47 -9 -68 -19 -100 -48 -46 -43 -52 -75 -25 -139 9 -22 15 -64 15 -102 0 -36 4 -88 10 -117 8 -41 15 -52 34 -57 13 -3 36 -17 51 -31 41 -38 49 -21 50 113 0 64 1 123 2 129 1 7 20 21 42 32 33 16 55 19 118 14 130 -8 153 -35 156 -185 1 -57 7 -112 13 -123 16 -29 -1 -334 -22 -405 -20 -70 -73 -122 -116 -115 -45 8 -79 24 -79 36 0 7 -7 19 -15 28 -23 23 -85 131 -85 147 0 7 -5 35 -11 62 -9 43 -13 49 -34 47 -31 -4 -46 -14 -43 -28 3 -15 -24 -87 -32 -87 -3 0 -6 -9 -7 -20 -1 -10 -8 -34 -16 -52 -9 -18 -22 -56 -31 -83 -23 -71 -56 -97 -103 -82 -16 6 -28 28 -48 90 -15 45 -29 83 -30 85 -7 8 -45 -25 -45 -39 0 -21 -29 -45 -57 -47 -21 -1 -86 63 -138 136 l-24 34 -22 -51 c-12 -28 -25 -51 -28 -51 -4 0 -15 -16 -24 -36 -10 -20 -32 -54 -50 -76 -24 -30 -35 -57 -44 -109 -13 -81 -7 -110 36 -173 17 -24 31 -47 31 -50 0 -3 16 -27 35 -52 33 -43 75 -122 75 -141 0 -5 -14 -25 -30 -45 -17 -20 -37 -53 -46 -73 -8 -20 -22 -39 -32 -42 -104 -36 -186 -80 -222 -119 -22 -24 -40 -48 -40 -54 0 -5 -17 -28 -37 -51 l-37 -41 37 7 c25 5 37 4 37 -4 0 -6 9 -11 20 -11 11 0 19 -3 17 -8 -1 -4 3 -8 8 -10 6 -1 10 3 10 10 0 6 24 19 54 30 51 17 56 17 73 1 17 -15 18 -15 18 1 0 12 6 16 18 12 9 -2 33 -8 52 -12 l35 -7 -38 -13 c-21 -7 -59 -16 -85 -19 -26 -2 -87 -11 -137 -20 -49 -8 -95 -15 -101 -15 -7 0 -17 -20 -23 -45 -7 -27 -17 -45 -26 -45 -17 0 -41 40 -29 49 5 3 10 15 11 26 2 29 -93 71 -179 79 -61 6 -75 12 -132 55 -36 26 -97 67 -136 91 -64 39 -140 112 -140 136 0 5 -16 29 -36 54 -70 87 -145 192 -170 237 -37 65 -92 233 -105 316 -11 72 -37 142 -70 194 l-18 27 -15 -34 c-8 -19 -13 -48 -11 -65 23 -218 25 -248 16 -259 -7 -9 -7 -16 1 -24 9 -9 7 -16 -12 -30 -14 -9 -28 -17 -31 -17 -3 0 -13 -7 -22 -16 -13 -14 -14 -23 -6 -50 12 -39 14 -52 24 -131 8 -56 7 -58 -16 -58 -16 0 -20 -3 -12 -8 23 -14 52 -86 41 -99 -7 -9 -4 -21 11 -42 12 -16 21 -34 21 -40 0 -6 11 -16 24 -21 19 -7 23 -14 19 -31 -5 -18 -11 -20 -39 -16 -18 3 -46 13 -61 21 -16 8 -40 20 -55 26 -20 9 -29 21 -34 46 -5 28 -11 34 -31 34 -22 0 -25 4 -21 25 4 20 1 26 -18 31 -38 10 -55 -2 -48 -31 4 -15 2 -25 -5 -25 -21 0 -11 -31 14 -42 15 -7 24 -17 21 -25 -3 -8 2 -13 15 -13 11 0 17 -5 14 -10 -3 -6 -3 -10 2 -10 4 0 8 -11 8 -25 0 -14 -2 -25 -5 -25 -3 0 -5 -15 -5 -32 0 -28 4 -33 25 -36 20 -2 22 -1 10 7 -11 8 -11 11 -2 11 7 0 10 5 7 10 -8 12 15 13 34 1 7 -5 10 -14 7 -20 -4 -7 1 -11 13 -11 11 0 23 -5 27 -12 5 -8 0 -9 -14 -6 -24 7 -31 -10 -7 -17 8 -3 22 -7 31 -10 24 -8 15 -13 -31 -18 -71 -9 -162 -34 -221 -61 -38 -18 -60 -23 -64 -16 -5 7 -11 6 -19 -4 -18 -21 -4 -38 29 -34 15 1 35 -4 44 -11 14 -11 16 -11 16 3 0 9 5 16 11 16 5 0 7 -4 4 -10 -3 -5 -1 -10 5 -10 11 0 14 7 24 51 4 17 14 29 28 32 45 12 144 22 198 21 30 -1 58 4 62 10 7 11 15 13 83 19 22 2 50 9 62 15 26 15 73 16 73 2 0 -13 37 -50 50 -50 5 0 7 8 4 18 -6 19 13 -1 50 -53 13 -16 26 -25 37 -22 12 3 19 -2 21 -16 4 -24 28 -36 28 -13 0 9 2 16 5 16 18 0 96 -100 130 -166 22 -43 52 -96 68 -118 15 -21 27 -44 27 -50 1 -12 35 -56 44 -56 4 0 28 -17 55 -37 55 -43 60 -47 195 -138 54 -37 96 -62 92 -57 -3 5 -17 54 -30 108 -42 164 -61 331 -45 384 7 23 7 23 8 3 1 -12 5 -25 11 -28 13 -8 13 -65 0 -65 -5 0 -10 -4 -10 -9 0 -4 12 -6 26 -3 14 2 22 7 16 11 -10 6 -10 76 0 86 3 3 17 -13 31 -37 14 -24 39 -59 56 -78 18 -19 34 -47 37 -62 8 -37 40 -66 56 -50 9 9 8 15 -6 25 -9 7 -19 26 -22 44 -7 46 23 53 58 14 14 -16 29 -27 31 -24 3 2 10 -5 17 -16 15 -29 60 -168 60 -186 0 -20 -25 -19 -44 1 -14 13 -17 14 -22 1 -5 -15 -27 -17 -40 -5 -3 4 3 17 15 29 27 29 26 37 -4 49 -13 5 -30 18 -37 30 -13 21 -38 28 -38 10 0 -5 -10 -10 -21 -10 -19 0 -20 -4 -15 -32 4 -18 8 -48 9 -67 2 -19 8 -36 15 -39 16 -5 5 -118 -14 -147 -14 -19 -14 -19 -14 3 0 13 -6 22 -15 22 -8 0 -15 5 -15 10 0 6 -4 10 -10 10 -22 0 -8 -28 35 -70 79 -78 48 -74 -38 4 -93 85 -192 151 -317 209 -47 21 -96 45 -110 52 -33 17 -221 77 -227 72 -2 -2 3 -10 12 -17 8 -7 15 -10 15 -7 0 15 68 -19 93 -46 15 -17 27 -26 27 -21 0 16 88 -93 150 -186 40 -60 104 -141 161 -202 l26 -28 165 0 166 0 31 92 c18 51 50 138 71 193 45 114 65 176 73 221 4 18 24 72 47 122 22 49 43 104 46 121 4 17 10 31 14 31 4 0 11 30 15 67 8 72 15 89 60 137 47 50 65 75 65 91 0 7 5 17 11 20 6 4 8 13 5 20 -10 28 24 39 115 37 52 -1 89 3 89 8 0 6 -15 10 -32 11 -18 0 -58 8 -88 17 l-54 18 -3 159 c-3 234 -6 245 -78 393 -59 120 -80 155 -144 242 l-24 33 25 -17 c13 -9 44 -46 68 -83 81 -126 127 -145 350 -148 84 0 160 -6 181 -13 23 -8 84 -11 175 -10 140 3 140 3 173 -25 18 -15 39 -27 48 -27 8 0 31 -8 50 -17 35 -16 36 -16 53 7 9 12 25 46 34 75 24 78 56 105 122 105 30 0 62 -4 72 -9 9 -5 29 -13 43 -19 33 -13 53 -82 39 -133 -6 -18 -11 -115 -11 -214 -2 -240 -4 -301 -14 -361 -8 -55 2 -82 70 -188 18 -29 61 -106 95 -172 34 -65 63 -121 66 -123 2 -2 4 532 4 1187 0 788 -3 1192 -10 1192 -5 0 -10 -9 -10 -20 0 -11 -4 -20 -10 -20 -5 0 -18 -30 -30 -67 -11 -36 -25 -72 -30 -79 -7 -7 -9 -54 -6 -118 5 -105 4 -107 -22 -131 -31 -29 -32 -29 -55 -12 -37 26 -54 291 -27 412 13 60 15 70 18 133 l2 32 59 0 c43 0 65 -5 84 -20 14 -11 28 -20 31 -20 3 0 6 308 6 685 l0 685 -386 0 c-364 0 -386 -1 -379 -17z m613 -1155 c2 -9 -4 -23 -13 -31 -8 -9 -15 -20 -15 -26 0 -6 -4 -11 -10 -11 -5 0 -10 9 -10 20 0 11 -4 20 -10 20 -19 0 -10 31 13 40 28 11 41 8 45 -12z m129 -30 c-3 -7 -5 -2 -5 12 0 14 2 19 5 13 2 -7 2 -19 0 -25z m-517 -51 c23 6 27 -14 8 -40 -9 -11 -21 -15 -35 -11 -23 6 -29 27 -17 59 6 15 8 15 15 2 6 -9 17 -13 29 -10z m367 -19 c-3 -8 -6 -5 -6 6 -1 11 2 17 5 13 3 -3 4 -12 1 -19z m-2927 -1779 c0 -14 -27 -10 -33 5 -4 10 0 12 14 9 10 -3 19 -9 19 -14z m100 -308 c0 -5 -6 -14 -14 -20 -11 -9 -16 -9 -21 0 -4 6 -1 15 6 20 18 11 29 11 29 0z m-223 -33 c-3 -7 -5 -2 -5 12 0 14 2 19 5 13 2 -7 2 -19 0 -25z m273 20 c0 -6 12 -26 26 -45 25 -33 25 -35 8 -49 -11 -7 -28 -16 -39 -18 -45 -11 -132 -27 -162 -32 -34 -4 -34 -4 -37 51 -1 22 18 13 21 -9 5 -27 11 -32 25 -18 8 8 8 15 -2 27 -7 8 -10 19 -6 22 4 4 12 1 17 -7 8 -12 9 -10 4 7 -4 15 1 26 17 37 29 21 35 20 43 -4 3 -11 11 -20 17 -20 6 0 19 -6 27 -13 9 -8 26 -11 39 -8 l22 6 -20 37 c-23 43 -24 48 -10 48 6 0 10 -5 10 -12z m1350 4 c0 -4 14 -13 30 -19 17 -6 30 -18 30 -27 0 -13 -5 -14 -27 -5 -15 6 -33 15 -40 21 -15 12 -17 38 -3 38 6 0 10 -4 10 -8z m48 -111 c-7 -11 -14 -19 -17 -19 -4 1 -23 -6 -43 -15 -46 -21 -62 -21 -54 -2 3 8 1 15 -4 15 -16 0 -11 20 5 27 9 3 22 -2 30 -13 13 -17 15 -18 27 -3 13 17 33 27 56 28 10 1 10 -3 0 -18z m-948 -33 c0 -5 5 -6 12 -2 8 5 10 -3 5 -28 -6 -40 0 -54 28 -61 11 -3 -8 -5 -43 -5 -34 1 -65 -2 -68 -5 -4 -4 -18 3 -32 13 -13 11 -31 20 -38 20 -25 0 -15 16 11 18 15 1 28 -4 31 -13 4 -8 13 -15 21 -15 13 0 13 2 2 16 -13 15 -11 17 19 12 29 -4 32 -2 26 16 -7 22 -7 25 -5 43 1 14 31 6 31 -9z m-205 -8 c3 -5 1 -10 -4 -10 -6 0 -11 5 -11 10 0 6 2 10 4 10 3 0 8 -4 11 -10z m79 -5 c5 0 10 -6 12 -13 2 -8 0 -8 -3 -1 -4 8 -7 8 -12 1 -4 -7 -12 -3 -20 9 -10 17 -10 20 1 13 7 -5 17 -9 22 -9z m430 -167 c-4 -13 -15 -34 -25 -47 -11 -13 -19 -36 -19 -52 0 -15 -4 -31 -10 -34 -5 -3 -10 -1 -10 4 0 6 -6 11 -13 11 -7 0 -18 9 -24 19 -10 16 -9 28 7 64 17 38 23 44 45 39 15 -2 25 0 25 7 0 6 7 11 16 11 11 0 14 -6 8 -22z m-56 -184 c-4 -33 19 -44 25 -12 4 21 4 21 6 -4 0 -14 -4 -28 -10 -30 -6 -2 -1 -23 14 -53 14 -27 23 -53 20 -59 -7 -10 -42 32 -43 51 0 6 -5 13 -11 15 -18 6 -31 86 -17 103 18 20 19 19 16 -11z m412 -334 c0 -13 -5 -18 -15 -14 -12 5 -13 10 -4 20 15 19 19 18 19 -6z m-444 -77 c-7 -7 -26 7 -26 19 0 6 6 6 15 -2 9 -7 13 -15 11 -17z m434 -3 c0 -5 -2 -10 -4 -10 -3 0 -8 5 -11 10 -3 6 -1 10 4 10 6 0 11 -4 11 -10z"></path><path d="M3112 4438 c-7 -7 -12 -31 -12 -54 0 -52 21 -64 49 -28 38 48 4 123 -37 82z"></path><path d="M1001 4281 c-28 -28 -27 -75 1 -101 12 -11 25 -20 29 -20 3 0 16 22 28 49 19 46 20 81 1 81 -5 0 -15 3 -23 6 -9 3 -25 -4 -36 -15z"></path><path d="M2070 4001 c0 -6 -8 -12 -17 -12 -10 -1 3 -5 28 -9 25 -4 61 -6 80 -5 19 2 43 4 54 5 36 1 -6 20 -45 20 -19 0 -50 2 -67 6 -22 4 -33 2 -33 -5z"></path><path d="M1928 3958 c9 -9 15 -9 24 0 9 9 7 12 -12 12 -19 0 -21 -3 -12 -12z"></path><path d="M2036 3959 c2 -4 -24 -12 -58 -19 -34 -8 -57 -15 -50 -18 7 -2 12 -8 12 -13 0 -4 -7 -6 -15 -3 -8 3 -29 1 -47 -5 -21 -8 -35 -8 -42 -1 -13 13 -36 13 -36 -1 0 -6 7 -9 15 -5 8 3 15 1 15 -4 0 -15 -33 -28 -62 -25 -18 2 -36 -5 -53 -21 -35 -32 -65 -48 -65 -34 0 6 -8 10 -17 9 -10 -2 -27 2 -39 8 -12 7 -26 8 -34 3 -12 -7 -9 -11 10 -19 25 -10 25 -10 -5 -11 -40 -1 -69 -22 -52 -39 9 -9 7 -16 -9 -29 -19 -15 -74 -94 -74 -106 0 -2 12 -7 26 -10 22 -6 36 3 102 66 83 79 130 100 222 98 111 -3 200 2 194 11 -3 5 14 9 38 9 24 0 50 6 56 12 9 9 15 9 20 3 4 -6 18 -9 32 -8 63 6 200 0 200 -9 0 -3 30 -6 68 -6 68 -1 82 -3 116 -17 30 -13 144 -124 178 -172 16 -24 37 -47 48 -53 18 -9 18 -8 8 21 -8 23 -13 27 -19 17 -7 -10 -9 -9 -9 4 0 10 -11 42 -25 72 -19 41 -23 60 -16 78 6 13 11 20 12 16 1 -5 3 -12 4 -18 1 -5 3 -18 4 -28 0 -11 9 -28 19 -38 23 -26 102 -76 102 -65 0 11 -40 64 -57 74 -7 4 -13 14 -13 22 0 20 -57 78 -107 109 -23 14 -44 30 -47 35 -4 6 -36 25 -72 42 -55 27 -67 30 -75 18 -7 -11 -9 -11 -9 4 0 17 -10 23 -78 45 -28 9 -36 8 -50 -6 -14 -14 -26 -15 -62 -9 -69 12 -209 23 -204 16z"></path><path d="M2987 3874 c-10 -10 12 -44 28 -44 16 0 38 34 28 44 -3 3 -16 6 -28 6 -12 0 -25 -3 -28 -6z"></path><path d="M1540 3859 c0 -5 5 -7 10 -4 6 3 10 8 10 11 0 2 -4 4 -10 4 -5 0 -10 -5 -10 -11z"></path><path d="M1588 3853 c12 -2 30 -2 40 0 9 3 -1 5 -23 4 -22 0 -30 -2 -17 -4z"></path><path d="M2900 3424 c0 -27 23 -75 32 -66 6 6 2 22 -11 43 -12 19 -21 29 -21 23z"></path><path d="M1262 3398 c-1 -13 -4 -38 -8 -55 -8 -40 11 -45 21 -5 16 62 16 82 2 82 -9 0 -15 -10 -15 -22z"></path><path d="M2895 3322 c-2 -2 5 -19 16 -38 14 -25 19 -54 19 -103 0 -104 -8 -129 -44 -146 -29 -14 -37 -14 -74 -1 -24 9 -72 16 -108 17 -35 1 -67 6 -70 11 -3 5 -12 4 -20 -3 -11 -9 -19 -8 -34 6 -12 11 -29 16 -45 13 -14 -3 -27 -2 -30 2 -5 9 -97 -14 -142 -35 -17 -8 -38 -15 -47 -15 -9 0 -16 -6 -16 -14 0 -31 -20 -25 -34 9 -20 47 -26 44 -14 -5 6 -23 7 -44 3 -48 -3 -4 -33 -7 -65 -7 -70 1 -100 21 -92 62 3 18 1 24 -7 19 -6 -4 -11 -14 -11 -23 0 -12 -6 -14 -27 -8 -16 4 -34 8 -41 9 -8 1 -17 8 -21 14 -8 13 -71 19 -89 8 -7 -4 -10 -12 -7 -17 4 -5 -23 -9 -62 -10 -133 -1 -225 -15 -267 -40 -17 -10 -41 -19 -53 -19 -32 0 -53 -10 -53 -26 0 -10 -12 -6 -41 13 -42 28 -46 44 -24 97 7 15 5 17 -6 11 -11 -6 -12 -5 -1 6 18 20 15 39 -8 39 -11 0 -20 -7 -20 -15 0 -8 -5 -15 -11 -15 -7 0 -10 15 -7 39 3 31 1 37 -9 29 -7 -6 -13 -19 -13 -29 0 -23 -21 -69 -31 -69 -4 0 -11 -10 -15 -22 -6 -20 -8 -20 -19 -5 -10 14 -12 8 -10 -36 3 -68 2 -67 21 -67 13 0 15 -8 12 -39 -3 -35 -1 -41 20 -46 26 -6 62 18 62 41 0 19 33 34 69 31 22 -1 31 -7 31 -20 0 -9 11 -23 25 -29 14 -6 39 -35 56 -65 17 -29 43 -60 58 -68 76 -39 277 -44 401 -10 67 18 63 18 56 -1 -14 -36 13 0 35 47 59 127 63 133 95 140 50 10 70 -5 103 -76 43 -91 64 -100 241 -100 102 0 149 5 195 19 72 22 90 37 120 96 13 25 32 54 44 64 12 11 21 28 21 39 0 15 -5 18 -25 13 -18 -5 -25 -2 -25 9 0 8 9 16 20 16 11 1 24 2 30 3 5 0 21 13 36 29 25 27 25 29 19 135 -8 139 -21 191 -47 189 -10 -1 -21 -3 -23 -5z m-958 -298 c-3 -3 -12 -4 -19 -1 -8 3 -5 6 6 6 11 1 17 -2 13 -5z m433 -9 c-24 -8 -46 -12 -49 -10 -2 3 2 7 10 9 8 2 21 7 29 9 8 3 24 5 35 6 11 0 0 -7 -25 -14z m429 -23 c21 -24 23 -32 19 -105 -4 -66 -9 -82 -29 -102 -39 -39 -134 -58 -269 -53 -130 5 -170 19 -189 67 -19 45 -30 101 -21 106 5 3 10 -5 12 -17 2 -15 11 -24 25 -26 13 -2 29 -12 36 -23 8 -10 17 -16 22 -11 5 4 5 1 1 -5 -4 -7 -15 -13 -24 -13 -13 -1 -10 -7 12 -27 28 -24 30 -24 37 -7 3 11 3 20 -1 22 -4 2 -6 11 -3 21 3 10 0 22 -6 25 -6 4 -11 12 -11 18 0 9 78 4 123 -8 12 -4 21 3 31 26 11 27 14 29 25 16 7 -8 10 -24 6 -36 -6 -18 -2 -20 33 -20 22 0 54 -3 72 -6 l32 -7 -32 51 c-33 54 -65 82 -115 100 -17 6 -23 11 -12 11 9 1 17 6 17 11 0 6 11 8 25 4 21 -5 24 -3 19 11 -6 16 -1 17 67 10 62 -5 78 -11 98 -33z m-1039 3 c0 -3 -15 -12 -32 -20 -26 -11 -28 -15 -13 -16 11 -1 23 -1 28 0 13 2 7 -11 -10 -25 -10 -7 -24 -14 -31 -14 -18 0 -65 -47 -91 -92 l-23 -38 29 0 c15 0 50 11 77 25 27 14 66 25 85 25 20 0 53 3 74 6 31 6 37 11 37 30 0 15 6 24 16 24 11 0 15 -6 12 -18 -4 -15 12 -42 25 -42 3 0 21 7 42 15 27 12 34 19 26 28 -5 7 -6 19 -2 26 7 10 10 9 16 -8 3 -11 13 -21 21 -21 10 0 13 -8 9 -27 -5 -26 -4 -25 10 5 9 18 12 38 8 45 -4 7 -7 21 -8 32 0 16 -9 21 -40 26 -29 4 -35 7 -23 13 27 13 60 3 80 -25 18 -24 18 -29 4 -99 -17 -79 -34 -106 -81 -126 -58 -24 -180 -33 -290 -21 -22 3 -49 5 -61 6 -51 2 -94 74 -94 155 0 69 6 83 42 102 43 22 158 43 158 29z m780 -35 c0 -13 -20 -13 -40 0 -12 8 -9 10 13 10 15 0 27 -4 27 -10z m-229 -27 c-12 -20 -14 -14 -5 12 4 9 9 14 11 11 3 -2 0 -13 -6 -23z m305 -11 c-4 -3 -14 2 -24 12 -16 18 -16 18 6 6 13 -6 21 -14 18 -18z m-116 -2 c0 -5 -7 -10 -16 -10 -8 0 -12 5 -9 10 3 6 10 10 16 10 5 0 9 -4 9 -10z m-980 -9 c0 -6 -4 -13 -10 -16 -5 -3 -10 -2 -10 4 0 5 -8 12 -17 14 -11 3 -7 5 10 6 15 0 27 -3 27 -8z"></path><path d="M1926 2817 c-20 -12 -76 -70 -72 -74 1 -1 24 6 52 16 39 15 50 24 52 45 4 28 -3 31 -32 13z"></path><path d="M1251 3276 c-6 -16 -10 -34 -8 -40 6 -17 29 33 24 52 -3 13 -7 10 -16 -12z"></path><path d="M2771 3144 c0 -11 3 -14 6 -6 3 7 2 16 -1 19 -3 4 -6 -2 -5 -13z"></path><path d="M2880 3153 c0 -5 5 -15 10 -23 8 -12 10 -11 10 8 0 12 -4 22 -10 22 -5 0 -10 -3 -10 -7z"></path><path d="M1780 3040 c-11 -7 -7 -10 18 -10 17 0 32 5 32 10 0 13 -30 13 -50 0z"></path><path d="M1858 3043 c7 -3 16 -2 19 1 4 3 -2 6 -13 5 -11 0 -14 -3 -6 -6z"></path><path d="M2955 2930 c-12 -14 -15 -23 -8 -32 6 -7 13 -37 17 -66 10 -76 15 -87 31 -65 20 29 27 97 15 142 -12 45 -28 51 -55 21z"></path><path d="M1152 2868 c-14 -14 -16 -128 -2 -128 6 0 10 17 10 38 0 25 7 46 21 61 18 19 19 25 8 32 -18 12 -23 11 -37 -3z"></path><path d="M1289 2683 c-16 -41 -24 -163 -11 -163 15 0 42 93 42 141 0 47 -17 59 -31 22z"></path><path d="M2024 2575 c-9 -14 -17 -36 -18 -50 0 -14 -4 -25 -7 -25 -4 0 -9 -11 -12 -25 -4 -26 -4 -26 14 -6 11 11 19 32 19 46 0 14 7 39 15 55 19 36 12 39 -11 5z"></path><path d="M2397 2528 c3 -24 13 -56 22 -73 l16 -30 3 40 c2 22 -1 41 -7 43 -6 2 -11 9 -11 15 0 7 -7 20 -14 30 -13 16 -14 14 -9 -25z"></path><path d="M2290 2465 c-18 -19 -26 -22 -32 -13 -6 10 -8 10 -8 1 0 -7 -6 -13 -14 -13 -8 0 -16 6 -19 13 -3 9 -7 9 -19 -1 -12 -10 -20 -8 -41 8 -34 27 -71 26 -90 -3 -27 -42 9 -65 101 -63 43 1 62 -3 62 -11 0 -21 17 -15 23 8 5 18 11 21 37 16 33 -7 80 15 80 38 0 14 -32 45 -47 45 -5 0 -20 -11 -33 -25z"></path><path d="M2531 2313 c7 -12 15 -20 18 -17 3 2 -3 12 -13 22 -17 16 -18 16 -5 -5z"></path><path d="M1847 2285 c-16 -20 -27 -40 -25 -46 2 -6 18 10 35 35 38 54 30 62 -10 11z"></path><path d="M1337 2209 c-21 -12 -13 -29 14 -29 20 0 23 8 11 27 -5 8 -13 8 -25 2z"></path><path d="M1901 2175 c-17 -20 -31 -45 -31 -55 0 -28 17 -25 24 4 3 13 14 28 23 32 28 13 554 17 566 5 17 -17 27 -13 27 8 0 11 -8 22 -17 24 -43 12 -339 13 -454 2 -53 -5 -78 -4 -83 4 -11 18 -22 13 -55 -24z"></path><path d="M1336 1980 c-10 -10 -15 -23 -11 -29 3 -6 1 -11 -4 -11 -6 0 -11 -13 -11 -29 0 -18 -6 -31 -17 -35 -15 -6 -15 -8 -3 -16 10 -7 11 -10 3 -10 -19 0 -16 -17 7 -40 12 -12 18 -25 15 -30 -3 -6 1 -7 10 -4 10 4 15 2 13 -7 -2 -8 4 -14 12 -14 15 0 16 7 10 112 -1 18 1 55 5 83 7 53 1 60 -29 30z"></path><path d="M1680 1766 c0 -2 15 -19 33 -37 17 -19 41 -47 52 -63 26 -39 101 -113 141 -140 118 -79 146 -96 157 -89 24 15 46 9 59 -16 7 -14 17 -29 23 -33 5 -4 6 -8 2 -8 -5 0 -2 -7 7 -15 8 -8 30 -15 48 -15 38 0 56 -12 81 -52 19 -31 47 -36 90 -15 36 16 34 23 -11 30 -41 7 -71 36 -87 81 -7 22 -19 32 -42 38 -18 5 -33 12 -33 17 0 14 -84 35 -88 22 -7 -20 -18 -11 -31 26 -8 20 -22 46 -32 57 -11 11 -19 23 -19 28 0 14 18 9 24 -8 5 -13 20 -15 103 -9 147 10 245 44 122 43 -179 -2 -308 29 -387 91 -38 30 -56 38 -97 40 -27 1 -60 9 -72 17 -21 13 -43 19 -43 10z"></path><path d="M2550 1724 l-35 -34 35 16 c34 17 50 31 50 47 0 14 -16 5 -50 -29z"></path><path d="M1285 1740 c-3 -6 1 -7 9 -4 18 7 21 14 7 14 -6 0 -13 -4 -16 -10z"></path><path d="M1318 1690 c-4 -45 -4 -44 23 -30 26 15 27 70 0 70 -15 0 -20 -9 -23 -40z"></path><path d="M3866 1646 l-29 -13 29 -9 c16 -4 34 -8 39 -8 6 -1 13 -7 16 -15 4 -11 10 -9 27 9 12 13 22 30 22 37 0 17 -64 16 -104 -1z"></path><path d="M1077 1623 c-12 -11 -8 -23 8 -23 8 0 15 7 15 15 0 16 -12 20 -23 8z"></path><path d="M1120 1620 c0 -5 4 -10 9 -10 6 0 13 5 16 10 3 6 -1 10 -9 10 -9 0 -16 -4 -16 -10z"></path><path d="M2391 1621 c-8 -5 -9 -11 -3 -15 5 -3 12 1 16 9 6 17 6 18 -13 6z"></path><path d="M2350 1609 c0 -5 5 -7 10 -4 6 3 10 8 10 11 0 2 -4 4 -10 4 -5 0 -10 -5 -10 -11z"></path><path d="M3912 1560 c8 -13 15 -16 19 -8 10 15 2 28 -17 28 -12 0 -12 -4 -2 -20z"></path><path d="M1060 1550 c0 -5 4 -10 9 -10 6 0 13 5 16 10 3 6 -1 10 -9 10 -9 0 -16 -4 -16 -10z"></path><path d="M3240 1541 c0 -6 5 -13 10 -16 6 -3 10 1 10 9 0 9 -4 16 -10 16 -5 0 -10 -4 -10 -9z"></path><path d="M1110 1525 c0 -8 7 -15 15 -15 9 0 12 6 9 15 -4 8 -10 15 -15 15 -5 0 -9 -7 -9 -15z"></path><path d="M1050 1505 c0 -10 7 -15 18 -13 21 4 19 22 -2 26 -10 2 -16 -3 -16 -13z"></path><path d="M1281 1502 c-8 -15 -6 -19 7 -19 19 0 33 17 26 29 -9 13 -23 9 -33 -10z"></path><path d="M1146 1459 c-9 -13 -24 -24 -33 -25 -10 0 -33 -1 -50 -2 -23 -1 -33 -7 -33 -18 0 -12 6 -15 26 -10 32 8 76 -17 72 -42 -2 -12 4 -17 22 -17 20 0 26 6 28 29 2 16 -2 32 -10 37 -10 7 -10 13 -1 27 6 10 8 24 3 31 -5 10 -12 7 -24 -10z"></path><path d="M3298 1469 c-10 -6 -18 -19 -18 -29 0 -22 10 -26 27 -9 17 17 34 1 27 -27 -3 -13 -2 -24 4 -24 20 0 19 47 -2 73 -16 20 -25 24 -38 16z"></path><path d="M3360 1376 c0 -19 -4 -23 -19 -19 -30 8 -34 -14 -10 -48 20 -28 23 -29 32 -14 6 12 5 20 -4 25 -10 7 -10 11 0 24 17 21 31 12 23 -16 -4 -17 -2 -20 11 -15 10 4 23 -3 36 -21 l20 -27 1 25 c0 25 -63 110 -82 110 -4 0 -8 -11 -8 -24z"></path><path d="M1020 1360 c0 -5 15 -10 33 -10 24 0 28 3 17 10 -20 13 -50 13 -50 0z"></path><path d="M2080 1339 c0 -14 41 -48 57 -49 7 0 27 -9 45 -20 32 -19 80 -30 50 -11 -7 4 -12 14 -10 21 2 7 -22 25 -52 41 -57 30 -90 37 -90 18z"></path><path d="M1310 1330 c0 -5 7 -10 16 -10 8 0 12 5 9 10 -3 6 -10 10 -16 10 -5 0 -9 -4 -9 -10z"></path><path d="M1017 1304 c-4 -4 -7 -18 -7 -31 0 -19 5 -23 32 -23 30 0 31 1 12 15 -17 13 -16 14 17 8 23 -3 39 -1 44 7 4 6 5 13 4 14 -9 8 -96 16 -102 10z"></path><path d="M3373 1266 c-14 -8 -19 -17 -14 -25 7 -10 12 -10 30 0 11 8 21 19 21 26 0 15 -8 15 -37 -1z"></path><path d="M3465 1270 c-3 -5 1 -10 10 -10 9 0 13 5 10 10 -3 6 -8 10 -10 10 -2 0 -7 -4 -10 -10z"></path><path d="M1280 1230 c0 -22 1 -23 24 -14 13 5 14 9 5 20 -16 20 -29 17 -29 -6z"></path><path d="M1018 1222 c-24 -5 -24 -49 -1 -49 9 0 31 8 49 16 l33 16 -32 10 c-18 6 -40 9 -49 7z m42 -16 c0 -3 -4 -8 -10 -11 -5 -3 -10 -1 -10 4 0 6 5 11 10 11 6 0 10 -2 10 -4z"></path><path d="M3380 1205 c0 -9 5 -15 11 -13 6 2 11 8 11 13 0 5 -5 11 -11 13 -6 2 -11 -4 -11 -13z"></path><path d="M1100 1171 c0 -6 -24 -11 -52 -13 -43 -2 -54 -7 -56 -22 -3 -16 0 -18 19 -12 69 21 96 27 112 27 21 0 22 15 1 23 -21 8 -24 8 -24 -3z"></path><path d="M3400 1173 c-75 -5 -113 -14 -103 -24 18 -18 145 -11 164 8 14 14 -5 19 -61 16z"></path><path d="M3398 1109 c-10 -5 -18 -19 -18 -30 0 -16 6 -20 28 -17 21 2 27 8 27 27 0 28 -13 35 -37 20z"></path><path d="M1120 1089 c0 -5 5 -7 10 -4 6 3 10 8 10 11 0 2 -4 4 -10 4 -5 0 -10 -5 -10 -11z"></path><path d="M993 1078 c-16 -18 -3 -37 20 -29 15 6 16 9 4 25 -11 15 -15 16 -24 4z"></path><path d="M1040 1050 c0 -5 7 -10 15 -10 8 0 15 5 15 10 0 6 -7 10 -15 10 -8 0 -15 -4 -15 -10z"></path><path d="M1123 1053 c-15 -6 -17 -39 -3 -48 6 -4 7 1 3 11 -4 11 1 22 12 30 19 14 12 17 -12 7z"></path><path d="M991 1010 c-7 -4 -12 -13 -10 -19 3 -8 10 -8 23 2 21 15 9 31 -13 17z"></path><path d="M1171 991 c-7 -5 -9 -11 -5 -14 5 -3 15 1 22 9 14 16 5 18 -17 5z"></path><path d="M1013 963 c-13 -2 -23 -8 -23 -12 0 -13 39 -10 51 5 6 8 8 13 3 13 -5 -1 -19 -4 -31 -6z"></path><path d="M2417 943 c-13 -13 -7 -21 13 -16 11 3 17 9 14 14 -6 11 -18 12 -27 2z"></path><path d="M3161 782 c-6 -12 -11 -27 -11 -34 1 -7 8 0 16 15 9 16 13 31 11 34 -3 2 -10 -4 -16 -15z"></path><path d="M1100 663 c0 -12 5 -25 11 -28 16 -11 17 -2 2 25 -12 24 -13 24 -13 3z"></path><path d="M1346 581 c-4 -6 0 -11 8 -11 9 0 16 -8 16 -17 1 -17 1 -17 11 0 11 18 49 24 49 6 0 -5 5 -7 11 -3 17 10 -2 22 -47 30 -26 4 -44 2 -48 -5z"></path><path d="M1460 570 c0 -13 20 -22 55 -24 14 0 27 -7 30 -14 3 -7 9 -10 15 -7 5 3 10 2 10 -4 0 -5 9 -8 20 -6 28 5 50 -4 50 -21 0 -8 4 -14 10 -14 5 0 7 7 4 15 -4 8 -1 15 5 15 6 0 11 -6 11 -12 1 -7 7 -2 15 12 12 22 20 21 16 -2 0 -5 3 -8 7 -8 11 0 49 29 39 30 -4 0 -40 6 -80 14 -40 8 -98 17 -130 20 -31 3 -62 8 -67 11 -6 3 -10 1 -10 -5z"></path><path d="M1766 498 c-3 -13 -5 -25 -5 -27 0 -2 -5 -8 -13 -12 -9 -6 -10 -9 -1 -9 8 0 10 -7 6 -17 -6 -16 -5 -16 10 -4 11 8 15 21 12 32 -4 11 -3 19 2 19 5 0 9 9 9 20 0 27 -12 25 -20 -2z"></path><path d="M1697 460 c3 -11 9 -20 14 -20 11 0 11 3 3 24 -9 23 -23 20 -17 -4z"></path><path d="M2451 393 c-8 -9 -10 -18 -4 -24 5 -5 13 -1 21 11 14 23 2 33 -17 13z"></path><path d="M2876 374 c-9 -24 -7 -28 9 -14 17 14 20 30 6 30 -5 0 -12 -7 -15 -16z"></path><path d="M4050 30 c0 -17 4 -30 9 -30 10 0 22 40 15 52 -11 18 -24 6 -24 -22z"></path></g></svg>