<svg id="Capa_1" enable-background="new 0 0 512 512" height="512" viewBox="0 0 512 512" width="512" xmlns="http://www.w3.org/2000/svg"><g><g><g><path d="m205.63 347.405h105.46l56.246-79.281-108.976-178.978-108.977 178.978 56.25 79.285" fill="#fee77b"/><path d="m205.633 347.409h105.458v100.735h-105.458z" fill="#ff9eb1"/><g fill="#9d9ae8"><ellipse cx="35.29" cy="89.146" rx="25.29" ry="25.29" transform="matrix(.924 -.383 .383 .924 -31.428 20.291)"/><ellipse cx="476.71" cy="89.146" rx="25.29" ry="25.29" transform="matrix(.099 -.995 .995 .099 341.024 554.751)"/><path d="m10 284.565h50.58v50.581h-50.58z"/><path d="m451.42 284.565h50.58v50.581h-50.58z"/></g></g></g><g><circle cx="256" cy="448.144" r="10"/><path d="m502 274.565h-17.992c-8.065-52.472-34.077-100.627-73.889-136.392-18.053-16.218-38.356-29.319-60.116-39.029h92.867c4.323 14.604 17.852 25.292 33.84 25.292 19.459 0 35.29-15.831 35.29-35.29 0-19.46-15.831-35.291-35.29-35.291-15.986 0-29.515 10.687-33.839 25.288h-373.743c-4.324-14.601-17.852-25.288-33.838-25.288-19.459 0-35.29 15.832-35.29 35.291s15.831 35.29 35.29 35.29c15.987 0 29.517-10.688 33.839-25.292h92.731c-69.853 31.184-121.734 96.129-133.871 175.421h-17.989c-5.523 0-10 4.477-10 10v50.581c0 5.523 4.477 10 10 10h50.581c5.523 0 10-4.477 10-10v-50.581c0-5.523-4.477-10-10-10h-12.34c16.052-95.591 95.534-167.676 191.963-174.829l-99.362 163.187c-2.077 3.411-1.925 7.73.386 10.987l54.405 76.686v97.549c0 5.523 4.477 10 10 10h5.367c5.523 0 10-4.477 10-10 0-3.851-2.177-7.194-5.368-8.865v-81.871h85.458v80.735h-.09c-5.522 0-10 4.477-10 10s4.478 10 10 10h10.091c5.523 0 10-4.477 10-10v-97.552l54.402-76.682c2.311-3.257 2.462-7.576.385-10.987l-99.101-162.759c94.174 9.217 171.206 80.459 186.981 174.401h-12.338c-5.522 0-10 4.477-10 10v50.581c0 5.523 4.478 10 10 10h50.58c5.522 0 10-4.477 10-10v-50.581c0-5.522-4.478-10-10-10zm-25.29-200.71c8.431 0 15.29 6.859 15.29 15.291 0 8.431-6.859 15.29-15.29 15.29-8.432 0-15.291-6.859-15.291-15.29s6.859-15.291 15.291-15.291zm-441.42 30.581c-8.431 0-15.29-6.859-15.29-15.29s6.859-15.291 15.29-15.291 15.291 6.859 15.291 15.291c0 8.431-6.86 15.29-15.291 15.29zm15.291 190.129v30.581h-30.581v-30.581zm304.793-26.86-49.453 69.705h-95.123l-49.452-69.705 87.014-142.907v114.512c0 5.523 4.477 10 10 10 5.522 0 10-4.477 10-10v-114.512zm136.626 57.441h-30.58v-30.581h30.58z"/></g></g></svg>