<svg xmlns="http://www.w3.org/2000/svg" xmlns:xlink="http://www.w3.org/1999/xlink" id="Layer_1" x="0px" y="0px" viewBox="0 0 512 512" style="enable-background:new 0 0 512 512;" xml:space="preserve" width="512" height="512">
<g>
	<g>
		<path style="fill-rule:evenodd;clip-rule:evenodd;fill:#F9F9F9;" d="M128.559,192.703l53.248,40.662    c7.675,5.864,9.452,16.602,4.373,24.593l66.511,10.201l4.119-2.664c21.644-14.109,43.908-13.486,69.981-10.144    c-6.235-8.075-4.712-19.777,3.415-25.982l53.218-40.661c8.156-6.233,19.979-4.704,26.273,3.399l20.457,26.268V71.032h-42.778    c-9.848,0-17.918-8.105-17.918-18.022V10.083H80.25c-9.848,0-17.918,8.104-17.918,18.021v219.343l39.956-51.344    C108.609,188,120.432,186.469,128.559,192.703L128.559,192.703z"></path>
	</g>
	<g>
		<path style="fill-rule:evenodd;clip-rule:evenodd;fill:#F9F9F9;" d="M362.261,400.824c27.851,24.851-1.044,54.176-25.312,29.071    c5.701,6.546,5.955,16.321,0.875,23.264h74.382c9.877,0,17.947-8.105,17.947-18.022v-69.392    c-7.618,3.088-16.732,0.906-22.01-5.866l-4.119-5.271c-10.47,19.466-14.054,24-34.172,40.18    C367.538,396.631,365.027,398.613,362.261,400.824L362.261,400.824z"></path>
	</g>
	<g>
		<path style="fill-rule:evenodd;clip-rule:evenodd;fill:#F9F9F9;" d="M62.332,355.657v79.48c0,9.917,8.07,18.022,17.918,18.022    h86.658c-0.875-5.327,0.79-11.192,6.405-16.208l-4.064,3.57c-17.156,15.159-39.392-11.844-25.03-25.7    c1.778-1.728,1.638-1.615,1.553-1.558l-3.612,3.258c-17.637,15.953-40.014-13.033-23.563-27.684L101.95,366    c-6.575,6.206-16.987,6.942-24.381,1.304L62.332,355.657z"></path>
	</g>
	<g>
		<path style="fill-rule:evenodd;clip-rule:evenodd;fill:#C6C4C8;" d="M369.457,10.083v42.928c0,9.917,8.07,18.022,17.918,18.022    h42.778L369.457,10.083z"></path>
	</g>
	<g>
		<path style="fill-rule:evenodd;clip-rule:evenodd;fill:#CBE558;" d="M181.807,233.365l-53.248-40.662    c-8.127-6.234-19.95-4.703-26.272,3.4L20.991,300.575c-0.338,0.425-0.649,0.85-0.931,1.304c-4.034,6.205-3.894,14.139,0,20.146    c1.129,1.727,2.54,3.286,4.29,4.59l53.219,40.69c7.394,5.639,17.806,4.902,24.381-1.304c0.677-0.651,1.298-1.36,1.891-2.097    l81.325-104.472c0.366-0.481,0.705-0.963,1.015-1.474C191.259,249.967,189.482,239.23,181.807,233.365L181.807,233.365z"></path>
	</g>
	<g>
		<path style="fill-rule:evenodd;clip-rule:evenodd;fill:#FFD4BE;" d="M404.024,354.609l-77.177-99.173    c-0.028-0.028-0.028-0.057-0.057-0.085c-26.073-3.343-48.337-3.966-69.981,10.144l-31.35,20.402    c-43.372,28.222-13.29,62.025,13.94,49.954l32.422-16.123l20.233,18.475l70.207,62.621    C389.238,379.46,392.369,376.314,404.024,354.609L404.024,354.609z"></path>
	</g>
	<g>
		<path style="fill-rule:evenodd;clip-rule:evenodd;fill:#78D0A9;" d="M491.02,296.579l-81.324-104.472    c-6.294-8.104-18.116-9.633-26.273-3.399l-53.218,40.661c-8.127,6.205-9.65,17.907-3.415,25.982l0.057,0.085l77.177,99.173    l4.119,5.271c6.321,8.103,18.145,9.634,26.272,3.429l53.247-40.689C495.817,316.414,497.312,304.684,491.02,296.579    L491.02,296.579z"></path>
	</g>
	<g>
		<path style="fill-rule:evenodd;clip-rule:evenodd;fill:#FFD4BE;" d="M236.859,471.435c15.012-13.573-5.164-38.678-24.859-21.082    l-0.339,0.283l-13.122,11.901c-14.278,13.911,6.208,37.827,25.087,20.825l3.923-3.541L236.859,471.435z"></path>
	</g>
	<g>
		<path style="fill-rule:evenodd;clip-rule:evenodd;fill:#FFD4BE;" d="M179.379,382.831c16.48-14.932-5.812-42.956-27.088-24    l-33.693,30.007c-16.452,14.65,5.925,43.637,23.563,27.684l3.612-3.258c-0.057,0.027-0.084,0.056,0.112-0.113l0,0l27.541-24.936    L179.379,382.831z"></path>
	</g>
	<g>
		<path style="fill-rule:evenodd;clip-rule:evenodd;fill:#FFD4BE;" d="M200.798,412.668c16.676-14.706-6.067-43.324-27.372-24.453    c0,0-0.028,0.027-0.085,0.085c-1.551,1.417-26.863,24.34-27.456,24.851l0,0l-0.112,0.113c0.085-0.058,0.225-0.171-1.553,1.558    c-14.362,13.856,7.874,40.859,25.03,25.7l4.091-3.598c0.029-0.029,0.057-0.058,0.057-0.058l3.33-2.919l21.982-19.438    c0.028-0.029,0.056-0.029,0.056-0.057c0.029,0,0.029,0,0.029,0L200.798,412.668z"></path>
	</g>
	<g>
		<path style="fill-rule:evenodd;clip-rule:evenodd;fill:#FFD4BE;" d="M225.46,438.17c16.451-14.904-5.417-42.503-26.666-23.717    c-7.31,6.546-14.73,12.978-22.066,19.494c-1.128,0.992-2.258,1.984-3.387,2.977c-18.736,16.632,6.293,42.729,22.999,27.598    l2.2-1.983l13.122-11.901C216.232,446.473,220.861,442.335,225.46,438.17L225.46,438.17z"></path>
	</g>
	<g>
		<path style="fill-rule:evenodd;clip-rule:evenodd;fill:#FFBF9E;" d="M212,450.353L212,450.353L212,450.353L212,450.353    L212,450.353z M336.949,429.896c-0.311-0.34-0.621-0.68-0.96-1.02C336.328,429.216,336.638,429.527,336.949,429.896    L336.949,429.896z M239.4,335.852c-27.23,12.07-57.312-21.732-13.94-49.954l27.231-17.738l-66.511-10.201    c-0.31,0.511-0.649,0.992-1.015,1.474L103.84,363.903c-0.592,0.736-1.213,1.445-1.891,2.097l16.648,22.838l33.693-30.007    c21.276-18.956,43.568,9.068,27.088,24l-5.953,5.384c21.305-18.871,44.048,9.747,27.372,24.453l-2.004,1.785    c21.249-18.786,43.117,8.813,26.666,23.717l0,0l-0.169,0.143L212,450.353c1.749-1.559,3.498-2.777,5.248-3.712    c17.777-9.491,33.298,12.439,19.611,24.794l-9.311,8.387l17.833,16.689c7.478,7.027,19.075,7.281,26.299,0.028    c6.406-6.403,9.679-17.397,2.992-23.688l2.736,2.578c23.449,22.101,41.114-6.12,31.379-20.147c7.082,7.396,19.978,7.255,27.202,0    c6.914-6.913,7.281-18.133,0.96-25.388c24.268,25.104,53.163-4.221,25.312-29.071l-70.207-62.621l-20.233-18.475L239.4,335.852z"></path>
	</g>
	<g>
		<path d="M164.565,144.421c-4.148,0-9.228-0.624-12.699-4.506c-1.213-1.332-2.286-2.606-3.301-3.684    c-8.295-8.757-22.574,3.4-13.911,14.734l2.059,2.72c1.383,1.7,3.81,3.683,7.337,5.921c3.415,2.183,7.225,3.77,11.457,4.733v11.135    c0,11.987,18.736,13.205,18.736-0.821c0.114-1.161,0.198-2.494,0.198-4.023v-6.403c6.772-1.587,12.557-4.875,17.326-9.888    c4.769-5.016,7.167-11.677,7.167-19.978c0-5.64-1.101-10.371-3.273-14.14c-2.174-3.769-4.854-6.402-8.014-7.905    c-3.189-1.501-6.688-2.805-10.525-3.91c-3.81-1.134-7.31-1.927-10.497-2.409c-3.189-0.481-5.841-1.444-8.042-2.862    c-2.174-1.444-3.246-3.342-3.246-5.666c0-11.192,16.339-9.832,23.534-3.74c10.638,8.953,22.518-7.452,10.187-16.718l-1.411-1.274    c-0.959-0.766-2.653-1.701-5.108-2.891c-2.426-1.162-5.136-2.068-8.098-2.72v-2.268v-4.675v-3.967    c0-12.354-18.766-12.354-18.766,0v8.642v2.153c-6.913,1.332-12.613,4.789-16.563,9.86c-4.007,5.158-6.068,10.881-6.068,17.257    c0,6.403,1.496,11.675,4.46,15.811c2.991,4.165,6.574,7.084,10.834,8.813c4.234,1.7,8.495,3.061,12.727,4.052    c4.233,1.021,7.845,2.183,10.808,3.457c2.991,1.276,4.458,3.089,4.458,5.412C176.332,141.189,172.409,144.421,164.565,144.421z"></path>
		<path d="M237.424,114.324h114.819c5.57,0,10.084-4.515,10.084-10.083c0-5.569-4.515-10.084-10.084-10.084H237.424    c-5.57,0-10.085,4.515-10.085,10.084C227.339,109.81,231.854,114.324,237.424,114.324z"></path>
		<path d="M237.424,157.195h114.819c5.57,0,10.084-4.515,10.084-10.083c0-5.569-4.515-10.084-10.084-10.084H237.424    c-5.57,0-10.085,4.515-10.085,10.084C227.339,152.681,231.854,157.195,237.424,157.195z"></path>
		<path d="M498.978,290.385l-58.74-75.459V71.032c0-1.647-0.412-3.284-1.186-4.737c-0.197-0.369-1.215-2.394-1.768-2.394    L376.603,2.968C374.483,1.202,372.307,0,369.457,0H80.25C64.809,0,52.247,12.606,52.247,28.104v55.877    c0,5.569,4.515,10.084,10.085,10.084c5.569,0,10.084-4.515,10.084-10.084V28.104c0-4.376,3.514-7.938,7.834-7.938h279.122v32.844    c0,15.498,12.562,28.104,28.003,28.104h32.693v107.9l-2.408-3.094c-5.494-7.075-13.825-11.133-22.855-11.133    c-6.395,0-12.449,2.043-17.504,5.907l-53.221,40.661c-6.103,4.666-10.005,11.438-10.986,19.07    c-0.143,1.112-0.214,2.223-0.229,3.327c-20.265-1.545-41.198,0.016-61.557,13.288l-0.872,0.568l-51.344-7.874    c0.1-1.771,0.042-3.563-0.192-5.36c-0.987-7.615-4.883-14.371-10.974-19.026l-53.23-40.649    c-5.046-3.871-11.097-5.917-17.496-5.917c-9.02,0-17.354,4.053-22.872,11.127L72.416,218.07v-51.944    c0-5.569-4.516-10.084-10.084-10.084c-5.57,0-10.085,4.515-10.085,10.084v77.863L13.04,294.374    c-4.728,6.061-6.787,13.603-5.797,21.236c0.988,7.625,4.895,14.383,10.981,19.015l34.023,26.013v74.5    c0,15.497,12.562,28.105,28.003,28.105h79.551c3.536,6.769,9.71,12.163,17.083,14.57c2.476,0.808,4.973,1.227,7.447,1.309    c0.973,4.065,2.999,7.99,6.104,11.434c4.827,5.353,11.866,8.779,19.586,8.778c5.587,0,11.531-1.806,17.246-5.966l11.21,10.491    c5.778,5.429,13.059,8.14,20.272,8.14c7.304-0.002,14.538-2.78,20.063-8.328c3.277-3.276,5.822-7.18,7.473-11.295    c2.778,0.835,5.494,1.233,8.1,1.232c7.413-0.001,13.958-3.128,18.653-7.956c3.846-3.955,6.605-9.219,7.834-14.829    c0.363,0.017,0.728,0.034,1.094,0.037c0.099,0.001,0.198,0.002,0.297,0.002c7.491,0,14.691-2.758,19.988-7.619h69.957    c15.457,0,28.031-12.608,28.031-28.105v-63.607c0.099-0.072,0.203-0.135,0.3-0.211l53.231-40.676    c6.088-4.633,9.988-11.375,10.983-18.983C505.752,304.023,503.703,296.471,498.978,290.385z M387.375,60.948    c-4.32,0-7.834-3.562-7.834-7.938V34.5l26.338,26.448H387.375z M321.418,264.879l70.598,90.699    c-7.45,13.412-11.408,17.68-29.383,32.066l-63.832-56.935l-20.179-18.427c-3.075-2.808-7.561-3.436-11.291-1.583l-32.203,16.015    c-8.782,3.791-17.14,0.308-20.182-5.298c-4.117-7.589,2.019-17.96,16.015-27.066l31.357-20.407    C279.295,262.875,297.09,262.025,321.418,264.879z M30.456,318.591c-1.781-1.356-2.922-3.336-3.212-5.573    c-0.291-2.246,0.313-4.462,1.707-6.249l81.288-104.462c1.663-2.132,4.201-3.354,6.962-3.354c1.339,0,3.334,0.305,5.238,1.765    l53.244,40.659c1.784,1.364,2.926,3.35,3.217,5.595c0.25,1.927-0.158,3.829-1.139,5.453c-0.075,0.112-0.152,0.224-0.222,0.341    c-0.108,0.16-0.213,0.32-0.332,0.474L95.885,357.704c-1.654,2.123-4.189,3.342-6.955,3.342c-1.343,0-3.342-0.305-5.237-1.752    L30.456,318.591z M125.325,396.351c0.01-0.009,0.019-0.018,0.028-0.025l33.645-29.965c2.795-2.49,5.602-3.807,8.116-3.807    c3.654,0,6.396,2.795,7.397,5.391c1.079,2.798,0.438,5.292-1.897,7.407l-5.791,5.242c-0.028,0.024-0.057,0.047-0.085,0.072    c-0.029,0.025-0.057,0.051-0.086,0.077c-1.683,1.525-3.504,3.175-5.38,4.876l-25.878,23.424c-1.504,1.36-2.957,2.051-4.319,2.051    c-2.819,0-6.111-2.849-7.496-6.484c-1.265-3.322-0.685-6.095,1.725-8.241L125.325,396.351z M80.25,443.076    c-4.32,0-7.834-3.562-7.834-7.939v-59.14c4.847,3.402,10.524,5.215,16.515,5.215c3.581,0,7.047-0.646,10.276-1.856l6.809,9.341    c-3.745,6.874-4.317,15.125-1.285,23.088c4.314,11.333,14.455,19.025,25.427,19.437c0.342,1.608,0.815,3.217,1.458,4.808    c1.032,2.556,2.384,4.91,3.968,7.047H80.25z M162.572,432.965c-1.49,1.316-2.905,1.957-4.324,1.957c-2.987,0-6.47-2.83-7.93-6.443    c-1.606-3.978,0.283-5.801,0.888-6.385c0.431-0.414,0.957-0.919,1.5-1.516c1.736-1.557,13.211-11.951,21.727-19.668l5.793-5.244    c2.693-2.353,5.414-3.601,7.875-3.601c3.906,0,6.822,3.011,7.879,5.808c1.054,2.785,0.43,5.219-1.857,7.235l-2.061,1.82    c-0.017,0.015-0.034,0.028-0.051,0.042c-0.006,0.006-0.011,0.012-0.017,0.018L162.572,432.965z M192.311,454.549    c-0.14,0.125-0.27,0.258-0.407,0.385l-2.335,2.113c-2.043,1.853-4.084,2.357-6.427,1.594c-2.997-0.978-5.621-3.861-6.24-6.854    c-0.537-2.598,0.499-5.005,3.142-7.337l3.33-2.919c0.114-0.1,0.213-0.208,0.321-0.312l21.809-19.254    c7.388-6.496,11.96-2.998,13.587-1.182c0.484,0.539,4.583,5.402-0.399,9.909l-13.409,12.134c-0.139,0.123-0.282,0.236-0.419,0.36    c-0.051,0.047-0.093,0.101-0.143,0.148l-12.254,11.09C192.417,454.469,192.361,454.502,192.311,454.549z M230.108,463.945    l-9.134,8.232c-0.043,0.037-0.084,0.076-0.126,0.114l-3.963,3.573c-6.25,5.616-10.104,2.701-11.471,1.186    c-1.049-1.163-3.075-4.177,0.239-7.358l13.291-12.027c1.009-0.867,2.012-1.574,3.054-2.129c5.287-2.823,8.166,0.468,8.921,1.543    C231.903,458.481,233.106,461.238,230.108,463.945z M363.358,424.206c-0.612,2.504-2.395,4.306-4.892,4.941    c-4.165,1.059-9.452-1.288-14.294-6.294c-0.35-0.388-0.709-0.769-1.082-1.139l-37.671-37.346    c-3.956-3.921-10.341-3.893-14.262,0.061c-3.921,3.955-3.893,10.34,0.061,14.261l37.614,37.289    c0.045,0.049,0.09,0.095,0.135,0.143c1.525,1.559,2.371,3.644,2.377,5.893c0.007,2.342-0.881,4.526-2.502,6.153    c-1.599,1.604-4.083,2.551-6.682,2.524c-2.254-0.022-4.311-0.771-5.765-2.086c-0.629-0.814-1.314-1.605-2.067-2.362    l-27.541-27.683c-3.929-3.949-10.314-3.966-14.262-0.037c-3.949,3.928-3.965,10.313-0.037,14.262l26.114,26.247    c0.318,0.464,0.669,0.913,1.073,1.332l1.096,1.134c1.387,2.695,0.49,7.334-2.192,10.092c-4.164,4.281-10.05,0.459-14.247-3.493    l-11.795-11.136c-4.049-3.825-10.432-3.64-14.256,0.408c-3.823,4.05-3.64,10.433,0.41,14.256l9.017,8.514    c0.019,0.018,0.035,0.039,0.055,0.057c0.197,0.186,0.494,0.465,0.509,1.462c0.036,2.337-1.494,5.524-3.736,7.765    c-3.246,3.26-8.625,3.145-12.263-0.274l-9.815-9.185l1.158-1.045c9.834-8.876,11.399-22.624,3.806-33.432    c-2.437-3.47-5.48-6.17-8.893-8.057c4.857-9.627,3.471-21.309-4.419-30.11c-4.413-4.925-10.63-8.296-17.568-9.065    c-0.205-2.504-0.755-5.026-1.695-7.514c-3.396-8.984-10.919-15.604-19.775-17.927c0.362-3.994-0.196-8.118-1.743-12.128    c-4.222-10.946-14.757-18.302-26.215-18.302c-7.54,0-14.986,3.083-21.531,8.915l-25.388,22.609l-5.497-7.54l75.921-97.528    l34.443,5.281l-5.104,3.322c-28.235,18.372-30.26,39.727-22.741,53.588c5.998,11.057,17.934,17.376,30.596,17.375    c5.222-0.001,10.57-1.075,15.672-3.338c0.135-0.06,0.27-0.122,0.403-0.189l26.235-13.047l15.129,13.815    c0.014,0.013,0.03,0.023,0.044,0.036c0.015,0.014,0.028,0.029,0.043,0.043l70.207,62.622    C361.554,413.706,364.474,419.633,363.358,424.206z M420.069,435.138c0,4.377-3.527,7.939-7.862,7.939l-39.262,1.067    c4.907-3.675,8.498-8.976,10.006-15.155c2.182-8.938-0.028-18.355-6.079-26.918c15.59-12.566,21.931-18.795,29.078-30.409    c4.107,3,8.954,4.861,14.118,5.384V435.138z M484.754,309.046c-0.292,2.23-1.428,4.201-3.215,5.561l-53.244,40.686    c-1.886,1.441-3.879,1.744-5.219,1.744h0c-2.772,0-5.316-1.225-6.974-3.351l-81.303-104.451c-1.385-1.776-1.989-3.991-1.7-6.237    c0.289-2.251,1.436-4.246,3.229-5.616l53.22-40.662c1.906-1.456,3.911-1.762,5.257-1.762c2.755,0,5.28,1.215,6.933,3.343    l81.316,104.462C484.446,304.556,485.05,306.786,484.754,309.046z"></path>
		<path d="M62.332,133.989c5.569,0,10.084-4.515,10.084-10.084v-0.198c0-5.569-4.515-10.084-10.084-10.084    c-5.57,0-10.085,4.515-10.085,10.084v0.198C52.247,129.475,56.761,133.989,62.332,133.989z"></path>
	</g>
</g>















</svg>