<svg height="512pt" viewBox="-35 0 512 512.00138" width="512pt" xmlns="http://www.w3.org/2000/svg"><g fill="#cbe558"><path d="m311.65625 170.679688h-213.488281c0-72.3125 48.84375-130.9375 109.097656-130.9375 28.523437 0 54.492187 13.140624 73.933594 34.65625"/><path d="m98.167969 234.910156v-14.203125c0-5.550781 4.5-10.050781 10.050781-10.050781h198.089844c5.550781 0 10.050781 4.5 10.050781 10.050781v184.488281c0 5.550782-4.5 10.050782-10.050781 10.050782h-198.089844c-5.550781 0-10.050781-4.5-10.050781-10.050782v-89.207031"/><path d="m155.109375 501.949219c-13.792969 0-24.972656-11.179688-24.972656-24.972657v-61.730468h49.945312v61.730468c0 13.792969-11.179687 24.972657-24.972656 24.972657zm0 0"/><path d="m258.011719 501.949219c-13.792969 0-24.972657-11.179688-24.972657-24.972657v-61.730468h49.945313v61.730468c0 13.792969-11.183594 24.972657-24.972656 24.972657zm0 0"/><path d="m380.441406 358.105469c-13.792968 0-24.972656-11.179688-24.972656-24.972657v-97.949218c0-13.792969 11.179688-24.972656 24.972656-24.972656 13.789063 0 24.972656 11.179687 24.972656 24.972656v97.949218c0 13.792969-11.183593 24.972657-24.972656 24.972657zm0 0"/><path d="m35.023438 358.105469c-13.789063 0-24.972657-11.179688-24.972657-24.972657v-97.949218c0-13.792969 11.183594-24.972656 24.972657-24.972656 13.792968 0 24.972656 11.179687 24.972656 24.972656v97.949218c0 13.792969-11.179688 24.972657-24.972656 24.972657zm0 0"/></g><path d="m432.257812 104.648438c0 43.058593-34.90625 77.964843-77.964843 77.964843-43.058594 0-77.964844-34.90625-77.964844-77.964843 0-43.058594 34.90625-77.964844 77.964844-77.964844 43.058593 0 77.964843 34.90625 77.964843 77.964844zm0 0" fill="#ff6977"/><path d="m108.21875 405.195312v-89.207031c0-12.90625-20.101562-12.925781-20.101562 0v89.207031c0 11.085938 9.015624 20.105469 20.101562 20.105469h11.867188v51.675781c0 19.3125 15.710937 35.023438 35.023437 35.023438s35.023437-15.710938 35.023437-35.023438v-51.675781h32.855469v51.675781c0 19.3125 15.710938 35.023438 35.023438 35.023438s35.023437-15.710938 35.023437-35.023438v-51.675781h13.277344c11.082031 0 20.101562-9.019531 20.101562-20.105469v-184.488281c0-11.082031-9.019531-20.101562-20.101562-20.101562h-198.09375c-11.085938 0-20.101562 9.019531-20.101562 20.101562v14.203125c0 12.90625 20.101562 12.925782 20.101562 0v-14.203125h198.089844v184.488281zm61.8125 71.78125c0 8.230469-6.695312 14.921876-14.921875 14.921876s-14.921875-6.691407-14.921875-14.921876v-51.675781h29.84375zm102.902344 0c0 8.230469-6.695313 14.921876-14.921875 14.921876-8.230469 0-14.921875-6.691407-14.921875-14.921876v-51.675781h29.84375zm0 0"/><path d="m380.441406 200.160156c-19.3125 0-35.023437 15.710938-35.023437 35.023438v97.949218c0 19.3125 15.710937 35.023438 35.023437 35.023438 19.308594 0 35.023438-15.710938 35.023438-35.023438v-97.949218c0-19.3125-15.710938-35.023438-35.023438-35.023438zm14.921875 132.972656c0 8.226563-6.695312 14.921876-14.921875 14.921876-8.230468 0-14.921875-6.695313-14.921875-14.921876v-97.949218c0-8.230469 6.691407-14.921875 14.921875-14.921875 8.226563 0 14.921875 6.691406 14.921875 14.921875zm0 0"/><path d="m35.023438 200.160156c-19.3125 0-35.023438 15.710938-35.023438 35.023438v97.949218c0 19.3125 15.710938 35.023438 35.023438 35.023438s35.023437-15.710938 35.023437-35.023438v-97.949218c0-19.3125-15.710937-35.023438-35.023437-35.023438zm14.921874 132.972656c0 8.226563-6.691406 14.921876-14.921874 14.921876-8.226563 0-14.921876-6.695313-14.921876-14.921876v-97.949218c0-8.230469 6.695313-14.921875 14.921876-14.921875 8.230468 0 14.921874 6.691406 14.921874 14.921875zm0 0"/><path d="m173.03125 102.785156c-5.460938 0-10.050781 4.585938-10.050781 10.050782.003906 5.464843 4.59375 10.050781 10.050781 10.050781 5.304688 0 9.808594-4.324219 10.042969-9.613281.25-5.625-4.40625-10.488282-10.042969-10.488282zm0 0"/><path d="m105.277344 282.886719c3.855468-3.851563 3.855468-10.359375 0-14.210938-3.863282-3.863281-10.359375-3.863281-14.21875 0-3.746094 3.746094-3.867188 9.984375-.296875 13.886719 3.804687 4.167969 10.519531 4.304688 14.515625.324219 1.871094-1.867188-1.878906 1.871093 0 0zm0 0"/><path d="m237.632812 102.785156c-5.46875 0-10.042968 4.585938-10.042968 10.050782 0 5.464843 4.578125 10.050781 10.042968 10.050781 5.308594 0 9.804688-4.316407 10.039063-9.613281.25-5.628907-4.398437-10.488282-10.039063-10.488282zm0 0"/><path d="m354.292969 16.632812c-31.59375 0-59.34375 16.734376-74.875 41.800782-2.980469-2.691406-6.058594-5.203125-9.222657-7.53125l23.832032-35.332032c7.21875-10.699218-9.4375-21.957031-16.664063-11.242187l-24.355469 36.109375c-14.339843-7.039062-29.839843-10.746094-45.742187-10.746094-15.8125 0-30.910156 3.671875-44.726563 10.320313l-24.070312-35.683594c-7.214844-10.699219-23.890625.527344-16.664062 11.242187l23.449218 34.761719c-34.242187 24.796875-57.140625 69.46875-57.140625 120.347657 0 5.550781 4.5 10.050781 10.050781 10.050781h211.925782c12.996094 7.582031 28.097656 11.933593 44.203125 11.933593 48.53125 0 88.011719-39.484374 88.011719-88.015624s-39.480469-88.015626-88.011719-88.015626zm-147.027344 33.160157c23.171875 0 45.464844 9.878906 63.234375 27.910156-2.738281 8.496094-4.222656 17.550781-4.222656 26.945313 0 21.246093 7.566406 40.757812 20.148437 55.980468h-177.867187c4.199218-61.972656 46.863281-110.835937 98.707031-110.835937zm147.027344 122.769531c-37.449219 0-67.914063-30.46875-67.914063-67.914062 0-37.445313 30.464844-67.914063 67.914063-67.914063 37.445312 0 67.910156 30.46875 67.910156 67.914063 0 37.445312-30.464844 67.914062-67.910156 67.914062zm0 0"/></svg>