<svg xmlns="http://www.w3.org/2000/svg" id="Capa_1" height="512" viewBox="0 0 512 512" width="512"><g><g><path d="m480.742 404.949h-7.712-162.062l-2.548 14.279c-1.632 9.146-9.586 15.806-18.876 15.806h-67.087c-9.29 0-17.243-6.66-18.876-15.806l-2.548-14.279h-162.063-7.712c-11.74 0-21.258 9.517-21.258 21.257v37.837h492v-37.837c0-11.74-9.517-21.257-21.258-21.257z" fill="#9593e6"></path><path d="m473.03 154.094c0-13.137-10.65-23.788-23.788-23.788h-48.071v131.917c0 15.766-12.781 28.547-28.547 28.547h-233.248c-15.766 0-28.547-12.781-28.547-28.547v-131.917h-48.071c-13.138 0-23.788 10.65-23.788 23.788v199.119h434.06z" fill="#fff"></path><path d="m310.968 404.949h162.062v-51.736h-434.06v51.736h162.062z" fill="#cbcaf3"></path><path d="m401.172 76.504c0-15.767-12.781-28.547-28.547-28.547h-233.249c-15.766 0-28.547 12.781-28.547 28.547v21.611h290.343z" fill="#9593e6"></path><path d="m203.581 419.228c1.632 9.146 9.586 15.806 18.876 15.806h67.087c9.29 0 17.243-6.66 18.876-15.806l2.548-14.279h-109.936z" fill="#fff"></path><g><g fill="#a5dbff"><path d="m110.828 98.115v32.191 131.917c0 15.766 12.781 28.547 28.547 28.547h233.249c15.766 0 28.547-12.781 28.547-28.547v-131.917-32.191zm107.902 139.365-5.201-18.205h-29.326l-5.101 18.216c-2.064 6.773-19.394 3.023-19.394-4.353 0-.194.092-.683.274-1.463l26.445-86.09c2.286-7.207 20.56-7.447 22.858.597l26.417 86.097c.182.731.274 1.187.274 1.368.001 6.519-15.383 10.772-17.246 3.833zm94.067-64.88c0 10.677-2.943 18.526-8.829 23.543-12.306 10.497-28.159 6.725-38.668 7.528v31.756c0 7.356-17.794 7.585-17.794 0v-88.971c0-2.686 2.391-5.475 6.707-5.475h27.512c19.369 0 31.071 10.167 31.071 30.797v.822zm28.744 62.827c0 7.356-17.794 7.585-17.794 0v-88.971c0-5.84 10.31-6.672 15.193-4.106 1.732.914 2.601 2.282 2.601 4.106z"></path><path d="m188.112 205.313h23.67l-11.908-42.021z"></path><path d="m280.631 156.585h-15.331v33.125c12.059-.681 20.241 2.038 25.938-3.97 4.514-4.76 3.652-12.453 3.764-13.414.001-10.584-5.417-15.741-14.371-15.741z"></path></g><path d="m209.286 146.183c-2.298-8.044-20.572-7.803-22.858-.597l-26.445 86.09c-.182.78-.274 1.269-.274 1.463 0 7.376 17.33 11.126 19.394 4.353l5.101-18.216h29.326l5.201 18.205c1.862 6.939 17.247 2.686 17.247-3.833 0-.182-.092-.637-.274-1.368zm-21.174 59.13 11.761-42.021 11.908 42.021z"></path><path d="m338.94 142.35c-4.883-2.565-15.193-1.733-15.193 4.106v88.971c0 7.585 17.794 7.356 17.794 0v-88.971c0-1.824-.869-3.192-2.601-4.106z"></path><path d="m281.726 140.981h-27.512c-4.317 0-6.707 2.789-6.707 5.475v88.971c0 7.585 17.794 7.356 17.794 0v-31.756c10.509-.804 26.362 2.969 38.668-7.528 5.886-5.017 8.829-12.866 8.829-23.543v-.821c-.001-20.631-11.703-30.798-31.072-30.798zm9.513 44.759c-5.697 6.007-13.879 3.289-25.938 3.97v-33.125h15.331c8.954 0 14.372 5.157 14.372 15.741-.113.962.75 8.654-3.765 13.414z"></path></g></g><g><path d="m483.03 395.041c0-13.494 0-232.335 0-240.947 0-18.63-15.157-33.787-33.788-33.787h-38.071c0-14.084 0-30.113 0-43.803 0-21.255-17.292-38.547-38.547-38.547h-233.249c-21.255 0-38.547 17.292-38.547 38.547v43.803h-38.07c-18.63 0-33.788 15.157-33.788 33.787v240.947c-16.17 1.176-28.97 14.7-28.97 31.165v37.837c0 5.522 4.477 10 10 10h492c5.523 0 10-4.478 10-10v-37.837c0-16.465-12.8-29.989-28.97-31.165zm-434.06-31.828h414.06v31.735c-11.416 0-401.404 0-414.06 0zm250.055 51.736-.451 2.521c-.782 4.382-4.58 7.563-9.031 7.563h-67.087c-4.451 0-8.249-3.181-9.031-7.563l-.45-2.521zm-178.196-338.445c0-10.227 8.32-18.547 18.547-18.547h233.249c10.227 0 18.547 8.32 18.547 18.547v11.611h-270.343zm-58.071 63.803h38.071v121.916c0 21.255 17.292 38.547 38.547 38.547h131.592c5.523 0 10-4.478 10-10s-4.477-10-10-10h-131.593c-10.227 0-18.547-8.32-18.547-18.547 0-32.091 0-120.836 0-154.107h270.343v154.107c0 10.227-8.32 18.547-18.547 18.547h-21.657c-5.523 0-10 4.478-10 10s4.477 10 10 10h21.657c21.255 0 38.547-17.292 38.547-38.547v-121.916h38.071c7.603 0 13.788 6.185 13.788 13.787v189.119h-414.06v-189.119c0-7.603 6.185-13.787 13.788-13.787zm429.242 313.736h-472v-27.837c0-6.208 5.05-11.258 11.257-11.258h7.694c.007 0 .013.001.019.001h153.689l1.077 6.035c2.487 13.935 14.565 24.049 28.72 24.049h67.087c14.155 0 26.233-10.114 28.72-24.049l1.077-6.035c5.715 0 155.71-.001 161.402-.001 6.208 0 11.257 5.05 11.257 11.258v27.837z"></path><path d="m366 63.036h-17c-5.523 0-10 4.478-10 10s4.477 10 10 10h17c5.523 0 10-4.478 10-10s-4.477-10-10-10z"></path><path d="m310.968 280.77c-5.523 0-9.988 4.478-9.988 10s4.49 10 10.013 10 10-4.478 10-10-4.477-10-10-10z"></path></g></g></svg>