<svg height="512pt" viewBox="0 0 512.001 512" width="512pt" xmlns="http://www.w3.org/2000/svg"><g fill-rule="evenodd"><path d="m9.992188 368.523438v19.390624c0 20.691407 16.921874 37.613282 37.617187 37.613282h416.753906c20.691407 0 37.644531-16.921875 37.644531-37.613282v-19.390624h-31.152343c-153.613281 0-307.25 0-460.863281 0zm0 0" fill="#d7d6d8"/><path d="m300.207031 425.527344h-88.414062l-11.648438 39.429687h111.710938zm0 0" fill="#adaaaf"/><path d="m311.855469 464.957031h-147.96875c-10.203125 0-18.539063 8.335938-18.539063 18.511719 0 10.203125 8.335938 18.539062 18.539063 18.539062h184.226562c10.175781 0 18.507813-8.335937 18.507813-18.539062 0-10.175781-8.332032-18.511719-18.507813-18.511719zm0 0" fill="#d7d6d8"/><path d="m9.992188 368.523438h492.015624v-253.988282c0-20.691406-16.953124-37.617187-37.644531-37.617187h-135.414062c-.027344.425781-.027344.851562-.054688 1.277343.761719-.027343 1.53125-.058593 2.265625-.058593 32.003906 0 57.96875 25.96875 57.96875 57.972656 0 32-25.964844 57.9375-57.96875 57.9375h-139.890625c-32.003906 0-57.96875-25.933594-57.96875-57.9375 0-24.605469 15.335938-45.613281 36.9375-54.03125-.625-1.671875-1.191406-3.402344-1.644531-5.160156h-120.984375c-20.695313 0-37.617187 16.925781-37.617187 37.617187zm0 0" fill="#f9f9f9"/><path d="m126.980469 269.621094c11.761719 0 21.289062-9.550782 21.289062-21.316406 0-11.765626-9.527343-21.289063-21.289062-21.289063-11.792969 0-21.316407 9.527344-21.316407 21.289063 0 11.765624 9.523438 21.316406 21.316407 21.316406zm0 0" fill="#f46370"/><path d="m256.722656 272.539062c-11.761718 0-21.289062 9.554688-21.289062 21.320313 0 11.761719 9.527344 21.316406 21.289062 21.316406 11.761719 0 21.316406-9.554687 21.316406-21.316406 0-11.765625-9.550781-21.320313-21.316406-21.320313zm0 0" fill="#f46370"/><path d="m353.839844 250.996094c0 11.765625 9.523437 21.289062 21.289062 21.289062 11.761719 0 21.316406-9.523437 21.316406-21.289062 0-11.789063-9.554687-21.316406-21.316406-21.316406-11.765625 0-21.289062 9.527343-21.289062 21.316406zm0 0" fill="#f46370"/><path d="m296.890625 194.046875h34.269531c32.003906 0 57.96875-25.933594 57.96875-57.9375 0-32.007813-25.964844-57.972656-57.96875-57.972656-.734375 0-1.5.03125-2.265625.058593l.054688-1.277343c.226562-23.101563-18.453125-42.152344-41.726563-42.152344-7.058594 0-13.691406 1.757813-19.5 4.847656-8.703125-17.546875-26.789062-29.621093-47.710937-29.621093-29.394531 0-53.207031 23.8125-53.207031 53.207031 0 4.734375.625 9.328125 1.789062 13.71875.453125 1.757812 1.019531 3.488281 1.640625 5.160156-21.597656 8.417969-36.933594 29.425781-36.933594 54.03125 0 32.003906 25.964844 57.9375 57.96875 57.9375zm0 0" fill="#79b2ff"/></g><path d="m464.363281 66.925781h-126.316406c-1.820313-9.800781-6.449219-18.863281-13.546875-26.253906-9.839844-10.25-23.078125-15.894531-37.277344-15.894531-5.195312 0-10.371094.789062-15.3125 2.320312-11.71875-16.914062-30.871094-27.097656-51.894531-27.097656-34.851563 0-63.199219 28.351562-63.199219 63.199219 0 1.246093.042969 2.488281.113282 3.726562h-109.320313c-26.253906 0-47.609375 21.359375-47.609375 47.609375v273.378906c0 26.25 21.355469 47.609376 47.609375 47.609376h150.8125l-5.746094 19.441406h-28.789062c-15.730469 0-28.53125 12.789062-28.53125 28.503906 0 15.734375 12.800781 28.53125 28.53125 28.53125h184.226562c15.714844 0 28.503907-12.796875 28.503907-28.53125 0-15.714844-12.789063-28.503906-28.503907-28.503906h-28.789062l-5.746094-19.441406h150.785156c26.269531 0 47.636719-21.359376 47.636719-47.609376v-273.378906c0-26.25-21.371094-47.609375-47.636719-47.609375zm-244.347656-46.941406c16.539063 0 31.390625 9.222656 38.753906 24.070313 1.199219 2.417968 3.328125 4.25 5.894531 5.074218 2.574219.828125 5.367188.578125 7.75-.691406 4.589844-2.4375 9.570313-3.675781 14.8125-3.675781 8.703126 0 16.824219 3.460937 22.859376 9.75 6.046874 6.296875 9.179687 14.5625 8.824218 23.277343-.113281 2.785157.941406 5.488282 2.90625 7.460938s4.65625 3.03125 7.445313 2.929688c.640625-.023438 1.28125-.046876 1.898437-.046876 26.453125 0 47.976563 21.519532 47.976563 47.976563 0 26.4375-21.519531 47.945313-47.976563 47.945313h-139.890625c-26.453125 0-47.976562-21.507813-47.976562-47.945313 0-19.929687 12-37.480469 30.570312-44.71875 5.101563-1.988281 7.652344-7.710937 5.722657-12.835937-1.851563-4.90625-2.789063-10.074219-2.789063-15.355469.003906-23.828125 19.386719-43.214844 43.21875-43.214844zm36.707031 262.550781c6.246094 0 11.324219 5.078125 11.324219 11.324219 0 6.242187-5.078125 11.320313-11.324219 11.320313-6.230468 0-11.296875-5.078126-11.296875-11.320313 0-6.246094 5.066407-11.324219 11.296875-11.324219zm99.910156 200.933594c0 4.714844-3.824218 8.546875-8.519531 8.546875h-184.226562c-4.710938 0-8.546875-3.835937-8.546875-8.546875 0-4.695312 3.835937-8.515625 8.546875-8.515625h184.222656c4.699219 0 8.523437 3.820313 8.523437 8.515625zm-58.148437-28.503906h-84.96875l5.746094-19.441406h73.476562zm165.878906-39.429688h-416.753906c-15.230469 0-27.625-12.390625-27.625-27.621094v-9.398437h195.890625c5.519531 0 9.992188-4.472656 9.992188-9.992187 0-5.519532-4.472657-9.992188-9.992188-9.992188h-195.890625v-243.996094c0-15.230468 12.394531-27.621094 27.625-27.621094h96.679687c-13.1875 12.535157-20.980468 30.089844-20.980468 49.195313 0 37.457031 30.488281 67.929687 67.960937 67.929687h6.621094v36.964844h-40.5c-3.296875-13.738281-15.675781-23.980468-30.410156-23.980468-17.265625 0-31.308594 14.03125-31.308594 31.28125 0 17.261718 14.042969 31.308593 31.308594 31.308593 12.738281 0 23.714843-7.664062 28.585937-18.625h52.316406c5.519532 0 9.992188-4.472656 9.992188-9.992187v-46.957032h28.855469v60.15625c-12.363281 4.183594-21.289063 15.894532-21.289063 29.660157 0 17.265625 14.035156 31.308593 31.28125 31.308593 17.265625 0 31.308594-14.042968 31.308594-31.308593 0-13.769531-8.9375-25.484375-21.316406-29.664063v-60.152344h20.183594v46.957032c0 5.519531 4.472656 9.992187 9.992187 9.992187h48.601563c4.179687 12.363281 15.878906 21.289063 29.636718 21.289063 17.261719 0 31.308594-14.03125 31.308594-31.28125 0-17.261719-14.046875-31.308594-31.308594-31.308594-13.757812 0-25.464844 8.9375-29.640625 21.316406h-38.605469v-36.964844h24.277344c37.476563 0 67.960938-30.472656 67.960938-67.929687 0-19.34375-8.128906-36.808594-21.136719-49.195313h86.378906c15.246094 0 27.652344 12.390626 27.652344 27.621094v243.996094h-196.289063c-5.515624 0-9.992187 4.472656-9.992187 9.992188 0 5.519531 4.476563 9.992187 9.992187 9.992187h196.289063v9.394531c0 15.234375-12.40625 27.625-27.652344 27.625zm-326.085937-167.230468c0 6.242187-5.070313 11.324218-11.296875 11.324218-6.246094 0-11.324219-5.082031-11.324219-11.324218 0-6.230469 5.078125-11.296876 11.324219-11.296876 6.226562 0 11.296875 5.066407 11.296875 11.296876zm225.554687 2.691406c0-6.242188 5.066407-11.324219 11.296875-11.324219 6.242188 0 11.324219 5.082031 11.324219 11.324219 0 6.230468-5.082031 11.296875-11.324219 11.296875-6.230468 0-11.296875-5.066407-11.296875-11.296875zm0 0"/><path d="m255.984375 358.53125h-.167969c-5.519531 0-9.992187 4.472656-9.992187 9.992188 0 5.519531 4.472656 9.992187 9.992187 9.992187h.167969c5.519531 0 9.992187-4.476563 9.992187-9.992187 0-5.519532-4.472656-9.992188-9.992187-9.992188zm0 0"/></svg>