<svg id="Layer_1" enable-background="new 0 0 512 512" height="512" viewBox="0 0 512 512" width="512" xmlns="http://www.w3.org/2000/svg"><g id="XMLID_1568_"><g id="XMLID_1521_"><g id="XMLID_2409_"><path id="XMLID_2429_" d="m383.984 345.301h-347.968c-14.368 0-26.016-11.648-26.016-26.016v-229.269c0-14.368 11.648-26.016 26.016-26.016h347.967c14.369 0 26.017 11.648 26.017 26.016v229.268c0 14.369-11.648 26.017-26.016 26.017z" fill="#f9f6f4"/><path id="XMLID_2418_" d="m10 297.227v22.057c0 14.368 11.648 26.016 26.016 26.016h347.967c14.368 0 26.016-11.648 26.016-26.016v-22.057z" fill="#9b98e7"/><path id="XMLID_1114_" d="m138.042 448c19.481-12.239 31.304-33.63 31.304-56.636v-46.063h81.307v46.063c0 23.006 11.824 44.397 31.304 56.636z" fill="#cecbf1"/></g><path id="XMLID_1091_" d="m270.333 204h143.993c11.046 0 20 8.954 20 20v204c0 11.046-8.954 20-20 20h-143.993c-11.046 0-20-8.954-20-20v-204c0-11.046 8.955-20 20-20z" fill="#f9f6f4"/><path id="XMLID_1231_" d="m410 288h72c11.046 0 20 8.954 20 20v120c0 11.046-8.954 20-20 20h-72c-11.046 0-20-8.954-20-20v-120c0-11.046 8.954-20 20-20z" fill="#f9f6f4"/><path id="XMLID_1345_" d="m58 124.614h88v112h-88z" fill="#ff9b9b"/></g><g id="XMLID_652_"><path id="XMLID_676_" d="m482 278h-37.673v-54c0-14.602-10.489-26.795-24.327-29.455v-104.529c0-19.859-16.157-36.016-36.017-36.016h-128.983c-5.522 0-10 4.477-10 10s4.478 10 10 10h128.983c8.832 0 16.017 7.185 16.017 16.016v103.984h-129.667c-16.542 0-30 13.458-30 30v63.228h-220.333v-197.212c0-8.831 7.185-16.016 16.017-16.016h128.983c5.522 0 10-4.477 10-10s-4.478-10-10-10h-128.983c-19.86 0-36.017 16.157-36.017 36.016v229.268c0 19.859 16.157 36.017 36.017 36.017h123.33v36.063c0 19.688-9.953 37.694-26.624 48.168-3.774 2.371-5.523 6.953-4.29 11.235 1.233 4.283 5.152 7.232 9.609 7.232h343.958c16.542 0 30-13.458 30-30v-119.999c0-16.542-13.458-30-30-30zm-211.667-64h143.994c5.514 0 10 4.486 10 10v54h-14.327c-16.542 0-30 13.458-30 30v120c0 3.506.61 6.87 1.72 10h-111.387c-5.514 0-10-4.486-10-10v-204c0-5.514 4.486-10 10-10zm-250.333 105.284v-12.057h220.333v28.073h-70.986-133.33c-8.832.001-16.017-7.184-16.017-16.016zm159.347 72.08v-36.063h60.986v72.699c0 3.506.61 6.87 1.72 10h-78.402c10.071-13.169 15.696-29.427 15.696-46.636zm312.653 36.636c0 5.514-4.486 10-10 10h-72c-5.514 0-10-4.486-10-10v-120c0-5.514 4.486-10 10-10h72c5.514 0 10 4.486 10 10z"/><path id="XMLID_1626_" d="m58 114.614c-5.522 0-10 4.477-10 10v112c0 5.523 4.478 10 10 10h88c5.522 0 10-4.477 10-10v-112c0-5.523-4.478-10-10-10zm78 112h-68v-92h68z"/><path id="XMLID_1627_" d="m194 134.614h101c5.522 0 10-4.477 10-10s-4.478-10-10-10h-101c-5.522 0-10 4.477-10 10s4.478 10 10 10z"/><path id="XMLID_1628_" d="m194 230.61c2.63 0 5.21-1.06 7.069-2.92 1.86-1.87 2.931-4.44 2.931-7.08 0-2.63-1.07-5.21-2.931-7.07-1.859-1.86-4.439-2.93-7.069-2.93s-5.21 1.07-7.07 2.93-2.93 4.44-2.93 7.07 1.069 5.21 2.93 7.08c1.86 1.86 4.44 2.92 7.07 2.92z"/><path id="XMLID_1639_" d="m194 182.614h37.5c5.522 0 10-4.477 10-10s-4.478-10-10-10h-37.5c-5.522 0-10 4.477-10 10s4.478 10 10 10z"/><path id="XMLID_1674_" d="m446 398c-2.63 0-5.21 1.069-7.07 2.93s-2.93 4.44-2.93 7.07 1.069 5.21 2.93 7.069c1.86 1.86 4.44 2.931 7.07 2.931s5.21-1.07 7.069-2.931c1.861-1.859 2.931-4.439 2.931-7.069s-1.07-5.21-2.931-7.07c-1.859-1.861-4.439-2.93-7.069-2.93z"/><path id="XMLID_1677_" d="m342.33 418c2.63 0 5.21-1.07 7.069-2.931 1.86-1.859 2.931-4.439 2.931-7.069s-1.07-5.21-2.931-7.07c-1.859-1.86-4.439-2.93-7.069-2.93s-5.21 1.069-7.07 2.93-2.93 4.44-2.93 7.07 1.069 5.21 2.93 7.069c1.86 1.861 4.44 2.931 7.07 2.931z"/><path id="XMLID_1681_" d="m210 74c2.63 0 5.21-1.07 7.069-2.93 1.861-1.86 2.931-4.44 2.931-7.07s-1.07-5.21-2.931-7.07c-1.859-1.86-4.439-2.93-7.069-2.93s-5.21 1.07-7.07 2.93-2.93 4.44-2.93 7.07 1.069 5.21 2.93 7.07 4.44 2.93 7.07 2.93z"/></g></g></svg>