<svg height="511pt" viewBox="1 -59 511.999 511" width="511pt" xmlns="http://www.w3.org/2000/svg"><g fill-rule="evenodd"><path d="m41.949219 10.5h355.386719c17.570312 0 31.945312 14.375 31.945312 31.945312v111.5625h-39.21875c-17.574219 0-31.949219 14.375-31.949219 31.945313v113.863281h-316.164062c-17.574219.003906-31.949219-14.375-31.949219-31.945312v-225.421875c0-17.574219 14.375-31.949219 31.949219-31.949219zm0 0" fill="#a6ceff"/><path d="m470.050781 382.988281h-79.988281c-17.574219 0-31.949219-14.375-31.949219-31.949219v-165.082031c0-17.574219 14.375-31.949219 31.949219-31.949219h79.988281c17.574219 0 31.949219 14.375 31.949219 31.949219v165.082031c0 17.574219-14.375 31.949219-31.949219 31.949219zm0 0" fill="#a6ceff"/><path d="m275.613281 299.820312h-111.949219c-4.445312 31.449219-14.726562 59.945313-29.1875 83.167969h170.332032c-14.464844-23.222656-24.746094-51.71875-29.195313-83.167969zm0 0" fill="#576574"/><path d="m10 235.917969v31.953125c0 17.570312 14.375 31.945312 31.949219 31.945312h316.164062v-63.898437zm0 0" fill="#54a0ff"/><path d="m358.113281 320.339844v30.699218c0 17.574219 14.375 31.949219 31.949219 31.949219h79.988281c17.570313 0 31.949219-14.375 31.949219-31.949219v-30.699218zm0 0" fill="#54a0ff"/><path d="m470.050781 144.007812h-30.769531v-101.558593c0-23.132813-18.816406-41.949219-41.945312-41.949219h-355.386719c-23.132813 0-41.949219 18.816406-41.949219 41.949219v45.015625c0 5.523437 4.476562 10 10 10s10-4.476563 10-10v-45.015625c0-12.105469 9.847656-21.949219 21.949219-21.949219h355.386719c12.101562 0 21.945312 9.84375 21.945312 21.949219v101.558593h-29.21875c-23.132812 0-41.949219 18.820313-41.949219 41.949219v39.960938h-328.113281v-58.453125c0-5.523438-4.476562-10-10-10s-10 4.476562-10 10v100.40625c0 23.128906 18.816406 41.949218 41.949219 41.949218h109.90625c-4.832031 25.03125-13.679688 48.308594-25.871094 67.882813-1.917969 3.082031-2.015625 6.964844-.253906 10.140625 1.765625 3.175781 5.109375 5.144531 8.742187 5.144531h170.332032c3.632812 0 6.980468-1.96875 8.742187-5.144531 1.765625-3.175781 1.667969-7.058594-.253906-10.140625-12.1875-19.574219-21.035157-42.851563-25.867188-67.882813h60.6875v41.21875c0 23.132813 18.816407 41.949219 41.949219 41.949219h79.988281c23.128907 0 41.949219-18.816406 41.949219-41.949219v-165.082031c0-23.128906-18.816406-41.949219-41.949219-41.949219zm-101.9375 41.949219c0-12.101562 9.847657-21.949219 21.949219-21.949219h79.988281c12.101563 0 21.949219 9.847657 21.949219 21.949219v124.382813h-123.886719zm-80.371093 187.03125h-136.203126c9.632813-19.109375 16.65625-40.558593 20.660157-63.167969h94.882812c4.003907 22.609376 11.027344 44.054688 20.660157 63.167969zm-12.128907-83.167969h-233.664062c-12.101563 0-21.949219-9.847656-21.949219-21.949218v-21.953125h328.113281v43.902343zm194.4375 83.167969h-79.988281c-12.101562 0-21.949219-9.847656-21.949219-21.949219v-20.699218h123.886719v20.699218c0 12.101563-9.847656 21.949219-21.949219 21.949219zm0 0"/><path d="m241.621094 257.867188h-43.964844c-5.519531 0-10 4.480468-10 10 0 5.523437 4.480469 10 10 10h43.964844c5.523437 0 10-4.476563 10-10 0-5.523438-4.476563-10-10-10zm0 0"/><path d="m452.039062 341.039062h-43.964843c-5.523438 0-10 4.476563-10 10 0 5.519532 4.476562 10 10 10h43.964843c5.523438 0 10-4.480468 10-10 0-5.523437-4.476562-10-10-10zm0 0"/><path d="m10 137.464844c5.507812 0 10-4.492188 10-10 0-5.507813-4.492188-10-10-10s-10 4.492187-10 10c0 5.507812 4.492188 10 10 10zm0 0"/></g></svg>