<svg height="512pt" viewBox="-86 0 512 512" width="512pt" xmlns="http://www.w3.org/2000/svg"><path d="m330 405v65c0 17.671875-14.328125 32-32 32h-256c-17.671875 0-32-14.328125-32-32v-428c0-17.671875 14.328125-32 32-32h256c17.671875 0 32 14.328125 32 32zm0 0" fill="#d3d7df"/><path d="m10 74h320v348h-320zm0 0" fill="#fff"/><path d="m248 200c0 43.078125-34.921875 78-78 78s-78-34.921875-78-78 34.921875-78 78-78 78 34.921875 78 78zm0 0" fill="#b0e7f8"/><path d="m224.679688 145.320312.476562-.476562c-14.117188-14.113281-33.617188-22.84375-55.15625-22.84375-.152344 0-.304688.011719-.460938.011719v78.394531zm0 0" fill="#ffcb7c"/><path d="m92 200c0 .136719.011719.269531.011719.40625h77.527343v-78.394531c-42.863281.25-77.539062 35.0625-77.539062 77.988281zm0 0" fill="#f5737f"/><path d="m298 0h-256c-23.160156 0-42 18.839844-42 42v428c0 23.160156 18.839844 42 42 42h256c23.160156 0 42-18.839844 42-42v-177c0-5.523438-4.476562-10-10-10s-10 4.476562-10 10v119h-300v-328h300v119c0 5.523438 4.476562 10 10 10s10-4.476562 10-10v-161c0-23.160156-18.839844-42-42-42zm22 432v38c0 12.132812-9.867188 22-22 22h-256c-12.132812 0-22-9.867188-22-22v-38zm-300-368v-22c0-12.132812 9.867188-22 22-22h256c12.132812 0 22 9.867188 22 22v22zm0 0"/><path d="m170.128906 472.5c2.632813 0 5.210938-1.070312 7.070313-2.929688 1.859375-1.859374 2.929687-4.441406 2.929687-7.070312s-1.070312-5.210938-2.929687-7.070312c-1.859375-1.859376-4.4375-2.929688-7.070313-2.929688-2.640625 0-5.207031 1.070312-7.070312 2.929688-1.867188 1.859374-2.929688 4.441406-2.929688 7.070312s1.0625 5.210938 2.929688 7.070312c1.863281 1.859376 4.429687 2.929688 7.070312 2.929688zm0 0"/><path d="m170 112c-48.523438 0-88 39.476562-88 88s39.476562 88 88 88 88-39.476562 88-88-39.476562-88-88-88zm10 20.742188c11.292969 1.671874 21.6875 6.125 30.46875 12.648437l-30.46875 30.464844zm-20 0v57.257812h-57.257812c4.367187-29.503906 27.753906-52.890625 57.257812-57.257812zm10 135.257812c-34.097656 0-62.40625-25.230469-67.257812-58h67.257812c2.757812 0 5.257812-1.117188 7.066406-2.925781 0 0 .003906 0 .003906-.003907l47.539063-47.539062c8.40625 11.316406 13.390625 25.320312 13.390625 40.46875 0 37.496094-30.503906 68-68 68zm0 0"/><path d="m243.949219 316h-147.644531c-5.523438 0-10 4.476562-10 10s4.476562 10 10 10h147.644531c5.523437 0 10-4.476562 10-10s-4.476563-10-10-10zm0 0"/><path d="m243.949219 364h-147.644531c-5.523438 0-10 4.476562-10 10s4.476562 10 10 10h147.644531c5.523437 0 10-4.476562 10-10s-4.476563-10-10-10zm0 0"/><path d="m330 238c-2.628906 0-5.210938 1.070312-7.070312 2.929688-1.859376 1.859374-2.929688 4.441406-2.929688 7.070312s1.070312 5.210938 2.929688 7.070312c1.859374 1.859376 4.441406 2.929688 7.070312 2.929688s5.210938-1.070312 7.070312-2.929688c1.859376-1.859374 2.929688-4.441406 2.929688-7.070312s-1.070312-5.210938-2.929688-7.070312c-1.859374-1.859376-4.441406-2.929688-7.070312-2.929688zm0 0"/></svg>