<svg xmlns="http://www.w3.org/2000/svg" xmlns:xlink="http://www.w3.org/1999/xlink" height="496pt" viewBox="0 0 496 496" width="496pt"><linearGradient id="linear0" gradientUnits="userSpaceOnUse" x1="248" x2="248" y1="496" y2="0"><stop offset="0" stop-color="#9f2fff"></stop><stop offset="1" stop-color="#0bb1d3"></stop></linearGradient><path d="m152 496c30.878906 0 56-25.128906 56-56s-25.121094-56-56-56-56 25.128906-56 56 25.121094 56 56 56zm0-96c22.054688 0 40 17.945312 40 40s-17.945312 40-40 40-40-17.945312-40-40 17.945312-40 40-40zm0 64c13.230469 0 24-10.769531 24-24s-10.769531-24-24-24-24 10.769531-24 24 10.769531 24 24 24zm0-32c4.40625 0 8 3.585938 8 8s-3.59375 8-8 8-8-3.585938-8-8 3.59375-8 8-8zm286.351562-74.496094-14.214843-120.824218c4.871093 2.121093 10.222656 3.320312 15.863281 3.320312h24c8.824219 0 16-7.175781 16-16v-48c0-8.824219-7.175781-16-16-16h-136c-13.230469 0-24 10.769531-24 24s10.769531 24 24 24h40v153.640625c-10.710938 5.488281-20.105469 13.167969-27.71875 22.359375h-38.25l-27.429688-96h29.398438v-8c0-28.152344-20.902344-51.457031-48-55.359375v-224.640625h-240v225.472656c-9.289062 3.3125-16 12.113282-16 22.527344v16c0 13.230469 10.769531 24 24 24h29.558594c-22.671875 15.9375-37.558594 42.238281-37.558594 72v88h64v-8c0-39.703125 32.304688-72 72-72s72 32.296875 72 72v8h128.640625c3.902344 27.089844 27.207031 48 55.359375 48s51.457031-20.910156 55.359375-48h32.640625v-8c0-37.847656-24.054688-70.089844-57.648438-82.496094zm25.648438-181.503906.007812 48h-24.007812c-7.414062 0-13.976562-3.457031-18.382812-8.761719l-.023438-.175781-.113281.015625c-3.375-4.132813-5.480469-9.34375-5.480469-15.078125 0-13.230469 10.769531-24 24-24zm-136 16c-4.40625 0-8-3.585938-8-8s3.59375-8 8-8h40v16zm56-16h24.207031c-5.078125 6.703125-8.207031 14.960938-8.207031 24 0 7.792969 2.328125 15.015625 6.199219 21.167969l15.527343 132.007812c-4.480468-.703125-9.046874-1.175781-13.726562-1.175781-8.320312 0-16.367188 1.191406-24 3.359375zm-240 32v-16h16v32h-48v-32h16v16zm-48-32v48h-64v-160h64v48h80v-48h64v160h-64v-48zm64-112v32h-16v-16h-16v16h-16v-32zm-48-16v-32h48v32zm128 0h-64v-32h64zm-144-32v32h-64v-32zm-72 256c-4.40625 0-8-3.585938-8-8v-16c0-4.414062 3.59375-8 8-8h224c19.320312 0 35.480469 13.769531 39.191406 32zm215.640625 160c-4.054687-44.792969-41.808594-80-87.640625-80s-83.585938 35.207031-87.640625 80h-32.359375v-72c0-39.703125 32.304688-72 72-72h153.96875l32 112h39.695312c-5.007812 9.761719-8.265624 20.558594-9.296874 32zm168.359375 48c-19.3125 0-35.472656-13.769531-39.191406-32h78.382812c-3.71875 18.230469-19.878906 32-39.191406 32zm-71.558594-48c3.992188-35.953125 34.558594-64 71.558594-64s67.566406 28.046875 71.558594 64zm-112.441406-128h16v16h-16zm-32 0h16v16h-16zm-32 0h16v16h-16zm0 0" fill="url(#linear0)"></path></svg>