<?xml version="1.0" encoding="iso-8859-1"?>
<!-- Generator: Adobe Illustrator 19.0.0, SVG Export Plug-In . SVG Version: 6.00 Build 0)  -->
<svg version="1.1" id="Capa_1" xmlns="http://www.w3.org/2000/svg" xmlns:xlink="http://www.w3.org/1999/xlink" x="0px" y="0px"
	 viewBox="0 0 511.999 511.999" style="enable-background:new 0 0 511.999 511.999;" xml:space="preserve">
<g>
	<path style="fill:#00D8CE;" d="M396,63.476H115.999V42.898c0-18.094,14.803-32.898,32.898-32.898h214.204
		c18.094,0,32.896,14.804,32.896,32.898L396,63.476z"/>
	<path style="fill:#F0F0FB;" d="M115.999,63.476H396v352.961H115.999V63.476L115.999,63.476z M192.36,186.317l-14.143,14.142
		l49.497,49.498l-36.827,36.827l-0.001,28.284h28.285l36.827-36.827l36.827,36.827l40.955,12.67l-12.67-40.954l-36.828-36.827
		l49.498-49.498l-14.143-14.142l-14.143-14.142l-49.497,49.497L206.5,172.175L192.36,186.317z"/>
	<g>
		<polygon style="fill:#FF8346;" points="255.999,221.672 305.496,172.175 319.639,186.317 333.781,200.458 284.283,249.957 		"/>
		<polygon style="fill:#FF8346;" points="227.715,249.957 255.999,278.241 219.172,315.068 190.887,315.068 190.888,286.784 		"/>
	</g>
	<polygon style="fill:#FFCE34;" points="255.999,278.241 227.715,249.957 178.217,200.458 192.36,186.317 206.502,172.175 
		255.999,221.672 284.283,249.957 321.111,286.784 333.781,327.738 292.826,315.068 	"/>
	<path style="fill:#00D8CE;" d="M115.999,416.437H396l-0.002,52.665c0,18.094-14.803,32.897-32.896,32.897H148.897
		c-18.095,0-32.898-14.804-32.898-32.897L115.999,416.437z"/>
</g>
<path d="M255.741,439.217c-11.016,0-20,8.984-20,20c0,11.015,8.984,20,20,20c11.015,0,19.999-8.985,19.999-20
	S266.756,439.217,255.741,439.217z"/>
<path d="M405.998,469.102V63.514c0-0.013,0.002-0.025,0.002-0.039s-0.002-0.025-0.002-0.039V42.898
	C405.998,19.244,386.755,0,363.102,0H148.897c-23.654,0-42.898,19.244-42.898,42.898l0,0c0,0.003,0,0,0,0.003s0-0.007,0-0.003
	v426.204c0,0.003,0-0.003,0,0c0,0.004,0-0.003,0,0l0,0c0,23.654,19.244,42.897,42.898,42.897h214.204
	C386.755,511.999,405.998,492.756,405.998,469.102L405.998,469.102c0-0.013,0,0.026,0,0.013S405.998,469.115,405.998,469.102z
	 M125.999,73.476h259.998v332.961H125.999V73.476z M148.897,20h214.204c12.625,0,22.896,10.272,22.896,22.898v10.578H125.999V42.898
	C125.999,30.272,136.271,20,148.897,20z M363.102,491.999H148.897c-12.626,0-22.898-10.271-22.898-22.897v-42.665h259.998v42.665
	C385.998,481.728,375.727,491.999,363.102,491.999z"/>
<path d="M290.998,108.478h0.236c5.522,0,10-4.477,10-10s-4.478-10-10-10h-0.236c-5.522,0-10,4.477-10,10
	S285.476,108.478,290.998,108.478z"/>
<path d="M361,88.476h-41.035c-5.522,0-10,4.477-10,10s4.478,10,10,10H361c5.522,0,10-4.477,10-10
	C371,92.953,366.522,88.476,361,88.476z"/>
<path d="M343.781,200.458c0-2.652-1.054-5.196-2.93-7.071l-28.284-28.284c-3.906-3.904-10.236-3.905-14.143,0.001l-42.426,42.426
	l-42.426-42.426c-3.905-3.905-10.236-3.905-14.142,0l-28.285,28.283c-1.875,1.876-2.929,4.419-2.929,7.071s1.054,5.196,2.929,7.071
	l42.427,42.427l-29.756,29.756c-1.876,1.875-2.929,4.418-2.929,7.071l-0.001,24.143l-9.741,9.741
	c-3.905,3.905-3.905,10.237,0,14.142c1.953,1.953,4.512,2.929,7.071,2.929c2.559,0,5.118-0.977,7.071-2.929l9.741-9.741h24.143
	c2.652,0,5.196-1.054,7.071-2.929l29.756-29.756l29.756,29.756c1.15,1.15,2.563,2.002,4.116,2.482l40.955,12.67
	c0.972,0.301,1.967,0.447,2.954,0.447c2.613,0,5.168-1.025,7.072-2.929c2.623-2.623,3.578-6.482,2.481-10.026l-12.67-40.954
	c-0.48-1.553-1.332-2.966-2.482-4.115l-29.757-29.757l42.427-42.427C342.728,205.654,343.781,203.11,343.781,200.458z
	 M215.03,305.068h-14.143l0.001-14.142l26.827-26.828l14.143,14.143L215.03,305.068z M318.625,312.582l-20.479-6.335
	L192.359,200.459l14.143-14.142L312.29,292.104c0.004,0.004,0,0,0.004,0.004s-0.008-0.008-0.004-0.004l0,0L318.625,312.582z
	 M284.283,235.814l-14.143-14.142l35.356-35.355l14.143,14.142L284.283,235.814z"/>
<g>
</g>
<g>
</g>
<g>
</g>
<g>
</g>
<g>
</g>
<g>
</g>
<g>
</g>
<g>
</g>
<g>
</g>
<g>
</g>
<g>
</g>
<g>
</g>
<g>
</g>
<g>
</g>
<g>
</g>
</svg>
