<svg xmlns="http://www.w3.org/2000/svg" height="512pt" viewBox="-41 0 512 512.00104" width="512pt"><path d="m292.519531 501.898438v-43.210938c0-18.777344 15.222657-34 34-34h12.78125c11.023438 0 21.59375-4.378906 29.390625-12.175781 7.792969-7.792969 12.171875-18.367188 12.171875-29.386719v-100.34375h27.132813c10.523437 0 15.792968-12.722656 8.351562-20.164062l-26.203125-26.207032c-16.1875-16.183594-25.28125-38.136718-25.28125-61.027344 0-47.429687-21.066406-92.40625-57.5-122.769531-16.507812-13.753906-35.164062-24.394531-55.066406-31.589843-19.847656-7.171876-40.929687-10.921876-62.351563-10.921876h-4.433593c-40.921875 0-80.496094 14.636719-111.5625 41.269532-40.523438 34.734375-63.847657 85.441406-63.847657 138.8125 0 29.746094 7.257813 59.046875 21.148438 85.351562l41.941406 79.453125c14.757813 27.957031 22.472656 59.09375 22.472656 90.707031v56.203126" fill="#f2d1a5"></path><path d="m261.691406 136.027344c-14.144531-1.414063-26.757812 8.902344-28.171875 23.046875-1.417969 14.144531 8.902344 26.757812 23.046875 28.171875 14.144532 1.417968 26.757813-8.902344 28.171875-23.046875 1.417969-14.140625-8.902343-26.757813-23.046875-28.171875zm0 0" fill="#00ee8a"></path><path d="m172.597656 76.753906c-14.144531-1.417968-26.757812 8.902344-28.171875 23.046875-1.417969 14.144531 8.902344 26.757813 23.046875 28.171875 14.144532 1.417969 26.757813-8.902344 28.171875-23.046875 1.417969-14.144531-8.902343-26.757812-23.046875-28.171875zm0 0" fill="#ff415b"></path><path d="m92.921875 184.839844c-14.144531-1.414063-26.757813 8.902344-28.171875 23.046875-1.417969 14.144531 8.902344 26.757812 23.046875 28.171875 14.144531 1.417968 26.757813-8.902344 28.171875-23.042969 1.417969-14.144531-8.902344-26.761719-23.046875-28.175781zm0 0" fill="#5ecef4"></path><path d="m423.492188 255.472656-26.203126-26.203125c-14.394531-14.390625-22.324218-33.53125-22.324218-53.886719 0-50.574218-22.285156-98.152343-61.136719-130.53125-17.332031-14.445312-36.878906-25.65625-58.097656-33.324218-21.15625-7.648438-43.289063-11.527344-65.785157-11.527344h-4.433593c-43.304688 0-85.261719 15.519531-118.140625 43.703125-42.816406 36.699219-67.371094 90.089844-67.371094 146.484375 0 31.265625 7.714844 62.410156 22.3125 90.0625l41.945312 79.453125c13.9375 26.402344 21.304688 56.136719 21.304688 85.992187v56.203126c0 5.578124 4.523438 10.101562 10.097656 10.101562 5.578125 0 10.101563-4.523438 10.101563-10.101562v-56.203126c0-33.128906-8.171875-66.125-23.640625-95.421874l-41.941406-79.453126c-13.070313-24.757812-19.976563-52.640624-19.976563-80.632812 0-50.488281 21.984375-98.289062 60.316406-131.144531 29.222657-25.046875 66.507813-38.839844 104.992188-38.839844h4.433593c20.144532 0 39.96875 3.472656 58.917969 10.320313 19.003907 6.871093 36.511719 16.914062 52.03125 29.851562 34.234375 28.527344 53.867188 70.445312 53.867188 115.007812 0 25.753907 10.03125 49.964844 28.242187 68.171876l26.199219 26.203124c.222656.222657.8125.808594.371094 1.867188-.4375 1.054688-1.265625 1.054688-1.578125 1.054688h-27.132813c-5.578125 0-10.101562 4.523437-10.101562 10.101562v12.042969c0 5.578125 4.523437 10.101562 10.101562 10.101562s10.101563-4.523437 10.101563-10.101562v-1.941407h17.03125c8.894531 0 16.839844-5.308593 20.242187-13.527343 3.40625-8.21875 1.539063-17.59375-4.746093-23.882813zm0 0"></path><path d="m380.863281 365.53125c-5.578125 0-10.101562 4.523438-10.101562 10.101562v7.492188c0 8.402344-3.269531 16.304688-9.214844 22.246094-5.941406 5.941406-13.839844 9.214844-22.246094 9.214844h-12.777343c-24.320313 0-44.101563 19.78125-44.101563 44.101562v43.210938c0 5.578124 4.523437 10.101562 10.097656 10.101562 5.578125 0 10.101563-4.523438 10.101563-10.101562v-43.210938c0-13.179688 10.722656-23.902344 23.902344-23.902344h12.777343c13.800781 0 26.773438-5.371094 36.53125-15.128906 9.757813-9.757812 15.132813-22.730469 15.132813-36.53125v-7.492188c0-5.578124-4.523438-10.101562-10.101563-10.101562zm0 0"></path><path d="m294.796875 165.203125c1.96875-19.664063-12.425781-37.265625-32.089844-39.234375-9.535156-.949219-18.855469 1.859375-26.261719 7.921875-.671874.546875-1.308593 1.121094-1.933593 1.710937l-30.507813-21.792968c.847656-2.527344 1.425782-5.164063 1.699219-7.878906.953125-9.527344-1.859375-18.855469-7.921875-26.265626-6.0625-7.40625-14.644531-12.015624-24.171875-12.96875-19.660156-1.976562-37.261719 12.429688-39.230469 32.09375-.890625 8.882813 1.5 17.59375 6.742188 24.738282l-37.777344 53.519531c-2.957031-1.148437-6.105469-1.929687-9.410156-2.261719-19.636719-1.972656-37.261719 12.429688-39.230469 32.089844-1.96875 19.664062 12.429687 37.265625 32.089844 39.234375 1.210937.121094 2.40625.179687 3.597656.179687 18.167969 0 33.789063-13.816406 35.632813-32.273437.914062-9.09375-1.683594-17.742187-6.675782-24.613281l37.828125-53.585938c2.949219 1.128906 6.0625 1.878906 9.292969 2.203125 1.214844.121094 2.429688.183594 3.636719.183594 8.105469 0 15.898437-2.730469 22.300781-7.847656l31.90625 22.789062c-.386719 1.605469-.671875 3.242188-.839844 4.914063-.953125 9.527344 1.859375 18.855468 7.917969 26.265625 6.0625 7.40625 14.648437 12.015625 24.171875 12.96875 1.210938.121093 2.40625.179687 3.597656.179687 18.171875 0 33.789063-13.816406 35.636719-32.269531zm-188.871094 46.804687c-.859375 8.578126-8.527343 14.855469-17.117187 14-8.582032-.859374-14.863282-8.539062-14.003906-17.117187.859374-8.578125 8.535156-14.859375 17.117187-14.003906 4.15625.417969 7.902344 2.425781 10.546875 5.660156 2.648438 3.234375 3.871094 7.300781 3.457031 11.460937zm62.554688-94.089843c-4.152344-.414063-7.898438-2.425781-10.546875-5.660157-2.640625-3.230468-3.871094-7.300781-3.453125-11.457031.414062-4.15625 2.425781-7.902343 5.65625-10.546875 3.234375-2.644531 7.308593-3.875 11.460937-3.457031 4.15625.417969 7.902344 2.425781 10.546875 5.660156s3.875 7.300781 3.457031 11.457031c-.417968 4.160157-2.425781 7.902344-5.660156 10.546876-3.234375 2.644531-7.308594 3.875-11.460937 3.457031zm106.214843 45.269531c-.859374 8.582031-8.527343 14.863281-17.117187 14.003906-4.15625-.414062-7.902344-2.425781-10.546875-5.660156-2.644531-3.230469-3.871094-7.300781-3.457031-11.457031.417969-4.15625 2.425781-7.902344 5.660156-10.546875 2.820313-2.308594 6.277344-3.535156 9.871094-3.535156.527343 0 1.058593.023437 1.585937.078124 4.15625.414063 7.902344 2.425782 10.546875 5.660157 2.648438 3.230469 3.875 7.300781 3.457031 11.457031zm0 0"></path><path d="m387.277344 327.078125-.296875-.226563c-4.441407-3.375-10.777344-2.515624-14.15625 1.925782-3.378907 4.4375-2.515625 10.773437 1.921875 14.152344l.296875.226562c1.828125 1.390625 3.976562 2.0625 6.109375 2.0625 3.046875 0 6.058594-1.371094 8.046875-3.984375 3.378906-4.441406 2.515625-10.777344-1.921875-14.15625zm0 0"></path></svg>