<svg id="Capa_1" enable-background="new 0 0 512 512" height="512" viewBox="0 0 512 512" width="512" xmlns="http://www.w3.org/2000/svg"><g><g><path d="m480.742 404.949h-7.712v-51.736h-71.858-290.344-71.858v51.736h-7.712c-11.74 0-21.258 9.517-21.258 21.258v37.837h492v-37.837c0-11.741-9.517-21.258-21.258-21.258zm-172.323 14.279c-1.632 9.145-9.586 15.805-18.876 15.805h-67.087c-9.29 0-17.243-6.66-18.876-15.805l-2.548-14.279h109.935z" fill="#9593e6"/><path d="m110.828 130.306h-48.07c-13.138 0-23.788 10.65-23.788 23.788v199.119h71.858z" fill="#cbcaf3"/><path d="m473.03 353.213v-199.119c0-13.138-10.65-23.788-23.788-23.788h-48.071v222.907z" fill="#cbcaf3"/><path d="m401.172 353.213v-222.907-32.191h-290.344v32.191 222.907z" fill="#fff"/><path d="m401.172 72.052c0-13.308-10.788-24.096-24.096-24.096h-242.152c-13.308 0-24.096 10.788-24.096 24.096v26.063h290.343v-26.063z" fill="#a5dbff"/><path d="m203.581 419.228c1.632 9.145 9.586 15.805 18.876 15.805h67.087c9.29 0 17.243-6.66 18.876-15.805l2.548-14.279h-109.936z" fill="#9bbecf"/></g><g><path d="m483.03 395.041c0-13.494 0-232.335 0-240.948 0-18.63-15.157-33.788-33.788-33.788h-38.071c0-20.786 0-27.381 0-48.254 0-18.8-15.295-34.096-34.096-34.096h-242.151c-18.8 0-34.096 15.295-34.096 34.096v48.254h-38.07c-18.63 0-33.788 15.157-33.788 33.788v240.948c-16.17 1.177-28.97 14.7-28.97 31.165v37.837c0 5.523 4.477 10 10 10h492c5.523 0 10-4.477 10-10v-37.837c0-16.465-12.8-29.988-28.97-31.165zm-71.859-254.735h38.071c7.603 0 13.788 6.185 13.788 13.788v189.119h-51.858v-202.907zm-290.342-68.254c0-7.772 6.323-14.096 14.096-14.096h242.151c7.772 0 14.096 6.323 14.096 14.096v16.063h-270.343zm0 36.063h270.343v235.098h-270.343c0-11.98 0-225.519 0-235.098zm-71.859 45.979c0-7.603 6.185-13.788 13.788-13.788h38.071v202.907h-51.859zm0 209.119h414.06v31.736c-11.416 0-401.404 0-414.06 0zm250.055 51.736-.451 2.522c-.782 4.382-4.58 7.562-9.031 7.562h-67.087c-4.451 0-8.249-3.18-9.031-7.563l-.45-2.522h86.05zm192.975 39.094h-472v-27.837c0-6.208 5.05-11.257 11.257-11.257h161.402l1.077 6.036c2.487 13.935 14.565 24.048 28.72 24.048h67.087c14.155 0 26.233-10.114 28.72-24.048l1.078-6.037h161.402c6.208 0 11.257 5.05 11.257 11.257z"/><path d="m209.757 207.912c3.608 4.182 9.923 4.646 14.104 1.04 4.182-3.608 4.647-9.922 1.04-14.104l-17.747-20.57c-.935-1.083-.935-2.718 0-3.802l17.746-20.57c3.607-4.182 3.142-10.496-1.04-14.104-4.182-3.607-10.496-3.142-14.104 1.04l-17.746 20.569c-7.362 8.532-7.362 21.4 0 29.932z"/><path d="m287.099 194.847c-3.607 4.182-3.142 10.496 1.04 14.104s10.497 3.141 14.104-1.04l17.746-20.569c7.362-8.532 7.362-21.4 0-29.932l-17.746-20.57c-3.608-4.182-9.922-4.647-14.104-1.04-4.182 3.608-4.647 9.922-1.04 14.104l17.747 20.57c.935 1.083.935 2.718 0 3.802z"/><path d="m247.998 216.913c5.43.964 10.627-2.655 11.593-8.099l12.511-70.518c.965-5.438-2.662-10.628-8.099-11.593-5.441-.968-10.629 2.662-11.593 8.099l-12.511 70.518c-.965 5.437 2.661 10.628 8.099 11.593z"/><path d="m174.05 254.207h163.9c5.523 0 10-4.477 10-10s-4.477-10-10-10h-163.9c-5.523 0-10 4.477-10 10s4.477 10 10 10z"/><path d="m337.95 267.348c-5.523 0-10 4.477-10 10s4.477 10 10 10h.025c5.523 0 9.987-4.477 9.987-10s-4.489-10-10.012-10z"/><path d="m174.05 287.348h123.9c5.523 0 10-4.477 10-10s-4.477-10-10-10h-123.9c-5.523 0-10 4.477-10 10s4.477 10 10 10z"/><path d="m337.95 300.488h-163.9c-5.523 0-10 4.477-10 10s4.477 10 10 10h163.9c5.523 0 10-4.477 10-10s-4.477-10-10-10z"/></g></g></svg>