<svg xmlns="http://www.w3.org/2000/svg" width="440" height="627" viewBox="0 0 440 627" fill="none"><path d="M98.8112 120.43C115.602 113.286 118.974 83.4307 106.344 53.7472C93.7134 24.0637 69.8628 5.79223 53.0721 12.9368C36.2815 20.0813 32.9089 49.9363 45.5394 79.6198C58.1699 109.303 82.0205 127.575 98.8112 120.43Z" fill="#00E0FF"></path><path d="M351.711 365.22V254.49C351.711 193.34 385.321 163.17 426.781 187.1V297.82C426.781 358.99 393.141 389.16 351.711 365.22Z" fill="#C2F4FF"></path><path d="M389.371 555.38L75.9512 374.38V102.71C75.9512 89.8498 83.7612 83.9398 93.4112 89.5098L371.911 250.3C381.551 255.87 389.371 270.8 389.371 283.66V555.38Z" fill="white" stroke="black" stroke-width="2.49" stroke-linecap="round" stroke-linejoin="round"></path><path d="M75.9512 127.68L389.371 308.64" stroke="black" stroke-width="2.49" stroke-linecap="round" stroke-linejoin="round"></path><path d="M367.541 273.24L411.141 298.41" stroke="black" stroke-width="2.49" stroke-linecap="round" stroke-linejoin="round"></path><path d="M178.142 403.489L99.7517 358.229C98.6895 357.467 97.8206 356.467 97.2145 355.309C96.6085 354.151 96.2822 352.866 96.2617 351.559V172.559C96.2617 169.989 97.8217 168.809 99.7517 169.919L178.142 215.149C180.072 216.259 181.632 219.249 181.632 221.819V400.819C181.592 403.419 180.032 404.599 178.142 403.489Z" stroke="black" stroke-width="2.49" stroke-linecap="round" stroke-linejoin="round"></path><path d="M364.051 510.82L209.051 421.34C207.121 420.23 205.551 417.24 205.551 414.67V235.67C205.551 233.1 207.121 231.92 209.051 233.03L364.051 322.52C365.971 323.63 367.541 326.62 367.541 329.19V508.19C367.541 510.82 365.971 511.96 364.051 510.82Z" stroke="black" stroke-width="2.49" stroke-linecap="round" stroke-linejoin="round"></path><path d="M145.724 244.847L126.758 233.973V237.783L134.495 242.219V268.713L137.95 270.694V244.2L145.724 248.657V244.847Z" fill="black"></path><path d="M160.301 303.4L114.691 277.07V216.26L160.301 242.59V303.4Z" stroke="black" stroke-width="2.49" stroke-linecap="round" stroke-linejoin="round" stroke-dasharray="4.39 7.31"></path><path d="M118.111 222.789L111.281 218.839V209.729L118.111 213.679V222.789Z" fill="white" stroke="black" stroke-width="2.49" stroke-linecap="round" stroke-linejoin="round"></path><path d="M118.111 283.6L111.281 279.66V270.54L118.111 274.49V283.6Z" fill="white" stroke="black" stroke-width="2.49" stroke-linecap="round" stroke-linejoin="round"></path><path d="M163.721 249.12L156.891 245.18V236.06L163.721 240.01V249.12Z" fill="white" stroke="black" stroke-width="2.49" stroke-linecap="round" stroke-linejoin="round"></path><path d="M163.721 309.94L156.891 305.99V296.88L163.721 300.82V309.94Z" fill="white" stroke="black" stroke-width="2.49" stroke-linecap="round" stroke-linejoin="round"></path><path d="M152.511 355.04L122.511 337.71C118.201 335.22 114.711 328.55 114.711 322.81C114.711 317.07 118.201 314.43 122.511 316.92L152.511 334.25C156.811 336.73 160.301 343.4 160.301 349.14C160.301 354.89 156.811 357.53 152.511 355.04Z" fill="white" stroke="black" stroke-width="2.49" stroke-linecap="round" stroke-linejoin="round"></path><path d="M285.921 448.869L223.021 412.559C221.101 411.449 219.531 408.459 219.531 405.889V262.349C219.531 259.779 221.101 258.599 223.021 259.709L285.921 296.019C286.985 296.782 287.855 297.784 288.461 298.944C289.067 300.104 289.392 301.391 289.411 302.699V446.229C289.411 448.819 287.851 449.989 285.921 448.869Z" stroke="black" stroke-width="2.49" stroke-linecap="round" stroke-linejoin="round"></path><path d="M220.551 259.66L288.241 449.03" stroke="black" stroke-width="2.49" stroke-linecap="round" stroke-linejoin="round"></path><path d="M288.241 298.74L220.551 409.94" stroke="black" stroke-width="2.49" stroke-linecap="round" stroke-linejoin="round"></path><path d="M316.021 576.3L235.291 529.7C234.228 528.936 233.358 527.934 232.752 526.774C232.146 525.614 231.82 524.328 231.801 523.02V344.02C231.801 341.45 233.361 340.26 235.291 341.38L316.021 387.99C317.941 389.1 319.511 392.09 319.511 394.66V573.66C319.511 576.24 317.941 577.42 316.021 576.3Z" fill="white" stroke="black" stroke-width="2.49" stroke-linecap="round" stroke-linejoin="round"></path><path d="M301.402 476.119L249.912 446.389C247.982 445.279 246.422 442.289 246.422 439.719V371.059C246.422 368.489 247.982 367.309 249.912 368.419L301.402 398.149C303.332 399.259 304.892 402.249 304.892 404.819V473.479C304.892 476.049 303.332 477.229 301.402 476.119Z" stroke="black" stroke-width="2.49" stroke-linecap="round" stroke-linejoin="round"></path><path d="M266.026 405.723C269.512 404.24 270.214 398.044 267.593 391.885C264.972 385.726 260.021 381.935 256.535 383.419C253.049 384.902 252.347 391.098 254.968 397.257C257.589 403.416 262.54 407.207 266.026 405.723Z" stroke="black" stroke-width="2.49" stroke-linecap="round" stroke-linejoin="round"></path><path d="M269.82 439.09L274.38 431.19L284.22 414.19C285.49 411.99 288.67 413.82 289.95 417.5L299.78 445.82L304.89 460.57" stroke="black" stroke-width="2.49" stroke-linecap="round" stroke-linejoin="round"></path><path d="M249.07 445.82L256.25 433.39L261.07 425.05C262.14 423.19 264.83 424.74 265.91 427.84L270.72 441.75L277.96 462.64" stroke="black" stroke-width="2.49" stroke-linecap="round" stroke-linejoin="round"></path><path d="M282.902 496.17L249.562 476.92C248.607 476.233 247.827 475.333 247.281 474.292C246.736 473.25 246.442 472.095 246.422 470.92C246.422 468.62 247.832 467.55 249.562 468.55L282.902 487.82C283.856 488.507 284.637 489.406 285.182 490.448C285.727 491.49 286.022 492.644 286.042 493.82C286.042 496.1 284.632 497.17 282.902 496.17Z" fill="#00E0FF"></path><path d="M301.752 521.699L249.562 491.569C248.607 490.883 247.827 489.983 247.281 488.941C246.736 487.9 246.442 486.745 246.422 485.569C246.422 483.259 247.832 482.189 249.562 483.189L301.752 513.319C302.706 514.006 303.487 514.906 304.032 515.948C304.577 516.989 304.872 518.144 304.892 519.319C304.892 521.629 303.482 522.699 301.752 521.699Z" fill="#C2F4FF"></path><path d="M301.751 507.05L292.681 501.82C291.728 501.132 290.948 500.232 290.403 499.19C289.858 498.149 289.563 496.995 289.541 495.82C289.541 493.52 290.951 492.45 292.681 493.44L301.751 498.68C302.705 499.366 303.486 500.266 304.031 501.308C304.577 502.349 304.871 503.504 304.891 504.68V504.68C304.891 506.98 303.481 508.05 301.751 507.05Z" stroke="black" stroke-width="1.7" stroke-linecap="round" stroke-linejoin="round"></path><path d="M297.292 532.63L278.661 521.88C277.707 521.193 276.926 520.293 276.381 519.252C275.836 518.21 275.542 517.055 275.521 515.88C275.521 513.58 276.931 512.51 278.661 513.51L297.292 524.26C298.246 524.946 299.027 525.846 299.572 526.888C300.117 527.93 300.411 529.084 300.431 530.26C300.431 532.56 299.022 533.63 297.292 532.63Z" fill="#C2F4FF"></path><path d="M268.192 515.82L249.562 505.06C248.606 504.374 247.825 503.474 247.279 502.433C246.734 501.391 246.44 500.235 246.422 499.06V499.06C246.422 496.75 247.832 495.68 249.562 496.68L268.192 507.44C269.145 508.128 269.924 509.028 270.469 510.07C271.014 511.111 271.309 512.265 271.332 513.44V513.44C271.332 515.76 269.912 516.82 268.192 515.82Z" stroke="black" stroke-width="1.7" stroke-linecap="round" stroke-linejoin="round"></path><path d="M258.591 524.26L249.591 519.04C248.637 518.354 247.856 517.454 247.311 516.412C246.766 515.37 246.471 514.216 246.451 513.04C246.451 510.73 247.861 509.66 249.591 510.66L258.591 515.88C259.547 516.566 260.328 517.465 260.874 518.507C261.419 519.549 261.713 520.704 261.731 521.88C261.731 524.19 260.321 525.26 258.591 524.26Z" fill="#00E0FF"></path><path d="M429.709 434.06C430.846 434.802 431.792 435.8 432.473 436.974C433.154 438.148 433.55 439.465 433.629 440.82C433.629 443.3 431.889 444.31 429.739 443.07L380.359 414.56C379.221 413.821 378.273 412.823 377.594 411.648C376.914 410.474 376.522 409.155 376.449 407.8C376.449 405.32 378.179 404.31 380.339 405.55L429.709 434.06Z" fill="#C2F4FF"></path><path d="M423.079 415.819C424.216 416.561 425.163 417.559 425.844 418.733C426.525 419.907 426.92 421.224 426.999 422.579C426.999 425.069 425.259 426.069 423.099 424.819L409.029 416.699C407.894 415.959 406.949 414.963 406.27 413.79C405.591 412.618 405.197 411.302 405.119 409.949C405.119 407.459 406.849 406.449 409.009 407.699L423.079 415.819Z" fill="#C2F4FF"></path><path d="M435.521 408.629C436.657 409.374 437.603 410.374 438.283 411.55C438.964 412.725 439.36 414.044 439.441 415.399C439.441 417.879 437.701 418.889 435.551 417.639L421.481 409.519C420.343 408.779 419.396 407.781 418.715 406.607C418.034 405.433 417.638 404.115 417.561 402.759C417.561 400.269 419.291 399.269 421.451 400.509L435.521 408.629Z" fill="#00E0FF"></path><path d="M425.49 388.509C426.628 389.247 427.575 390.242 428.255 391.416C428.934 392.589 429.327 393.906 429.4 395.259C429.4 397.749 427.67 398.759 425.51 397.509L418.82 393.639C417.683 392.901 416.735 391.906 416.054 390.733C415.373 389.56 414.977 388.243 414.9 386.889C414.9 384.399 416.63 383.399 418.79 384.639L425.49 388.509Z" fill="white" stroke="black" stroke-width="1.7" stroke-linecap="round" stroke-linejoin="round"></path><path d="M398.141 401.48C399.279 402.217 400.228 403.213 400.909 404.386C401.59 405.559 401.985 406.876 402.061 408.23C402.061 410.72 400.321 411.72 398.171 410.48L380.301 400.16C379.163 399.422 378.215 398.426 377.534 397.253C376.853 396.081 376.458 394.764 376.381 393.41C376.381 390.92 378.121 389.92 380.281 391.16L398.141 401.48Z" fill="white" stroke="black" stroke-width="1.7" stroke-linecap="round" stroke-linejoin="round"></path><path d="M410.079 393.979C411.218 394.722 412.166 395.722 412.849 396.897C413.531 398.073 413.929 399.392 414.009 400.749C414.009 403.229 412.269 404.239 410.109 402.989L380.279 385.819C379.143 385.079 378.197 384.083 377.516 382.911C376.835 381.738 376.439 380.423 376.359 379.069C376.359 376.579 378.099 375.569 380.259 376.809L410.079 393.979Z" fill="#C2F4FF"></path><path d="M405.54 376.989C406.677 377.731 407.624 378.729 408.305 379.903C408.986 381.077 409.382 382.394 409.46 383.749C409.46 386.229 407.72 387.239 405.56 385.989L380.24 371.369C379.104 370.63 378.157 369.634 377.476 368.462C376.795 367.289 376.399 365.973 376.32 364.619C376.32 362.129 378.06 361.119 380.21 362.369L405.54 376.989Z" fill="#00E0FF"></path><path d="M416.801 582.56C416.806 582.599 416.806 582.64 416.801 582.68C416.801 582.68 416.801 582.76 416.801 582.79C416.801 582.82 416.801 582.88 416.801 582.92C416.796 582.956 416.796 582.993 416.801 583.03V583.15C416.761 583.27 416.761 583.27 416.721 583.39C416.724 583.426 416.724 583.463 416.721 583.5C416.709 583.541 416.692 583.581 416.671 583.62V583.73L416.601 583.86C416.603 583.893 416.603 583.926 416.601 583.96L416.511 584.11L416.451 584.2L416.331 584.36L416.281 584.43C416.211 584.52 416.131 584.6 416.061 584.68L416.001 584.75C415.933 584.808 415.869 584.871 415.811 584.94L415.711 585.02L415.591 585.13L415.481 585.22L415.351 585.33L415.221 585.42L415.081 585.52L414.941 585.61L414.791 585.71L414.601 585.83L395.601 596.89L395.031 597.19L394.871 597.26L394.341 597.49H394.261C394.065 597.572 393.865 597.642 393.661 597.7L393.231 597.82L392.901 597.91L392.431 598.01L392.091 598.08H391.951L391.371 598.17H391.201L390.521 598.22H389.081H388.661H388.271H387.851H387.471L387.031 598.14L386.571 598.05H386.461L385.821 597.88L385.651 597.83L385.141 597.65L384.991 597.6L384.541 597.41L384.331 597.32C384.111 597.21 383.911 597.11 383.711 596.99L364.271 585.82C362.621 584.82 361.791 583.61 361.791 582.35L361.711 610.26C361.711 611.52 362.541 612.77 364.191 613.73L383.361 624.82C383.561 624.94 383.771 625.05 383.981 625.15L384.191 625.24L384.571 625.41H384.641H384.791C384.951 625.48 385.121 625.53 385.301 625.59H385.471H385.591L386.111 625.72H386.221H386.471H386.681L387.121 625.8H387.301H387.501L387.921 625.85H388.121H388.311H388.731H388.951H390.141H390.711H390.821H390.991C391.191 625.85 391.381 625.85 391.571 625.76H391.711H391.781L392.051 625.7L392.521 625.6L392.851 625.51C392.991 625.51 393.141 625.44 393.281 625.39H393.371C393.545 625.342 393.715 625.282 393.881 625.21H393.961C394.142 625.143 394.319 625.066 394.491 624.98L394.651 624.91C394.844 624.823 395.034 624.723 395.221 624.61L414.221 613.55L414.321 613.49L414.411 613.43L414.571 613.33L414.701 613.24L414.841 613.14L414.971 613.05L415.101 612.95L415.211 612.85C415.253 612.815 415.293 612.779 415.331 612.74H415.381L415.571 612.55L415.631 612.48C415.709 612.401 415.783 612.317 415.851 612.23V612.17L415.971 612.01L416.031 611.92L416.121 611.77V611.71L416.181 611.58L416.231 611.47C416.235 611.43 416.235 611.39 416.231 611.35V611.29C416.271 611.17 416.271 611.17 416.311 611.05V610.93C416.311 610.93 416.311 610.93 416.311 610.87C416.311 610.87 416.311 610.79 416.311 610.75C416.311 610.63 416.311 610.63 416.311 610.51C416.311 610.51 416.311 610.51 416.311 610.43V610.36L416.391 582.45C416.391 582.45 416.801 582.51 416.801 582.56Z" fill="white" stroke="black" stroke-width="1.7" stroke-linecap="round" stroke-linejoin="round"></path><path d="M414.33 578.94C417.62 580.84 417.64 583.94 414.33 585.83L395.33 596.89C393.488 597.827 391.451 598.315 389.385 598.315C387.319 598.315 385.282 597.827 383.44 596.89L364.27 585.82C360.98 583.92 360.96 580.82 364.27 578.93L383.27 567.87C385.11 566.933 387.145 566.444 389.21 566.444C391.275 566.444 393.31 566.933 395.15 567.87L414.33 578.94Z" fill="white" stroke="black" stroke-width="1.7" stroke-linecap="round" stroke-linejoin="round"></path><path d="M389.26 555.869C411.583 555.869 429.68 537.773 429.68 515.449C429.68 493.126 411.583 475.029 389.26 475.029C366.936 475.029 348.84 493.126 348.84 515.449C348.84 537.773 366.936 555.869 389.26 555.869Z" fill="#00E0FF"></path><path d="M389.26 499.6V598.31" stroke="black" stroke-width="1.7" stroke-linecap="round" stroke-linejoin="round"></path><path d="M389.26 543.15L414.44 517.97" stroke="black" stroke-width="1.7" stroke-linecap="round" stroke-linejoin="round"></path><path d="M389.26 521.039L396.35 513.949" stroke="black" stroke-width="1.7" stroke-linecap="round" stroke-linejoin="round"></path><path d="M66.7404 386.959C66.7355 386.999 66.7355 387.039 66.7404 387.079C66.7404 387.079 66.7404 387.159 66.7404 387.189C66.7459 387.232 66.7459 387.276 66.7404 387.319C66.7451 387.356 66.7451 387.393 66.7404 387.429V387.549V387.659C66.7404 387.659 66.7404 387.749 66.7404 387.789C66.7404 387.829 66.7404 387.859 66.7404 387.899L66.6804 388.019C66.6679 388.058 66.6511 388.095 66.6304 388.129L66.5704 388.249L66.5104 388.359L66.4204 388.509L66.3604 388.599L66.2404 388.759L66.1904 388.829C66.1204 388.909 66.0504 388.999 65.9704 389.079L65.9104 389.149L65.7204 389.339L65.6304 389.419L65.5104 389.529L65.3904 389.619L65.2604 389.729L65.1304 389.819L64.9904 389.919L64.8604 390.009L64.7104 390.109L64.5104 390.229L45.5104 401.289C45.3269 401.401 45.1365 401.501 44.9404 401.589L44.7904 401.659L44.2504 401.889H44.1804L43.5804 402.099L43.1404 402.219L42.8104 402.309L42.3504 402.409L42.0104 402.479H41.8704L41.2804 402.559H41.1104C40.8904 402.559 40.6604 402.609 40.4304 402.619H39.0004H38.5704H38.1804L37.7604 402.569H37.3904L36.9404 402.489L36.4804 402.399H36.3704L35.7404 402.229L35.5604 402.179L35.0504 401.999H34.9004L34.4604 401.809L34.2404 401.709C34.0304 401.609 33.8204 401.509 33.6204 401.389L14.4604 390.329C12.8004 389.329 11.9704 388.109 11.9804 386.859L11.9004 414.769C11.9004 416.029 12.7204 417.279 14.3804 418.239L33.5504 429.299C33.7404 429.419 33.9504 429.519 34.1604 429.629L34.3804 429.719L34.7604 429.879H34.8304H34.9704L35.4804 430.059H35.6604H35.7804L36.2904 430.189H36.4004H36.6604H36.8604L37.3104 430.269H37.4904H37.6904H38.1104H38.3104H38.4904H38.9204H40.1404H40.7204H40.8204H41.0004L41.5804 430.179H41.7204H41.7904L42.0604 430.119L42.5204 430.019L42.8504 429.929L43.2904 429.809H43.3804L43.8904 429.629H43.9604C44.1446 429.563 44.3249 429.486 44.5004 429.399L44.6504 429.329C44.8465 429.241 45.0369 429.141 45.2204 429.029L64.2204 417.969L64.3304 417.909L64.4204 417.849L64.5704 417.749L64.7004 417.659L64.8504 417.559L64.9704 417.469L65.1004 417.359L65.2204 417.269L65.3404 417.159H65.3904L65.5804 416.969L65.6404 416.899C65.7189 416.821 65.7924 416.737 65.8604 416.649V416.589L65.9804 416.429L66.0404 416.339L66.1304 416.189V416.129C66.1476 416.083 66.1712 416.039 66.2004 415.999C66.2004 415.999 66.2004 415.929 66.2004 415.889L66.2604 415.769C66.2647 415.75 66.2647 415.729 66.2604 415.709V415.589V415.469V415.349C66.2604 415.349 66.2604 415.349 66.2604 415.289C66.2557 415.273 66.2557 415.256 66.2604 415.239C66.2604 415.239 66.2604 415.159 66.2604 415.119C66.2652 415.079 66.2652 415.039 66.2604 414.999C66.2604 414.999 66.2604 414.919 66.2604 414.879V414.729L66.7404 386.819V386.959Z" fill="white" stroke="black" stroke-width="1.7" stroke-linecap="round" stroke-linejoin="round"></path><path d="M64.2592 383.34C67.5592 385.24 67.5692 388.34 64.2592 390.23L45.2592 401.29C43.4176 402.227 41.3805 402.715 39.3142 402.715C37.2479 402.715 35.2109 402.227 33.3692 401.29L14.2092 390.23C10.9092 388.33 10.8992 385.23 14.2092 383.34L33.2092 372.28C35.0509 371.343 37.0879 370.854 39.1542 370.854C41.2205 370.854 43.2576 371.343 45.0992 372.28L64.2592 383.34Z" fill="white" stroke="black" stroke-width="1.7" stroke-linecap="round" stroke-linejoin="round"></path><path d="M25.18 351.17C39.0865 351.17 50.36 339.896 50.36 325.99C50.36 312.083 39.0865 300.81 25.18 300.81C11.2735 300.81 0 312.083 0 325.99C0 339.896 11.2735 351.17 25.18 351.17Z" fill="#00E0FF"></path><path d="M25.1797 314.59V396.45" stroke="black" stroke-width="1.7" stroke-linecap="round" stroke-linejoin="round"></path><path d="M25.1809 342.509L15.3809 332.699" stroke="black" stroke-width="1.7" stroke-linecap="round" stroke-linejoin="round"></path><path d="M25.1797 336.029L32.2697 328.939" stroke="black" stroke-width="1.7" stroke-linecap="round" stroke-linejoin="round"></path><path d="M25.1795 328.33L19.4395 322.59" stroke="black" stroke-width="1.7" stroke-linecap="round" stroke-linejoin="round"></path><path d="M50.3605 332.7C69.8562 332.7 85.6605 316.895 85.6605 297.4C85.6605 277.904 69.8562 262.1 50.3605 262.1C30.8649 262.1 15.0605 277.904 15.0605 297.4C15.0605 316.895 30.8649 332.7 50.3605 332.7Z" fill="#C2F4FF"></path><path d="M50.3594 281.659V398.209" stroke="black" stroke-width="1.7" stroke-linecap="round" stroke-linejoin="round"></path><path d="M50.3605 309.57L40.5605 299.77" stroke="black" stroke-width="1.7" stroke-linecap="round" stroke-linejoin="round"></path><path d="M50.3594 303.1L57.4594 296.01" stroke="black" stroke-width="1.7" stroke-linecap="round" stroke-linejoin="round"></path><path d="M50.3594 316.769L56.1094 311.029" stroke="black" stroke-width="1.7" stroke-linecap="round" stroke-linejoin="round"></path></svg>