<svg height="512pt" viewBox="-70 0 512 512" width="512pt" xmlns="http://www.w3.org/2000/svg"><g fill-rule="evenodd"><path d="m185.972656 166.890625c81.101563 0 146.84375 51.632813 146.84375 115.328125v20.898438c0 14.769531-12.085937 26.855468-26.855468 26.855468h-239.972657c-14.769531 0-26.851562-12.085937-26.851562-26.855468v-20.898438c-.003907-63.695312 65.738281-115.328125 146.835937-115.328125zm0 0" fill="#54a0ff"/><path d="m185.972656 10c35.140625 0 63.886719 28.746094 63.886719 63.886719v29.117187c0 35.136719-28.746094 63.886719-63.882813 63.886719h-.003906c-35.136718 0-63.882812-28.75-63.882812-63.886719v-29.117187c0-35.140625 28.746094-63.886719 63.882812-63.886719zm0 0" fill="#ffdc91"/><path d="m185.972656 283.636719c16.046875 0 29.136719-13.085938 29.136719-29.132813 0-16.042968-13.089844-29.132812-29.136719-29.132812-16.042968 0-29.132812 13.089844-29.132812 29.132812 0 16.046875 13.089844 29.132813 29.132812 29.132813zm0 0" fill="#ff6b6b"/><g fill="#1ad8b4"><path d="m39.132812 502c16.046876 0 29.132813-13.089844 29.132813-29.132812 0-16.046876-13.085937-29.132813-29.132813-29.132813-16.042968 0-29.132812 13.085937-29.132812 29.132813 0 16.042968 13.089844 29.132812 29.132812 29.132812zm0 0"/><path d="m185.972656 502c16.046875 0 29.136719-13.089844 29.136719-29.132812 0-16.046876-13.089844-29.132813-29.136719-29.132813-16.042968 0-29.132812 13.085937-29.132812 29.132813 0 16.042968 13.089844 29.132812 29.132812 29.132812zm0 0"/><path d="m332.816406 502c16.042969 0 29.132813-13.089844 29.132813-29.132812 0-16.046876-13.089844-29.132813-29.132813-29.132813-16.046875 0-29.132812 13.085937-29.132812 29.132813 0 16.042968 13.085937 29.132812 29.132812 29.132812zm0 0"/></g><path d="m342.816406 435.03125v-50.703125c0-5.523437-4.480468-10-10-10h-136.84375v-34.355469h109.988282c20.320312 0 36.851562-16.53125 36.851562-36.855468v-20.898438c0-33.941406-16.628906-65.695312-46.832031-89.414062-18.625-14.628907-41.082031-25.101563-65.542969-30.835938 17.855469-13.5 29.421875-34.902344 29.421875-58.960938v-29.121093c0-40.742188-33.144531-73.886719-73.886719-73.886719-40.738281 0-73.882812 33.144531-73.882812 73.886719v29.117187c0 24.179688 11.675781 45.679688 29.679687 59.167969-21.953125 5.257813-42.738281 14.292969-60.203125 26.464844-33.8125 23.566406-52.433594 57.332031-52.433594 95.066406 0 5.523437 4.480469 10 10 10 5.523438 0 10-4.476563 10-10 0-39.738281 23.855469-64.710937 43.871094-78.660156 25.289063-17.628907 60.042969-28.152344 92.96875-28.152344 75.457032 0 136.84375 47.25 136.84375 105.324219v20.902344c0 9.292968-7.5625 16.855468-16.855468 16.855468h-109.988282v-27.636718c16.75-4.429688 29.136719-19.710938 29.136719-37.832032 0-21.578125-17.558594-39.132812-39.136719-39.132812s-39.132812 17.554687-39.132812 39.132812c0 18.121094 12.386718 33.402344 29.132812 37.832032v27.636718h-88.882812c-5.519532 0-10 4.476563-10 10 0 5.519532 4.480468 10 10 10h88.882812v34.351563h-136.839844c-5.519531 0-10 4.480469-10 10v50.707031c-16.746093 4.429688-29.132812 19.710938-29.132812 37.832031 0 21.578125 17.554688 39.132813 39.132812 39.132813 21.578126 0 39.132813-17.554688 39.132813-39.132813 0-18.121093-12.382813-33.402343-29.132813-37.832031v-40.707031h126.839844v40.707031c-16.746094 4.429688-29.132812 19.710938-29.132812 37.832031 0 21.582031 17.554687 39.136719 39.132812 39.136719s39.136719-17.554688 39.136719-39.132812c0-18.125-12.386719-33.402344-29.136719-37.835938v-40.703125h126.84375v40.703125c-16.75 4.433594-29.132812 19.710938-29.132812 37.835938 0 21.578124 17.554687 39.132812 39.132812 39.132812s39.132813-17.554688 39.132813-39.132812c0-18.125-12.386719-33.402344-29.132813-37.835938zm-210.726562-332.027344v-29.117187c0-29.714844 24.171875-53.886719 53.886718-53.886719 29.710938 0 53.882813 24.171875 53.882813 53.886719v29.117187c0 29.710938-24.171875 53.886719-53.882813 53.886719h-.003906c-29.710937 0-53.882812-24.175781-53.882812-53.886719zm34.75 151.5c0-10.550781 8.585937-19.132812 19.132812-19.132812 10.550782 0 19.136719 8.582031 19.136719 19.132812 0 10.550782-8.585937 19.132813-19.136719 19.132813-10.546875 0-19.132812-8.582031-19.132812-19.132813zm-108.574219 218.363282c0 10.546874-8.582031 19.132812-19.132813 19.132812-10.550781 0-19.132812-8.582031-19.132812-19.132812 0-10.546876 8.578125-19.128907 19.125-19.132813h.007812.011719c10.542969.003906 19.121094 8.585937 19.121094 19.132813zm146.84375 0c0 10.546874-8.585937 19.132812-19.136719 19.132812-10.546875 0-19.132812-8.582031-19.132812-19.132812 0-10.546876 8.578125-19.128907 19.125-19.132813h.007812.011719c10.546875.003906 19.125 8.585937 19.125 19.132813zm127.707031 19.132812c-10.550781 0-19.132812-8.582031-19.132812-19.132812 0-10.546876 8.578125-19.128907 19.121094-19.132813h.011718.007813c10.546875.003906 19.125 8.585937 19.125 19.132813 0 10.550781-8.585938 19.132812-19.132813 19.132812zm0 0"/><path d="m47.738281 332.773438c5.507813 0 10-4.492188 10-10 0-5.507813-4.492187-10-10-10-5.507812 0-10 4.492187-10 10 0 5.507812 4.492188 10 10 10zm0 0"/></g></svg>