<svg xmlns="http://www.w3.org/2000/svg" id="Capa_1" height="512" viewBox="0 0 512 512" width="512"><g id="XMLID_1153_"><path id="XMLID_1404_" d="m160.167 476c22.091 0 40-17.909 40-40v-40h111.667v40c0 22.091 17.909 40 40 40z" fill="#8aa8bd"></path><g id="XMLID_1112_"><path id="XMLID_1113_" d="m10 356c0 22.091 17.909 40 40 40h412c22.091 0 40-17.909 40-40v-40.167h-492z" fill="#e2e9ee"></path><path id="XMLID_1120_" d="m462 36h-412c-22.091 0-40 17.909-40 40v239.833h492v-239.833c0-22.091-17.909-40-40-40z" fill="#cbf4fb"></path></g><g id="XMLID_1139_"><circle id="XMLID_1162_" cx="215.002" cy="250.75" fill="#6d92ac" r="24"></circle><path id="XMLID_1161_" d="m187.387 222.75h151.132l20.954-113.029h-196.475z" fill="#fff"></path><circle id="XMLID_1144_" cx="311.002" cy="250.75" fill="#6d92ac" r="24"></circle><g id="XMLID_160_"><path id="XMLID_181_" d="m462 26h-161c-5.522 0-10 4.478-10 10s4.478 10 10 10h161c16.542 0 30 13.458 30 30v229.833h-472v-229.833c0-16.542 13.458-30 30-30h161c5.522 0 10-4.478 10-10s-4.478-10-10-10h-161c-27.57 0-50 22.43-50 50v280c0 27.57 22.43 50 50 50h140.167v30c0 16.542-13.458 30-30 30h-24.167c-5.522 0-10 4.478-10 10s4.478 10 10 10h240c5.522 0 10-4.478 10-10s-4.478-10-10-10h-24.167c-16.542 0-30-13.458-30-30v-30h140.167c27.57 0 50-22.43 50-50v-280c0-27.57-22.43-50-50-50zm-150.14 440h-111.72c6.292-8.362 10.027-18.752 10.027-30v-30h91.666v30c0 11.248 3.735 21.638 10.027 30zm150.14-80h-412c-16.542 0-30-13.458-30-30v-30.167h472v30.167c0 16.542-13.458 30-30 30z"></path><path id="XMLID_183_" d="m256 346c-2.63 0-5.21 1.069-7.07 2.93s-2.93 4.44-2.93 7.07 1.069 5.21 2.93 7.069c1.86 1.86 4.44 2.931 7.07 2.931s5.21-1.07 7.069-2.931c1.861-1.859 2.931-4.439 2.931-7.069s-1.07-5.21-2.931-7.07c-1.859-1.861-4.439-2.93-7.069-2.93z"></path><path id="XMLID_768_" d="m256 46c2.63 0 5.21-1.07 7.069-2.931 1.861-1.859 2.931-4.439 2.931-7.069s-1.07-5.21-2.931-7.07c-1.859-1.861-4.439-2.93-7.069-2.93s-5.21 1.069-7.07 2.93-2.93 4.44-2.93 7.07 1.069 5.21 2.93 7.069c1.86 1.861 4.44 2.931 7.07 2.931z"></path><path id="XMLID_785_" d="m348.352 224.572 20.953-113.029c.542-2.921-.243-5.932-2.144-8.217-1.899-2.284-4.717-3.605-7.688-3.605h-189.108l-5.496-24.802c-1.014-4.578-5.073-7.836-9.763-7.836h-37.246c-5.522 0-10 4.478-10 10s4.478 10 10 10h29.219l30.545 137.831c.929 4.194 4.417 7.272 8.601 7.76-3.303 5.241-5.223 11.437-5.223 18.076 0 18.748 15.252 34 34 34s34-15.252 34-34c0-6.607-1.901-12.776-5.175-18h38.35c-3.274 5.224-5.175 11.393-5.175 18 0 18.748 15.252 34 34 34s34-15.252 34-34c0-6.645-1.923-12.845-5.231-18.087 4.268-.537 7.78-3.768 8.581-8.091zm-173.555-104.851h172.651l-17.245 93.029h-134.79zm40.205 145.029c-7.72 0-14-6.28-14-14s6.28-14 14-14 14 6.28 14 14-6.28 14-14 14zm96 0c-7.72 0-14-6.28-14-14s6.28-14 14-14 14 6.28 14 14-6.28 14-14 14z"></path></g></g></g></svg>