<svg xmlns="http://www.w3.org/2000/svg" id="Capa_1" height="512" viewBox="0 0 512 512" width="512"><g><g><path clip-rule="evenodd" d="m65.523 40.982v108.111c2.807-.368 5.757.539 7.912 2.693l7.004 7.001c9.783-6.208 20.701-10.8 32.384-13.436v-9.893c0-5.187 4.254-9.468 9.471-9.468h26.514c5.189 0 9.471 4.28 9.471 9.468v9.893c11.655 2.636 22.573 7.228 32.384 13.436l7.004-7.001c3.686-3.685 9.698-3.685 13.385 0l18.744 18.737c3.686 3.685 3.686 9.694 0 13.379l-7.004 7.001c6.21 9.808 10.804 20.721 13.441 32.371h9.897c5.189 0 9.471 4.252 9.471 9.467v26.503c0 5.216-4.282 9.468-9.471 9.468h-9.897c-2.637 11.65-7.231 22.563-13.441 32.371l7.004 7.001c3.686 3.685 3.686 9.723 0 13.379l-18.744 18.765c-3.686 3.657-9.698 3.657-13.385 0l-7.004-7.001c-9.812 6.179-20.729 10.8-32.384 13.408v9.893c0 5.216-4.282 9.468-9.471 9.468h-26.514c-5.218 0-9.471-4.252-9.471-9.468v-9.893c-11.683-2.608-22.601-7.228-32.384-13.408l-7.004 7.001c-2.155 2.126-5.104 3.033-7.912 2.665v91.189h301.1v-118.088-70.014-69.986-135.012c0-17.036-13.952-30.982-30.995-30.982h-46.024v40.96c0 3.033-2.495 5.499-5.53 5.499h-136.003c-3.034 0-5.53-2.466-5.53-5.499v-40.96h-46.024c-17.042 0-30.994 13.946-30.994 30.982z" fill="#ecf2f3" fill-rule="evenodd"></path></g><g><path clip-rule="evenodd" d="m142.542 10v40.96c0 3.033 2.495 5.499 5.53 5.499h136.003c3.034 0 5.53-2.466 5.53-5.499v-40.96z" fill="#80b6ff" fill-rule="evenodd"></path></g><g><path clip-rule="evenodd" d="m135.537 190.195c30.853 0 55.836 24.973 55.836 55.785 0 30.84-24.983 55.813-55.836 55.813-30.825 0-55.836-24.973-55.836-55.813 0-30.812 25.012-55.785 55.836-55.785zm-120.037 42.547v26.503c0 5.216 4.254 9.468 9.471 9.468h9.897c2.609 11.65 7.203 22.563 13.413 32.371l-7.004 7.001c-3.686 3.685-3.686 9.723 0 13.379l18.744 18.765c1.531 1.531 3.488 2.409 5.501 2.665 2.807.368 5.757-.539 7.912-2.665l7.004-7.001c9.783 6.179 20.701 10.8 32.384 13.408v9.893c0 5.216 4.254 9.468 9.471 9.468h26.514c5.189 0 9.471-4.252 9.471-9.468v-9.893c11.655-2.608 22.573-7.228 32.384-13.408l7.004 7.001c3.686 3.657 9.698 3.657 13.385 0l18.744-18.765c3.686-3.657 3.686-9.694 0-13.379l-7.004-7.001c6.21-9.808 10.804-20.721 13.441-32.371h9.897c5.189 0 9.471-4.252 9.471-9.468v-26.503c0-5.216-4.282-9.467-9.471-9.467h-9.897c-2.637-11.65-7.231-22.563-13.441-32.371l7.004-7.001c3.686-3.685 3.686-9.694 0-13.379l-18.744-18.737c-3.686-3.685-9.698-3.685-13.385 0l-7.004 7.001c-9.812-6.208-20.729-10.8-32.384-13.436v-9.893c0-5.187-4.282-9.468-9.471-9.468h-26.514c-5.218 0-9.471 4.28-9.471 9.468v9.893c-11.683 2.636-22.601 7.228-32.384 13.436l-7.004-7.001c-2.155-2.154-5.104-3.061-7.912-2.693-2.013.255-3.97 1.162-5.501 2.693l-18.744 18.737c-3.686 3.685-3.686 9.694 0 13.379l7.004 7.001c-6.21 9.808-10.804 20.721-13.413 32.371h-9.897c-5.217 0-9.471 4.252-9.471 9.467z" fill="#bfdbff" fill-rule="evenodd"></path></g><g><path clip-rule="evenodd" d="m135.537 190.195c-30.825 0-55.836 24.973-55.836 55.785 0 30.84 25.011 55.813 55.836 55.813 30.853 0 55.836-24.973 55.836-55.813 0-30.812-24.983-55.785-55.836-55.785z" fill="#ecf2f3" fill-rule="evenodd"></path></g><g><path clip-rule="evenodd" d="m421.778 101.529c0 13.748 11.145 24.888 24.898 24.888s24.926-11.14 24.926-24.888-11.173-24.916-24.926-24.916-24.898 11.168-24.898 24.916z" fill="#ffe6b4" fill-rule="evenodd"></path></g><g><path clip-rule="evenodd" d="m446.676 245.98c0 13.776 11.145 24.916 24.926 24.916 13.753 0 24.898-11.14 24.898-24.916 0-13.748-11.145-24.888-24.898-24.888-13.782 0-24.926 11.14-24.926 24.888z" fill="#ffe6b4" fill-rule="evenodd"></path></g><g><path clip-rule="evenodd" d="m421.778 390.459c0 13.748 11.145 24.916 24.898 24.916s24.926-11.168 24.926-24.916-11.173-24.888-24.926-24.888-24.898 11.14-24.898 24.888z" fill="#ffe6b4" fill-rule="evenodd"></path></g><g><path clip-rule="evenodd" d="m65.523 434.083v36.906c0 17.064 13.952 31.01 30.995 31.01h239.111c17.043 0 30.995-13.946 30.995-31.01v-36.906z" fill="#80b6ff" fill-rule="evenodd"></path></g><g><path d="m135.537 311.793c36.302 0 65.836-29.524 65.836-65.813 0-36.274-29.534-65.785-65.836-65.785s-65.836 29.511-65.836 65.785c0 36.289 29.534 65.813 65.836 65.813zm0-111.598c25.274 0 45.836 20.539 45.836 45.785 0 25.262-20.562 45.813-45.836 45.813s-45.836-20.552-45.836-45.813c0-25.246 20.562-45.785 45.836-45.785z"></path><path d="m438.143 255.979c4.313 14.394 17.677 24.917 33.46 24.917 19.242 0 34.897-15.664 34.897-34.917 0-19.237-15.655-34.888-34.897-34.888-15.78 0-29.142 10.51-33.457 24.888h-61.522v-49.986h70.053c5.522 0 10-4.477 10-10v-41.042c14.4-4.307 24.927-17.657 24.927-33.423 0-19.253-15.668-34.916-34.927-34.916-19.242 0-34.897 15.663-34.897 34.916 0 15.763 10.514 29.111 24.897 33.421v31.044h-60.053v-125.011c-.001-22.598-18.392-40.982-40.996-40.982h-239.11c-22.605 0-40.996 18.384-40.996 40.982v101.595c-.899.634-1.766 1.333-2.57 2.137l-18.744 18.737c-3.673 3.671-5.695 8.559-5.695 13.762 0 5.204 2.022 10.091 5.694 13.762l1.551 1.55c-3.563 6.626-6.438 13.565-8.601 20.75h-2.186c-10.736 0-19.472 8.733-19.472 19.468v26.503c0 10.734 8.735 19.467 19.472 19.467h2.186c2.162 7.185 5.038 14.124 8.601 20.75l-1.55 1.55c-3.683 3.681-5.706 8.585-5.695 13.811.01 5.21 2.042 10.09 5.689 13.708l18.777 18.798c.796.789 1.654 1.477 2.543 2.1v121.56c0 22.613 18.391 41.01 40.995 41.01h239.11c22.604 0 40.995-18.397 40.995-41.01v-144.996h60.053v31.044c-14.383 4.309-24.897 17.657-24.897 33.421 0 19.253 15.655 34.916 34.897 34.916 19.259 0 34.927-15.663 34.927-34.916 0-15.766-10.527-29.116-24.927-33.423v-41.042c0-5.523-4.478-10-10-10h-70.053v-50.015zm33.46-24.887c8.215 0 14.897 6.679 14.897 14.888 0 8.225-6.683 14.917-14.897 14.917-8.23 0-14.927-6.691-14.927-14.917 0-8.209 6.696-14.888 14.927-14.888zm-39.825-129.563c0-8.225 6.683-14.916 14.897-14.916 8.23 0 14.927 6.691 14.927 14.916 0 8.209-6.696 14.888-14.927 14.888-8.214 0-14.897-6.679-14.897-14.888zm-279.236-81.529h127.062v26.459h-127.062zm-85.813 312.794-17.999-18.019 6.621-6.619c3.31-3.308 3.883-8.469 1.38-12.422-5.711-9.019-9.783-18.846-12.104-29.207-1.022-4.567-5.077-7.814-9.758-7.814h-9.369v-25.438h9.368c4.681 0 8.735-3.247 9.758-7.814 2.321-10.361 6.394-20.188 12.104-29.207 2.503-3.953 1.93-9.114-1.38-12.422l-6.621-6.619 17.998-17.991 6.641 6.638c3.312 3.31 8.478 3.879 12.428 1.372 8.975-5.695 18.809-9.774 29.229-12.125 4.56-1.029 7.799-5.08 7.799-9.755v-9.36h25.457v9.36c0 4.673 3.236 8.723 7.794 9.753 10.396 2.352 20.235 6.434 29.243 12.133 3.95 2.499 9.108 1.929 12.416-1.378l6.628-6.625 17.984 17.977-6.622 6.619c-3.31 3.308-3.883 8.469-1.379 12.423 5.701 9.003 9.784 18.837 12.137 29.228 1.031 4.557 5.08 7.792 9.753 7.792h9.368v25.438h-9.368c-4.673 0-8.722 3.235-9.753 7.792-2.353 10.392-6.436 20.226-12.137 29.229-2.504 3.954-1.931 9.115 1.379 12.423l6.622 6.619-17.984 18.005-6.628-6.625c-3.302-3.301-8.448-3.876-12.398-1.389-9.1 5.731-18.938 9.806-29.238 12.111-4.568 1.022-7.816 5.077-7.816 9.759v9.36h-25.457v-9.36c0-4.684-3.251-8.74-7.821-9.76-10.325-2.305-20.157-6.377-29.224-12.103-3.952-2.495-9.103-1.922-12.41 1.382zm289.894-166.8h-38.066c-5.522 0-10 4.477-10 10s4.478 10 10 10h38.066v49.986h-56.073c-5.522 0-10 4.477-10 10s4.478 10 10 10h56.073v50.015h-38.066c-5.522 0-10 4.477-10 10s4.478 10 10 10h38.066v98.089h-45.666c-5.522 0-10 4.477-10 10s4.478 10 10 10h45.666v26.907c0 11.585-9.418 21.01-20.995 21.01h-239.11c-11.577 0-20.995-9.425-20.995-21.01v-26.907h145.597c5.522 0 10-4.477 10-10s-4.478-10-10-10h-145.598v-73.209c1.794-.901 3.482-2.084 4.981-3.572l1.557-1.556c6.645 3.569 13.588 6.446 20.763 8.604v2.179c0 10.734 8.734 19.467 19.471 19.467h26.515c10.736 0 19.472-8.733 19.472-19.467v-2.183c7.163-2.158 14.104-5.035 20.757-8.604l1.59 1.588c7.571 7.512 19.896 7.513 27.502-.033l18.711-18.732c3.681-3.65 5.713-8.53 5.723-13.741.011-5.225-2.013-10.129-5.695-13.811l-1.551-1.55c3.56-6.619 6.44-13.557 8.615-20.75h2.2c10.736 0 19.471-8.733 19.471-19.467v-26.503c0-10.734-8.734-19.468-19.471-19.468h-2.2c-2.175-7.193-5.056-14.131-8.615-20.75l1.551-1.55c3.673-3.671 5.695-8.559 5.695-13.762s-2.022-10.091-5.695-13.762l-18.744-18.737c-7.587-7.586-19.935-7.585-27.523 0l-1.555 1.554c-6.623-3.559-13.567-6.44-20.765-8.614v-2.194c0-10.734-8.735-19.467-19.472-19.467h-26.515c-10.736 0-19.471 8.733-19.471 19.467v2.19c-7.21 2.174-14.154 5.054-20.77 8.614l-1.55-1.549c-1.498-1.498-3.186-2.688-4.981-3.595v-100.139c-.001-11.569 9.417-20.982 20.995-20.982h36.024v30.96c0 8.546 6.967 15.499 15.529 15.499h136.003c8.563 0 15.529-6.953 15.529-15.499v-30.96h36.024c11.577 0 20.995 9.413 20.995 20.982v125.012zm104.98 224.465c0 8.225-6.696 14.916-14.927 14.916-8.215 0-14.897-6.691-14.897-14.916 0-8.209 6.683-14.888 14.897-14.888 8.23 0 14.927 6.679 14.927 14.888z"></path><path d="m266.038 424.083c-5.522 0-10 4.477-10 10s4.478 10 10 10h.058c5.522 0 9.971-4.477 9.971-10s-4.506-10-10.029-10z"></path></g></g></svg>