<svg xmlns="http://www.w3.org/2000/svg" height="511pt" viewBox="-43 1 511 511.99897" width="511pt"><path d="m148.128906 28.605469c18.847656-11.78125 41.121094-18.589844 64.988282-18.589844 67.804687 0 122.773437 54.96875 122.773437 122.773437 0 67.804688-54.96875 122.773438-122.773437 122.773438-67.808594 0-122.777344-54.96875-122.777344-122.773438 0-22.128906 5.855468-42.886718 16.097656-60.816406" fill="#f5f0eb"></path><path d="m136.449219 440.566406c-49.214844 0-37.472657-.25-79.136719-.25v-26.800781c0-13.042969 3.757812-25.8125 10.824219-36.777344 6.191406-9.609375 16.847656-15.417969 28.28125-15.417969h46.496093c9.804688 0 19.03125 5.011719 25.367188 12.285157" fill="#5ecef4"></path><path d="m253.367188 377.710938 1.125-1.242188c6.21875-9.59375 16.886718-15.375 28.324218-15.339844l21.910156.058594 2.671876.007812 21.910156.0625c11.4375.03125 22.074218 5.867188 28.242187 15.496094 7.035157 10.984375 10.753907 23.765625 10.71875 36.808594l-.074219 27.050781c-28.683593 0-54.695312-.207031-78.058593-.378906" fill="#5ecef4"></path><path d="m307.167969 361.300781-1.589844-.003906c-13.40625-.039063-24.242187-10.9375-24.207031-24.34375l.058594-20.484375c.035156-13.40625 10.933593-24.242188 24.339843-24.207031l1.589844.003906c13.410156.039063 24.246094 10.9375 24.210937 24.34375l-.058593 20.484375c-.039063 13.40625-10.9375 24.242188-24.34375 24.207031zm0 0" fill="#f2d1a5"></path><path d="m299.316406 440.367188c-2.761718-.019532-6.488281-.039063-9.179687-.058594" fill="#5ecef4"></path><path d="m368.269531 417.828125-.019531 4.191406" fill="#5ecef4"></path><path d="m307.59375 292.265625-2.046875-.003906c-13.28125-.039063-24.078125 10.699219-24.113281 23.976562l-.015625 5.667969c6.757812 1.863281 14.804687 3.339844 19.523437 1.613281 9.265625-3.386719 17.03125-7.175781 24.46875-5.40625 1.511719.359375 3.6875-.488281 6.15625-2.113281-.167968-13.105469-10.816406-23.695312-23.972656-23.734375zm0 0" fill="#919196"></path><path d="m119.789062 361.300781-1.589843-.003906c-13.40625-.039063-24.242188-10.9375-24.207031-24.34375l.058593-20.484375c.035157-13.40625 10.933594-24.242188 24.34375-24.207031l1.585938.003906c13.410156.039063 24.246093 10.9375 24.210937 24.34375l-.058594 20.484375c-.035156 13.40625-10.9375 24.242188-24.34375 24.207031zm0 0" fill="#f2d1a5"></path><path d="m126.246094 440.367188c2.761718-.019532 6.488281-.039063 9.179687-.058594" fill="#5ecef4"></path><path d="m57.292969 417.828125.019531 4.191406" fill="#5ecef4"></path><path d="m120.214844 292.265625-2.046875-.003906c-13.28125-.039063-24.074219 10.699219-24.113281 23.976562l-.015626 5.667969c6.761719 1.863281 14.804688 3.339844 19.523438 1.613281 9.265625-3.386719 17.03125-7.175781 24.46875-5.40625 1.511719.359375 3.6875-.488281 6.15625-2.113281-.164062-13.105469-10.816406-23.695312-23.972656-23.734375zm0 0" fill="#919196"></path><path d="m353.695312 422.484375h-1.589843c-13.40625 0-24.273438-10.867187-24.273438-24.277344v-20.484375c0-13.40625 10.867188-24.273437 24.273438-24.273437h1.589843c13.40625 0 24.277344 10.867187 24.277344 24.273437v20.484375c0 13.410157-10.871094 24.277344-24.277344 24.277344zm0 0" fill="#f2d1a5"></path><path d="m290.238281 501.261719v-26.613281c0-13.042969 3.757813-25.8125 10.820313-36.777344 6.195312-9.609375 16.847656-15.417969 28.285156-15.417969h46.492188c11.4375 0 22.089843 5.808594 28.28125 15.417969 7.066406 10.964844 10.824218 23.734375 10.824218 36.777344v27.050781c-46.671875 0-86.242187-.25-124.703125-.25zm0 0" fill="#5ecef4"></path><path d="m353.929688 353.449219h-2.046876c-13.28125 0-24.046874 10.765625-24.046874 24.046875v5.667968c6.765624 1.84375 14.8125 3.296876 19.527343 1.558594 9.257813-3.414062 17.011719-7.226562 24.453125-5.472656 1.511719.355469 3.6875-.5 6.148438-2.132812-.199219-13.105469-10.878906-23.667969-24.035156-23.667969zm0 0" fill="#919196"></path><path d="m73.972656 422.460938h-1.589844c-13.40625 0-24.277343-10.867188-24.277343-24.277344v-20.480469c0-13.410156 10.867187-24.277344 24.277343-24.277344h1.589844c13.40625 0 24.273438 10.867188 24.273438 24.277344v20.480469c0 13.40625-10.867188 24.277344-24.273438 24.277344zm0 0" fill="#f2d1a5"></path><path d="m10.511719 501.425781v-26.800781c0-13.042969 3.757812-25.8125 10.824219-36.777344 6.195312-9.613281 16.847656-15.417968 28.28125-15.417968h46.496093c11.433594 0 22.085938 5.804687 28.28125 15.417968 7.066407 10.964844 10.824219 23.734375 10.824219 36.777344v27.050781c-41.542969 0-84.933594-.25-124.707031-.25zm0 0" fill="#5ecef4"></path><path d="m74.207031 353.425781h-2.050781c-13.277344 0-24.042969 10.765625-24.042969 24.046875v5.664063c6.765625 1.84375 14.8125 3.296875 19.527344 1.5625 9.257813-3.414063 17.011719-7.226563 24.453125-5.476563 1.511719.355469 3.6875-.496094 6.148438-2.128906-.203126-13.105469-10.882813-23.667969-24.035157-23.667969zm0 0" fill="#919196"></path><path d="m214.101562 376.144531h-1.972656c-16.667968 0-30.179687-13.511719-30.179687-30.179687v-25.460938c0-16.667968 13.511719-30.175781 30.179687-30.175781h1.972656c16.667969 0 30.179688 13.507813 30.179688 30.175781v25.460938c0 16.667968-13.511719 30.179687-30.179688 30.179687zm0 0" fill="#f2d1a5"></path><path d="m135.21875 474.304688v-33.316407c0-16.214843 4.671875-32.085937 13.453125-45.714843 7.703125-11.949219 20.941406-19.167969 35.15625-19.167969h57.796875c14.214844 0 27.457031 7.21875 35.15625 19.167969 8.785156 13.628906 13.457031 29.5 13.457031 45.714843v60.996094c-60.1875 0-100.199219-.3125-155.019531-.3125zm0 0" fill="#00ee8a"></path><path d="m214.394531 290.328125h-2.546875c-16.507812 0-29.890625 13.382813-29.890625 29.890625v7.042969c8.410157 2.292969 18.414063 4.101562 24.277344 1.941406 11.503906-4.242187 21.144531-8.980469 30.394531-6.804687 1.878906.441406 4.582032-.621094 7.644532-2.648438-.25-16.292969-13.527344-29.421875-29.878907-29.421875zm0 0" fill="#919196"></path><path d="m271.316406 117.644531-82.976562 82.976563c-4.679688 4.683594-12.273438 4.683594-16.957032 0l-28.019531-28.019532c-4.550781-4.550781-4.695312-11.878906-.332031-16.609374l13.191406-14.292969c4.691406-5.085938 12.707032-5.152344 17.484375-.144531 4.5625 4.777343 12.128907 4.96875 16.921875.421874l62.214844-58.980468c7.230469-6.855469 19.1875-2.410156 20.179688 7.507812l1.746093 17.46875c.359375 3.582032-.910156 7.128906-3.453125 9.671875zm0 0" fill="#00ee8a"></path><path d="m213.117188 265.578125c73.21875 0 132.785156-59.566406 132.785156-132.789063 0-73.21875-59.566406-132.789062-132.785156-132.789062-21.273438 0-41.597657 4.882812-60.410157 14.507812-4.925781 2.519532-6.875 8.554688-4.355469 13.476563 2.519532 4.925781 8.554688 6.871094 13.476563 4.355469 15.964844-8.167969 33.21875-12.308594 51.289063-12.308594 62.171874 0 112.757812 50.582031 112.757812 112.757812 0 62.175782-50.585938 112.757813-112.757812 112.757813-62.175782 0-112.761719-50.582031-112.761719-112.757813 0-17.085937 3.71875-33.488281 11.054687-48.761718 2.398438-4.984375.296875-10.96875-4.6875-13.363282-4.988281-2.394531-10.96875-.292968-13.367187 4.691407-8.644531 18-13.03125 37.324219-13.03125 57.433593.003906 73.21875 59.570312 132.789063 132.792969 132.789063zm0 0"></path><path d="m136.28125 179.683594 28.019531 28.019531c4.15625 4.15625 9.683594 6.445313 15.5625 6.445313 5.875 0 11.402344-2.289063 15.558594-6.441407l82.976563-82.976562c4.683593-4.6875 6.996093-11.160157 6.335937-17.753907l-1.75-17.46875c-.84375-8.417968-6.292969-15.480468-14.222656-18.433593-7.929688-2.949219-16.671875-1.164063-22.8125 4.65625l-62.210938 58.980469c-.789062.746093-2.039062.714843-2.789062-.070313-4.175781-4.378906-10.027344-6.84375-16.097657-6.8125-6.054687.050781-11.882812 2.628906-15.992187 7.078125l-13.1875 14.292969c-8.042969 8.710937-7.773437 22.101562.609375 30.484375zm14.109375-16.898438 13.1875-14.292968c.480469-.519532 1.046875-.632813 1.4375-.636719h.019531c.386719 0 .945313.109375 1.425782.613281 8.351562 8.75 22.285156 9.097656 31.058593.777344l62.214844-58.980469c.589844-.5625 1.28125-.703125 2.046875-.417969s1.195312.839844 1.277344 1.652344l1.746094 17.46875c.058593.59375-.148438 1.175781-.566407 1.59375l-82.976562 82.980469c-.480469.476562-1.023438.578125-1.398438.578125-.371093 0-.917969-.101563-1.394531-.578125l-28.023438-28.023438c-.753906-.75-.777343-1.953125-.054687-2.734375zm0 0"></path><path d="m121.179688 56.949219.308593.234375c1.808594 1.371094 3.933594 2.03125 6.042969 2.03125 3.027344 0 6.019531-1.367188 7.988281-3.964844 3.339844-4.40625 2.476563-10.691406-1.933593-14.03125l-.308594-.230469c-4.402344-3.34375-10.6875-2.476562-14.027344 1.929688-3.34375 4.40625-2.476562 10.691406 1.929688 14.03125zm0 0"></path><path d="m412.539062 432.445312c-6.484374-10.058593-16.609374-16.851562-28.0625-19.144531 2.246094-4.558593 3.511719-9.679687 3.511719-15.09375v-20.480469c0-.195312-.011719-.386718-.015625-.578124 0-.0625.007813-.121094.007813-.183594-.003907-.292969-.023438-.578125-.035157-.871094-.003906-.0625-.003906-.125-.007812-.1875-.839844-18-15.871094-32.472656-34.003906-32.472656h-2.050782c-3.992187 0-7.820312.695312-11.382812 1.960937.667969-2.671875 1.019531-5.445312 1.027344-8.273437l.058594-20.484375c0-.195313-.011719-.386719-.015626-.578125 0-.0625.011719-.121094.011719-.183594-.003906-.285156-.023437-.570312-.035156-.859375-.003906-.066406-.003906-.136719-.007813-.203125-.792968-18-15.78125-32.511719-33.914062-32.5625h-.226562c-.003907 0-.007813 0-.011719 0h-.746094l-1.066406-.003906c-.03125 0-.0625 0-.097657 0-18.238281 0-33.183593 14.421875-34.015624 32.480468-.003907.074219-.003907.148438-.007813.222657-.015625.417969-.03125.839843-.035156 1.261719v.054687c0 .058594-.003907.117187-.003907.175781l-.058593 20.484375c-.015625 5.367188 1.210937 10.449219 3.40625 14.984375-9.910157 1.820313-18.859375 7.019532-25.390625 14.777344-.257813-.039062-.515625-.089844-.773438-.125 3.613282-6.027344 5.695313-13.070312 5.695313-20.597656v-25.460938c0-.230468-.011719-.460937-.015625-.6875 0-.074218.011718-.148437.007812-.222656-.003906-.351562-.027344-.699219-.042968-1.046875 0-.054687-.003907-.105469-.003907-.15625-.964843-21.105469-18.585937-38.078125-39.84375-38.078125h-2.546875c-22.003906 0-39.90625 17.898438-39.90625 39.90625v.050781c0 .078125-.007812.15625-.007812.234375v25.460938c0 7.488281 2.0625 14.496094 5.644531 20.503906-.472656.058594-.933594.132812-1.402344.203125-6.535156-7.757813-15.492187-12.953125-25.410156-14.765625 2.199219-4.554688 3.367187-9.582031 3.382813-14.789062l.054687-20.480469c0-.199219-.007813-.390625-.011719-.589844 0-.058594.007813-.113281.007813-.171875-.003907-.253906-.019531-.503906-.027344-.757812-.003906-.097657-.007813-.195313-.011719-.292969-.785156-18.003907-15.777344-32.523438-33.914062-32.574219h-.226563c-.003906 0-.007812 0-.011719 0l-.746093-.003906-1.066407-.003906c-.03125 0-.0625 0-.097656 0-9.058594 0-17.585937 3.519531-24.011718 9.910156-6.453126 6.417968-10.019532 14.960937-10.042969 24.058594v.015624c-.003907.070313-.007813.144532-.007813.214844l-.058594 20.480469c-.007812 2.820313.324219 5.585937.976563 8.253906-3.386719-1.140625-7-1.765625-10.746094-1.765625h-2.050781c-18.78125 0-34.058594 15.277344-34.058594 34.058594v.039062c0 .0625-.003906.128907-.003906.191407v20.484375c0 5.367187 1.242188 10.449218 3.449219 14.976562-11.683594 2.179688-22.035157 9.035156-28.625 19.261719-8.125 12.609375-12.417969 27.199219-12.417969 42.199219v26.804687c0 5.53125 4.484375 10.015625 10.015625 10.015625 19.652344 0 40.65625.0625 60.972656.121094 21 .0625 42.71875.128906 63.730469.128906 26.753906 0 49.585938.070313 73.757812.148438 24.804688.078125 50.449219.160156 81.261719.160156 1.125 0 2.199219-.195312 3.207031-.535156 17.242188.003906 34.671876.058594 53.0625.113281 21.609376.066406 43.957032.132813 68.433594.132813 5.53125 0 10.015625-4.484376 10.015625-10.011719v-27.050781c0-15-4.292969-29.59375-12.417969-42.203126zm-60.433593-68.980468h1.589843c4.554688 0 8.605469 2.152344 11.214844 5.480468-5.878906.585938-11.507812 2.746094-17.007812 4.863282-1.300782.5-2.632813 1.011718-3.984375 1.511718-.019531.007813-1.542969.460938-5.828125-.164062 1.214844-6.640625 7.03125-11.691406 14.015625-11.691406zm-14.257813 31.816406c1.460938.140625 2.859375.21875 4.179688.21875 3.378906 0 6.300781-.460938 8.800781-1.382812 1.457031-.535157 2.878906-1.082032 4.265625-1.613282 5.097656-1.964844 9.601562-3.6875 12.863281-3.671875v9.375c0 7.65625-6.066406 13.902344-13.644531 14.230469h-2.824219c-7.574219-.328125-13.640625-6.574219-13.640625-14.230469zm-42.199218-88.855469c2.691406-2.675781 6.257812-4.148437 10.058593-4.148437h.039063.8125l.78125.003906c4.550781.011719 8.59375 2.175781 11.195312 5.511719-5.882812.566406-11.515625 2.714843-17.023437 4.816406-1.304688.496094-2.636719 1.003906-3.984375 1.496094-.023438.007812-1.550782.460937-5.835938-.179688.519532-2.828125 1.875-5.429687 3.957032-7.5zm-4.253907 27.652344c1.492188.148437 2.914063.234375 4.253907.234375 3.328124 0 6.210937-.464844 8.734374-1.386719 1.457032-.53125 2.875-1.074219 4.265626-1.605469 5.105468-1.945312 9.609374-3.660156 12.875-3.632812l-.027344 9.375c-.011719 3.808594-1.503906 7.386719-4.203125 10.074219-2.546875 2.53125-5.882813 3.96875-9.449219 4.117187l-2.863281-.007812c-7.570313-.351563-13.613281-6.613282-13.59375-14.265625zm-99.328125-15.53125c.003906-.058594.007813-.117187.015625-.175781 1.070313-10.117188 9.648438-18.027344 20.042969-18.027344h1.976562c8.015626 0 14.933594 4.710938 18.183594 11.503906-8.417968-.09375-16.589844 3.011719-24.511718 6.058594-1.628907.628906-3.296876 1.269531-5.003907 1.898438-1.183593.4375-4.585937.65625-10.742187-.480469.011718-.257813.011718-.523438.039062-.777344zm-.101562 21.050781c2.738281.375 5.285156.578125 7.625.578125 3.898437 0 7.257812-.527343 10.105468-1.578125 1.800782-.660156 3.554688-1.335937 5.269532-1.996094 7.761718-2.988281 14.46875-5.566406 19.300781-4.46875v13.832032c0 10.855468-8.632813 19.714844-19.390625 20.125h-3.519531c-10.757813-.410156-19.390625-9.265625-19.390625-20.125zm-83.695313-33.171875c2.691407-2.675781 6.257813-4.148437 10.054688-4.148437h.042969.8125l.78125.003906c.421874 0 .835937.027344 1.25.0625.058593.007812.121093.007812.179687.011719 3.265625.332031 6.289063 1.769531 8.636719 4.128906.410156.414063.78125.855469 1.136718 1.308594-5.886718.566406-11.519531 2.710937-17.035156 4.816406-1.300781.496094-2.636718 1.003906-3.984375 1.496094-.019531.007812-1.546875.460937-5.832031-.179688.519531-2.828125 1.875-5.429687 3.957031-7.5zm-4.253906 27.652344c1.492187.148437 2.914063.234375 4.257813.234375 3.324218 0 6.207031-.464844 8.730468-1.386719 1.457032-.53125 2.875-1.074219 4.265625-1.601562 5.101563-1.949219 9.609375-3.664063 12.875-3.636719l-.023437 9.375c-.011719 3.8125-1.507813 7.386719-4.207032 10.074219-2.507812 2.492187-5.777343 3.925781-9.28125 4.109375l-2.898437.007812c-3.621094-.132812-7.007813-1.59375-9.578125-4.179687-2.683594-2.699219-4.15625-6.285157-4.148438-10.09375zm-31.632813 29.363281h1.589844c4.550782 0 8.601563 2.152344 11.214844 5.480469-5.882812.585937-11.511719 2.746094-17.015625 4.863281-1.300781.503906-2.632813 1.015625-3.976563 1.507813-.019531.007812-1.546874.460937-5.832031-.164063 1.21875-6.636718 7.035157-11.6875 14.019531-11.6875zm-14.261718 31.839844c1.457031.144531 2.84375.222656 4.15625.222656 3.367187 0 6.28125-.472656 8.828125-1.410156 1.453125-.535156 2.871093-1.078125 4.253906-1.613281 5.101563-1.960938 9.605469-3.6875 12.871094-3.667969v9.371094c0 7.65625-6.066407 13.90625-13.640625 14.230468h-2.824219c-7.578125-.324218-13.644531-6.574218-13.644531-14.230468zm67.082031 96.375c-17.820313-.015625-35.992187-.070312-53.65625-.121094-16.917969-.050781-34.3125-.105468-51.019531-.117187v-16.792969c0-11.144531 3.191406-21.984375 9.230468-31.351562 4.367188-6.78125 11.792969-10.828126 19.863282-10.828126h21.527344c.410156.015626.820312.03125 1.234374.03125h1.589844c.414063 0 .824219-.019531 1.234375-.03125h20.90625c8.066407 0 15.492188 4.046876 19.863281 10.828126 6.035157 9.367187 9.226563 20.207031 9.226563 31.351562zm1.398437-66.824219c-6.015624-5.886719-13.582031-9.898437-21.851562-11.554687 2.246094-4.558594 3.511719-9.679688 3.511719-15.09375v-20.484375c0-.1875-.011719-.375-.015625-.5625 0-.066407.011718-.128907.011718-.195313-.003906-.3125-.027343-.621094-.039062-.929687 0-.035157-.003906-.070313-.003906-.105469-.070313-1.558594-.25-3.09375-.527344-4.59375l9.601562-.027344c.296876.007813.589844.023438.886719.023438l1.585938.003906h.101562c.546875 0 1.09375-.011719 1.636719-.039062l21.277344-.058594h.066406c4.453125 0 8.707031 1.238281 12.367188 3.484375-5.878907 3.898437-10.996094 9-14.953126 15.148437-6.898437 10.699219-11.507812 22.582032-13.65625 34.984375zm153.621094 49.816407v17.320312c-26.417968-.015625-49.132812-.089844-71.183594-.160156-21.117187-.066406-41.21875-.128906-63.804687-.144532v-50.675781c0-14.320312 4.101563-28.253906 11.859375-40.289062 4.117188-6.394531 10.261719-10.976563 17.300781-13.152344.429688-.09375.851563-.210937 1.265625-.363281 2.628906-.695313 5.371094-1.0625 8.167969-1.0625h19.273437v33.804687c0 5.53125 4.484376 10.015625 10.015626 10.015625 5.527343 0 10.011718-4.484375 10.011718-10.015625v-33.804687h18.496094c10.863281 0 20.855469 5.449218 26.738281 14.578125 7.757813 12.035156 11.859375 25.96875 11.859375 40.289062zm4.976563-84.800782c-3.949219-6.128906-9.046875-11.21875-14.902344-15.113281 3.667969-2.269531 7.945313-3.519531 12.421875-3.519531h.066406l21.523438.0625c.414062.015625.828125.03125 1.246094.035156l1.582031.003906h.101562c.382813 0 .761719-.015625 1.144531-.03125l10.007813.03125c-.367187 2.003906-.570313 4.066406-.570313 6.179688v.035156c0 .066406-.003906.128906-.003906.195312v20.480469c0 5.371094 1.242188 10.453125 3.449219 14.980469-8.488281 1.582031-16.257813 5.648438-22.410156 11.667969-2.144531-12.414063-6.753907-24.300781-13.65625-35.007813zm119.726562 101.832032c-20.589843-.015626-39.746093-.074219-58.355469-.128907-15.996093-.050781-31.265624-.097656-46.316406-.109375v-16.792968c0-11.144532 3.1875-21.984376 9.226563-31.351563 4.367187-6.78125 11.792969-10.828125 19.863281-10.828125h21.53125c.410156.011719.820312.03125 1.230469.03125h1.589843c.414063 0 .824219-.019531 1.234376-.03125h20.90625c8.070312 0 15.496093 4.046875 19.863281 10.828125 6.039062 9.367187 9.226562 20.207031 9.226562 31.351563zm0 0"></path><path d="m218.558594 451.59375-.308594-.230469c-4.40625-3.34375-10.6875-2.476562-14.03125 1.929688-3.339844 4.410156-2.476562 10.691406 1.933594 14.03125l.308594.234375c1.808593 1.371094 3.933593 2.035156 6.039062 2.035156 3.027344 0 6.019531-1.367188 7.992188-3.96875 3.339843-4.40625 2.476562-10.691406-1.933594-14.03125zm0 0"></path></svg>