<svg id="Capa_1" enable-background="new 0 0 512 512" height="512" viewBox="0 0 512 512" width="512" xmlns="http://www.w3.org/2000/svg"><g><g><path clip-rule="evenodd" d="m10 117.73h440.269v-74.471c0-10.857-8.901-19.759-19.757-19.759h-400.755c-10.856 0-19.757 8.901-19.757 19.759z" fill="#ff7d95" fill-rule="evenodd"/></g><g><path clip-rule="evenodd" d="m29.757 394.411h321.584c7.994-33.621 38.21-58.625 74.295-58.625 8.617 0 16.894 1.417 24.633 4.054v-222.11h-440.269v256.922c0 10.858 8.901 19.759 19.757 19.759z" fill="#fff" fill-rule="evenodd"/></g><g><path clip-rule="evenodd" d="m349.272 412.129c0 42.183 34.185 76.371 76.364 76.371 42.15 0 76.364-34.188 76.364-76.371 0-33.536-21.656-62.026-51.731-72.289-7.738-2.636-16.015-4.054-24.633-4.054-36.084 0-66.301 25.003-74.295 58.625-1.36 5.698-2.069 11.623-2.069 17.718z" fill="#a0e5a5" fill-rule="evenodd"/></g><g><path d="m460.269 333.057v-289.798c0-16.409-13.349-29.759-29.757-29.759h-265.942c-5.522 0-10 4.477-10 10s4.478 10 10 10h265.941c5.289 0 9.757 4.469 9.757 9.759v64.472h-420.268v-64.472c0-5.29 4.468-9.759 9.757-9.759h45.014c5.522 0 10-4.477 10-10s-4.478-10-10-10h-45.014c-16.408 0-29.757 13.35-29.757 29.759v331.394c0 16.409 13.349 29.759 29.757 29.759h309.879c-.227 2.545-.363 5.115-.363 7.718 0 47.625 38.742 86.371 86.363 86.371s86.364-38.747 86.364-86.372c0-35.299-21.308-65.701-51.731-79.072zm-430.512 51.355c-5.289 0-9.757-4.469-9.757-9.759v-246.923h420.269v199.321c-4.76-.816-9.644-1.265-14.633-1.265-37.924 0-70.193 24.575-81.772 58.625h-314.107zm395.879 94.088c-36.593 0-66.363-29.774-66.363-66.371 0-36.582 29.771-66.343 66.363-66.343 36.594 0 66.364 29.761 66.364 66.343 0 36.597-29.771 66.371-66.364 66.371z"/><path d="m125.126 256.194c.73.163 1.46.24 2.179.24 4.584 0 8.717-3.172 9.752-7.833l19.445-87.512c1.198-5.391-2.201-10.733-7.593-11.931-5.39-1.198-10.733 2.201-11.931 7.593l-19.445 87.512c-1.198 5.392 2.201 10.734 7.593 11.931z"/><path d="m72.541 245.159c1.979 2.386 4.831 3.62 7.706 3.62 2.247 0 4.509-.754 6.375-2.301 4.252-3.524 4.843-9.828 1.319-14.081l-24.618-29.707 24.618-29.707c3.523-4.253 2.933-10.557-1.319-14.081-4.253-3.524-10.557-2.934-14.081 1.319l-29.905 36.089c-3.066 3.701-3.066 9.061 0 12.762z"/><path d="m187.446 246.481c1.865 1.544 4.125 2.298 6.371 2.298 2.877 0 5.731-1.235 7.709-3.624l29.877-36.087c3.062-3.7 3.062-9.054 0-12.754l-29.877-36.088c-3.521-4.254-9.824-4.848-14.08-1.326-4.254 3.522-4.848 9.826-1.326 14.08l24.598 29.711-24.598 29.71c-3.521 4.254-2.928 10.558 1.326 14.08z"/><path d="m266.587 187.716h17.66c5.522 0 10-4.477 10-10s-4.478-10-10-10h-17.66c-5.522 0-10 4.477-10 10s4.477 10 10 10z"/><path d="m326.879 187.716h83.054c5.522 0 10-4.477 10-10s-4.478-10-10-10h-83.054c-5.522 0-10 4.477-10 10s4.477 10 10 10z"/><path d="m266.587 242.315h83.025c5.522 0 10-4.477 10-10s-4.478-10-10-10h-83.025c-5.522 0-10 4.477-10 10s4.477 10 10 10z"/><path d="m409.933 222.315h-17.688c-5.522 0-10 4.477-10 10s4.478 10 10 10h17.688c5.522 0 10-4.477 10-10s-4.478-10-10-10z"/><path d="m50.336 296.914h207.69c5.522 0 10-4.477 10-10s-4.478-10-10-10h-207.69c-5.522 0-10 4.477-10 10s4.477 10 10 10z"/><path d="m419.933 286.914c0-5.523-4.478-10-10-10h-79.283c-5.522 0-10 4.477-10 10s4.478 10 10 10h79.283c5.522 0 10-4.477 10-10z"/><path d="m319.935 331.513h-117.693c-5.522 0-10 4.477-10 10s4.478 10 10 10h117.692c5.522 0 10-4.477 10-10s-4.477-10-9.999-10z"/><path d="m129.62 331.513h-79.284c-5.522 0-10 4.477-10 10s4.478 10 10 10h79.284c5.522 0 10-4.477 10-10s-4.477-10-10-10z"/><path d="m358.025 70.615c0-5.523-4.478-10-10-10h-.028c-5.522 0-9.986 4.477-9.986 10s4.492 10 10.015 10 9.999-4.477 9.999-10z"/><path d="m406.326 70.615c0-5.523-4.478-10-10-10h-.057c-5.522 0-9.972 4.477-9.972 10s4.506 10 10.028 10 10.001-4.477 10.001-10z"/><path d="m309.752 70.615c0-5.523-4.478-10-10-10h-.057c-5.522 0-9.972 4.477-9.972 10s4.506 10 10.028 10 10.001-4.477 10.001-10z"/><path d="m53.942 70.615c0 5.523 4.478 10 10 10h134.444c5.522 0 10-4.477 10-10s-4.478-10-10-10h-134.444c-5.522 0-10 4.477-10 10z"/><path d="m461.536 381.471c-4.234-3.544-10.541-2.987-14.087 1.248l-32.063 38.295-12.791-10.843c-4.214-3.571-10.524-3.05-14.095 1.162-3.571 4.213-3.051 10.523 1.161 14.094l20.466 17.349c1.813 1.537 4.107 2.372 6.467 2.372.283 0 .567-.012.852-.036 2.653-.227 5.106-1.502 6.815-3.544l38.522-46.009c3.546-4.235 2.988-10.542-1.247-14.088z"/><path d="m119.67 33.5h.028c5.522 0 9.986-4.477 9.986-10s-4.492-10-10.015-10-10 4.477-10 10 4.478 10 10.001 10z"/></g></g></svg>