<svg width="350" height="90" viewBox="0 0 350 90" fill="none" xmlns="http://www.w3.org/2000/svg">
<g clip-path="url(#clip0)">
<path d="M119.397 43.1641H108.168V14.5769H119.345C123.363 14.5769 126.505 15.9161 128.823 18.6461C131.141 21.376 132.274 24.7756 132.274 28.9478C132.274 33.1199 131.141 36.5195 128.823 39.1979C126.505 41.8764 123.363 43.2156 119.397 43.1641ZM119.397 20.0883H114.246V37.6527H119.397C121.405 37.7557 123.311 36.8286 124.444 35.1803C125.629 33.532 126.196 31.4717 126.196 28.9478C126.299 26.7329 125.629 24.518 124.393 22.6637C123.26 20.964 121.354 20.0368 119.397 20.0883Z" fill="white"/>
<path d="M142.318 36.4165V43.1641H136.549V23.797H142.318V28.4842C142.678 27.042 143.451 25.7543 144.533 24.7241C145.408 23.9 146.593 23.3849 147.778 23.3849C148.911 23.3849 150.044 23.5909 151.074 24.106L150.044 29.3084C149.117 28.8963 148.087 28.6903 147.108 28.7418C143.915 28.6903 142.318 31.2657 142.318 36.4165Z" fill="white"/>
<path d="M169.772 40.6917C165.755 44.4003 159.522 44.4003 155.504 40.6917C153.547 38.8374 152.62 36.4165 152.62 33.3775C152.62 30.3385 153.599 27.9691 155.504 26.1148C159.522 22.4062 165.755 22.4062 169.772 26.1148C171.73 28.0206 172.811 30.6476 172.708 33.3775C172.811 36.159 171.73 38.7859 169.772 40.6917ZM162.613 37.8073C165.033 37.9103 167.094 36.0045 167.197 33.5321C167.3 31.1112 165.394 29.0508 162.922 28.9478C162.819 28.9478 162.716 28.9478 162.613 28.9478C161.428 28.9478 160.346 29.3599 159.522 30.2355C158.698 31.0596 158.234 32.1928 158.234 33.3775C158.183 34.5622 158.646 35.6954 159.471 36.5711C160.346 37.4467 161.479 37.8588 162.613 37.8073Z" fill="white"/>
<path d="M179.713 13.2892C180.64 13.2892 181.516 13.5982 182.185 14.2678C182.855 14.8859 183.215 15.7616 183.215 16.6372C183.215 17.5644 182.855 18.44 182.185 19.0581C181.516 19.7277 180.64 20.0883 179.713 20.0368C178.786 20.0368 177.859 19.6762 177.138 19.0581C176.468 18.44 176.056 17.5644 176.107 16.6372C176.107 15.7101 176.468 14.8344 177.138 14.2678C177.859 13.5982 178.786 13.2376 179.713 13.2892ZM176.828 23.7969H182.546V43.1641H176.828V23.7969Z" fill="white"/>
<path d="M195.423 16.3798V23.797H199.493V28.3812H195.423V43.2157H189.706V28.3297H186.152V23.797H189.706V16.3798H195.423Z" fill="white"/>
<path d="M229.522 43.1641L226.998 36.4165H217.108L214.584 43.1641H208.094L218.705 14.5769H225.298L235.909 43.1641H229.522ZM222.002 21.17L219.117 31.1111H225.04L222.002 21.17Z" fill="white"/>
<path d="M257.8 13.2892V43.2156H252.082V40.7947C251.567 41.7219 250.794 42.443 249.816 42.855C248.734 43.3701 247.549 43.6277 246.365 43.5762C243.841 43.6277 241.471 42.5975 239.72 40.7947C237.917 38.9404 236.99 36.5195 236.99 33.532C236.99 30.493 237.917 28.0206 239.72 26.1663C241.471 24.3635 243.841 23.3333 246.365 23.3333C247.549 23.3333 248.734 23.5909 249.764 24.106C250.691 24.518 251.516 25.2391 252.031 26.1663V13.2892H257.8ZM251.928 33.429C251.979 32.1928 251.516 30.9566 250.64 30.0809C249.816 29.2568 248.631 28.7932 247.446 28.7932C246.262 28.7417 245.077 29.2568 244.253 30.0809C243.377 30.9566 242.914 32.1413 242.965 33.3775C242.914 34.6137 243.377 35.8499 244.253 36.777C246.004 38.5283 248.837 38.5283 250.588 36.777C251.516 35.8499 251.979 34.6652 251.928 33.429Z" fill="white"/>
<path d="M282.781 13.2892V43.2156H277.012V40.7947C276.497 41.7219 275.725 42.443 274.798 42.855C273.716 43.3701 272.531 43.6277 271.346 43.5762C268.823 43.6277 266.453 42.5975 264.702 40.7947C262.848 38.9404 261.972 36.5195 261.972 33.532C261.972 30.493 262.899 28.0206 264.702 26.1663C266.453 24.3635 268.823 23.3333 271.346 23.3333C272.531 23.3333 273.716 23.5909 274.746 24.106C275.673 24.518 276.497 25.2391 277.012 26.1663V13.2892H282.781ZM276.909 33.429C276.961 32.1928 276.497 30.9566 275.622 30.0809C274.798 29.2568 273.613 28.7932 272.428 28.7932C271.243 28.7417 270.059 29.2568 269.235 30.0809C268.359 30.9566 267.895 32.1413 267.947 33.3775C267.895 34.6137 268.359 35.8499 269.235 36.777C270.986 38.5283 273.819 38.5283 275.57 36.7255C276.497 35.8499 276.961 34.6652 276.909 33.429Z" fill="white"/>
<path d="M304.054 40.6917C300.036 44.4003 293.804 44.4003 289.786 40.6917C287.829 38.8374 286.902 36.4165 286.902 33.429C286.902 30.4415 287.881 27.9691 289.786 26.1663C293.804 22.4577 300.036 22.4577 304.054 26.1663C306.011 28.0722 307.093 30.6991 306.99 33.429C306.99 36.4165 306.011 38.8374 304.054 40.6917ZM296.946 37.8073C299.367 37.9103 301.427 36.0045 301.53 33.5321C301.633 31.1112 299.727 29.0508 297.255 28.9478C297.152 28.9478 297.049 28.9478 296.946 28.9478C294.577 28.8963 292.619 30.8021 292.568 33.223C292.568 33.2745 292.568 33.326 292.568 33.3775C292.516 34.5622 292.98 35.6954 293.804 36.5711C294.628 37.4467 295.761 37.9103 296.946 37.8073Z" fill="white"/>
<path d="M316.931 32.914V43.1642H311.162V23.797H316.931V26.6299C317.498 25.6513 318.271 24.8271 319.249 24.312C320.228 23.7455 321.361 23.4364 322.494 23.4364C324.761 23.4364 326.512 24.1575 327.748 25.5482C328.984 26.939 329.602 28.9993 329.602 31.6778V43.2672H323.833V32.9655C323.885 31.9353 323.576 30.9051 322.958 30.081C322.34 29.4114 321.464 28.9993 320.485 29.0508C318.116 28.9993 316.931 30.287 316.931 32.914Z" fill="white"/>
<path d="M342.274 35.8499L339.75 35.1803C337.02 34.4591 335.269 33.429 334.599 32.0898C334.135 31.1111 333.929 29.9779 333.929 28.8962C333.981 27.454 334.702 26.1663 336.196 25.0846C337.741 23.9514 339.595 23.3333 341.501 23.3848C343.51 23.3333 345.416 23.8999 347.116 24.9816C348.661 26.0118 349.434 27.6085 349.485 29.8234H344.025C343.974 28.6902 343.253 28.1236 341.81 28.1236C341.295 28.1236 340.729 28.2266 340.317 28.5357C339.956 28.7417 339.75 29.1538 339.801 29.6173C339.853 30.287 340.42 30.7505 341.501 31.0596L344.798 31.9352C346.086 32.2443 347.219 32.8624 348.197 33.738C349.434 34.9227 350.052 36.2104 350.052 37.6012C350.103 39.4555 349.125 41.1552 347.528 42.0824C345.776 43.1641 343.716 43.6792 341.707 43.6792C339.698 43.7307 337.69 43.1126 336.041 41.8764C334.496 40.7432 333.569 38.8889 333.569 36.9831H338.926C338.977 37.6012 339.286 38.1678 339.801 38.5283C340.368 38.9919 341.038 39.2494 341.759 39.2494C342.377 39.2494 342.943 39.0949 343.459 38.7859C343.871 38.5283 344.128 38.1162 344.128 37.6527C344.128 37.2921 343.974 36.88 343.716 36.674C343.304 36.2104 342.789 36.0044 342.274 35.8499Z" fill="white"/>
<path d="M112.082 75.0994H108.683V59.2347H118.573V62.2222H112.031V65.8278H117.182V68.7638H112.031V75.0994H112.082Z" fill="white"/>
<path d="M125.217 67.2186C125.165 65.0552 126.041 62.9949 127.535 61.4496C130.625 58.3076 135.673 58.2561 138.815 61.3466C138.867 61.3981 138.867 61.3981 138.918 61.4496C142.06 64.6431 142.06 69.7425 138.918 72.936C135.776 76.078 130.677 76.078 127.535 72.936C126.041 71.4423 125.165 69.3304 125.217 67.2186ZM137.94 67.2186C137.94 65.9308 137.476 64.6946 136.549 63.819C134.798 62.0162 131.862 61.9647 130.059 63.716C130.007 63.7675 130.007 63.7675 129.956 63.819C128.153 65.7248 128.153 68.7123 129.956 70.6181C130.831 71.5453 132.016 72.0088 133.252 72.0088C134.489 72.0604 135.725 71.5453 136.549 70.6181C137.425 69.691 137.94 68.4548 137.94 67.2186Z" fill="white"/>
<path d="M157.513 69.4849L161.428 75.0994H157.358L153.804 69.6395H153.032V75.0994H149.632V59.2347H156.122C157.822 59.2347 159.11 59.7498 159.985 60.78C161.685 62.7373 161.84 65.5703 160.346 67.6821C159.676 68.6093 158.646 69.2274 157.513 69.4849ZM156.019 62.2222H153.083V66.652H155.916C156.483 66.652 156.998 66.3944 157.358 65.9824C157.719 65.5703 157.925 65.0037 157.925 64.4371C157.925 63.8705 157.77 63.3554 157.41 62.8918C157.101 62.4798 156.586 62.2222 156.019 62.2222Z" fill="white"/>
<path d="M185.791 75.0994H175.541V59.2347H185.585V62.2222H178.941V65.8278H184.761V68.7638H178.941V72.1634H185.791V75.0994V75.0994Z" fill="white"/>
<path d="M203.716 75.0994H194.393V59.2347H197.792V72.1119H203.716V75.0994Z" fill="white"/>
<path d="M221.332 75.0994H211.082V59.2347H221.126V62.2222H214.481V65.8278H220.302V68.7638H214.481V72.1634H221.332V75.0994V75.0994Z" fill="white"/>
<path d="M233.797 59.2347L238.587 69.4334L243.326 59.2347H246.159L248.116 75.0478H244.665L243.583 65.5703L239.875 73.245H237.299L233.591 65.5703L232.457 75.0478H229.058L231.015 59.2347H233.797V59.2347Z" fill="white"/>
<path d="M266.762 75.0994H256.512V59.2347H266.556V62.2222H259.912V65.8278H265.732V68.7638H259.912V72.1634H266.762V75.0994Z" fill="white"/>
<path d="M283.863 59.2347H287.262V75.0478H284.275L278.764 65.4673V75.0478H275.416V59.2347H278.506L283.914 68.7123L283.863 59.2347Z" fill="white"/>
<path d="M299.007 62.2737H294.731V59.2347H306.681V62.2737H302.406V75.0994H299.007V62.2737Z" fill="white"/>
<path d="M313.274 67.2186C313.223 65.0552 314.099 62.9949 315.592 61.4496C318.683 58.3076 323.731 58.2561 326.873 61.3466C326.924 61.3981 326.924 61.3981 326.976 61.4496C330.118 64.6431 330.118 69.7425 326.976 72.936C323.834 76.078 318.734 76.078 315.592 72.936C314.047 71.4423 313.223 69.3304 313.274 67.2186ZM325.946 67.2186C325.946 65.9308 325.482 64.6946 324.555 63.819C322.804 62.0162 319.868 61.9647 318.013 63.716C317.962 63.7675 317.962 63.7675 317.91 63.819C316.107 65.7248 316.107 68.7123 317.91 70.6181C319.713 72.4209 322.649 72.4724 324.452 70.6696L324.503 70.6181C325.482 69.691 325.997 68.4548 325.946 67.2186Z" fill="white"/>
<path d="M345.519 69.4849L349.433 75.0994H345.364L341.81 69.6395H341.037V75.0994H337.638V59.2347H344.128C345.828 59.2347 347.116 59.7498 347.991 60.78C349.691 62.7373 349.845 65.5703 348.352 67.6821C347.734 68.6093 346.703 69.2789 345.519 69.4849ZM344.077 62.2222H341.141V66.652H343.973C344.54 66.652 345.055 66.3944 345.416 65.9824C345.776 65.5703 345.982 65.0037 345.982 64.4371C345.982 63.8705 345.828 63.3554 345.467 62.8918C345.158 62.4798 344.643 62.2222 344.077 62.2222Z" fill="white"/>
<path d="M87.1521 41.0007C87.1521 41.0007 87.1521 40.9492 87.1521 40.8977C87.1521 40.5372 87.1006 40.2281 87.0491 39.8676V39.713C86.9976 39.3525 86.9976 39.0434 86.9461 38.7344C86.9461 38.6829 86.9461 38.6313 86.9461 38.5798C86.74 37.2406 86.534 35.9014 86.2249 34.5622C86.1734 34.4592 86.1734 34.3046 86.1219 34.2016C86.0704 33.9441 86.0189 33.738 85.9159 33.4805C85.8644 33.326 85.8644 33.1714 85.8129 33.0169L85.6068 32.3473L85.4523 31.8837L85.2463 31.2141L85.0918 30.7506C84.8342 29.9264 84.5252 29.1538 84.2676 28.3812C84.2161 28.2266 84.1646 28.1236 84.1131 27.9691L83.804 27.2995L83.6495 26.9389C83.5465 26.6814 83.4435 26.4754 83.3405 26.2178L83.2375 25.9603L82.8769 25.1361L82.8254 25.0331C79.6834 18.6976 75.0991 13.1347 69.4332 8.91096C62.119 3.45107 53.208 0.360559 44.0395 0.154525C43.6789 0.154525 43.3184 0.154525 42.9063 0.154525H22.7665L12.6193 0L12.7739 0.0515085L3.75988 0H0.102783L7.05643 14.2678L12.9799 26.3723H45.0182C45.3787 26.3723 45.7908 26.3723 46.1514 26.4238C48.7268 26.6299 51.2507 27.5055 53.414 28.9993C57.4317 31.8322 60.1617 36.1589 61.0888 41.0007C61.1403 41.8764 61.1918 42.7005 61.2433 43.6277C61.2433 43.7822 61.2433 43.9367 61.2433 44.0912C61.3464 48.0574 60.1617 51.9205 57.8953 55.1656L57.8438 55.2171L57.7923 55.2686C54.2897 60.1619 48.6238 63.0464 42.5973 63.0979L23.8997 63.1494V63.2009L23.7967 63.0464L23.5391 63.3039H23.1786L17.8217 68.6608L6.79888 79.6836L2.21463 83.9588L2.0086 84.1648L1.95709 84.2163L0.87541 85.298L0.154292 88.9036H30.0292C30.3898 88.9551 30.7503 88.9551 31.1624 88.9551H35.6951H42.7003C43.3699 88.9551 44.0395 88.9551 44.6576 88.9036C45.1727 88.9036 45.6878 88.8521 46.1514 88.8006H46.2544C46.6664 88.7491 47.0785 88.7491 47.4906 88.6976L48.0572 88.6461L48.7783 88.543L49.4479 88.3885L49.963 88.2855C50.4781 88.1825 51.0447 88.0795 51.5597 87.9765L51.7658 87.9249L52.7959 87.7189H52.8475C57.9468 86.5342 62.7886 84.4739 67.1668 81.6409C67.8879 81.1773 68.609 80.6623 69.2787 80.1472C69.9483 79.6321 70.6694 79.0655 71.339 78.4989C72.3692 77.6748 73.2963 76.7476 74.275 75.8205C75.6657 74.4297 76.9534 72.9875 78.1381 71.3907H78.0866H78.1381C79.1683 70.0515 80.1469 68.6608 80.9711 67.167C81.0226 67.1155 81.0226 67.064 81.0741 67.0125C81.3316 66.5489 81.5892 66.1369 81.8467 65.6733L81.9497 65.4673C82.2073 65.0037 82.4648 64.4886 82.7224 63.9735V63.922C82.9799 63.4069 83.2375 62.8918 83.4435 62.3767C83.495 62.2222 83.5465 62.0677 83.6495 61.9647C83.804 61.6041 83.9586 61.2436 84.1131 60.883C84.2161 60.677 84.2676 60.4709 84.3706 60.2649C84.4737 59.9559 84.6282 59.5953 84.7312 59.2862C84.7827 59.0802 84.8857 58.8742 84.9372 58.6681C85.0402 58.3076 85.1433 57.9985 85.2463 57.638C85.2978 57.4319 85.3493 57.2774 85.4523 57.0714C85.6068 56.5563 85.7614 55.9897 85.9159 55.4746C85.9159 55.4231 85.9674 55.3716 85.9674 55.3201C86.1219 54.805 86.2249 54.3414 86.328 53.8263C86.3795 53.6718 86.3795 53.5173 86.431 53.3628C86.534 52.9507 86.5855 52.5386 86.6885 52.1266C86.74 51.972 86.74 51.8175 86.7915 51.6115C86.843 51.1479 86.9461 50.7358 86.9976 50.2723C86.9976 50.1177 87.0491 50.0147 87.0491 49.8602L87.1006 49.4996C87.2036 48.418 87.3066 47.3363 87.3581 46.2546C87.4096 45.688 87.4096 45.0699 87.4096 44.5033C87.3066 43.3186 87.2551 42.1339 87.1521 41.0007Z" fill="url(#paint0_linear)"/>
<path d="M38.8888 73.8631L38.7343 74.0176C38.4768 73.8116 38.2192 73.6571 37.9617 73.451L38.8888 73.8631Z" fill="#FFFF00"/>
<path d="M44.6063 44.9153L27.8146 61.4495L26.6299 62.5827L25.9603 63.2523L25.7542 63.4583L25.2907 63.9219L25.2391 63.9734L24.7241 64.4885L24.621 64.5915L24.4665 64.746L19.2127 69.9999L14.2163 74.9962L11.4349 77.7777L6.43856 82.7225L4.63576 84.5253L4.37822 84.7828L0.154525 89.0065L0.103017 89.058V89.0065L0.206034 88.5945L0.927152 85.0404L1.03017 84.3708L1.18469 83.7527L1.59676 81.6408L3.86313 70.2059L4.94481 64.746L6.28403 58.1014L6.90213 55.114L16.9978 44.9668L10.3017 38.2707L6.54157 34.5106L5.15085 27.2479L4.68727 24.93L3.55408 18.749L1.08168 5.87186L0.875644 4.84169L0.721118 4.06906L0.515085 2.88437L0.309051 1.80269L0.257542 1.54515V1.49364L0.206034 1.13308L0.154525 0.927046L0 0.154419L0.206034 0.411961L1.69978 1.8542L2.06034 2.21476L4.32671 4.48113L14.7314 14.8858L14.8859 14.9889L18.3885 18.4914L19.1096 19.2126L22.6637 22.8181L24.8786 24.9815L25.5482 25.6511L26.4238 26.5268L27.145 27.2479L27.2995 27.4024L44.6063 44.9153Z" fill="white"/>
<path opacity="0.1" d="M4.68727 24.93L14.7829 14.8858L0 0.154419L4.68727 24.93Z" fill="url(#paint1_linear)"/>
<path opacity="0.1" d="M3.8629 70.2061L11.4346 77.7778L0.102783 89.0582L3.8629 70.2061Z" fill="url(#paint2_linear)"/>
<path opacity="0.1" d="M16.9978 44.9669L30.9566 31.0596L44.6063 44.9154L30.6475 58.6166L16.9978 44.9669Z" fill="url(#paint3_linear)"/>
</g>
<defs>
<linearGradient id="paint0_linear" x1="0.123387" y1="44.4544" x2="87.2824" y2="44.4544" gradientUnits="userSpaceOnUse">
<stop offset="0.16" stop-color="#B4AFB3"/>
<stop offset="0.21" stop-color="#C8C4C7"/>
<stop offset="0.28" stop-color="#DCDADB"/>
<stop offset="0.36" stop-color="#ECEBEC"/>
<stop offset="0.46" stop-color="#F7F6F7"/>
<stop offset="0.61" stop-color="#FDFDFD"/>
<stop offset="1" stop-color="white"/>
</linearGradient>
<linearGradient id="paint1_linear" x1="0" y1="12.5422" x2="14.7623" y2="12.5422" gradientUnits="userSpaceOnUse">
<stop stop-color="#DBDBDB"/>
<stop offset="1" stop-color="white"/>
</linearGradient>
<linearGradient id="paint2_linear" x1="0.102783" y1="79.645" x2="11.4243" y2="79.645" gradientUnits="userSpaceOnUse">
<stop stop-color="#DBDBDB"/>
<stop offset="1" stop-color="white"/>
</linearGradient>
<linearGradient id="paint3_linear" x1="16.9927" y1="44.8175" x2="44.6012" y2="44.8175" gradientUnits="userSpaceOnUse">
<stop stop-color="#DBDBDB"/>
<stop offset="1" stop-color="white"/>
</linearGradient>
<clipPath id="clip0">
<rect width="350" height="89.0581" fill="white"/>
</clipPath>
</defs>
</svg>
