<svg width="44" height="45" viewBox="0 0 44 45" fill="none" xmlns="http://www.w3.org/2000/svg">
<g clip-path="url(#clip0)">
<path d="M42.5333 36.4333V10.7667C42.5333 10.1832 42.3016 9.6236 41.889 9.21102C41.4764 8.79844 40.9168 8.56665 40.3333 8.56665H33.7333C33.5388 8.56665 33.3523 8.64391 33.2148 8.78144C33.0773 8.91897 33 9.10549 33 9.29998C33 9.49448 33.0773 9.681 33.2148 9.81853C33.3523 9.95606 33.5388 10.0333 33.7333 10.0333H40.3333C40.527 10.0358 40.7121 10.1139 40.8491 10.2509C40.9861 10.3879 41.0641 10.5729 41.0667 10.7667V36.4333H2.93333V10.7667C2.93587 10.5729 3.01394 10.3879 3.15092 10.2509C3.2879 10.1139 3.47296 10.0358 3.66667 10.0333H8.8C8.99449 10.0333 9.18102 9.95606 9.31854 9.81853C9.45607 9.681 9.53333 9.49448 9.53333 9.29998C9.53333 9.10549 9.45607 8.91897 9.31854 8.78144C9.18102 8.64391 8.99449 8.56665 8.8 8.56665H3.66667C3.08319 8.56665 2.52361 8.79844 2.11103 9.21102C1.69845 9.6236 1.46667 10.1832 1.46667 10.7667V36.4333C1.07768 36.4333 0.70463 36.5878 0.429577 36.8629C0.154523 37.1379 0 37.511 0 37.9L0 40.8333C0 41.8058 0.386308 42.7384 1.07394 43.426C1.76158 44.1137 2.69421 44.5 3.66667 44.5H40.3333C41.3058 44.5 42.2384 44.1137 42.9261 43.426C43.6137 42.7384 44 41.8058 44 40.8333V37.9C44 37.511 43.8455 37.1379 43.5704 36.8629C43.2954 36.5878 42.9223 36.4333 42.5333 36.4333ZM28.1502 37.9L27.6124 38.956C27.5542 39.0801 27.4615 39.1849 27.3453 39.2577C27.2291 39.3305 27.0944 39.3684 26.9573 39.3667H17.0427C16.9056 39.3684 16.7709 39.3305 16.6547 39.2577C16.5385 39.1849 16.4458 39.0801 16.3876 38.956L15.8498 37.9H28.1502ZM42.5333 40.8333C42.5333 41.4168 42.3016 41.9764 41.889 42.389C41.4764 42.8015 40.9168 43.0333 40.3333 43.0333H3.66667C3.08319 43.0333 2.52361 42.8015 2.11103 42.389C1.69845 41.9764 1.46667 41.4168 1.46667 40.8333V37.9H14.1778L15.0773 39.6111C15.2578 39.9754 15.5366 40.282 15.8822 40.4963C16.2277 40.7105 16.6263 40.8239 17.0329 40.8235H26.9573C27.3634 40.8216 27.7611 40.7073 28.1063 40.4933C28.4514 40.2794 28.7306 39.974 28.9129 39.6111L29.7636 37.8902H42.4747V39.3569" fill="#FF794D"/>
<path d="M23.0071 13.7489C22.916 13.7107 22.8183 13.6911 22.7196 13.6911C22.6208 13.6911 22.5231 13.7108 22.4321 13.7491C22.341 13.7873 22.2585 13.8433 22.1894 13.9138C22.1202 13.9842 22.0658 14.0678 22.0293 14.1595C22.0293 14.2475 21.9609 14.3355 21.9315 14.4138H23.4667C23.4624 14.2704 23.4167 14.1314 23.3352 14.0134C23.2536 13.8954 23.1397 13.8035 23.0071 13.7489V13.7489ZM23.0071 13.7489C22.916 13.7107 22.8183 13.6911 22.7196 13.6911C22.6208 13.6911 22.5231 13.7108 22.4321 13.7491C22.341 13.7873 22.2585 13.8433 22.1894 13.9138C22.1202 13.9842 22.0658 14.0678 22.0293 14.1595C22.0293 14.2475 21.9609 14.3355 21.9315 14.4138H23.4667C23.4624 14.2704 23.4167 14.1314 23.3352 14.0134C23.2536 13.8954 23.1397 13.8035 23.0071 13.7489V13.7489ZM29.6755 12.9862C29.4604 13.4458 29.1769 13.964 28.8835 14.4138H37.1555V35.7H7.02043V14.4138H15.488C16.3993 14.3127 17.2935 14.0924 18.1475 13.7587C17.9239 13.9921 17.6855 14.2109 17.4338 14.4138H19.5555C19.9979 13.9634 20.4126 13.4867 20.7973 12.9862H15.0187C14.5661 13.0156 14.1121 13.0156 13.6595 12.9862H5.5831V37.1471H38.5929V12.9862H29.6755ZM23.0071 13.7489C22.916 13.7107 22.8183 13.6911 22.7196 13.6911C22.6208 13.6911 22.5231 13.7108 22.4321 13.7491C22.341 13.7873 22.2585 13.8433 22.1894 13.9138C22.1202 13.9842 22.0658 14.0678 22.0293 14.1595C22.0293 14.2475 21.9609 14.3355 21.9315 14.4138H23.4667C23.4624 14.2704 23.4167 14.1314 23.3352 14.0134C23.2536 13.8954 23.1397 13.8035 23.0071 13.7489V13.7489ZM23.0071 13.7489C22.916 13.7107 22.8183 13.6911 22.7196 13.6911C22.6208 13.6911 22.5231 13.7108 22.4321 13.7491C22.341 13.7873 22.2585 13.8433 22.1894 13.9138C22.1202 13.9842 22.0658 14.0678 22.0293 14.1595C22.0293 14.2475 21.9609 14.3355 21.9315 14.4138H23.4667C23.4624 14.2704 23.4167 14.1314 23.3352 14.0134C23.2536 13.8954 23.1397 13.8035 23.0071 13.7489V13.7489Z" fill="#FF794D"/>
<path d="M35.288 1.14535C34.8755 0.733363 34.3163 0.501953 33.7333 0.501953C33.1503 0.501953 32.5912 0.733363 32.1787 1.14535L27.8276 5.49646C25.0702 3.95157 22.7138 5.39868 20.7484 6.61113C18.3236 8.10713 16.4169 9.30002 13.6889 6.58179C13.5607 6.45513 13.3909 6.37935 13.211 6.36856C13.0312 6.35776 12.8535 6.4127 12.7111 6.52313C12.6036 6.62091 10.12 8.65468 11.9973 12.9862C12.144 13.3285 12.32 13.6805 12.5253 14.052C12.5777 14.1464 12.6506 14.2279 12.7385 14.2905C12.8265 14.3531 12.9274 14.3953 13.0338 14.4138V14.4138C13.8266 14.5018 14.6267 14.5018 15.4196 14.4138C16.3309 14.3127 17.2251 14.0924 18.0791 13.7587C17.8554 13.9921 17.617 14.2109 17.3653 14.4138C16.6463 15.0263 15.8549 15.5484 15.0089 15.9685C14.9126 16.0252 14.8302 16.1027 14.7676 16.1952C14.705 16.2878 14.6637 16.3931 14.6469 16.5036C14.63 16.614 14.638 16.7269 14.6701 16.8339C14.7023 16.9409 14.7579 17.0394 14.8329 17.1222C14.9796 17.2885 15.136 17.5134 15.3218 17.7676C15.5076 18.0218 15.488 18.0218 15.5858 18.1587C15.8828 18.6225 16.2094 19.0667 16.5636 19.4885C16.729 19.7026 16.9052 19.9082 17.0916 20.1045C17.3751 20.388 17.6489 20.652 17.9227 20.9062C18.5733 21.5152 19.2554 22.0896 19.9662 22.6271C20.825 23.289 21.7527 23.8562 22.7333 24.3187C23.822 24.8612 25.0176 25.1551 26.2338 25.1791H26.5271C27.4833 25.168 28.4138 24.8681 29.1964 24.3187C29.4519 24.1419 29.6908 23.9422 29.9102 23.7222C30.0325 23.5888 30.1004 23.4144 30.1004 23.2334C30.1004 23.0523 30.0325 22.8779 29.9102 22.7445L29.8027 22.6369C29.2981 22.1411 28.8873 21.5581 28.5902 20.916C28.3885 20.471 28.2883 19.9867 28.2969 19.4982C28.3239 18.9016 28.4701 18.3165 28.7271 17.7774C29.0679 17.066 29.4532 16.377 29.8809 15.7142C30.1351 15.3134 30.3991 14.8831 30.6338 14.4431C30.8909 13.9759 31.1099 13.4887 31.2889 12.9862C31.5797 12.2822 31.7036 11.5204 31.651 10.7605C31.5984 10.0005 31.3708 9.26309 30.9858 8.6058L35.3369 4.25468C35.7425 3.83574 35.9651 3.27292 35.956 2.6899C35.9468 2.10688 35.7065 1.55134 35.288 1.14535V1.14535ZM28.8836 14.4138L28.5804 14.9125C27.9864 15.801 27.4914 16.7519 27.104 17.748C26.9085 18.3016 26.7996 18.8821 26.7813 19.4689C26.7795 19.9483 26.8453 20.4256 26.9769 20.8867C27.1655 21.5044 27.4564 22.0861 27.8373 22.6076C27.9644 22.7934 28.1111 22.9694 28.2676 23.1649C27.6979 23.5002 27.0511 23.6822 26.3902 23.6929C25.0635 23.6774 23.7659 23.3023 22.6356 22.6076C21.7556 22.1082 20.9212 21.5323 20.1422 20.8867C19.888 20.6814 19.6338 20.4662 19.3698 20.2218C19.6631 19.9871 19.9564 19.7329 20.2302 19.4689C20.7807 18.9396 21.2845 18.3639 21.736 17.748C22.4419 16.8134 23.0236 15.7913 23.4667 14.7071C23.5018 14.6134 23.5184 14.5138 23.5156 14.4138C23.5454 14.2193 23.4967 14.0209 23.3803 13.8623C23.2638 13.7037 23.0892 13.5978 22.8947 13.568C22.7002 13.5382 22.5018 13.5869 22.3432 13.7033C22.1846 13.8197 22.0787 13.9944 22.0489 14.1889C22.0489 14.2769 21.9804 14.3649 21.9511 14.4431C21.1699 16.3312 19.9053 17.9803 18.2844 19.2245V19.2245L18.1182 19.0778C17.7488 18.6665 17.4058 18.2322 17.0916 17.7774L16.7884 17.3373L16.4951 16.9071C17.6124 16.203 18.6401 15.3658 19.5556 14.4138C19.9979 13.9634 20.4126 13.4867 20.7973 12.9862C21.2 12.4638 21.5721 11.9186 21.912 11.3534C22.0064 11.1951 22.0387 11.0075 22.0026 10.8268C21.9664 10.6461 21.8645 10.4853 21.7164 10.3756C21.5737 10.2643 21.3949 10.2098 21.2144 10.2224C21.0339 10.2351 20.8645 10.314 20.7387 10.444C19.146 11.8838 17.1278 12.7659 14.9893 12.9569C14.5368 12.9863 14.0828 12.9863 13.6302 12.9569V12.9569C12.32 10.3854 12.8089 8.84046 13.2489 8.12668C16.5049 10.9036 19.2622 9.20224 21.5013 7.82357C23.7404 6.44491 25.3244 5.45735 27.5244 7.00224C27.6613 7.09024 27.7982 7.20757 27.9351 7.31513L28.0231 7.38357L28.5316 7.85291C28.6978 8.00935 28.8444 8.17557 28.9911 8.3418L29.04 8.40046L29.3724 8.84046C29.8156 9.42087 30.078 10.119 30.1267 10.8477C30.1753 11.5763 30.0082 12.3031 29.6462 12.9374C29.4604 13.4458 29.1769 13.9249 28.8836 14.4138ZM34.2222 3.21824L30.0862 7.34446C29.9298 7.16846 29.7636 6.98268 29.5876 6.80668C29.4116 6.63068 29.2356 6.46446 29.0498 6.30802L33.2444 2.18179C33.336 2.08968 33.45 2.02315 33.5753 1.98884C33.7005 1.95453 33.8325 1.95363 33.9582 1.98624C34.0847 2.01712 34.2005 2.08156 34.2935 2.17277C34.3864 2.26397 34.453 2.37857 34.4862 2.50446C34.514 2.63622 34.504 2.77317 34.4573 2.89947C34.4106 3.02577 34.3291 3.13628 34.2222 3.21824Z" fill="#FF794D"/>
</g>
<defs>
<clipPath id="clip0">
<rect width="44" height="45" fill="white"/>
</clipPath>
</defs>
</svg>
