<svg width="52" height="50" viewBox="0 0 52 50" fill="none" xmlns="http://www.w3.org/2000/svg">
<circle cx="34.5" cy="32.5" r="17.5" fill="#FFEFED"/>
<path d="M32.3783 27.883C32.1809 27.4387 31.7402 27.1523 31.2539 27.1523H26.9179C26.8941 27.0601 26.8688 26.9686 26.8415 26.878L30.9669 25.8879C31.3955 25.785 31.7364 25.4607 31.8605 25.0377L33.6652 18.8854C33.8565 18.2333 33.4829 17.5496 32.8307 17.3583C32.1792 17.1671 31.4949 17.5405 31.3037 18.1926L29.6996 23.6611L25.6891 24.6237C25.5842 24.4878 25.4752 24.3557 25.361 24.2294L28.3093 21.9779C28.547 21.7964 28.7106 21.5346 28.7691 21.2413L29.7535 16.3194C29.8867 15.653 29.4546 15.0048 28.7882 14.8716C28.1216 14.7381 27.4736 15.1704 27.3403 15.8368L26.4469 20.3037L24.6249 21.695C25.0611 19.4154 23.3086 17.3086 21 17.3086C18.6923 17.3086 16.9388 19.4145 17.3751 21.695L15.5532 20.3037L14.6597 15.8367C14.5264 15.1705 13.8784 14.7382 13.2119 14.8715C12.5455 15.0048 12.1133 15.653 12.2466 16.3193L13.2309 21.2412C13.2896 21.5345 13.4531 21.7964 13.6907 21.9779L16.6391 24.2293C16.5249 24.3557 16.416 24.4877 16.311 24.6236L12.3004 23.6611L10.6963 18.1925C10.505 17.5405 9.82122 17.167 9.16932 17.3582C8.51717 17.5495 8.1436 18.2332 8.33489 18.8853L10.1396 25.0376C10.2637 25.4607 10.6045 25.7849 11.0331 25.8878L15.1586 26.8779C15.1313 26.9686 15.106 27.06 15.0821 27.1522H10.7461C10.2598 27.1522 9.81917 27.4386 9.62172 27.883L7.98109 31.5744C7.70514 32.1953 7.98478 32.9225 8.60576 33.1985C9.22838 33.4751 9.9546 33.1932 10.2299 32.5738L11.5458 29.6132H14.8743C14.8904 29.8093 14.9147 30.0027 14.9458 30.1937L12.4063 32.3704C12.0791 32.6508 11.9225 33.0819 11.9933 33.5068L12.4035 35.9678C12.515 36.6372 13.1478 37.091 13.8195 36.9792C14.4899 36.8675 14.9427 36.2336 14.8309 35.5632L14.535 33.7871L15.8369 32.6711C18.2721 36.7987 23.7331 36.7902 26.1633 32.6711L27.4652 33.7871L27.1693 35.5632C27.0444 36.3122 27.6218 36.9961 28.3844 36.9961C28.975 36.9961 29.4964 36.5696 29.5967 35.9678L30.0068 33.5068C30.0776 33.0818 29.921 32.6507 29.5939 32.3704L27.0543 30.1937C27.0854 30.0027 27.1097 29.8093 27.1259 29.6132H30.4544L31.7702 32.5739C32.0462 33.1949 32.7733 33.4747 33.3944 33.1986C34.0154 32.9226 34.295 32.1954 34.019 31.5744L32.3783 27.883ZM21 19.7695C21.6785 19.7695 22.2305 20.3215 22.2305 21C22.2305 21.6784 21.6785 22.2304 21 22.2304C20.3215 22.2304 19.7696 21.6784 19.7696 21C19.7696 20.3215 20.3215 19.7695 21 19.7695ZM21 33.3046C18.9646 33.3046 17.3086 31.3726 17.3086 28.998C17.3086 26.6234 18.9646 24.6914 21 24.6914C23.0355 24.6914 24.6914 26.6234 24.6914 28.998C24.6914 31.3726 23.0355 33.3046 21 33.3046Z" fill="#FF5A47"/>
<path d="M38.3086 0.0820312H3.69141C1.65596 0.0820312 0 1.738 0 3.77344V38.2266C0 40.262 1.65596 41.918 3.69141 41.918H38.3086C40.344 41.918 42 40.262 42 38.2266V3.77344C42 1.738 40.344 0.0820312 38.3086 0.0820312ZM3.69141 2.54297H38.3086C38.9871 2.54297 39.5391 3.09496 39.5391 3.77344V9.92578H2.46094V3.77344C2.46094 3.09496 3.01293 2.54297 3.69141 2.54297ZM38.3086 39.457H3.69141C3.01293 39.457 2.46094 38.905 2.46094 38.2266V12.3867H39.5391V38.2266C39.5391 38.905 38.9871 39.457 38.3086 39.457Z" fill="#FF5A47"/>
<path d="M6.23438 7.46484C6.91394 7.46484 7.46484 6.91394 7.46484 6.23438C7.46484 5.55481 6.91394 5.00391 6.23438 5.00391C5.55481 5.00391 5.00391 5.55481 5.00391 6.23438C5.00391 6.91394 5.55481 7.46484 6.23438 7.46484Z" fill="#FF5A47"/>
<path d="M11.1562 7.46484C11.8358 7.46484 12.3867 6.91394 12.3867 6.23438C12.3867 5.55481 11.8358 5.00391 11.1562 5.00391C10.4767 5.00391 9.92578 5.55481 9.92578 6.23438C9.92578 6.91394 10.4767 7.46484 11.1562 7.46484Z" fill="#FF5A47"/>
<path d="M16.0781 7.46484C16.7577 7.46484 17.3086 6.91394 17.3086 6.23438C17.3086 5.55481 16.7577 5.00391 16.0781 5.00391C15.3986 5.00391 14.8477 5.55481 14.8477 6.23438C14.8477 6.91394 15.3986 7.46484 16.0781 7.46484Z" fill="#FF5A47"/>
<path d="M28.3828 7.46484H35.7656C36.4452 7.46484 36.9961 6.91392 36.9961 6.23438C36.9961 5.55483 36.4452 5.00391 35.7656 5.00391H28.3828C27.7033 5.00391 27.1523 5.55483 27.1523 6.23438C27.1523 6.91392 27.7033 7.46484 28.3828 7.46484Z" fill="#FF5A47"/>
</svg>
