<svg xmlns="http://www.w3.org/2000/svg" xmlns:xlink="http://www.w3.org/1999/xlink" viewBox="0 0 18 18"><defs><style>.cls-1{fill:url(#linear-gradient);}.cls-2{fill:#ff0;}.cls-3{fill:#fff;}.cls-4,.cls-5,.cls-6{opacity:0.1;}.cls-4{fill:url(#linear-gradient-2);}.cls-5{fill:url(#linear-gradient-3);}.cls-6{fill:url(#linear-gradient-4);}</style><linearGradient id="linear-gradient" x1="0.02" y1="8.98" x2="18" y2="8.98" gradientUnits="userSpaceOnUse"><stop offset="0.16" stop-color="#b4afb3"/><stop offset="0.21" stop-color="#c8c4c7"/><stop offset="0.28" stop-color="#dcdadb"/><stop offset="0.36" stop-color="#ecebec"/><stop offset="0.46" stop-color="#f7f6f7"/><stop offset="0.61" stop-color="#fdfdfd"/><stop offset="1" stop-color="#fff"/></linearGradient><linearGradient id="linear-gradient-2" y1="2.53" x2="3.04" y2="2.53" gradientUnits="userSpaceOnUse"><stop offset="0" stop-color="#dbdbdb"/><stop offset="1" stop-color="#fff"/></linearGradient><linearGradient id="linear-gradient-3" x1="0.02" y1="16.1" x2="2.36" y2="16.1" xlink:href="#linear-gradient-2"/><linearGradient id="linear-gradient-4" x1="3.5" y1="9.06" x2="9.2" y2="9.06" xlink:href="#linear-gradient-2"/></defs><g id="Layer_2" data-name="Layer 2"><g id="Layer_1-2" data-name="Layer 1"><path class="cls-1" d="M18,8.29v0c0-.07,0-.14,0-.21V8l0-.2v0q-.06-.4-.15-.81l0-.07a.83.83,0,0,0,0-.15l0-.09,0-.13,0-.1a.65.65,0,0,0,0-.13l0-.1a4.68,4.68,0,0,0-.18-.48l0-.07-.06-.15,0-.07a1,1,0,0,0-.07-.15l0,0c0-.06-.05-.11-.08-.16v0a9,9,0,0,0-2.75-3.26h0A9.09,9.09,0,0,0,9.08,0H4.7L2.6,0H0L1.46,2.88,2.68,5.33H9.53A3.17,3.17,0,0,1,11,5.86,3.84,3.84,0,0,1,12.6,8.29c0,.17,0,.35,0,.52h0v.09a3.45,3.45,0,0,1-.25,1.4,3.17,3.17,0,0,1-.45.83h0a3.86,3.86,0,0,1-3.14,1.58H4.93v0l0,0-.05.06H4.77l-1.1,1.08L1.4,16.1.46,17h0L.41,17h0l-.23.22L0,18H9.21l.31,0h0l.25,0h.12l.15,0,.14,0h.1l.33-.06h0l.22-.05h0a9.14,9.14,0,0,0,3-1.23,4.15,4.15,0,0,0,.43-.3,4.46,4.46,0,0,0,.43-.33,7.7,7.7,0,0,0,.6-.54,9.59,9.59,0,0,0,.8-.89h0a8.56,8.56,0,0,0,.59-.85l0,0,.15-.27,0,0,.16-.3h0c.06-.1.1-.21.15-.31a.36.36,0,0,0,0-.09l.09-.22a.61.61,0,0,0,.05-.12l.08-.2s0-.08,0-.13a1.18,1.18,0,0,0,.07-.2.56.56,0,0,0,0-.12l.09-.32v0c0-.1.05-.2.07-.3a.36.36,0,0,0,0-.1,2.21,2.21,0,0,0,.05-.25s0-.07,0-.1,0-.18,0-.27,0-.05,0-.08,0-.05,0-.07c0-.22,0-.43,0-.65h0c0-.12,0-.24,0-.36S18,8.52,18,8.29Z"/><path class="cls-2" d="M8,14.93l0,0-.16-.11Z"/><polygon class="cls-3" points="9.2 9.07 5.73 12.41 5.5 12.64 5.35 12.79 5.31 12.82 5.22 12.92 5.21 12.93 5.2 12.93 5.1 13.04 5.08 13.05 5.05 13.09 3.96 14.15 2.93 15.15 2.35 15.72 1.33 16.72 1.33 16.72 0.96 17.09 0.91 17.13 0.03 17.99 0.02 18 0.02 17.99 0.02 17.99 0.04 17.91 0.19 17.18 0.21 17.05 0.24 16.93 0.33 16.5 0.8 14.19 1.02 13.09 1.3 11.74 1.42 11.14 3.5 9.09 2.12 7.74 1.35 6.98 1.06 5.51 0.97 5.04 0.73 3.79 0.22 1.19 0.18 0.98 0.15 0.82 0.11 0.58 0.06 0.36 0.05 0.31 0.05 0.3 0.04 0.23 0.03 0.19 0 0.03 0.05 0.08 0.35 0.37 0.42 0.45 0.9 0.91 3.04 3.01 3.07 3.03 3.79 3.74 3.94 3.89 4.67 4.61 5.13 5.05 5.27 5.18 5.45 5.36 5.6 5.51 5.63 5.54 9.2 9.07"/><polygon class="cls-4" points="0.97 5.04 3.04 3.01 0 0.03 0.97 5.04"/><polygon class="cls-5" points="0.8 14.19 2.35 15.72 0.02 18 0.8 14.19"/><polyline class="cls-6" points="3.5 9.09 6.38 6.27 9.2 9.07 6.32 11.84 3.51 9.09"/></g></g></svg>