<svg width="25" height="25" viewBox="0 0 25 25" fill="none" xmlns="http://www.w3.org/2000/svg">
<g clip-path="url(#clip0)">
<path d="M24.9691 18.2935C24.9453 18.2658 24.9101 18.2494 24.8731 18.2494H0.126772C0.089805 18.2494 0.0548921 18.2656 0.030761 18.2935C0.00663001 18.3213 -0.00415193 18.3585 0.00123904 18.3952C0.00483302 18.4183 0.378094 20.7097 3.2751 20.7097H21.7248C24.6216 20.7097 24.9948 18.4183 24.9987 18.3952C25.0038 18.3585 24.993 18.3213 24.9691 18.2935ZM14.361 19.9072H10.6387V19.0514H14.361V19.9072Z" fill="#9EA0A7"/>
<path d="M2.69726 17.3586H22.3024C22.5858 17.3586 22.8159 17.1286 22.8159 16.8452V4.80383C22.8159 4.52042 22.5858 4.29041 22.3024 4.29041H2.69726C2.41385 4.29041 2.18384 4.52042 2.18384 4.80383V16.8452C2.18384 17.1286 2.41385 17.3586 2.69726 17.3586ZM3.98083 6.0874H21.0189V15.5616H3.98083V6.0874Z" fill="#9EA0A7"/>
</g>
<defs>
<clipPath id="clip0">
<rect width="25" height="25" fill="white"/>
</clipPath>
</defs>
</svg>
