<svg width="54" height="55" viewBox="0 0 54 55" fill="none" xmlns="http://www.w3.org/2000/svg">
<circle cx="36.5" cy="17.5" r="17.5" fill="#019EF8" fill-opacity="0.15"/>
<g clip-path="url(#clip0)">
<path d="M5.66929 13.5834C5.66929 14.1053 5.24627 14.5283 4.72441 14.5283C4.20255 14.5283 3.77953 14.1053 3.77953 13.5834C3.77953 13.0616 4.20255 12.6385 4.72441 12.6385C5.24627 12.6385 5.66929 13.0616 5.66929 13.5834ZM9.92126 13.5834C9.92126 14.1053 9.49824 14.5283 8.97638 14.5283C8.45452 14.5283 8.0315 14.1053 8.0315 13.5834C8.0315 13.0616 8.45452 12.6385 8.97638 12.6385C9.49824 12.6385 9.92126 13.0616 9.92126 13.5834ZM14.1732 13.5834C14.1732 14.1053 13.7502 14.5283 13.2283 14.5283C12.7065 14.5283 12.2835 14.1053 12.2835 13.5834C12.2835 13.0616 12.7065 12.6385 13.2283 12.6385C13.7502 12.6385 14.1732 13.0616 14.1732 13.5834ZM20.315 42.4968C19.7933 42.4968 19.3701 42.9211 19.3701 43.4417C19.3701 43.9623 19.7933 44.3866 20.315 44.3866C20.8356 44.3866 21.2598 43.9623 21.2598 43.4417C21.2598 42.9211 20.8356 42.4968 20.315 42.4968ZM18.8976 21.1425V35.0322C18.8976 35.554 18.4745 35.9771 17.9528 35.9771H4.72441C4.20265 35.9771 3.77953 35.554 3.77953 35.0322V21.1425C3.77953 20.6207 4.20265 20.1976 4.72441 20.1976H17.9528C18.4745 20.1976 18.8976 20.6207 18.8976 21.1425ZM17.0079 22.0874H5.66929V34.0874H17.0079V22.0874ZM21.7323 22.7488H31.4646C31.9863 22.7488 32.4094 22.3257 32.4094 21.8039C32.4094 21.2821 31.9863 20.859 31.4646 20.859H21.7323C21.2105 20.859 20.7874 21.2821 20.7874 21.8039C20.7874 22.3257 21.2105 22.7488 21.7323 22.7488ZM21.7323 26.5283H29.5748C30.0966 26.5283 30.5197 26.1052 30.5197 25.5834C30.5197 25.0617 30.0966 24.6385 29.5748 24.6385H21.7323C21.2105 24.6385 20.7874 25.0617 20.7874 25.5834C20.7874 26.1052 21.2105 26.5283 21.7323 26.5283ZM4.72441 37.8669C4.20265 37.8669 3.77953 38.29 3.77953 38.8118C3.77953 39.3335 4.20265 39.7566 4.72441 39.7566H11.3386C11.8603 39.7566 12.2835 39.3335 12.2835 38.8118C12.2835 38.29 11.8603 37.8669 11.3386 37.8669H4.72441ZM42.8816 36.0678C42.4309 37.3453 42.4328 38.7598 42.8816 40.0439C43.0592 40.5522 43.6261 40.8385 44.2016 40.5844L45.2731 40.0855C46.5402 39.4977 48 40.3387 48 41.7796V45.8039C48 46.8476 47.154 47.6937 46.1102 47.6937H40.7707L41.2951 48.8152C42.0567 50.4338 41.1622 52.183 39.6586 52.6949C37.9203 53.2868 36.1097 53.2928 34.42 52.6945C32.9234 52.1646 32.0223 50.4338 32.7831 48.8156L33.3078 47.6936L27.9685 47.6937C26.9265 47.6937 26.0787 46.8459 26.0787 45.8039V44.3866H24.5669C24.0453 44.3866 23.622 43.9623 23.622 43.4417C23.622 42.9211 24.0453 42.4968 24.5669 42.4968H26.0787V41.78C26.0787 40.3388 27.5388 39.4976 28.8053 40.0851L29.8771 40.5841C30.4527 40.8387 31.0196 40.5521 31.1972 40.0441C31.6459 38.7602 31.6475 37.3457 31.1972 36.0675C31.0366 35.6118 30.474 35.2578 29.9031 35.5154L28.7664 36.0449C27.5388 36.5959 26.0787 35.7791 26.0787 34.2886V30.3078C26.0787 29.2641 26.9248 28.4181 27.9685 28.4181H33.3078L32.7831 27.2961C31.9522 25.3243 33.2239 23.8533 34.42 23.4171C36.4115 22.6908 38.1808 23.0319 38.7402 23.155V18.3078H1.88976V42.4968H16.0292C16.5317 42.4968 16.9716 42.8748 17.0057 43.3761C17.0431 43.9262 16.6054 44.3866 16.0631 44.3866H0.944882C0.423024 44.3866 0 43.9635 0 43.4417V11.6937C0 10.1281 1.26907 8.85901 2.83465 8.85901H37.7953C39.3609 8.85901 40.6299 10.1281 40.6299 11.6937V24.0063C41.4019 24.7063 41.8951 25.8736 41.2951 27.2965L40.7707 28.4181H46.1102C47.154 28.4181 48 29.2641 48 30.3078V34.2886C48 35.7787 46.5402 36.596 45.3128 36.0451L44.1761 35.5151C43.6044 35.2581 43.0422 35.6114 42.8816 36.0678V36.0678ZM38.7402 16.4181V11.6937C38.7402 11.1726 38.3163 10.7488 37.7953 10.7488H2.83465C2.31364 10.7488 1.88976 11.1726 1.88976 11.6937V16.4181H38.7402ZM41.0995 35.4376C41.7307 33.6518 43.7055 33.1755 44.9735 33.802L46.1102 34.3321V30.3078H40.7707C39.2948 30.3078 38.5039 28.7667 39.0595 27.6177L39.5839 26.4952C39.8343 25.8914 39.5024 25.3737 39.0312 25.1998C37.7831 24.7392 36.2561 24.7666 35.0473 25.1997C34.5747 25.369 34.2443 25.8914 34.495 26.4956L35.0197 27.6176C35.5748 28.7671 34.7838 30.3079 33.3078 30.3079H27.9685V34.3318L29.1052 33.8024C30.3733 33.176 32.3485 33.6516 32.9787 35.4374C33.5749 37.1265 33.5844 38.9888 32.9787 40.6745C32.4948 42.0214 30.8915 43.0943 29.1052 42.3094L27.9686 41.7801L27.9685 45.8039H33.3078C34.7808 45.8039 35.5794 47.3431 35.0197 48.4942L34.495 49.6161C34.2261 50.2022 34.5921 50.7741 35.0473 50.912C36.4267 51.3299 37.518 51.3848 39.0312 50.912C39.4855 50.77 39.8523 50.2024 39.5839 49.6166L39.0595 48.4941C38.4992 47.3432 39.2976 45.804 40.7707 45.804H46.1102V41.7797L44.9735 42.3098C43.1868 43.0941 41.5843 42.0216 41.0995 40.6742C40.4939 38.9885 40.5043 37.1261 41.0995 35.4376Z" fill="#019EF8"/>
<rect x="30" y="53" width="189" height="36" fill="#C4C4C4"/>
</g>
<defs>
<clipPath id="clip0">
<rect width="48" height="48" fill="white" transform="translate(0 7)"/>
</clipPath>
</defs>
</svg>
