<svg width="12" height="19" viewBox="0 0 12 19" fill="none" xmlns="http://www.w3.org/2000/svg">
<path d="M9.42857 0H2.57143C1.15125 0 0 1.15125 0 2.57143V16.2857C0 17.7059 1.15125 18.8571 2.57143 18.8571H9.42857C10.8488 18.8571 12 17.7059 12 16.2857V2.57143C12 1.15125 10.8488 0 9.42857 0ZM10.2857 16.2857C10.2857 16.7591 9.90193 17.1429 9.42857 17.1429H2.57143C2.09807 17.1429 1.71429 16.7591 1.71429 16.2857V2.57143C1.71429 2.09807 2.09807 1.71429 2.57143 1.71429H9.42857C9.90193 1.71429 10.2857 2.09807 10.2857 2.57143V16.2857Z" fill="#9EA0A7"/>
<rect x="4" y="3" width="4" height="1" rx="0.5" fill="#9EA0A7"/>
</svg>
