<svg width="28" height="28" viewBox="0 0 28 28" fill="none" xmlns="http://www.w3.org/2000/svg">
<g clip-path="url(#clip0)">
<path d="M9.14512 23.5477C9.52658 23.9424 10.1614 23.9424 10.5562 23.5477C10.9377 23.1662 10.9377 22.5313 10.5562 22.1508L3.40108 14.9956L27.0121 14.9956C27.5625 14.9947 28 14.5572 28 14.0068C28 13.4565 27.5625 13.0048 27.0121 13.0048L3.40108 13.0048L10.5562 5.86293C10.9377 5.46814 10.9377 4.83238 10.5562 4.45181C10.1614 4.05702 9.52569 4.05702 9.14513 4.45181L0.296094 13.3008C-0.0986968 13.6823 -0.0986968 14.3172 0.296094 14.6977L9.14512 23.5477Z" fill="white"/>
</g>
<defs>
<clipPath id="clip0">
<rect width="28" height="28" fill="white" transform="translate(28 28) rotate(-180)"/>
</clipPath>
</defs>
</svg>
