<svg width="500" height="500" viewBox="0 0 500 500" fill="none" xmlns="http://www.w3.org/2000/svg">
<path d="M362.737 325.086C415.848 271.975 415.848 185.866 362.737 132.755C309.626 79.644 223.517 79.644 170.406 132.755C117.295 185.866 117.295 271.975 170.406 325.086C223.517 378.197 309.626 378.197 362.737 325.086Z" fill="url(#paint0_linear)" fill-opacity="0.5"/>
<path d="M317.3 309.6C312.6 303.2 305.2 299.5 297.8 296.7C283.7 291.3 268.8 288.4 254.7 282.9C240.7 277.4 227.1 268.5 220.3 255.1C211.6 237.8 215.8 217.3 218.7 198.2C221.6 179.1 222 157.1 208.3 143.4C199.4 134.5 185.5 131.3 173.3 134.5C170.8 135.2 168.4 136.1 166.2 137.2C157.4 146.8 149.8 157.9 143.9 170.2C111.5 237.9 140 319.1 207.8 351.6C233.8 364.1 261.8 367.5 288.3 363.2C296.6 360.5 304.4 356.6 310.7 350.6C321.6 340.1 326.2 321.8 317.3 309.6Z" fill="url(#paint1_linear)" fill-opacity="0.5"/>
<path d="M232.591 168.884C242.148 160.349 242.977 145.683 234.442 136.125C225.907 126.568 211.241 125.739 201.684 134.274C192.127 142.809 191.298 157.475 199.832 167.032C208.367 176.59 223.034 177.419 232.591 168.884Z" fill="#E0E0E0"/>
<path d="M261.064 334.315C274.711 329.851 282.156 315.168 277.691 301.521C273.227 287.874 258.545 280.43 244.897 284.894C231.25 289.359 223.806 304.041 228.27 317.688C232.735 331.335 247.417 338.779 261.064 334.315Z" fill="#E0E0E0"/>
<path d="M347.93 311.143C361.045 305.293 366.934 289.92 361.084 276.805C355.234 263.691 339.86 257.802 326.746 263.652C313.631 269.502 307.742 284.876 313.592 297.99C319.442 311.105 334.816 316.993 347.93 311.143Z" fill="#E0E0E0"/>
<path d="M267.231 171.77C270.73 166.403 269.216 159.216 263.85 155.717C258.483 152.217 251.296 153.731 247.796 159.098C244.297 164.465 245.811 171.652 251.178 175.151C256.545 178.65 263.732 177.136 267.231 171.77Z" fill="#E0E0E0"/>
<path d="M252.8 270.8C250.9 274.7 246.2 276.4 242.3 274.5C238.4 272.6 236.7 267.9 238.6 264C240.5 260.1 245.2 258.4 249.1 260.3C253 262.2 254.7 266.8 252.8 270.8Z" fill="#E0E0E0"/>
<path d="M189.2 270.6C187.5 274.1 183.4 275.5 179.9 273.9C176.4 272.2 175 268.1 176.6 264.6C178.3 261.1 182.4 259.7 185.9 261.3C189.4 263 190.8 267.2 189.2 270.6Z" fill="#E0E0E0"/>
<path d="M226.166 280.683C229.666 273.479 226.663 264.803 219.46 261.303C212.257 257.804 203.58 260.806 200.081 268.01C196.581 275.213 199.584 283.889 206.787 287.389C213.99 290.888 222.667 287.886 226.166 280.683Z" fill="#E0E0E0"/>
<path d="M232.591 168.884C242.148 160.349 242.977 145.683 234.442 136.125C225.907 126.568 211.241 125.739 201.684 134.274C192.127 142.809 191.298 157.475 199.832 167.032C208.367 176.59 223.034 177.419 232.591 168.884Z" fill="#FAF2FF"/>
<path d="M261.064 334.315C274.711 329.851 282.156 315.168 277.691 301.521C273.227 287.874 258.545 280.43 244.897 284.894C231.25 289.359 223.806 304.041 228.27 317.688C232.735 331.335 247.417 338.779 261.064 334.315Z" fill="#E0E0E0"/>
<path d="M347.93 311.143C361.045 305.293 366.934 289.92 361.084 276.805C355.234 263.691 339.86 257.802 326.746 263.652C313.631 269.502 307.742 284.876 313.592 297.99C319.442 311.105 334.816 316.993 347.93 311.143Z" fill="#FAF3FF"/>
<path d="M267.231 171.77C270.73 166.403 269.216 159.216 263.85 155.717C258.483 152.217 251.296 153.731 247.796 159.098C244.297 164.465 245.811 171.652 251.178 175.151C256.545 178.65 263.732 177.136 267.231 171.77Z" fill="#E4F5FF"/>
<path d="M252.8 270.8C250.9 274.7 246.2 276.4 242.3 274.5C238.4 272.6 236.7 267.9 238.6 264C240.5 260.1 245.2 258.4 249.1 260.3C253 262.2 254.7 266.8 252.8 270.8Z" fill="#E0E0E0"/>
<path d="M189.2 270.6C187.5 274.1 183.4 275.5 179.9 273.9C176.4 272.2 175 268.1 176.6 264.6C178.3 261.1 182.4 259.7 185.9 261.3C189.4 263 190.8 267.2 189.2 270.6Z" fill="#E0E0E0"/>
<path d="M226.166 280.683C229.666 273.479 226.663 264.803 219.46 261.303C212.257 257.804 203.58 260.806 200.081 268.01C196.581 275.213 199.584 283.889 206.787 287.389C213.99 290.888 222.667 287.886 226.166 280.683Z" fill="#E0E0E0"/>
<path d="M254.3 426.2H396C396 426.2 383.5 403.4 347 406.7C312.2 409.9 310.4 395.5 292.7 393.7C275 392 260.2 405.6 254.3 426.2Z" fill="#F2F8FF"/>
<path d="M70.7 114.8H161.2C161.2 114.8 153.2 100.2 129.9 102.4C107.7 104.4 106.5 95.1999 95.2 94.0999C83.9 92.8999 74.5 101.6 70.7 114.8Z" fill="#F2F8FF"/>
<path opacity="0.5" d="M110.3 62.1H243.9C243.9 62.1 232.1 40.6 197.7 43.7C164.9 46.7 163.2 33.1 146.5 31.5C129.7 29.8 115.8 42.6 110.3 62.1Z" fill="#CAE2FF" fill-opacity="0.5"/>
<path d="M359.4 383.9H449.9C449.9 383.9 441.9 369.3 418.6 371.5C396.4 373.5 395.2 364.3 383.9 363.2C372.6 362.1 363.1 370.7 359.4 383.9Z" fill="#F2F8FF"/>
<path d="M362.1 87.5L362.6 88.7C363.5 90.9 365.2 92.6 367.4 93.5L368.8 94L367.5 94.5C365.3 95.4 363.5 97.2 362.6 99.4L362.2 100.3L361.7 99.2C360.7 97.1 358.9 95.5 356.8 94.7L355.6 94.3L357.1 93.6C359 92.7 360.6 91 361.4 89.1L362.1 87.5Z" fill="#189FEB"/>
<path d="M384.1 360L384.4 360.6C384.9 361.7 385.7 362.5 386.8 363L387.5 363.3L386.9 363.6C385.8 364 384.9 364.9 384.5 366L384.3 366.5L384 365.9C383.5 364.9 382.6 364.1 381.5 363.7L380.9 363.5L381.7 363.1C382.7 362.6 383.4 361.8 383.8 360.8L384.1 360Z" fill="#6CD691"/>
<path d="M92.2 361.7L92.5 362.3C93 363.4 93.8 364.2 94.9 364.7L95.6 365L95 365.3C93.9 365.7 93 366.6 92.6 367.7L92.4 368.2L92.1 367.6C91.6 366.6 90.7 365.8 89.6 365.4L89 365.2L89.8 364.8C90.8 364.3 91.5 363.5 91.9 362.5L92.2 361.7Z" fill="#E8505B"/>
<path d="M70.6001 196.2L71.1001 197.4C72.0001 199.6 73.7001 201.3 75.9001 202.2L77.3001 202.7L76.0001 203.2C73.8001 204.1 72.0001 205.9 71.1001 208.1L70.7001 209L70.2001 207.9C69.2001 205.8 67.4001 204.2 65.3001 203.4L64.1001 203L65.6001 202.3C67.5001 201.4 69.1001 199.7 69.9001 197.8L70.6001 196.2Z" fill="#6CD691"/>
<path d="M413.6 338.1L414.1 339.3C415 341.5 416.7 343.2 418.9 344.1L420.3 344.6L419 345.1C416.8 346 415 347.8 414.1 350L413.7 350.9L413.2 349.8C412.2 347.7 410.4 346.1 408.3 345.3L407.1 344.9L408.6 344.2C410.5 343.3 412.1 341.6 412.9 339.7L413.6 338.1Z" fill="#189FEB"/>
<path d="M192.8 186.7C192.9 186.8 174.9 199 152.7 213.9C130.4 228.8 112.3 240.8 112.3 240.7C112.2 240.6 130.2 228.4 152.4 213.5C174.6 198.6 192.7 186.6 192.8 186.7Z" fill="#D4A5FF"/>
<path d="M198.7 412C198.8 412.1 180.8 424.3 158.6 439.2C136.3 454.1 118.2 466.1 118.2 466C118.1 465.9 136.1 453.7 158.3 438.8C180.6 423.9 198.7 411.9 198.7 412Z" fill="#D4A5FF"/>
<path d="M217.3 148.2C217.4 148.3 207 156.1 194 165.7C181.1 175.2 170.5 182.9 170.4 182.8C170.3 182.7 180.7 174.9 193.7 165.3C206.6 155.7 217.2 148.1 217.3 148.2Z" fill="#D4A5FF"/>
<path d="M240.7 401.8C240.8 401.9 230.4 409.7 217.4 419.3C204.5 428.8 193.9 436.5 193.8 436.4C193.7 436.3 204.1 428.5 217.1 418.9C230.1 409.3 240.6 401.6 240.7 401.8Z" fill="#D4A5FF"/>
<path d="M410.9 199.9C411 200 400.6 207.8 387.6 217.4C374.7 226.9 364.1 234.6 364 234.5C363.9 234.4 374.3 226.6 387.3 217C400.2 207.4 410.8 199.8 410.9 199.9Z" fill="#D4A5FF"/>
<path d="M436.4 154.3C436.5 154.4 426.1 162.2 413.1 171.8C400.2 181.3 389.6 189 389.5 188.9C389.4 188.8 399.8 181 412.8 171.4C425.8 161.9 436.3 154.2 436.4 154.3Z" fill="#D4A5FF"/>
<path d="M306.9 201.7C306.9 201.7 313.5 255.2 283.1 293.2C252.7 331.2 172.6 373.8 164.9 374.9C164.9 374.9 188.1 355.7 160 346.8C131.9 337.9 120 326.5 120.1 315.6C120.3 304.8 147.3 278.4 134.4 265.8C121.6 253.2 102.1 249.4 93.1001 234.7C93.1001 234.7 122.7 248.8 145.4 246.6C168.1 244.4 251.8 222.3 269 193.3" fill="#E8505B"/>
<path d="M166 312.6C166 312.6 166.2 312.5 166.5 312.3C166.9 312.1 167.3 311.9 167.9 311.6C169.2 311 170.9 310.2 173 309.2C177.3 307.1 183.2 304.2 189.5 300.6C195.8 297 201.4 293.5 205.4 290.9C207.3 289.6 208.9 288.6 210.1 287.8C210.6 287.5 211 287.2 211.4 287C211.7 286.8 211.9 286.7 211.9 286.7C211.9 286.7 211.8 286.8 211.5 287.1C211.2 287.3 210.8 287.7 210.3 288C209.2 288.8 207.7 289.9 205.7 291.3C201.8 294 196.2 297.6 189.9 301.1C183.6 304.7 177.7 307.6 173.3 309.6C171.1 310.6 169.4 311.4 168.1 311.9C167.5 312.1 167.1 312.3 166.7 312.5C166.2 312.5 166 312.6 166 312.6Z" fill="#263238"/>
<path d="M129 305.5C129 305.5 129.1 305.5 129.2 305.5C129.4 305.5 129.6 305.5 129.9 305.4C130.5 305.4 131.4 305.3 132.5 305.2C133.6 305.1 135.1 305.1 136.7 304.9C138.3 304.7 140.2 304.6 142.2 304.3C143.2 304.2 144.3 304 145.4 303.9C146.5 303.8 147.7 303.6 148.9 303.4C151.3 303.1 153.8 302.5 156.5 302C161.8 300.9 167.6 299.4 173.6 297.6C179.6 295.7 185.1 293.5 190.1 291.4C192.6 290.3 194.9 289.2 197.1 288.1C198.2 287.6 199.2 287.1 200.2 286.5C201.2 286 202.1 285.5 203 285C204.8 284.1 206.4 283.1 207.8 282.3C209.2 281.5 210.4 280.8 211.4 280.1C212.3 279.5 213.1 279.1 213.7 278.7C213.9 278.6 214.1 278.4 214.3 278.3C214.4 278.2 214.5 278.2 214.5 278.2C214.5 278.2 214.4 278.3 214.3 278.3C214.1 278.4 214 278.5 213.7 278.7C213.2 279.1 212.4 279.6 211.5 280.2C210.5 280.8 209.4 281.6 208 282.4C206.6 283.2 205 284.2 203.2 285.2C202.3 285.7 201.4 286.2 200.4 286.8C199.4 287.3 198.4 287.8 197.3 288.4C195.2 289.5 192.8 290.6 190.3 291.7C185.3 293.9 179.7 296.1 173.7 298C167.7 299.9 161.9 301.3 156.6 302.4C153.9 302.9 151.4 303.4 149 303.7C147.8 303.9 146.6 304.1 145.5 304.2C144.4 304.3 143.3 304.4 142.3 304.6C140.3 304.9 138.4 304.9 136.8 305.1C135.2 305.2 133.8 305.3 132.6 305.3C131.5 305.3 130.6 305.4 130 305.4C129.7 305.4 129.5 305.4 129.3 305.4C129.1 305.5 129 305.5 129 305.5Z" fill="#263238"/>
<path d="M133.8 256.6C133.8 256.6 134.1 256.6 134.6 256.6C135.2 256.6 135.9 256.7 136.8 256.7C137.8 256.8 138.9 256.8 140.3 256.8C141.7 256.8 143.2 256.9 145 256.9C148.5 257 152.6 256.9 157.1 256.7C161.7 256.5 166.7 256.1 171.9 255.5C177.1 254.9 182.1 254 186.6 253.2C191.1 252.3 195.1 251.4 198.4 250.5C200.1 250.1 201.6 249.6 202.9 249.3C204.2 248.9 205.4 248.6 206.3 248.3C207.2 248 207.9 247.8 208.4 247.7C208.9 247.6 209.2 247.5 209.2 247.5C209.2 247.5 209 247.6 208.5 247.8C208 248 207.3 248.2 206.4 248.5C205.5 248.8 204.4 249.2 203 249.6C201.7 250 200.2 250.5 198.5 250.9C195.2 251.8 191.2 252.8 186.7 253.7C182.2 254.6 177.2 255.4 172 256.1C166.8 256.7 161.7 257.1 157.2 257.3C152.6 257.5 148.5 257.5 145 257.4C143.3 257.4 141.7 257.3 140.3 257.2C138.9 257.1 137.7 257.1 136.8 257C135.9 256.9 135.1 256.9 134.6 256.8C134.1 256.6 133.8 256.6 133.8 256.6Z" fill="#263238"/>
<g opacity="0.4">
<path opacity="0.4" d="M256 205.9C234 235.5 198.6 259.2 161.7 259.8C155.6 259.9 148.8 259.8 144 263.6C140.5 266.3 143.2 276 139.4 284.1C134.6 294.2 134.6 295.1 127.6 304.3C124.2 308.8 121.4 314.5 122.8 319.9C124.5 326.3 130.7 330.3 136.4 333.7C147.1 340.1 157.8 346.5 168.6 352.9C172.8 355.4 177.1 358 182 358.3C188.2 358.8 194 355.6 199.3 352.4C248.2 322.7 287.1 276.7 308.3 223.6" fill="black"/>
</g>
<path d="M376.9 144.2C376.9 144.2 378.5 135.1 379.3 134.3L394.4 137.5C394.4 137.5 388.7 148.8 388.6 149.2L376.9 144.2Z" fill="#FFBE9D"/>
<path d="M394.199 138.5C394.199 138.5 394.199 138.6 394.099 138.8C393.599 140.2 390.599 145.7 389.799 145.6C388.899 145.5 387.199 144 387.499 143.2C387.799 142.4 391.499 136.3 391.499 136.3C391.499 136.3 392.199 135.4 393.899 136C394.999 136.4 394.199 138.5 394.199 138.5Z" fill="#FFBE9D"/>
<path d="M391.9 134.7C391.9 134.7 391.9 134.8 391.8 135C391.3 136.4 388.3 141.9 387.5 141.8C386.6 141.7 384.9 140.2 385.2 139.4C385.5 138.6 389.2 132.5 389.2 132.5C389.2 132.5 389.9 131.6 391.6 132.2C392.7 132.7 391.9 134.7 391.9 134.7Z" fill="#FFBE9D"/>
<path d="M389.199 132C389.199 132 389.199 132.1 389.099 132.3C388.599 133.7 385.599 139.2 384.799 139.1C383.899 139 382.199 137.5 382.499 136.7C382.799 135.9 386.499 129.8 386.499 129.8C386.499 129.8 387.199 128.9 388.899 129.5C389.999 130 389.199 132 389.199 132Z" fill="#FFBE9D"/>
<path d="M386.4 129.4C386.4 129.4 386.4 129.5 386.3 129.7C385.8 131.1 382.8 136.6 382 136.5C381.1 136.4 379.4 134.9 379.7 134.1C380 133.3 383.7 127.2 383.7 127.2C383.7 127.2 384.4 126.3 386.1 126.9C387.2 127.3 386.4 129.4 386.4 129.4Z" fill="#FFBE9D"/>
<path d="M388.299 141.6C388.399 141.6 389.199 140.5 389.999 139C390.799 137.5 391.399 136.3 391.299 136.3C391.199 136.3 390.399 137.4 389.599 138.9C388.799 140.3 388.199 141.5 388.299 141.6Z" fill="#EB996E"/>
<path d="M385 139.9C385.1 140 386.1 138.3 387.3 136.2C388.5 134.1 389.4 132.4 389.3 132.3C389.2 132.2 388.2 133.9 387 136C385.8 138.1 384.9 139.8 385 139.9Z" fill="#EB996E"/>
<g opacity="0.78">
<path opacity="0.78" d="M381.8 137.8C381.9 137.9 382.9 136.2 384.1 134.1C385.3 132 386.2 130.3 386.1 130.2C386 130.1 385 131.8 383.8 133.9C382.6 136 381.7 137.8 381.8 137.8Z" fill="#EB996E"/>
</g>
<path d="M378.6 145.7L377.8 140.6C377.4 138.3 378 136 379.3 134.2L380.3 132.8L391 139C391 139 388 142.4 385.4 140.1L387.1 144.6L378.6 145.7Z" fill="#FFBE9D"/>
<path d="M386 144.9C385.9 144.9 386.1 144.3 386 143.3C385.9 142.3 385.5 140.8 384.2 139.7L383.3 138.9L384.4 139.3C385.3 139.6 386.2 140 387.2 140.4H387.1C388.3 140.6 389.8 140.4 390.6 139.2C390.7 139.1 390.7 139 390.8 138.9L390.9 139.2C387.8 137.5 385 136 383.1 134.8C382.1 134.2 381.4 133.7 380.8 133.3C380.3 132.9 380 132.7 380 132.7C380 132.6 381.2 133.4 383.2 134.5C385.2 135.6 388 137.1 391.1 138.8L391.3 138.9L391.2 139.1C391.1 139.2 391.1 139.3 391 139.4C390.5 140.1 389.9 140.5 389.1 140.7C388.4 140.9 387.7 140.9 387 140.8C386 140.4 385.1 140 384.2 139.6L384.4 139.2C385.7 140.5 386.1 142.1 386.1 143.1C386.1 143.6 386 144 386 144.3C386.1 144.8 386.1 145 386 144.9Z" fill="#EB996E"/>
<path d="M389.2 140.6C389.3 140.6 389 141.2 389.3 142C389.4 142.4 389.8 142.8 390.2 142.7C390.7 142.7 391.2 142.3 391.6 141.8C392.4 140.7 393.2 139.7 393.6 139C394.1 138.3 394.3 137.8 394.4 137.8C394.5 137.8 394.3 138.4 393.9 139.2C393.5 140 392.8 141 392 142.1C391.6 142.7 391 143.2 390.2 143.2C389.8 143.2 389.5 143 389.3 142.8C389.1 142.6 389 142.3 388.9 142.1C388.8 141.6 388.9 141.2 389 141C389 140.7 389.1 140.6 389.2 140.6Z" fill="#EB996E"/>
<path d="M288.9 162.4C289 163.1 288.7 163.8 288.1 164.2C287.5 164.6 286.7 164.6 286.1 164.2C285 163.5 285 161.8 285.4 160.6C285.8 159.3 286.3 158 285.9 156.7C285.6 155.7 284.7 155.1 284.1 154.3C283 152.9 282.5 151 283 149.3C283.5 147.6 284.9 146.2 286.7 145.9C288.5 145.6 290.6 146.3 292 145.2C293 144.4 293.2 142.9 294.1 141.9C295.4 140.3 297.8 140.3 299.8 140.8C301.8 141.3 304.5 144.6 306.5 144.3C308.2 144.1 308.9 140.6 310.5 140C314 138.8 318.2 140.1 320.4 143C322.7 145.9 322.8 150.3 320.8 153.4C320.1 154.5 319 155.5 317.8 155.8" fill="#E8505B"/>
<path d="M285.6 196.9L304.8 198.3C305.3 196.1 306.4 187.5 306.4 187.5C306.4 187.5 314.5 187.5 315.8 179.6C317.1 171.7 318.6 153.4 318.6 153.4C310.1 148.1 299.3 147.8 290.5 152.6L289.2 153.3L285.6 196.9Z" fill="#FFBE9D"/>
<path d="M306.5 187.4C306.5 187.4 301.5 187 296.7 182.9C296.7 182.9 298.3 189 306.2 189.5L306.5 187.4Z" fill="#EB996E"/>
<path d="M318.5 155.5C318.5 155.5 313.5 157.5 307.4 153.8C303.4 151.4 298.7 150 297.6 150.8C296.5 151.5 295.9 155.8 291.7 156.7C291.7 156.7 291.3 164.8 288.1 164.3C284.9 163.8 287.9 151.3 287.9 151.3L296.1 148.1L304.9 147.2L313 149L319.2 151.2L318.5 155.5Z" fill="#E8505B"/>
<path d="M288.9 161.7C288.8 161.6 283.7 159.3 283.1 164.7C282.4 170.1 288 169.7 288 169.5C288.1 169.3 288.9 161.7 288.9 161.7Z" fill="#FFBE9D"/>
<path d="M286.6 167.2C286.6 167.2 286.5 167.3 286.3 167.3C286.1 167.4 285.9 167.4 285.6 167.2C285.1 166.9 284.7 166 284.8 165C284.8 164.5 285 164 285.2 163.7C285.4 163.3 285.7 163.1 286 163.1C286.3 163.1 286.5 163.3 286.5 163.4C286.6 163.6 286.5 163.7 286.5 163.7C286.5 163.7 286.6 163.6 286.6 163.4C286.6 163.3 286.5 163.2 286.4 163C286.3 162.9 286.1 162.8 285.9 162.8C285.5 162.8 285.1 163.1 284.8 163.5C284.5 163.9 284.3 164.4 284.3 165C284.2 166.1 284.6 167.2 285.4 167.5C285.8 167.6 286.1 167.6 286.3 167.5C286.6 167.4 286.7 167.3 286.6 167.2Z" fill="#EB996E"/>
<path d="M287.9 144.4C287.9 144.6 288.7 144.6 289.6 145C290.5 145.4 291 146 291.1 145.9C291.2 145.8 290.9 144.9 289.8 144.4C288.8 144 287.8 144.3 287.9 144.4Z" fill="#E8505B"/>
<path d="M291.5 141.5C291.4 141.5 290.9 142.6 290.9 144C291 145.5 291.7 146.5 291.9 146.4C292.1 146.3 291.6 145.3 291.5 143.9C291.5 142.7 291.6 141.5 291.5 141.5Z" fill="#E8505B"/>
<path d="M265.8 277.7L239.6 261C229.2 278.1 235.8 294.6 235.9 315.6L235.7 330L165.5 337.4L166.3 357L250.4 355.8C259.8 355.3 267.1 347.6 267 338.2C266.9 314.4 268.4 279.9 268.8 281.6" fill="#1E42C6"/>
<path d="M286.8 186.5C286.8 186.5 279.9 181.5 271 187.1C262.1 192.7 238.5 236.1 238.5 236.1L220.4 251.4L267.2 284.4C267.2 284.4 304.2 238.1 307.2 231L309.7 197.7L286.8 186.5Z" fill="#772FF7"/>
<path d="M309 197.8L344 176.7L376.6 142.9L388.6 149.2L354.6 198.5L306.5 231.1L309 197.8Z" fill="#772FF7"/>
<path d="M161.4 336L209.2 332.4L208.9 348.1L226.2 358.5L168.2 356.2C168.2 356.2 163.8 372.7 162.7 370.2C161.7 367.7 161.4 336 161.4 336Z" fill="#003865"/>
<path d="M217.7 251.1C217.7 251.1 234.6 256.8 240.8 266.5C242.8 269.7 243.2 273.7 242 277.3L237.6 288C237.6 288 257.7 276.5 268.7 284.2L273.2 276.7L225.6 244.6C225.6 244.7 220 247.2 217.7 251.1Z" fill="#1E42C6"/>
<path d="M218.2 249.9L175.8 328.1L120.6 369.7L129.6 386.6L181.7 357C191 352.8 200.2 346 205.9 337.5L218.3 319L240.5 282.4C245.9 274 243.3 266 235 260.3L218.2 249.9Z" fill="#1E42C6"/>
<path d="M110.2 375.6L147.7 347L155.8 357.4L178.8 359.4L127.6 388C127.6 388 133.8 404 131.4 402.5C129 401.1 110.2 375.6 110.2 375.6Z" fill="#003865"/>
<path d="M302.9 142.6C304.3 143.3 307.2 143.4 308.4 142.2C309.2 141.5 309.3 139.8 308.8 138.9C308.4 138.3 307.7 138 307.7 137.2C307.7 136.6 308.5 136.2 308.9 135.9C309.4 135.6 309.9 135.5 310.5 135.4C313.3 134.9 316.3 135.5 318.7 137C321.1 138.5 322.9 141.1 323.3 143.9C323.7 146.7 323.2 151 321 152.9C318.9 154.8 315.3 154.3 312.6 153.3" fill="#E8505B"/>
<path d="M312.5 135.4C311.7 135.2 310.8 135.1 309.9 135.2C309 135.3 308.2 135.7 307.7 136.4C307.3 136.9 307 137.5 306.6 138C306.2 138.4 305.6 138.7 305 138.7C304.4 138.6 303.8 138.2 303.8 137.6C303.7 137 304.2 136.4 304.8 136.4C304.9 136.4 305 136.4 305.1 136.4C305.2 136.4 305.3 136.3 305.2 136.2C305.2 136.1 305.1 136.1 305 136.1C304.1 136.1 303.3 136.6 303 137.5C302.7 138.3 302.9 139.3 303.5 139.9C304.1 140.6 305 140.9 305.8 140.8C306.7 140.7 307.5 140.3 308 139.6C308.4 139.1 308.7 138.5 309.2 138C309.7 137.6 310.5 137.4 311.1 137.5C311.8 137.6 312.4 138 312.8 138.6C313 138.8 313.2 139.1 313.5 139.1" fill="#E8505B"/>
<path d="M364.2 155.7L367.7 172.8L375.5 168.2L388.6 149.2L376.6 142.9L364.2 155.7Z" fill="#FF6B49"/>
<path d="M302.2 224.3L279.1 234.5L282.2 211L302.2 224.3Z" fill="#FF5028"/>
<path d="M304.1 136.8C304.1 136.8 304 136.8 303.8 137C303.6 137.2 303.4 137.5 303.5 138C303.6 138.5 304.1 138.9 304.8 138.9C305.5 138.9 306.2 138.6 307 138.1C307.7 137.6 308.5 137 309.3 136.3C310.1 135.7 311.2 135 312.5 135.1C313.8 135.1 315 135.9 315.9 136.8C316.8 137.8 317.5 139 317.9 140.4C318.7 143.1 318.3 146 317.1 148.1C315.9 150.3 314.1 151.6 312.4 152.4C310.7 153.1 309.2 153.3 308.2 153.3C307.7 153.3 307.3 153.2 307 153.2C306.7 153.2 306.6 153.1 306.6 153.1C306.6 153 307.2 153.1 308.2 153.1C309.2 153.1 310.6 152.9 312.3 152.1C313.9 151.3 315.6 150 316.7 147.9C317.8 145.9 318.2 143.1 317.4 140.6C317 139.3 316.4 138.1 315.6 137.2C314.8 136.3 313.7 135.6 312.5 135.6C311.4 135.6 310.4 136.1 309.5 136.7C308.7 137.3 307.9 138 307.1 138.4C306.3 138.9 305.5 139.2 304.7 139.1C303.9 139.1 303.3 138.5 303.2 138C303.1 137.5 303.4 137 303.6 136.9C303.9 136.8 304.1 136.8 304.1 136.8Z" fill="#263238"/>
<path d="M318.5 148.3C318.6 148.3 318.4 149 317.9 149.9C317.4 150.8 316.4 152 315.1 153C313.7 154 312.3 154.5 311.3 154.7C310.2 154.9 309.6 154.8 309.6 154.8C309.6 154.6 312.3 154.5 314.9 152.6C317.3 150.7 318.3 148.2 318.5 148.3Z" fill="#263238"/>
<path d="M228.4 246.3L228.1 243.4C228.2 243.3 228.2 243.2 228.2 243.2H228.1L227.2 211.1L258.7 206.1L281.2 184.5C281.2 184.5 271.1 180.7 264.8 181.6C242.8 184.7 211.6 194.2 210.3 197.5C208.5 202.3 211.9 230.6 212.6 239.4C212.9 243.5 211.9 246.5 212.3 248.5C211.6 248 208.7 245.8 207.1 244.9C205.3 244 208.5 249.7 209.4 251C209.7 251.5 211.3 251.7 213.1 251.8C213.2 252.1 213.1 251.8 213.1 251.8H214.2C216.8 251.8 219.5 251.5 220.3 251.4C220.9 251.3 222.5 249.7 224.1 247.9L228.4 246.3Z" fill="#772FF7"/>
<path d="M228 237.6L212.7 239.5L212.3 248.1L212.4 248.5C211.7 248 208.8 245.8 207.2 244.9C205.4 244 208.6 249.7 209.5 251C209.8 251.5 211.4 251.7 213.2 251.8C213.3 252.1 213.2 251.8 213.2 251.8H214.3C216.9 251.8 219.6 251.5 220.4 251.4C221 251.3 222.6 249.7 224.2 247.9L228.5 246.2L228 237.6Z" fill="#FFBE9D"/>
<path d="M212.7 239.5L228 237.6L227.4 219.3L219.7 208.8L211 222.3L212.7 239.5Z" fill="#FF6B49"/>
<path d="M226.9 304.7C226.8 304.7 227.6 303.5 228.7 301.7C230 299.7 231.6 297.3 233.3 294.5C235.1 291.7 236.8 289.2 238 287.4C239.2 285.6 240 284.5 240.1 284.5C240.2 284.5 239.5 285.7 238.3 287.6C237.2 289.5 235.6 292 233.7 294.8C231.9 297.6 230.2 300.1 228.9 301.9C228.3 302.8 227.7 303.5 227.4 304C227.1 304.5 226.9 304.7 226.9 304.7Z" fill="#263238"/>
<path d="M241.5 338.9C241.5 339 239.2 337.7 237.4 335.1C235.6 332.5 235.2 329.9 235.3 329.9C235.5 329.9 236.1 332.3 237.8 334.8C239.6 337.4 241.6 338.8 241.5 338.9Z" fill="#263238"/>
<path d="M312.3 214.6C312.3 214.6 312.3 214.8 312.3 215.2C312.3 215.6 312.3 216.2 312.2 217C312 218.6 311.6 220.8 310.7 223.5C309.8 226.2 308.4 229.2 306.5 232.4C304.6 235.6 302.3 238.9 299.7 242.4C294.5 249.2 289.7 255.3 286.2 259.7C284.5 261.9 283.1 263.6 282.1 264.9C281.6 265.5 281.2 265.9 281 266.3C280.7 266.6 280.6 266.8 280.6 266.8C280.6 266.8 280.7 266.6 280.9 266.3C281.2 265.9 281.5 265.4 282 264.8C283 263.5 284.3 261.7 286 259.5C289.5 255 294.2 248.9 299.4 242.2C302 238.8 304.4 235.5 306.2 232.3C308.1 229.1 309.5 226.1 310.5 223.5C311.4 220.9 311.9 218.7 312.2 217.1C312.3 216.3 312.4 215.7 312.4 215.3C312.3 214.8 312.3 214.6 312.3 214.6Z" fill="#263238"/>
<path d="M266.8 223.1C266.7 223.2 265.4 221 264 218.3C262.6 215.6 261.5 213.3 261.7 213.3C261.8 213.2 263.1 215.4 264.5 218.1C265.9 220.8 267 223 266.8 223.1Z" fill="#263238"/>
<path d="M300.5 237.5C300.5 237.6 298.3 237.6 295.5 237.3C292.8 237.1 290.6 236.8 290.6 236.6C290.6 236.5 292.8 236.5 295.6 236.8C298.4 237.1 300.6 237.4 300.5 237.5Z" fill="#263238"/>
<path d="M269.9 183.1C269.9 183.1 270 183.1 270.2 183.2C270.4 183.3 270.7 183.5 271 183.8C271.6 184.4 272.2 185.5 272.3 187C272.5 189.9 271.8 194 269.4 197.8C267 201.6 263.5 204 260.9 205.1C259.6 205.7 258.4 206 257.6 206.2C256.8 206.4 256.4 206.4 256.4 206.4C256.4 206.3 258.2 206 260.8 204.8C263.4 203.6 266.7 201.3 269 197.5C271.3 193.8 272.1 189.8 272 187C271.9 185.6 271.4 184.5 270.9 183.9C270.3 183.3 269.9 183.1 269.9 183.1Z" fill="#263238"/>
<path d="M273.2 276.8L275.7 273.6L231.6 242L224.1 248L273.2 276.8Z" fill="#1E42C6"/>
<g opacity="0.4">
<path opacity="0.4" d="M208.7 233.9C208.7 233.9 208.2 234.2 207.2 234.7C206.2 235.2 204.7 235.8 202.9 236.6C199.2 238.2 194.1 240.1 188.3 242C182.5 243.9 177.2 245.3 173.3 246.2C171.4 246.6 169.8 247 168.7 247.2C167.6 247.4 167 247.5 167 247.5C167 247.5 167.6 247.3 168.7 247C169.9 246.7 171.4 246.3 173.3 245.9C177.2 244.9 182.4 243.5 188.2 241.6C194 239.7 199.1 237.8 202.8 236.3C204.6 235.6 206.1 235 207.2 234.5C208.1 234.1 208.7 233.9 208.7 233.9Z" fill="white"/>
</g>
<g opacity="0.4">
<path opacity="0.4" d="M159.8 247.8C159.8 247.8 159.6 247.9 159.3 248C158.9 248.1 158.4 248.2 157.7 248.4C157 248.6 156.2 248.8 155.2 248.9C154.2 249.1 153.1 249.3 151.9 249.5C150.7 249.7 149.3 249.9 147.9 250C146.4 250.2 144.9 250.2 143.2 250.3C139.9 250.4 136.3 250.2 132.5 249.8C128.7 249.3 125.2 248.6 122 247.7C120.4 247.2 118.9 246.8 117.5 246.3C116.1 245.8 114.8 245.3 113.7 244.9C112.5 244.5 111.5 244 110.6 243.6C109.7 243.2 108.9 242.8 108.3 242.5C107.7 242.2 107.3 241.9 106.9 241.7C106.6 241.5 106.4 241.4 106.4 241.4C106.4 241.4 106.6 241.5 106.9 241.6C107.3 241.8 107.8 242 108.4 242.3C109 242.6 109.8 243 110.7 243.3C111.6 243.7 112.6 244.2 113.8 244.6C115 245 116.2 245.5 117.6 246C119 246.5 120.5 246.9 122.1 247.3C125.3 248.1 128.8 248.8 132.6 249.3C136.4 249.7 140 249.9 143.2 249.9C144.8 249.8 146.4 249.8 147.8 249.7C149.3 249.6 150.6 249.4 151.8 249.3C153 249.2 154.1 249 155.1 248.8C156.1 248.7 156.9 248.5 157.6 248.3C158.2 248.2 158.8 248.1 159.2 248C159.6 247.8 159.8 247.8 159.8 247.8Z" fill="white"/>
</g>
<g opacity="0.4">
<path opacity="0.4" d="M236.2 224.5C236.3 224.6 235.6 225.1 234.7 225.4C233.8 225.8 233.1 226 233 225.9C232.9 225.8 233.6 225.3 234.5 225C235.4 224.6 236.1 224.3 236.2 224.5Z" fill="white"/>
</g>
<defs>
<linearGradient id="paint0_linear" x1="398.753" y1="158.072" x2="242.049" y2="319.269" gradientUnits="userSpaceOnUse">
<stop stop-color="#CAE2FF"/>
<stop offset="1" stop-color="white" stop-opacity="0"/>
</linearGradient>
<linearGradient id="paint1_linear" x1="327.326" y1="286.071" x2="169.08" y2="287.919" gradientUnits="userSpaceOnUse">
<stop stop-color="#CAE2FF"/>
<stop offset="1" stop-color="white" stop-opacity="0"/>
</linearGradient>
</defs>
</svg>
