<svg width="156" height="123" viewBox="0 0 156 123" fill="none" xmlns="http://www.w3.org/2000/svg">
<path d="M90.5004 49.2037C90.6004 49.3037 72.6004 61.5038 50.4004 76.4038C28.1004 91.3038 10.0004 103.304 10.0004 103.204C9.90041 103.104 27.9004 90.9037 50.1004 76.0037C72.4004 61.1037 90.5004 49.1037 90.5004 49.2037Z" fill="#FFD55C"/>
<path d="M140.5 4.00062C140.6 4.10062 122.6 16.3006 100.4 31.2006C78.1004 46.1006 60.0004 58.1006 60.0004 58.0006C59.9004 57.9006 77.9004 45.7006 100.1 30.8006C122.4 15.9006 140.5 3.90062 140.5 4.00062Z" fill="#FFD55C"/>
<path d="M74.9007 68.0038C75.0007 68.1038 64.6007 75.9038 51.6007 85.5038C38.7007 95.0038 28.1007 102.704 28.0007 102.604C27.9007 102.504 38.3007 94.7038 51.3007 85.1038C64.3007 75.5038 74.8007 67.8038 74.9007 68.0038Z" fill="#FFD55C"/>
<path d="M137.901 14.0038C138.001 14.1038 127.601 21.9038 114.601 31.5038C101.701 41.0038 91.1007 48.7038 91.0007 48.6038C90.9007 48.5038 101.301 40.7038 114.301 31.1038C127.301 21.5038 137.801 13.8038 137.901 14.0038Z" fill="#FFD55C"/>
<path fill-rule="evenodd" clip-rule="evenodd" d="M69.3375 7.03425C83.1203 3.91986 97.2292 -3.40488 110.357 1.83774C124.603 7.52712 135.975 20.6144 140.323 35.3824C144.624 49.9925 140.08 65.819 133.188 79.3907C127.014 91.5481 115.381 99.0046 104.13 106.654C93.2844 114.027 82.3106 124.592 69.3375 122.798C56.5624 121.032 51.7195 104.912 40.871 97.9083C28.9156 90.1904 10.0593 92.6479 3.23555 80.1256C-3.58236 67.6141 1.41303 51.0215 8.62589 38.7355C15.1436 27.6336 28.4579 23.7159 39.8424 17.7714C49.3539 12.8049 58.8791 9.39744 69.3375 7.03425Z" fill="#FDFAF3"/>
<path d="M29.2 106L29.5 106.6C30 107.7 30.8 108.5 31.9 109L32.6 109.3L32 109.6C30.9 110 30 110.9 29.6 112L29.4 112.5L29.1 111.9C28.6 110.9 27.7 110.1 26.6 109.7L26 109.5L26.8 109.1C27.8 108.6 28.5 107.8 28.9 106.8L29.2 106Z" fill="#6CD691"/>
<path d="M151.939 52L152.242 52.7273C152.788 54.0606 153.818 55.0909 155.152 55.6364L156 55.9394L155.212 56.2424C153.879 56.7879 152.788 57.8788 152.242 59.2121L152 59.7576L151.697 59.0909C151.091 57.8182 150 56.8485 148.727 56.3636L148 56.1212L148.909 55.697C150.061 55.1515 151.03 54.1212 151.515 52.9697L151.939 52Z" fill="#FFC472"/>
<path d="M28.447 0L28.7121 0.636355C29.1894 1.80302 30.0909 2.70455 31.2576 3.18182L32 3.44697L31.3106 3.71213C30.1439 4.1894 29.1894 5.14394 28.7121 6.31061L28.5 6.78788L28.2349 6.20454C27.7046 5.09091 26.75 4.24242 25.6364 3.81818L25 3.60606L25.7955 3.23486C26.803 2.75758 27.6515 1.85607 28.0758 0.848489L28.447 0Z" fill="#FFA425"/>
<path d="M106.703 81.8297H44.2969V84.53H106.703V81.8297Z" fill="#FFCD3E"/>
<path d="M106.703 70.58H44.2969V79.9236H106.703V70.58ZM49.7068 76.6347C49.1088 76.6347 48.623 75.9713 48.623 75.1584C48.623 74.3455 49.1088 73.6821 49.7068 73.6821C50.3048 73.6821 50.7907 74.3361 50.7907 75.1584C50.7907 75.9806 50.3141 76.644 49.7162 76.644L49.7068 76.6347ZM58.3029 76.6347C57.7049 76.6347 57.219 75.9713 57.219 75.1584C57.219 74.3455 57.7049 73.6821 58.3029 73.6821C58.9009 73.6821 59.3587 74.3175 59.3587 75.1677C59.3587 76.018 58.9102 76.644 58.3122 76.644L58.3029 76.6347ZM66.899 76.6347C66.301 76.6347 65.8151 75.9713 65.8151 75.1584C65.8151 74.3455 66.301 73.6821 66.899 73.6821C67.497 73.6821 67.9829 74.3361 67.9829 75.1584C67.9829 75.9806 67.5063 76.644 66.9083 76.644L66.899 76.6347ZM75.4951 76.6347C74.8971 76.6347 74.4112 75.9713 74.4112 75.1584C74.4112 74.3455 74.8971 73.6821 75.4951 73.6821C76.0931 73.6821 76.579 74.3361 76.579 75.1584C76.579 75.9806 76.1024 76.644 75.5044 76.644L75.4951 76.6347ZM84.0912 76.6347C83.4932 76.6347 83.0073 75.9713 83.0073 75.1584C83.0073 74.3455 83.4932 73.6821 84.0912 73.6821C84.6892 73.6821 85.175 74.3361 85.175 75.1584C85.175 75.9806 84.6985 76.644 84.1005 76.644L84.0912 76.6347ZM92.6873 76.6347C92.0893 76.6347 91.6034 75.9713 91.6034 75.1584C91.6034 74.3455 92.0893 73.6821 92.6873 73.6821C93.2853 73.6821 93.7711 74.3361 93.7711 75.1584C93.7711 75.9806 93.2946 76.644 92.6966 76.644L92.6873 76.6347ZM101.283 76.6347C100.685 76.6347 100.2 75.9713 100.2 75.1584C100.2 74.3455 100.685 73.6821 101.283 73.6821C101.881 73.6821 102.339 74.3175 102.339 75.1677C102.339 76.018 101.891 76.644 101.293 76.644L101.283 76.6347Z" fill="#FFA425"/>
<path d="M115 39.9144L109.057 46.3521L110.749 50.2017L100.162 62.4324C100.036 62.5605 99.876 62.6495 99.7006 62.6887C99.5252 62.728 99.3422 62.7158 99.1736 62.6537C99.0049 62.5915 98.8578 62.4821 98.7498 62.3384C98.6418 62.1948 98.5775 62.023 98.5646 61.8438V42.6894L101.713 40.0359L100.994 30.9446L95.0141 37.9896L96.7333 41.6149L86.2124 58.639C86.1141 58.7746 85.9811 58.8813 85.8274 58.948C85.6737 59.0146 85.5049 59.0386 85.3387 59.0176C85.1724 58.9966 85.0149 58.9313 84.8826 58.8285C84.7503 58.7257 84.6481 58.5893 84.5866 58.4334L76.8688 34.682L79.457 31.6547L75.514 23.3015L71.5617 31.6547L74.1499 34.682L66.4227 58.4334C66.3602 58.5886 66.2572 58.7242 66.1245 58.8261C65.9917 58.9279 65.834 58.9922 65.6678 59.0123C65.5017 59.0323 65.3332 59.0074 65.18 58.9401C65.0268 58.8728 64.8945 58.7655 64.7969 58.6296L54.2574 41.6149L55.9859 38.0083L50.0154 30.9446L49.2959 40.0359L52.4447 42.6894V61.8438C52.4318 62.023 52.3675 62.1948 52.2595 62.3384C52.1515 62.4821 52.0044 62.5915 51.8358 62.6537C51.6671 62.7158 51.4842 62.728 51.3088 62.6887C51.1334 62.6495 50.973 62.5605 50.847 62.4324L40.298 50.2017L41.9425 46.3521L36 39.9144L39.4011 50.7903L44.2971 66.7772V68.7113H106.703V66.7679L111.599 50.781L115 39.9144ZM81.4285 60.8067C80.8025 63.1986 78.7282 65.4784 76.1681 65.6933C78.4853 64.9832 80.0176 62.4978 80.2138 60.1806C80.4381 57.4617 78.6067 53.1823 75.243 53.5C72.1503 53.7896 70.5713 57.4523 70.7862 60.1713C70.973 62.4885 72.5241 64.9926 74.8413 65.7027C73.748 65.5427 72.7166 65.0962 71.8518 64.4086C70.9869 63.721 70.3195 62.8168 69.9172 61.7877C69.3435 60.4195 69.169 58.9167 69.4137 57.4534C69.6584 55.99 70.3124 54.6258 71.3001 53.5187C72.2106 52.4288 73.512 51.7393 74.9251 51.5978C76.3382 51.4563 77.7505 51.8742 78.859 52.7618C80.0256 53.7058 80.8904 54.9705 81.347 56.3999C81.8035 57.8294 81.8319 59.3613 81.4285 60.8067Z" fill="#FFCD3E"/>
<path d="M75.4951 81.8297H44.2969V84.53H75.4951V81.8297Z" fill="#FFA425"/>
<path d="M75.5047 68.7113V53.4813H75.243C72.1503 53.7709 70.5713 57.4336 70.7862 60.1526C70.973 62.4698 72.5241 64.9739 74.8413 65.684C73.748 65.524 72.7166 65.0775 71.8518 64.3899C70.9869 63.7023 70.3195 62.7981 69.9172 61.769C69.3435 60.4008 69.169 58.898 69.4137 57.4347C69.6584 55.9713 70.3124 54.6072 71.3001 53.5C71.8283 52.9021 72.4745 52.4199 73.1981 52.0839C73.9217 51.7478 74.707 51.5651 75.5047 51.5472V23.3109L71.5523 31.664L74.1405 34.6913L66.4227 58.4334C66.3602 58.5886 66.2572 58.7242 66.1245 58.826C65.9917 58.9279 65.834 58.9922 65.6678 59.0122C65.5017 59.0323 65.3332 59.0074 65.18 58.94C65.0268 58.8727 64.8945 58.7655 64.7969 58.6296L54.2574 41.6149L55.9859 38.0083L50.0154 30.9445L49.2959 40.0359L52.4447 42.6894V61.8438C52.4318 62.023 52.3675 62.1948 52.2595 62.3384C52.1515 62.4821 52.0044 62.5915 51.8358 62.6536C51.6671 62.7158 51.4842 62.728 51.3088 62.6887C51.1334 62.6495 50.973 62.5605 50.847 62.4324L40.298 50.2017L41.9425 46.3521L36 39.9144L39.4011 50.7903L44.2971 66.7772V68.7113H75.5047Z" fill="#FFCB3C"/>
</svg>
