<svg width="1219" height="345" viewBox="0 0 1219 345" fill="none" xmlns="http://www.w3.org/2000/svg">
<rect y="0.314362" width="1219" height="344" rx="5" fill="url(#paint0_linear)"/>
<mask id="mask0" mask-type="alpha" maskUnits="userSpaceOnUse" x="0" y="0" width="1219" height="345">
<rect y="0.314362" width="1219" height="344" rx="5" fill="url(#paint1_linear)"/>
</mask>
<g mask="url(#mask0)">
<g opacity="0.1">
<path style="mix-blend-mode:screen" d="M596.341 288.683C598.7 284.598 558.434 256.929 506.404 226.884C454.374 196.839 410.283 175.793 407.924 179.878C405.565 183.963 445.831 211.632 497.861 241.677C549.891 271.723 593.982 292.768 596.341 288.683Z" fill="url(#paint2_radial)"/>
<g style="mix-blend-mode:screen">
<path style="mix-blend-mode:screen" d="M690.221 484.119C701.381 483.395 712.486 481.976 723.47 479.869C728.949 478.809 734.393 477.572 739.757 476.081C745.119 474.621 750.392 472.848 755.546 470.769C760.678 468.737 765.593 466.196 770.217 463.185C774.749 460.186 778.888 456.506 781.818 452.095C782.549 451 783.199 449.853 783.763 448.663C784.316 447.482 784.781 446.262 785.156 445.013C785.874 442.512 786.198 439.915 786.116 437.315C785.977 432.096 784.32 426.933 781.966 422.117C779.512 417.274 776.558 412.7 773.152 408.472C769.723 404.18 766.044 400.095 762.134 396.237C754.234 388.499 745.852 381.269 737.038 374.592C719.428 361.096 700.683 349.03 681.589 337.588C672.033 331.881 662.377 326.329 652.622 320.93C647.732 318.215 642.831 315.542 637.919 312.91L623.156 304.931L564.012 273.144L445.712 209.568L454.665 193.528L570.732 261.14L628.766 294.947L643.27 303.397C648.128 306.23 652.965 309.089 657.781 311.976C667.414 317.759 676.965 323.693 686.434 329.779C705.319 342.001 723.863 354.841 741.321 369.195C750.115 376.341 758.447 384.038 766.266 392.239C770.185 396.387 773.857 400.761 777.263 405.339C780.724 409.962 783.691 414.934 786.116 420.175C788.482 425.471 790.166 431.266 790.121 437.279C790.112 440.283 789.632 443.268 788.699 446.124C788.224 447.541 787.645 448.921 786.968 450.252C786.281 451.569 785.505 452.836 784.645 454.047C781.191 458.865 776.606 462.586 771.722 465.589C766.855 468.533 761.706 470.983 756.351 472.902C751.056 474.831 745.653 476.447 740.168 477.743C734.69 479.084 729.181 480.121 723.64 480.989C712.576 482.727 701.415 483.772 690.221 484.119Z" fill="url(#paint3_linear)"/>
</g>
<g style="mix-blend-mode:screen">
<path style="mix-blend-mode:screen" d="M677.825 479.674C685.486 479.908 693.249 479.762 700.955 479.355C708.662 478.948 716.346 478.206 723.958 477.023C731.576 475.926 739.079 474.146 746.378 471.704C749.999 470.463 753.502 468.898 756.843 467.03C760.171 465.207 763.168 462.836 765.708 460.018C766.944 458.608 767.99 457.042 768.817 455.36C769.632 453.679 770.197 451.888 770.494 450.044C771.011 446.311 770.663 442.508 769.477 438.93C768.299 435.299 766.69 431.821 764.683 428.574C762.674 425.301 760.451 422.165 758.028 419.186C753.135 413.242 747.829 407.65 742.148 402.454C739.336 399.846 736.411 397.293 733.474 394.786C730.537 392.278 727.539 389.839 724.502 387.467C712.377 377.898 699.709 368.992 686.806 360.437C673.904 351.882 660.772 343.736 647.482 335.814C634.192 327.893 620.763 320.229 607.253 312.656L566.808 289.833L404.965 198.72L323.961 153.338C296.944 138.234 269.9 123.18 242.829 108.174C269.961 123.06 297.038 138.058 324.063 153.168L405.164 198.394L567.22 289.107L607.716 311.818C621.218 319.368 634.711 326.979 648.007 334.902C661.304 342.825 674.497 350.952 687.431 359.467C700.366 367.981 713.067 376.868 725.251 386.453C728.304 388.843 731.303 391.304 734.275 393.786C737.248 396.267 740.146 398.87 743.009 401.469C748.759 406.7 754.132 412.331 759.089 418.319C761.558 421.345 763.824 424.533 765.871 427.86C767.941 431.201 769.604 434.777 770.825 438.512C772.074 442.303 772.437 446.33 771.884 450.283C771.571 452.265 770.97 454.19 770.1 455.998C769.224 457.79 768.118 459.46 766.81 460.966C764.17 463.92 761.052 466.408 757.584 468.324C754.17 470.242 750.591 471.849 746.889 473.126C739.497 475.624 731.894 477.448 724.174 478.576C716.497 479.791 708.763 480.535 701.018 480.98C693.273 481.426 685.515 481.58 677.745 481.359L677.825 479.674Z" fill="url(#paint4_linear)"/>
</g>
<g style="mix-blend-mode:screen">
<path style="mix-blend-mode:screen" d="M665.599 479.024C673.059 479.534 680.587 479.69 688.084 479.593C695.581 479.495 703.084 479.09 710.529 478.241C717.968 477.479 725.315 476.001 732.469 473.826C736.017 472.729 739.436 471.251 742.666 469.417C745.88 467.64 748.65 465.158 750.769 462.158C751.76 460.646 752.493 458.98 752.939 457.228C753.364 455.463 753.503 453.642 753.353 451.834C752.989 448.164 751.923 444.598 750.213 441.331C746.896 434.684 742.14 428.796 737.083 423.299C731.953 417.823 726.513 412.647 720.789 407.797C715.081 402.897 709.202 398.239 703.209 393.719C691.204 384.667 678.761 376.207 666.145 368.024C653.529 359.841 640.685 352.011 627.739 344.35C621.272 340.534 614.766 336.759 608.22 333.025L588.582 321.907L549.275 299.712L391.982 211.061L313.251 166.842C286.997 152.14 260.749 137.418 234.417 122.849C260.778 137.361 287.087 151.97 313.344 166.678L392.193 210.745L549.689 299.057L589.046 321.175L608.717 332.245C615.25 335.971 621.767 339.735 628.266 343.536C641.239 351.176 654.106 358.998 666.757 367.156C679.408 375.313 691.877 383.731 703.928 392.788C709.948 397.315 715.874 401.979 721.603 406.884C727.371 411.752 732.855 416.947 738.028 422.443C743.133 428.024 747.976 433.927 751.408 440.773C753.194 444.191 754.311 447.917 754.701 451.753C754.863 453.702 754.714 455.665 754.26 457.568C753.781 459.47 752.99 461.279 751.919 462.923C749.692 466.104 746.773 468.738 743.381 470.627C740.066 472.518 736.556 474.045 732.913 475.181C725.668 477.398 718.227 478.913 710.692 479.703C703.192 480.572 695.645 480.987 688.105 481.115C680.564 481.243 673.023 481.083 665.475 480.585L665.599 479.024Z" fill="url(#paint5_linear)"/>
</g>
<g style="mix-blend-mode:screen">
<path style="mix-blend-mode:screen" d="M679.815 476.991C687.552 477.175 695.27 476.961 703.012 476.501C710.754 476.04 718.432 475.24 726.061 473.998C733.695 472.834 741.208 470.984 748.509 468.469C752.138 467.204 755.644 465.61 758.983 463.707C762.32 461.85 765.319 459.441 767.851 456.582C769.084 455.153 770.126 453.57 770.952 451.873C771.758 450.176 772.312 448.371 772.599 446.514C773.097 442.763 772.726 438.947 771.515 435.361C770.313 431.74 768.681 428.276 766.654 425.043C764.635 421.795 762.402 418.685 759.971 415.732C755.036 409.826 749.688 404.277 743.966 399.128C741.116 396.531 738.197 394.008 735.246 391.525C732.296 389.042 729.289 386.636 726.236 384.273C714.035 374.775 701.349 365.99 688.416 357.547C675.484 349.103 662.288 341.039 648.957 333.218C635.626 325.398 622.144 317.854 608.592 310.36L567.987 287.845L405.462 197.912L324.157 153.081C297.031 138.201 269.898 123.242 242.733 108.507L246.975 100.747C274.048 115.851 301.033 131.039 327.929 146.312L408.715 192.113L570.124 283.98L610.46 306.978C623.907 314.626 637.364 322.346 650.617 330.377C663.871 338.408 677.011 346.627 689.904 355.242C702.798 363.858 715.441 372.856 727.571 382.538C730.611 384.953 733.589 387.437 736.553 389.951C739.516 392.466 742.41 395.031 745.239 397.706C750.963 402.983 756.306 408.659 761.226 414.692C763.68 417.733 765.928 420.935 767.955 424.275C769.995 427.63 771.627 431.217 772.816 434.959C774.041 438.752 774.38 442.775 773.808 446.719C773.478 448.69 772.864 450.602 771.985 452.396C771.096 454.171 769.98 455.824 768.666 457.313C766.021 460.227 762.903 462.675 759.445 464.553C756.032 466.44 752.456 468.016 748.76 469.26C741.389 471.702 733.812 473.474 726.122 474.555C718.456 475.703 710.736 476.394 703.006 476.787C695.275 477.18 687.549 477.266 679.815 476.991Z" fill="url(#paint6_linear)"/>
</g>
<g style="mix-blend-mode:screen">
<path style="mix-blend-mode:screen" d="M690.29 458.677C698.025 458.896 705.767 458.723 713.496 458.287C721.224 457.851 728.928 457.086 736.569 455.875C744.225 454.74 751.764 452.918 759.093 450.43C762.745 449.17 766.275 447.583 769.64 445.687C773.017 443.82 776.056 441.399 778.63 438.525C779.889 437.08 780.956 435.477 781.803 433.758C782.633 432.027 783.208 430.184 783.507 428.288C784.032 424.471 783.673 420.583 782.458 416.927C781.258 413.266 779.622 409.763 777.586 406.493C775.556 403.211 773.312 400.067 770.867 397.081C765.938 391.132 760.591 385.541 754.867 380.352C752.016 377.734 749.109 375.193 746.161 372.697C743.214 370.201 740.202 367.765 737.164 365.371C724.986 355.788 712.303 346.962 699.39 338.446C686.477 329.931 673.302 321.815 659.993 313.938C646.685 306.061 633.248 298.451 619.697 290.902L579.187 268.216L417.06 177.609L335.928 132.474C308.867 117.429 281.805 102.391 254.667 87.5286L256.024 85.0836C283.107 100.078 310.135 115.161 337.105 130.332L418.071 175.802L579.857 266.998L620.272 289.827C633.751 297.413 647.218 305.066 660.497 313.027C673.777 320.988 686.938 329.155 699.847 337.712C712.756 346.269 725.42 355.188 737.568 364.805C740.611 367.207 743.595 369.671 746.566 372.131C749.537 374.591 752.423 377.211 755.264 379.84C760.987 385.072 766.332 390.702 771.26 396.688C773.706 399.712 775.95 402.893 777.977 406.212C780.027 409.524 781.669 413.072 782.87 416.777C784.089 420.499 784.438 424.45 783.89 428.327C783.575 430.258 782.983 432.134 782.131 433.895C781.264 435.644 780.174 437.273 778.887 438.741C776.278 441.636 773.2 444.07 769.782 445.942C766.397 447.837 762.848 449.419 759.176 450.67C751.827 453.133 744.271 454.931 736.601 456.045C728.947 457.224 721.234 457.945 713.509 458.368C705.784 458.791 698.025 458.923 690.29 458.677Z" fill="url(#paint7_linear)"/>
</g>
<g style="mix-blend-mode:screen">
<path style="mix-blend-mode:screen" d="M682.268 441.051C690.004 441.27 697.746 441.098 705.467 440.66C713.189 440.222 720.9 439.459 728.541 438.248C736.196 437.114 743.734 435.293 751.063 432.81C754.715 431.546 758.245 429.956 761.612 428.06C764.987 426.191 768.026 423.77 770.601 420.898C771.857 419.451 772.921 417.848 773.768 416.129C774.601 414.399 775.177 412.557 775.479 410.661C776.003 406.844 775.644 402.957 774.43 399.3C773.228 395.64 771.592 392.137 769.558 388.866C767.526 385.586 765.282 382.442 762.839 379.454C757.903 373.508 752.555 367.917 746.833 362.723C743.988 360.107 741.074 357.564 738.127 355.068C735.179 352.572 732.174 350.138 729.129 347.742C716.951 338.159 704.275 329.335 691.36 320.826C678.445 312.317 665.274 304.188 651.959 296.309C638.643 288.43 625.213 280.822 611.668 273.275L571.175 250.579L409.052 159.988L327.92 114.824C300.858 99.8072 273.796 84.7689 246.658 69.9349L248.015 67.4899C275.103 82.4673 302.133 97.5413 329.104 112.712L410.069 158.182L571.848 249.376L612.277 272.209C625.767 279.805 639.224 287.469 652.482 295.403C665.741 303.338 678.916 311.53 691.825 320.087C704.734 328.644 717.404 337.571 729.551 347.188C732.589 349.582 735.58 352.047 738.549 354.514C741.518 356.981 744.4 359.593 747.249 362.217C752.971 367.45 758.316 373.08 763.245 379.065C765.689 382.088 767.93 385.269 769.955 388.587C772.003 391.9 773.645 395.447 774.848 399.152C776.064 402.874 776.413 406.825 775.868 410.702C775.554 412.633 774.961 414.509 774.11 416.27C773.24 418.018 772.148 419.647 770.859 421.114C768.254 424.011 765.177 426.446 761.76 428.317C758.373 430.209 754.821 431.791 751.148 433.043C743.812 435.51 736.269 437.314 728.61 438.435C720.957 439.614 713.243 440.335 705.519 440.758C697.794 441.181 690.023 441.304 682.268 441.051Z" fill="url(#paint8_linear)"/>
</g>
<g style="mix-blend-mode:screen">
<path style="mix-blend-mode:screen" d="M678.472 479.145C685.074 479.243 691.674 479.01 698.287 478.57C704.9 478.13 711.426 477.386 717.907 476.258C724.386 475.213 730.757 473.588 736.945 471.402C740.005 470.307 742.959 468.934 745.768 467.3C748.533 465.718 751.016 463.687 753.115 461.291C753.374 461.003 753.611 460.696 753.824 460.372L754.507 459.424C754.914 458.768 755.253 458.08 755.63 457.408C755.893 456.685 756.219 455.993 756.431 455.257L756.726 454.156C756.833 453.789 756.903 453.413 756.935 453.033C757.304 449.948 756.971 446.82 755.961 443.882C754.905 440.882 753.517 438.009 751.824 435.316C750.082 432.6 748.166 430 746.088 427.53C741.861 422.571 737.296 417.911 732.426 413.583C727.535 409.246 722.46 405.099 717.263 401.094C706.853 393.116 695.958 385.744 684.898 378.645C673.838 371.546 662.544 364.77 651.125 358.228C639.705 351.685 628.195 345.322 616.566 339.039L581.752 320.119L442.374 244.589L372.673 206.919C349.45 194.377 326.152 181.85 302.919 169.502L311.74 153.377C334.783 166.489 357.624 179.673 380.504 192.867L449.131 232.525L586.219 312.096L620.469 332.017C631.878 338.627 643.327 345.374 654.602 352.299C665.877 359.224 677.052 366.39 688.012 373.89C698.971 381.391 709.74 389.128 720.059 397.525C725.223 401.717 730.236 406.103 735.099 410.683C739.972 415.271 744.518 420.194 748.705 425.416C750.801 428.04 752.724 430.798 754.463 433.671C756.206 436.629 757.608 439.775 758.642 443.049C759.682 446.414 759.948 449.97 759.421 453.453C759.37 453.892 759.275 454.325 759.138 454.746L758.787 456.056C758.512 456.896 758.116 457.695 757.784 458.512C757.336 459.27 756.923 460.051 756.427 460.775L755.639 461.827C755.386 462.182 755.108 462.518 754.808 462.833C752.478 465.357 749.742 467.472 746.713 469.091C743.763 470.698 740.672 472.032 737.479 473.076C731.148 475.113 724.645 476.576 718.052 477.448C711.481 478.384 704.888 478.906 698.287 479.174C691.685 479.441 685.068 479.452 678.472 479.145Z" fill="url(#paint9_radial)"/>
</g>
<path d="M675.933 483.59C675.933 483.59 886.324 492.077 624.427 344.734C362.531 197.39 304.8 165.863 304.8 165.863" stroke="url(#paint10_radial)" stroke-width="4.89" stroke-miterlimit="10"/>
<path d="M690.975 484.552C690.975 484.552 918.129 474.373 648.589 323.297C379.05 172.22 319.572 140.028 319.572 140.028" stroke="url(#paint11_radial)" stroke-width="5.55" stroke-miterlimit="10"/>
<path style="mix-blend-mode:screen" d="M651.379 357.677C654.069 353.019 602.594 318.258 536.407 280.037C470.22 241.817 414.384 214.609 411.694 219.267C409.004 223.925 460.478 258.686 526.666 296.907C592.853 335.128 648.689 362.335 651.379 357.677Z" fill="url(#paint12_radial)"/>
<path style="mix-blend-mode:screen" d="M726.61 365.787C729.271 361.138 677.878 326.726 611.821 288.926C545.764 251.125 490.058 224.251 487.398 228.9C484.737 233.549 536.13 267.961 602.187 305.762C668.244 343.562 723.95 370.436 726.61 365.787Z" fill="url(#paint13_radial)"/>
<path style="mix-blend-mode:screen" d="M592.665 331.21C595.266 326.527 543.439 292.773 476.906 255.817C410.373 218.861 354.329 192.699 351.728 197.381C349.127 202.064 400.954 235.818 467.487 272.774C534.02 309.73 590.064 335.893 592.665 331.21Z" fill="url(#paint14_radial)"/>
<path style="mix-blend-mode:screen" d="M592.665 331.21C595.855 325.466 544.506 290.852 477.973 253.896C411.44 216.94 354.918 191.638 351.728 197.381C348.537 203.125 399.887 237.74 466.42 274.695C532.953 311.651 589.475 336.954 592.665 331.21Z" fill="url(#paint15_radial)"/>
<path style="mix-blend-mode:screen" d="M744.681 410.56C747.371 405.902 695.896 371.142 629.709 332.921C563.522 294.7 507.685 267.492 504.995 272.15C502.305 276.809 553.78 311.569 619.968 349.79C686.155 388.011 741.991 415.219 744.681 410.56Z" fill="url(#paint16_radial)"/>
<path style="mix-blend-mode:screen" d="M653.316 325.432C655.599 321.443 603.37 287.263 536.66 249.089C469.95 210.914 414.02 183.202 411.737 187.191C409.454 191.18 461.683 225.36 528.393 263.535C595.103 301.709 651.033 329.422 653.316 325.432Z" fill="url(#paint17_radial)"/>
<path style="mix-blend-mode:screen" d="M653.664 308.498C657.865 301.157 607.721 264.563 541.664 226.762C475.608 188.962 418.653 164.27 414.452 171.611C410.251 178.952 460.395 215.546 526.452 253.347C592.508 291.147 649.463 315.839 653.664 308.498Z" fill="url(#paint18_radial)"/>
<path style="mix-blend-mode:screen" d="M729.424 384.383C732.659 378.73 681.732 343.503 615.676 305.702C549.619 267.902 493.447 241.842 490.211 247.496C486.976 253.15 537.903 288.376 603.96 326.177C670.016 363.977 726.189 390.037 729.424 384.383Z" fill="url(#paint19_radial)"/>
</g>
</g>
<path d="M172 245.314V267.314H151V245.314H172ZM170.628 265.878V246.75H152.372V265.878H170.628Z" fill="#5310E7"/>
<path d="M455 34.3143H432V57.3143H455V34.3143Z" fill="#4F06E7"/>
<path d="M1049.64 223.525C1086.93 186.241 1086.93 125.792 1049.64 88.5083C1012.36 51.2245 951.909 51.2245 914.625 88.5083C877.341 125.792 877.341 186.241 914.625 223.525C951.909 260.809 1012.36 260.809 1049.64 223.525Z" fill="url(#paint20_linear)" fill-opacity="0.5"/>
<path d="M1017.74 212.654C1014.45 208.161 1009.25 205.563 1004.06 203.598C994.157 199.807 983.697 197.771 973.799 193.91C963.971 190.049 954.424 183.801 949.65 174.395C943.543 162.25 946.491 147.859 948.527 134.451C950.563 121.043 950.844 105.599 941.226 95.9812C934.979 89.7334 925.221 87.487 916.656 89.7334C914.901 90.2248 913.217 90.8566 911.672 91.6288C905.495 98.368 900.159 106.16 896.018 114.795C873.273 162.32 893.28 219.323 940.875 242.138C959.127 250.913 978.783 253.299 997.386 250.281C1003.21 248.385 1008.69 245.648 1013.11 241.436C1020.76 234.065 1023.99 221.218 1017.74 212.654Z" fill="url(#paint21_linear)" fill-opacity="0.2"/>
<path d="M978.267 230.004C987.847 226.87 993.073 216.563 989.939 206.982C986.805 197.402 976.498 192.176 966.918 195.31C957.338 198.444 952.112 208.751 955.246 218.331C958.38 227.912 968.687 233.137 978.267 230.004Z" fill="#E0E0E0"/>
<path d="M1046.54 201.089C1055.75 196.983 1059.88 186.19 1055.78 176.984C1051.67 167.778 1040.88 163.643 1031.67 167.75C1022.46 171.857 1018.33 182.649 1022.44 191.856C1026.54 201.062 1037.33 205.196 1046.54 201.089Z" fill="#8D4AE4"/>
<path d="M972.466 185.416C971.132 188.154 967.832 189.347 965.095 188.013C962.357 186.68 961.163 183.38 962.497 180.642C963.831 177.905 967.13 176.711 969.868 178.045C972.606 179.379 973.799 182.608 972.466 185.416Z" fill="#E0E0E0"/>
<path d="M927.818 185.276C926.625 187.733 923.747 188.715 921.29 187.592C918.833 186.399 917.85 183.521 918.973 181.064C920.167 178.607 923.045 177.624 925.502 178.747C927.959 179.94 928.942 182.889 927.818 185.276Z" fill="#E0E0E0"/>
<path d="M953.769 192.354C956.225 187.297 954.118 181.206 949.061 178.749C944.004 176.293 937.913 178.4 935.457 183.457C933 188.514 935.108 194.605 940.164 197.061C945.221 199.518 951.312 197.41 953.769 192.354Z" fill="#E0E0E0"/>
<path d="M978.267 230.004C987.847 226.87 993.073 216.563 989.939 206.982C986.805 197.402 976.498 192.176 966.918 195.31C957.338 198.444 952.112 208.751 955.246 218.331C958.38 227.912 968.687 233.137 978.267 230.004Z" fill="#E0E0E0"/>
<path d="M972.466 185.416C971.132 188.154 967.832 189.347 965.095 188.013C962.357 186.68 961.163 183.38 962.497 180.642C963.831 177.905 967.13 176.711 969.868 178.045C972.606 179.379 973.799 182.608 972.466 185.416Z" fill="#E0E0E0"/>
<path d="M927.818 185.276C926.625 187.733 923.747 188.715 921.29 187.592C918.833 186.399 917.85 183.521 918.973 181.064C920.167 178.607 923.045 177.624 925.502 178.747C927.959 179.94 928.942 182.889 927.818 185.276Z" fill="#E0E0E0"/>
<path d="M953.769 192.354C956.225 187.297 954.118 181.206 949.061 178.749C944.004 176.293 937.913 178.4 935.457 183.457C933 188.514 935.108 194.605 940.164 197.061C945.221 199.518 951.312 197.41 953.769 192.354Z" fill="#E0E0E0"/>
<path d="M974 294.314H1051C1051 294.314 1044.21 281.742 1024.37 283.562C1005.46 285.326 1004.48 277.386 994.867 276.393C985.248 275.456 977.206 282.955 974 294.314Z" fill="#8338E9"/>
<path d="M835 94.3144H886C886 94.3144 881.492 85.8955 868.361 87.1641C855.851 88.3173 855.175 83.0123 848.807 82.378C842.439 81.686 837.141 86.7028 835 94.3144Z" fill="white" fill-opacity="0.1"/>
<path d="M884 61.3144H948C948 61.3144 942.347 50.8269 925.868 52.3391C910.156 53.8024 909.341 47.1685 901.341 46.3881C893.293 45.5588 886.635 51.8025 884 61.3144Z" fill="#792BE2"/>
<path d="M1058 272.314H1111C1111 272.314 1106.31 263.889 1092.67 265.159C1079.67 266.313 1078.97 261.004 1072.35 260.369C1065.73 259.734 1060.17 264.697 1058 272.314Z" fill="#8338E9"/>
<path d="M1049.19 56.7394L1049.55 57.5818C1050.18 59.1262 1051.37 60.3196 1052.91 60.9514L1053.9 61.3024L1052.98 61.6534C1051.44 62.2852 1050.18 63.5488 1049.55 65.0932L1049.26 65.725L1048.91 64.9528C1048.21 63.4786 1046.95 62.3554 1045.47 61.7938L1044.63 61.513L1045.68 61.0216C1047.02 60.3898 1048.14 59.1964 1048.7 57.8626L1049.19 56.7394Z" fill="#DEA2FF"/>
<path d="M1064.64 248.034L1064.85 248.456C1065.2 249.228 1065.76 249.789 1066.53 250.14L1067.02 250.351L1066.6 250.562C1065.83 250.842 1065.2 251.474 1064.92 252.246L1064.78 252.597L1064.57 252.176C1064.22 251.474 1063.59 250.913 1062.81 250.632L1062.39 250.491L1062.95 250.211C1063.66 249.86 1064.15 249.298 1064.43 248.596L1064.64 248.034Z" fill="white"/>
<path d="M859.724 249.228L859.935 249.649C860.286 250.421 860.847 250.983 861.62 251.334L862.111 251.544L861.69 251.755C860.918 252.036 860.286 252.668 860.005 253.44L859.865 253.791L859.654 253.37C859.303 252.668 858.671 252.106 857.899 251.825L857.478 251.685L858.039 251.404C858.741 251.053 859.233 250.491 859.514 249.789L859.724 249.228Z" fill="#E8505B"/>
<path d="M865.563 131.314L865.914 132.157C866.546 133.701 867.739 134.895 869.284 135.526L870.266 135.877L869.354 136.228C867.809 136.86 866.546 138.124 865.914 139.668L865.633 140.3L865.282 139.528C864.58 138.054 863.317 136.93 861.842 136.369L861 136.088L862.053 135.597C863.387 134.965 864.51 133.771 865.072 132.438L865.563 131.314Z" fill="#E2BBBB"/>
<path d="M1085.35 232.661L1085.7 233.503C1086.33 235.047 1087.52 236.241 1089.07 236.873L1090.05 237.224L1089.14 237.575C1087.59 238.206 1086.33 239.47 1085.7 241.014L1085.42 241.646L1085.07 240.874C1084.36 239.4 1083.1 238.277 1081.63 237.715L1080.78 237.434L1081.84 236.943C1083.17 236.311 1084.29 235.118 1084.86 233.784L1085.35 232.661Z" fill="#FBACE0"/>
<path d="M930.346 126.378C930.416 126.448 917.78 135.012 902.195 145.472C886.541 155.932 873.835 164.356 873.835 164.286C873.764 164.216 886.4 155.651 901.985 145.191C917.569 134.732 930.275 126.308 930.346 126.378Z" fill="#D4A5FF"/>
<path d="M934.487 272.538C934.558 272.609 921.922 281.173 906.337 291.633C890.683 302.093 877.976 310.517 877.976 310.446C877.906 310.376 890.542 301.812 906.127 291.352C921.781 280.892 934.487 272.468 934.487 272.538Z" fill="#D4A5FF"/>
<path d="M947.545 99.3508C947.615 99.421 940.314 104.897 931.188 111.636C922.132 118.305 914.691 123.71 914.621 123.64C914.551 123.57 921.851 118.094 930.977 111.355C940.033 104.616 947.474 99.2806 947.545 99.3508Z" fill="#D4A5FF"/>
<path d="M963.971 265.378C964.041 265.448 956.741 270.924 947.615 277.663C938.559 284.332 931.118 289.737 931.047 289.667C930.977 289.597 938.278 284.121 947.404 277.382C956.53 270.643 963.901 265.238 963.971 265.378Z" fill="#D4A5FF"/>
<path d="M1083.45 135.644C1083.52 135.714 1076.22 141.19 1067.1 147.929C1058.04 154.598 1050.6 160.004 1050.53 159.933C1050.46 159.863 1057.76 154.388 1066.88 147.648C1075.94 140.909 1083.38 135.574 1083.45 135.644Z" fill="#D4A5FF"/>
<path d="M1101.35 103.633C1101.42 103.703 1094.12 109.179 1085 115.918C1075.94 122.587 1068.5 127.992 1068.43 127.922C1068.36 127.852 1075.66 122.376 1084.79 115.637C1093.91 108.968 1101.28 103.563 1101.35 103.633Z" fill="#D4A5FF"/>
<path d="M1010.44 136.908C1010.44 136.908 1015.08 174.465 993.736 201.141C972.395 227.817 916.165 257.722 910.76 258.494C910.76 258.494 927.046 245.016 907.32 238.768C887.594 232.52 879.24 224.517 879.31 216.866C879.451 209.284 898.405 190.751 889.349 181.906C880.363 173.061 866.674 170.393 860.356 160.074C860.356 160.074 881.135 169.972 897.071 168.428C913.006 166.883 971.764 151.369 983.838 131.011" fill="#E8505B"/>
<path d="M911.532 214.76C911.532 214.76 911.672 214.689 911.883 214.549C912.164 214.409 912.445 214.268 912.866 214.058C913.778 213.636 914.972 213.075 916.446 212.373C919.465 210.899 923.606 208.863 928.029 206.336C932.452 203.808 936.383 201.351 939.191 199.526C940.525 198.614 941.648 197.912 942.49 197.35C942.841 197.139 943.122 196.929 943.403 196.788C943.613 196.648 943.754 196.578 943.754 196.578C943.754 196.578 943.684 196.648 943.473 196.859C943.262 196.999 942.982 197.28 942.631 197.49C941.858 198.052 940.805 198.824 939.401 199.807C936.664 201.702 932.732 204.23 928.31 206.687C923.887 209.214 919.745 211.25 916.657 212.654C915.112 213.356 913.919 213.917 913.006 214.268C912.585 214.409 912.304 214.549 912.023 214.689C911.672 214.689 911.532 214.76 911.532 214.76Z" fill="#263238"/>
<path d="M885.558 209.775C885.558 209.775 885.628 209.775 885.698 209.775C885.839 209.775 885.979 209.775 886.19 209.705C886.611 209.705 887.243 209.635 888.015 209.565C888.787 209.495 889.84 209.495 890.963 209.354C892.087 209.214 893.42 209.144 894.824 208.933C895.526 208.863 896.299 208.722 897.071 208.652C897.843 208.582 898.685 208.442 899.528 208.301C901.213 208.091 902.968 207.669 904.863 207.318C908.584 206.546 912.655 205.493 916.867 204.23C921.079 202.896 924.94 201.351 928.45 199.877C930.205 199.105 931.82 198.333 933.364 197.561C934.136 197.21 934.838 196.859 935.54 196.437C936.242 196.086 936.874 195.735 937.506 195.384C938.77 194.753 939.893 194.051 940.876 193.489C941.858 192.927 942.701 192.436 943.403 191.945C944.035 191.523 944.596 191.243 945.017 190.962C945.158 190.892 945.298 190.751 945.439 190.681C945.509 190.611 945.579 190.611 945.579 190.611C945.579 190.611 945.509 190.681 945.439 190.681C945.298 190.751 945.228 190.821 945.017 190.962C944.666 191.243 944.105 191.594 943.473 192.015C942.771 192.436 941.999 192.998 941.016 193.559C940.033 194.121 938.91 194.823 937.646 195.525C937.015 195.876 936.383 196.227 935.681 196.648C934.979 196.999 934.277 197.35 933.505 197.771C932.03 198.543 930.346 199.316 928.591 200.088C925.081 201.632 921.149 203.177 916.937 204.51C912.725 205.844 908.654 206.827 904.933 207.599C903.038 207.95 901.283 208.301 899.598 208.512C898.756 208.652 897.913 208.793 897.141 208.863C896.369 208.933 895.597 209.003 894.895 209.144C893.491 209.354 892.157 209.354 891.034 209.495C889.91 209.565 888.928 209.635 888.085 209.635C887.313 209.635 886.681 209.705 886.26 209.705C886.049 209.705 885.909 209.705 885.769 209.705C885.628 209.775 885.558 209.775 885.558 209.775Z" fill="#263238"/>
<path d="M888.928 175.448C888.928 175.448 889.138 175.448 889.489 175.448C889.91 175.448 890.402 175.518 891.034 175.518C891.736 175.588 892.508 175.588 893.491 175.588C894.473 175.588 895.526 175.658 896.79 175.658C899.247 175.728 902.125 175.658 905.284 175.518C908.513 175.377 912.023 175.097 915.674 174.675C919.324 174.254 922.834 173.622 925.993 173.061C929.152 172.429 931.96 171.797 934.277 171.165C935.47 170.885 936.523 170.534 937.436 170.323C938.348 170.042 939.191 169.832 939.823 169.621C940.454 169.41 940.946 169.27 941.297 169.2C941.648 169.13 941.858 169.059 941.858 169.059C941.858 169.059 941.718 169.13 941.367 169.27C941.016 169.41 940.525 169.551 939.893 169.761C939.261 169.972 938.489 170.253 937.506 170.534C936.593 170.814 935.54 171.165 934.347 171.446C932.03 172.078 929.222 172.78 926.063 173.412C922.904 174.044 919.394 174.605 915.744 175.097C912.094 175.518 908.513 175.799 905.354 175.939C902.125 176.079 899.247 176.079 896.79 176.009C895.597 176.009 894.473 175.939 893.491 175.869C892.508 175.799 891.665 175.799 891.034 175.728C890.402 175.658 889.84 175.658 889.489 175.588C889.138 175.448 888.928 175.448 888.928 175.448Z" fill="#263238"/>
<g opacity="0.4">
<path opacity="0.4" d="M974.712 139.856C959.268 160.635 934.417 177.273 908.513 177.694C904.231 177.764 899.458 177.694 896.088 180.362C893.631 182.257 895.526 189.066 892.859 194.753C889.489 201.843 889.489 202.475 884.575 208.933C882.188 212.092 880.223 216.093 881.206 219.884C882.399 224.377 886.751 227.185 890.753 229.572C898.264 234.065 905.776 238.557 913.357 243.05C916.306 244.805 919.324 246.63 922.764 246.841C927.116 247.192 931.188 244.946 934.909 242.699C969.236 221.85 996.544 189.558 1011.43 152.282" fill="black"/>
</g>
<path d="M1059.58 96.5428C1059.58 96.5428 1060.71 90.1546 1061.27 89.593L1071.87 91.8394C1071.87 91.8394 1067.87 99.772 1067.8 100.053L1059.58 96.5428Z" fill="#FFBE9D"/>
<path d="M1071.73 92.5414C1071.73 92.5414 1071.73 92.6116 1071.66 92.752C1071.31 93.7348 1069.2 97.5958 1068.64 97.5256C1068.01 97.4554 1066.81 96.4023 1067.02 95.8407C1067.24 95.2792 1069.83 90.997 1069.83 90.997C1069.83 90.997 1070.32 90.3652 1071.52 90.7864C1072.29 91.0672 1071.73 92.5414 1071.73 92.5414Z" fill="#FFBE9D"/>
<path d="M1070.11 89.8738C1070.11 89.8738 1070.11 89.944 1070.04 90.0844C1069.69 91.0672 1067.59 94.9282 1067.02 94.858C1066.39 94.7878 1065.2 93.7347 1065.41 93.1731C1065.62 92.6115 1068.22 88.3294 1068.22 88.3294C1068.22 88.3294 1068.71 87.6976 1069.9 88.1188C1070.68 88.4698 1070.11 89.8738 1070.11 89.8738Z" fill="#FFBE9D"/>
<path d="M1068.22 87.9784C1068.22 87.9784 1068.22 88.0486 1068.15 88.189C1067.8 89.1718 1065.69 93.0328 1065.13 92.9626C1064.5 92.8924 1063.3 91.8394 1063.51 91.2778C1063.73 90.7162 1066.32 86.434 1066.32 86.434C1066.32 86.434 1066.81 85.8022 1068.01 86.2234C1068.78 86.5744 1068.22 87.9784 1068.22 87.9784Z" fill="#FFBE9D"/>
<path d="M1066.25 86.1532C1066.25 86.1532 1066.25 86.2234 1066.18 86.3638C1065.83 87.3466 1063.73 91.2076 1063.16 91.1374C1062.53 91.0672 1061.34 90.0142 1061.55 89.4526C1061.76 88.891 1064.36 84.6088 1064.36 84.6088C1064.36 84.6088 1064.85 83.977 1066.04 84.3982C1066.81 84.679 1066.25 86.1532 1066.25 86.1532Z" fill="#FFBE9D"/>
<path d="M1067.59 94.7176C1067.66 94.7176 1068.22 93.9454 1068.78 92.8924C1069.34 91.8394 1069.76 90.997 1069.69 90.997C1069.62 90.997 1069.06 91.7692 1068.5 92.8222C1067.94 93.805 1067.52 94.6474 1067.59 94.7176Z" fill="#EB996E"/>
<path d="M1065.27 93.5241C1065.34 93.5943 1066.04 92.401 1066.88 90.9268C1067.73 89.4526 1068.36 88.2592 1068.29 88.189C1068.22 88.1188 1067.52 89.3122 1066.67 90.7864C1065.83 92.2606 1065.2 93.4539 1065.27 93.5241Z" fill="#EB996E"/>
<g opacity="0.78">
<path opacity="0.78" d="M1063.02 92.05C1063.09 92.1202 1063.8 90.9268 1064.64 89.4526C1065.48 87.9784 1066.11 86.7849 1066.04 86.7147C1065.97 86.6445 1065.27 87.8379 1064.43 89.3122C1063.59 90.7864 1062.95 92.05 1063.02 92.05Z" fill="#EB996E"/>
</g>
<path d="M1060.78 97.5958L1060.22 94.0156C1059.93 92.401 1060.36 90.7864 1061.27 89.5228L1061.97 88.54L1069.48 92.8924C1069.48 92.8924 1067.38 95.2792 1065.55 93.6646L1066.74 96.8236L1060.78 97.5958Z" fill="#FFBE9D"/>
<path d="M1065.97 97.0342C1065.9 97.0342 1066.04 96.613 1065.97 95.911C1065.9 95.209 1065.62 94.156 1064.71 93.3838L1064.08 92.8222L1064.85 93.103C1065.48 93.3136 1066.11 93.5944 1066.81 93.8752H1066.74C1067.59 94.0156 1068.64 93.8752 1069.2 93.0328C1069.27 92.9626 1069.27 92.8924 1069.34 92.8222L1069.41 93.0328C1067.24 91.8394 1065.27 90.7864 1063.94 89.944C1063.23 89.5228 1062.74 89.1718 1062.32 88.891C1061.97 88.6102 1061.76 88.4698 1061.76 88.4698C1061.76 88.3996 1062.6 88.9612 1064.01 89.7334C1065.41 90.5056 1067.38 91.5586 1069.55 92.752L1069.69 92.8222L1069.62 92.9626C1069.55 93.0328 1069.55 93.103 1069.48 93.1732C1069.13 93.6646 1068.71 93.9454 1068.15 94.0858C1067.66 94.2262 1067.17 94.2262 1066.67 94.156C1065.97 93.8752 1065.34 93.5944 1064.71 93.3136L1064.85 93.0328C1065.76 93.9454 1066.04 95.0686 1066.04 95.7706C1066.04 96.1216 1065.97 96.4024 1065.97 96.613C1066.04 96.964 1066.04 97.1044 1065.97 97.0342Z" fill="#EB996E"/>
<path d="M1068.22 94.0156C1068.29 94.0156 1068.08 94.4368 1068.29 94.9984C1068.36 95.2792 1068.64 95.56 1068.92 95.4898C1069.27 95.4898 1069.62 95.209 1069.9 94.858C1070.46 94.0858 1071.03 93.3838 1071.31 92.8924C1071.66 92.401 1071.8 92.05 1071.87 92.05C1071.94 92.05 1071.8 92.4712 1071.52 93.0328C1071.24 93.5944 1070.75 94.2964 1070.18 95.0686C1069.9 95.4898 1069.48 95.8408 1068.92 95.8408C1068.64 95.8408 1068.43 95.7004 1068.29 95.56C1068.15 95.4196 1068.08 95.209 1068.01 95.0686C1067.94 94.7176 1068.01 94.4368 1068.08 94.2964C1068.08 94.0858 1068.15 94.0156 1068.22 94.0156Z" fill="#EB996E"/>
<path d="M997.808 109.319C997.878 109.811 997.667 110.302 997.246 110.583C996.825 110.864 996.263 110.864 995.842 110.583C995.07 110.091 995.07 108.898 995.351 108.056C995.632 107.143 995.983 106.23 995.702 105.318C995.491 104.616 994.859 104.195 994.438 103.633C993.666 102.65 993.315 101.316 993.666 100.123C994.017 98.9296 995 97.9468 996.263 97.7362C997.527 97.5256 999.001 98.017 999.984 97.2448C1000.69 96.6832 1000.83 95.6302 1001.46 94.9282C1002.37 93.805 1004.06 93.805 1005.46 94.156C1006.86 94.507 1008.76 96.8236 1010.16 96.613C1011.36 96.4726 1011.85 94.0156 1012.97 93.5944C1015.43 92.752 1018.38 93.6646 1019.92 95.7004C1021.54 97.7362 1021.61 100.825 1020.2 103.001C1019.71 103.773 1018.94 104.475 1018.1 104.686" fill="#263238"/>
<path d="M995.491 133.538L1008.97 134.521C1009.32 132.977 1010.09 126.939 1010.09 126.939C1010.09 126.939 1015.78 126.939 1016.69 121.394C1017.6 115.848 1018.66 103.001 1018.66 103.001C1012.69 99.2805 1005.11 99.07 998.931 102.44L998.018 102.931L995.491 133.538Z" fill="#FFBE9D"/>
<path d="M1010.16 126.869C1010.16 126.869 1006.65 126.588 1003.28 123.71C1003.28 123.71 1004.41 127.992 1009.95 128.343L1010.16 126.869Z" fill="#EB996E"/>
<path d="M1018.59 104.475C1018.59 104.475 1015.08 105.879 1010.79 103.282C1007.99 101.597 1004.69 100.614 1003.92 101.176C1003.14 101.667 1002.72 104.686 999.773 105.318C999.773 105.318 999.493 111.004 997.246 110.653C995 110.302 997.106 101.527 997.106 101.527L1002.86 99.2806L1009.04 98.6488L1014.73 99.9124L1019.08 101.457L1018.59 104.475Z" fill="#263238"/>
<path d="M997.808 108.828C997.738 108.758 994.157 107.143 993.736 110.934C993.245 114.725 997.176 114.444 997.176 114.303C997.246 114.163 997.808 108.828 997.808 108.828Z" fill="#FFBE9D"/>
<path d="M996.193 112.689C996.193 112.689 996.123 112.759 995.983 112.759C995.842 112.829 995.702 112.829 995.491 112.689C995.14 112.478 994.859 111.846 994.93 111.144C994.93 110.793 995.07 110.442 995.21 110.232C995.351 109.951 995.561 109.811 995.772 109.811C995.983 109.811 996.123 109.951 996.123 110.021C996.193 110.162 996.123 110.232 996.123 110.232C996.123 110.232 996.193 110.162 996.193 110.021C996.193 109.951 996.123 109.881 996.053 109.74C995.983 109.67 995.842 109.6 995.702 109.6C995.421 109.6 995.14 109.811 994.93 110.091C994.719 110.372 994.579 110.723 994.579 111.144C994.508 111.917 994.789 112.689 995.351 112.899C995.632 112.97 995.842 112.97 995.983 112.899C996.193 112.829 996.263 112.759 996.193 112.689Z" fill="#EB996E"/>
<path d="M981.592 190.26L963.199 178.536C955.898 190.541 960.532 202.124 960.602 216.866L960.461 226.974L911.181 232.169L911.743 245.928L970.781 245.086C977.38 244.735 982.504 239.33 982.434 232.731C982.364 216.023 983.417 191.804 983.698 192.998" fill="#2C55E7"/>
<path d="M996.334 126.237C996.334 126.237 991.49 122.727 985.242 126.659C978.994 130.59 962.427 161.057 962.427 161.057L949.721 171.797L982.574 194.963C982.574 194.963 1008.55 162.461 1010.65 157.476L1012.41 134.1L996.334 126.237Z" fill="#FF4421"/>
<path d="M1011.92 134.17L1036.49 119.358L1059.37 95.6302L1067.8 100.053L1043.93 134.661L1010.16 157.547L1011.92 134.17Z" fill="#FF4421"/>
<path d="M908.303 231.186L941.858 228.659L941.648 239.681L953.792 246.981L913.076 245.367C913.076 245.367 909.988 256.95 909.215 255.195C908.513 253.44 908.303 231.186 908.303 231.186Z" fill="#003865"/>
<path d="M947.825 171.587C947.825 171.587 959.689 175.588 964.042 182.397C965.446 184.644 965.726 187.452 964.884 189.979L961.795 197.49C961.795 197.49 975.905 189.417 983.627 194.823L986.786 189.558L953.371 167.024C953.371 167.094 949.44 168.849 947.825 171.587Z" fill="#2C55E7"/>
<path d="M948.176 170.744L918.412 225.641L879.661 254.844L885.979 266.708L922.553 245.928C929.082 242.98 935.54 238.206 939.542 232.239L948.247 219.252L963.831 193.559C967.622 187.662 965.797 182.046 959.97 178.045L948.176 170.744Z" fill="#2C55E7"/>
<path d="M872.36 258.986L898.685 238.908L904.372 246.209L920.518 247.613L884.575 267.69C884.575 267.69 888.928 278.922 887.243 277.869C885.558 276.887 872.36 258.986 872.36 258.986Z" fill="#003865"/>
<path d="M1007.64 95.4196C1008.62 95.911 1010.65 95.9811 1011.5 95.1388C1012.06 94.6474 1012.13 93.454 1011.78 92.8222C1011.5 92.401 1011.01 92.1904 1011.01 91.6288C1011.01 91.2076 1011.57 90.9268 1011.85 90.7162C1012.2 90.5056 1012.55 90.4354 1012.97 90.3652C1014.94 90.0142 1017.04 90.4354 1018.73 91.4884C1020.41 92.5414 1021.68 94.3665 1021.96 96.3321C1022.24 98.2977 1021.89 101.316 1020.34 102.65C1018.87 103.984 1016.34 103.633 1014.45 102.931" fill="#263238"/>
<path d="M1014.38 90.3652C1013.81 90.2248 1013.18 90.1546 1012.55 90.2248C1011.92 90.295 1011.36 90.5758 1011.01 91.0672C1010.72 91.4182 1010.51 91.8394 1010.23 92.1904C1009.95 92.4712 1009.53 92.6818 1009.11 92.6818C1008.69 92.6116 1008.27 92.3308 1008.27 91.9096C1008.2 91.4884 1008.55 91.0672 1008.97 91.0672C1009.04 91.0672 1009.11 91.0672 1009.18 91.0672C1009.25 91.0672 1009.32 90.997 1009.25 90.9268C1009.25 90.8566 1009.18 90.8566 1009.11 90.8566C1008.48 90.8566 1007.92 91.2076 1007.71 91.8394C1007.5 92.401 1007.64 93.103 1008.06 93.5242C1008.48 94.0156 1009.11 94.2262 1009.67 94.156C1010.3 94.0858 1010.87 93.805 1011.22 93.3136C1011.5 92.9626 1011.71 92.5414 1012.06 92.1904C1012.41 91.9096 1012.97 91.7692 1013.39 91.8394C1013.88 91.9096 1014.3 92.1904 1014.59 92.6116C1014.73 92.752 1014.87 92.9626 1015.08 92.9626" fill="#263238"/>
<path d="M1050.67 104.616L1053.13 116.62L1058.6 113.391L1067.8 100.053L1059.37 95.6302L1050.67 104.616Z" fill="#FF6B49"/>
<path d="M1007.14 152.773L990.928 159.933L993.104 143.436L1007.14 152.773Z" fill="#FFCB36"/>
<path d="M1008.48 91.348C1008.48 91.348 1008.41 91.348 1008.27 91.4884C1008.13 91.6288 1007.99 91.8394 1008.06 92.1904C1008.13 92.5414 1008.48 92.8221 1008.97 92.8221C1009.46 92.8221 1009.95 92.6116 1010.51 92.2606C1011.01 91.9096 1011.57 91.4884 1012.13 90.997C1012.69 90.5758 1013.46 90.0844 1014.38 90.1546C1015.29 90.1546 1016.13 90.7162 1016.76 91.348C1017.39 92.05 1017.89 92.8923 1018.17 93.8751C1018.73 95.7705 1018.45 97.8064 1017.6 99.2806C1016.76 100.825 1015.5 101.738 1014.3 102.299C1013.11 102.791 1012.06 102.931 1011.36 102.931C1011.01 102.931 1010.72 102.861 1010.51 102.861C1010.3 102.861 1010.23 102.791 1010.23 102.791C1010.23 102.72 1010.65 102.791 1011.36 102.791C1012.06 102.791 1013.04 102.65 1014.23 102.089C1015.36 101.527 1016.55 100.614 1017.32 99.1401C1018.1 97.7361 1018.38 95.7706 1017.81 94.0156C1017.53 93.103 1017.11 92.2606 1016.55 91.6288C1015.99 90.997 1015.22 90.5056 1014.38 90.5056C1013.6 90.5056 1012.9 90.8566 1012.27 91.2778C1011.71 91.699 1011.15 92.1904 1010.58 92.4712C1010.02 92.8221 1009.46 93.0328 1008.9 92.9626C1008.34 92.9626 1007.92 92.5414 1007.85 92.1904C1007.78 91.8394 1007.99 91.4884 1008.13 91.4182C1008.34 91.348 1008.48 91.348 1008.48 91.348Z" fill="#263238"/>
<path d="M1018.59 99.421C1018.66 99.421 1018.52 99.9123 1018.17 100.544C1017.81 101.176 1017.11 102.018 1016.2 102.72C1015.22 103.422 1014.23 103.773 1013.53 103.914C1012.76 104.054 1012.34 103.984 1012.34 103.984C1012.34 103.844 1014.23 103.773 1016.06 102.44C1017.74 101.106 1018.45 99.3508 1018.59 99.421Z" fill="#263238"/>
<path d="M955.337 168.217L955.126 166.181C955.196 166.111 955.196 166.041 955.196 166.041H955.126L954.494 143.507L976.607 139.997L992.402 124.833C992.402 124.833 985.312 122.166 980.89 122.798C965.446 124.974 943.543 131.643 942.631 133.959C941.367 137.329 943.754 157.196 944.245 163.373C944.456 166.251 943.754 168.357 944.035 169.761C943.543 169.41 941.507 167.866 940.384 167.234C939.121 166.602 941.367 170.604 941.999 171.516C942.209 171.867 943.333 172.008 944.596 172.078C944.666 172.289 944.596 172.078 944.596 172.078H945.368C947.194 172.078 949.089 171.867 949.651 171.797C950.072 171.727 951.195 170.604 952.318 169.34L955.337 168.217Z" fill="#FF4421"/>
<path d="M955.056 162.11L944.315 163.443L944.035 169.481L944.105 169.761C943.613 169.41 941.578 167.866 940.454 167.234C939.191 166.602 941.437 170.604 942.069 171.516C942.28 171.867 943.403 172.008 944.666 172.078C944.737 172.289 944.666 172.078 944.666 172.078H945.439C947.264 172.078 949.159 171.867 949.721 171.797C950.142 171.727 951.265 170.604 952.388 169.34L955.407 168.147L955.056 162.11Z" fill="#FFBE9D"/>
<path d="M944.315 163.443L955.056 162.11L954.635 149.263L949.229 141.892L943.122 151.369L944.315 163.443Z" fill="#FF6B49"/>
<path d="M954.284 209.214C954.214 209.214 954.775 208.371 955.547 207.108C956.46 205.704 957.583 204.019 958.777 202.053C960.04 200.088 961.234 198.333 962.076 197.069C962.918 195.806 963.48 195.033 963.55 195.033C963.62 195.033 963.129 195.876 962.287 197.21C961.514 198.543 960.391 200.298 959.057 202.264C957.794 204.23 956.6 205.985 955.688 207.248C955.267 207.88 954.845 208.371 954.635 208.722C954.424 209.073 954.284 209.214 954.284 209.214Z" fill="#263238"/>
<path d="M964.533 233.222C964.533 233.292 962.918 232.38 961.655 230.555C960.391 228.729 960.11 226.904 960.181 226.904C960.321 226.904 960.742 228.589 961.936 230.344C963.199 232.169 964.603 233.152 964.533 233.222Z" fill="#263238"/>
<path d="M1014.23 145.964C1014.23 145.964 1014.23 146.104 1014.23 146.385C1014.23 146.666 1014.23 147.087 1014.16 147.648C1014.02 148.772 1013.74 150.316 1013.11 152.211C1012.48 154.107 1011.5 156.213 1010.16 158.459C1008.83 160.706 1007.21 163.022 1005.39 165.479C1001.74 170.253 998.369 174.535 995.912 177.624C994.719 179.168 993.736 180.362 993.034 181.274C992.683 181.695 992.402 181.976 992.262 182.257C992.051 182.468 991.981 182.608 991.981 182.608C991.981 182.608 992.051 182.468 992.192 182.257C992.402 181.976 992.613 181.625 992.964 181.204C993.666 180.291 994.579 179.028 995.772 177.483C998.229 174.324 1001.53 170.042 1005.18 165.339C1007 162.952 1008.69 160.635 1009.95 158.389C1011.29 156.143 1012.27 154.037 1012.97 152.211C1013.6 150.386 1013.95 148.842 1014.16 147.719C1014.23 147.157 1014.3 146.736 1014.3 146.455C1014.23 146.104 1014.23 145.964 1014.23 145.964Z" fill="#263238"/>
<path d="M982.294 151.931C982.223 152.001 981.311 150.456 980.328 148.561C979.345 146.666 978.573 145.051 978.713 145.051C978.784 144.981 979.696 146.525 980.679 148.421C981.662 150.316 982.434 151.86 982.294 151.931Z" fill="#263238"/>
<path d="M1005.95 162.039C1005.95 162.11 1004.41 162.11 1002.44 161.899C1000.55 161.759 999.001 161.548 999.001 161.408C999.001 161.337 1000.55 161.337 1002.51 161.548C1004.48 161.759 1006.02 161.969 1005.95 162.039Z" fill="#263238"/>
<path d="M984.47 123.851C984.47 123.851 984.54 123.851 984.68 123.921C984.821 123.991 985.031 124.131 985.242 124.342C985.663 124.763 986.084 125.535 986.155 126.588C986.295 128.624 985.804 131.502 984.119 134.17C982.434 136.838 979.977 138.522 978.152 139.295C977.239 139.716 976.397 139.926 975.835 140.067C975.274 140.207 974.993 140.207 974.993 140.207C974.993 140.137 976.256 139.926 978.082 139.084C979.907 138.242 982.223 136.627 983.838 133.959C985.453 131.362 986.014 128.554 985.944 126.588C985.874 125.606 985.523 124.833 985.172 124.412C984.751 123.991 984.47 123.851 984.47 123.851Z" fill="#263238"/>
<path d="M986.786 189.628L988.541 187.382L957.583 165.198L952.318 169.41L986.786 189.628Z" fill="#2C55E7"/>
<g opacity="0.4">
<path opacity="0.4" d="M941.507 159.512C941.507 159.512 941.156 159.723 940.454 160.074C939.752 160.425 938.699 160.846 937.436 161.408C934.838 162.531 931.258 163.865 927.187 165.198C923.115 166.532 919.394 167.515 916.657 168.147C915.323 168.428 914.2 168.708 913.427 168.849C912.655 168.989 912.234 169.059 912.234 169.059C912.234 169.059 912.655 168.919 913.427 168.708C914.27 168.498 915.323 168.217 916.657 167.936C919.394 167.234 923.045 166.251 927.116 164.918C931.188 163.584 934.768 162.25 937.366 161.197C938.629 160.706 939.682 160.284 940.454 159.933C941.086 159.653 941.507 159.512 941.507 159.512Z" fill="white"/>
</g>
<g opacity="0.4">
<path opacity="0.4" d="M907.18 169.27C907.18 169.27 907.039 169.34 906.829 169.41C906.548 169.481 906.197 169.551 905.705 169.691C905.214 169.832 904.652 169.972 903.95 170.042C903.248 170.183 902.476 170.323 901.634 170.463C900.791 170.604 899.809 170.744 898.826 170.814C897.773 170.955 896.72 170.955 895.526 171.025C893.21 171.095 890.683 170.955 888.015 170.674C885.347 170.323 882.89 169.832 880.644 169.2C879.521 168.849 878.468 168.568 877.485 168.217C876.502 167.866 875.59 167.515 874.817 167.234C873.975 166.953 873.273 166.602 872.641 166.322C872.009 166.041 871.448 165.76 871.027 165.549C870.605 165.339 870.325 165.128 870.044 164.988C869.833 164.847 869.693 164.777 869.693 164.777C869.693 164.777 869.833 164.847 870.044 164.918C870.325 165.058 870.676 165.198 871.097 165.409C871.518 165.62 872.08 165.9 872.711 166.111C873.343 166.392 874.045 166.743 874.888 167.024C875.73 167.304 876.572 167.655 877.555 168.006C878.538 168.357 879.591 168.638 880.714 168.919C882.961 169.481 885.418 169.972 888.085 170.323C890.753 170.604 893.28 170.744 895.526 170.744C896.65 170.674 897.773 170.674 898.756 170.604C899.809 170.534 900.721 170.393 901.564 170.323C902.406 170.253 903.178 170.112 903.88 169.972C904.582 169.902 905.144 169.761 905.635 169.621C906.056 169.551 906.478 169.481 906.758 169.41C907.039 169.27 907.18 169.27 907.18 169.27Z" fill="white"/>
</g>
<g opacity="0.4">
<path opacity="0.4" d="M960.812 152.913C960.883 152.984 960.391 153.335 959.759 153.545C959.128 153.826 958.636 153.966 958.566 153.896C958.496 153.826 958.987 153.475 959.619 153.264C960.251 152.984 960.742 152.773 960.812 152.913Z" fill="white"/>
</g>
<path d="M731.45 132.161L730.673 131.572L687.257 174.987C687.456 175.248 687.659 175.509 687.862 175.764L731.45 132.161Z" fill="#6617EA"/>
<path d="M720.839 126.587C720.479 126.482 720.119 126.383 719.754 126.289L681.975 164.068C682.069 164.433 682.168 164.793 682.272 165.153L720.839 126.587Z" fill="#6617EA"/>
<path d="M728.295 129.924C728.008 129.747 727.716 129.575 727.424 129.402L685.093 171.723C685.26 172.015 685.432 172.307 685.615 172.594L728.295 129.924Z" fill="#6617EA"/>
<path d="M724.77 128.052C724.452 127.906 724.129 127.765 723.806 127.635L683.32 168.12C683.451 168.443 683.592 168.766 683.738 169.085L724.77 128.052Z" fill="#6617EA"/>
<path d="M716.411 125.622C715.999 125.559 715.588 125.512 715.176 125.471L681.156 159.495C681.198 159.902 681.245 160.314 681.308 160.726L716.411 125.622Z" fill="#6617EA"/>
<path d="M733.927 134.388L733.577 134.049L689.734 177.892L690.073 178.241L690.423 178.585L734.271 134.737L733.927 134.388Z" fill="#6617EA"/>
<path d="M711.322 125.314C710.837 125.314 710.357 125.346 709.872 125.382L681.068 154.187C681.031 154.672 681 155.152 681 155.636L711.322 125.314Z" fill="#6617EA"/>
<path d="M681.751 149.494L705.18 126.065C704.554 126.206 703.933 126.362 703.313 126.545L682.231 147.627C682.043 148.258 681.892 148.868 681.751 149.494Z" fill="#6617EA"/>
<path d="M742.937 158.442C742.969 157.962 742.99 157.477 743 156.992L712.678 187.314C713.163 187.314 713.648 187.283 714.127 187.252L742.937 158.442Z" fill="#6617EA"/>
<path d="M742.844 153.139C742.802 152.727 742.755 152.315 742.698 151.903L707.594 187.012C708.006 187.069 708.418 187.116 708.83 187.158L742.844 153.139Z" fill="#6617EA"/>
<path d="M696.252 129.595C691.739 132.266 687.973 136.033 685.302 140.546L696.252 129.595Z" fill="#6617EA"/>
<path d="M741.775 165.002C741.952 164.386 742.114 163.766 742.254 163.14L718.826 186.569C719.451 186.428 720.072 186.266 720.687 186.089L741.775 165.002Z" fill="#6617EA"/>
<path d="M727.753 183.033C732.264 180.36 736.03 176.594 738.703 172.083L727.753 183.033Z" fill="#6617EA"/>
<path d="M738.907 140.89C738.74 140.598 738.568 140.311 738.385 140.024L695.71 182.705C695.997 182.882 696.284 183.054 696.576 183.226L738.907 140.89Z" fill="#6617EA"/>
<path d="M736.758 137.641C736.56 137.381 736.362 137.12 736.153 136.864L692.55 180.468C692.806 180.676 693.071 180.874 693.327 181.073L736.758 137.641Z" fill="#6617EA"/>
<path d="M742.009 148.56C741.915 148.201 741.816 147.836 741.707 147.476L703.12 186.063C703.48 186.172 703.845 186.271 704.204 186.365L742.009 148.56Z" fill="#6617EA"/>
<path d="M740.685 144.509C740.549 144.185 740.408 143.867 740.268 143.544L699.251 184.582L700.215 184.999L740.685 144.509Z" fill="#6617EA"/>
<g clip-path="url(#clip0)">
<path d="M34.6566 61.3143C34.4825 61.3143 34.3155 61.3835 34.1923 61.5066C34.0692 61.6298 34 61.7968 34 61.9709V101.762C34.0007 101.934 34.0691 102.099 34.1904 102.222L54.086 122.117C54.1468 122.179 54.2193 122.229 54.2994 122.263C54.3794 122.296 54.4653 122.314 54.5522 122.314H94.3434C94.4292 122.313 94.514 122.295 94.5929 122.262C94.7533 122.195 94.8808 122.068 94.9475 121.907C94.9811 121.828 94.999 121.744 95 121.658V81.8665C94.9996 81.7796 94.982 81.6937 94.9482 81.6137C94.9144 81.5337 94.8651 81.4611 94.803 81.4003L74.914 61.5047C74.8541 61.448 74.7854 61.4014 74.7104 61.3668C74.6274 61.3315 74.538 61.3136 74.4478 61.3143H34.6566ZM73.7912 62.6276V101.105H35.3132V62.6276H73.7912ZM93.6868 90.8622L75.1044 72.2602V67.7361L93.6868 86.3184V90.8622ZM93.6868 95.846L75.1044 77.2439V72.7198L93.6868 91.3022V95.846ZM93.6868 100.836L75.1044 82.2342V77.7298L93.6868 96.3122V100.836ZM93.6868 105.82L75.1044 87.2245V82.7004L93.6868 101.283V105.82ZM93.6868 110.81L75.1044 92.2083V87.6842L93.6868 106.267V110.81ZM93.6868 115.801L75.1044 97.1986V92.6745L93.6868 111.257V115.801ZM93.6868 120.088L75.1044 101.486V97.6582L93.6868 116.241V120.088ZM63.909 121.001L45.3267 102.419H49.8639L68.4463 121.001H63.909ZM68.9125 121.001L50.3301 102.419H54.8674L73.4497 121.001H68.9125ZM73.9159 121.001L55.3336 102.419H59.8708L78.4466 121.001H73.9159ZM78.9128 121.001L60.3305 102.419H64.8611L83.4435 121.001H78.9128ZM83.9163 121.001L65.3339 102.419H69.8712L88.4535 121.001H83.9163ZM44.8671 102.419L63.4494 121.001H58.9122L40.3298 102.419H44.8671ZM88.9131 121.001L70.3308 102.419H74.172L92.7544 121.001H88.9131ZM36.2391 102.419H39.8636L58.446 121.001H54.8214L36.2391 102.419ZM93.6868 82.1357V85.8522L75.1044 67.2699V63.5534L93.6868 82.1357Z" fill="#4D12E7"/>
</g>
<defs>
<linearGradient id="paint0_linear" x1="207.947" y1="35.9006" x2="1153.59" y2="331.197" gradientUnits="userSpaceOnUse">
<stop stop-color="#3C00D6"/>
<stop offset="1" stop-color="#821EE4"/>
</linearGradient>
<linearGradient id="paint1_linear" x1="207.947" y1="35.9006" x2="1153.59" y2="331.197" gradientUnits="userSpaceOnUse">
<stop stop-color="#3C00D6"/>
<stop offset="1" stop-color="#821EE4"/>
</linearGradient>
<radialGradient id="paint2_radial" cx="0" cy="0" r="1" gradientUnits="userSpaceOnUse" gradientTransform="translate(491.338 266.054) rotate(-149.995) scale(78.4686 3.9731)">
<stop stop-color="#00D0FF"/>
<stop offset="0.29" stop-color="#056BFD" stop-opacity="0.76"/>
<stop offset="0.49" stop-color="#0925FB" stop-opacity="0.6"/>
<stop offset="0.62" stop-color="#081EBC" stop-opacity="0.42"/>
<stop offset="0.78" stop-color="#061570" stop-opacity="0.19"/>
<stop offset="0.9" stop-color="#050F40" stop-opacity="0.05"/>
<stop offset="0.97" stop-color="#050D2E" stop-opacity="0"/>
</radialGradient>
<linearGradient id="paint3_linear" x1="788.532" y1="462.496" x2="421.088" y2="252.227" gradientUnits="userSpaceOnUse">
<stop offset="0.09"/>
<stop offset="0.13" stop-color="#170019" stop-opacity="0.93"/>
<stop offset="0.18" stop-color="#58005E" stop-opacity="0.74"/>
<stop offset="0.25" stop-color="#C100CE" stop-opacity="0.44"/>
<stop offset="0.27" stop-color="#EF00FF" stop-opacity="0.3"/>
<stop offset="0.29" stop-color="#F000EF" stop-opacity="0.34"/>
<stop offset="0.33" stop-color="#F300C6" stop-opacity="0.46"/>
<stop offset="0.38" stop-color="#F70083" stop-opacity="0.64"/>
<stop offset="0.43" stop-color="#FD0026" stop-opacity="0.89"/>
<stop offset="0.46" stop-color="#FF0000"/>
<stop offset="0.47" stop-color="#FD0022"/>
<stop offset="0.51" stop-color="#F80077"/>
<stop offset="0.57" stop-color="#EF00FF"/>
<stop offset="0.61" stop-color="#E500F4"/>
<stop offset="0.68" stop-color="#C900D6"/>
<stop offset="0.76" stop-color="#9B00A5"/>
<stop offset="0.87" stop-color="#5C0062"/>
<stop offset="0.98" stop-color="#0D000E"/>
<stop offset="1"/>
</linearGradient>
<linearGradient id="paint4_linear" x1="764.366" y1="466.104" x2="217.187" y2="152.983" gradientUnits="userSpaceOnUse">
<stop offset="0.19"/>
<stop offset="0.22" stop-color="#28210D"/>
<stop offset="0.36" stop-color="#C1A240"/>
<stop offset="0.42" stop-color="#FFD655"/>
<stop offset="0.6" stop-color="#FF401A"/>
<stop offset="0.69" stop-color="#FF0000"/>
<stop offset="0.74" stop-color="#DD0000"/>
<stop offset="0.84" stop-color="#880000"/>
<stop offset="1"/>
</linearGradient>
<linearGradient id="paint5_linear" x1="469912" y1="218564" x2="164059" y2="-128099" gradientUnits="userSpaceOnUse">
<stop offset="0.19"/>
<stop offset="0.22" stop-color="#28210D"/>
<stop offset="0.36" stop-color="#C1A240"/>
<stop offset="0.42" stop-color="#FFD655"/>
<stop offset="0.6" stop-color="#FF401A"/>
<stop offset="0.69" stop-color="#FF0000"/>
<stop offset="0.74" stop-color="#DD0000"/>
<stop offset="0.84" stop-color="#880000"/>
<stop offset="1"/>
</linearGradient>
<linearGradient id="paint6_linear" x1="770.127" y1="463.497" x2="219.653" y2="148.497" gradientUnits="userSpaceOnUse">
<stop/>
<stop offset="0.15" stop-color="#403615"/>
<stop offset="0.51" stop-color="#E0BC4B"/>
<stop offset="0.58" stop-color="#FFD655"/>
<stop offset="0.62" stop-color="#C1A240"/>
<stop offset="0.7" stop-color="#28210D"/>
<stop offset="0.73"/>
<stop offset="0.8" stop-color="#880000"/>
<stop offset="0.84" stop-color="#DD0000"/>
<stop offset="0.86" stop-color="#FF0000"/>
<stop offset="0.9" stop-color="#C10000"/>
<stop offset="0.98" stop-color="#280000"/>
<stop offset="1"/>
</linearGradient>
<linearGradient id="paint7_linear" x1="777.65" y1="444.224" x2="229.867" y2="130.765" gradientUnits="userSpaceOnUse">
<stop stop-opacity="0"/>
<stop offset="0.15" stop-color="#403615" stop-opacity="0.25"/>
<stop offset="0.51" stop-color="#E0BC4B" stop-opacity="0.88"/>
<stop offset="0.58" stop-color="#FFD655"/>
<stop offset="0.62" stop-color="#C1A240"/>
<stop offset="0.7" stop-color="#28210D"/>
<stop offset="0.73"/>
<stop offset="0.8" stop-color="#880000"/>
<stop offset="0.84" stop-color="#DD0000"/>
<stop offset="0.86" stop-color="#FF0000"/>
<stop offset="0.9" stop-color="#C10000"/>
<stop offset="0.98" stop-color="#280000"/>
<stop offset="1"/>
</linearGradient>
<linearGradient id="paint8_linear" x1="769.646" y1="426.61" x2="221.858" y2="113.144" gradientUnits="userSpaceOnUse">
<stop offset="0.01" stop-opacity="0"/>
<stop offset="0.16" stop-color="#403615" stop-opacity="0.25"/>
<stop offset="0.51" stop-color="#E0BC4B" stop-opacity="0.88"/>
<stop offset="0.58" stop-color="#FFD655"/>
<stop offset="0.62" stop-color="#C1A240"/>
<stop offset="0.7" stop-color="#28210D"/>
<stop offset="0.73"/>
<stop offset="0.8" stop-color="#880000"/>
<stop offset="0.84" stop-color="#DD0000"/>
<stop offset="0.86" stop-color="#FF0000"/>
<stop offset="0.9" stop-color="#C10000"/>
<stop offset="0.98" stop-color="#280000"/>
<stop offset="1"/>
</linearGradient>
<radialGradient id="paint9_radial" cx="0" cy="0" r="1" gradientUnits="userSpaceOnUse" gradientTransform="translate(530.286 330.329) rotate(15) scale(201.661)">
<stop stop-color="#00D0FF"/>
<stop offset="0.29" stop-color="#056BFD" stop-opacity="0.76"/>
<stop offset="0.49" stop-color="#0925FB" stop-opacity="0.6"/>
<stop offset="0.55" stop-color="#0821DC" stop-opacity="0.6"/>
<stop offset="0.75" stop-color="#07167E" stop-opacity="0.6"/>
<stop offset="0.89" stop-color="#051044" stop-opacity="0.6"/>
<stop offset="0.97" stop-color="#050D2E" stop-opacity="0.6"/>
</radialGradient>
<radialGradient id="paint10_radial" cx="0" cy="0" r="1" gradientUnits="userSpaceOnUse" gradientTransform="translate(516.874 337.824) rotate(-150.22) scale(193.706)">
<stop stop-color="#00D6C0"/>
<stop offset="0.69" stop-color="#003E38" stop-opacity="0.29"/>
<stop offset="1" stop-opacity="0"/>
</radialGradient>
<radialGradient id="paint11_radial" cx="0" cy="0" r="1" gradientUnits="userSpaceOnUse" gradientTransform="translate(249699 1.86792e+06) rotate(-150.285) scale(153191 84639.5)">
<stop stop-color="#00D6C0"/>
<stop offset="0.69" stop-color="#003E38" stop-opacity="0.29"/>
<stop offset="1" stop-opacity="0"/>
</radialGradient>
<radialGradient id="paint12_radial" cx="0" cy="0" r="1" gradientUnits="userSpaceOnUse" gradientTransform="translate(-18552.4 114209) rotate(-149.995) scale(2840.76 1614.51)">
<stop stop-color="#00D0FF"/>
<stop offset="0.29" stop-color="#056BFD" stop-opacity="0.76"/>
<stop offset="0.49" stop-color="#0925FB" stop-opacity="0.6"/>
<stop offset="0.62" stop-color="#081EBC" stop-opacity="0.42"/>
<stop offset="0.78" stop-color="#061570" stop-opacity="0.19"/>
<stop offset="0.9" stop-color="#050F40" stop-opacity="0.05"/>
<stop offset="0.97" stop-color="#050D2E" stop-opacity="0"/>
</radialGradient>
<radialGradient id="paint13_radial" cx="0" cy="0" r="1" gradientUnits="userSpaceOnUse" gradientTransform="translate(-15688 113691) rotate(-150.22) scale(2828.76 1607.69)">
<stop stop-color="#00D0FF"/>
<stop offset="0.29" stop-color="#056BFD" stop-opacity="0.76"/>
<stop offset="0.49" stop-color="#0925FB" stop-opacity="0.6"/>
<stop offset="0.62" stop-color="#081EBC" stop-opacity="0.42"/>
<stop offset="0.78" stop-color="#061570" stop-opacity="0.19"/>
<stop offset="0.9" stop-color="#050F40" stop-opacity="0.05"/>
<stop offset="0.97" stop-color="#050D2E" stop-opacity="0"/>
</radialGradient>
<radialGradient id="paint14_radial" cx="0" cy="0" r="1" gradientUnits="userSpaceOnUse" gradientTransform="translate(-19084.6 113641) rotate(-150.95) scale(2828.77 1607.69)">
<stop stop-color="#00D0FF"/>
<stop offset="0.29" stop-color="#056BFD" stop-opacity="0.76"/>
<stop offset="0.49" stop-color="#0925FB" stop-opacity="0.6"/>
<stop offset="0.62" stop-color="#081EBC" stop-opacity="0.42"/>
<stop offset="0.78" stop-color="#061570" stop-opacity="0.19"/>
<stop offset="0.9" stop-color="#050F40" stop-opacity="0.05"/>
<stop offset="0.97" stop-color="#050D2E" stop-opacity="0"/>
</radialGradient>
<radialGradient id="paint15_radial" cx="0" cy="0" r="1" gradientUnits="userSpaceOnUse" gradientTransform="translate(-15771.3 126161) rotate(-150.95) scale(3469.69 2009.61)">
<stop stop-color="#00D0FF"/>
<stop offset="0.29" stop-color="#056BFD" stop-opacity="0.76"/>
<stop offset="0.49" stop-color="#0925FB" stop-opacity="0.6"/>
<stop offset="0.62" stop-color="#081EBC" stop-opacity="0.42"/>
<stop offset="0.78" stop-color="#061570" stop-opacity="0.19"/>
<stop offset="0.9" stop-color="#050F40" stop-opacity="0.05"/>
<stop offset="0.97" stop-color="#050D2E" stop-opacity="0"/>
</radialGradient>
<radialGradient id="paint16_radial" cx="0" cy="0" r="1" gradientUnits="userSpaceOnUse" gradientTransform="translate(-15984.4 115685) rotate(-149.995) scale(2840.76 1614.5)">
<stop stop-color="#00D0FF"/>
<stop offset="0.29" stop-color="#056BFD" stop-opacity="0.76"/>
<stop offset="0.49" stop-color="#0925FB" stop-opacity="0.6"/>
<stop offset="0.62" stop-color="#081EBC" stop-opacity="0.42"/>
<stop offset="0.78" stop-color="#061570" stop-opacity="0.19"/>
<stop offset="0.9" stop-color="#050F40" stop-opacity="0.05"/>
<stop offset="0.97" stop-color="#050D2E" stop-opacity="0"/>
</radialGradient>
<radialGradient id="paint17_radial" cx="0" cy="0" r="1" gradientUnits="userSpaceOnUse" gradientTransform="translate(549.913 226.154) rotate(-150.22) scale(99.897 2.96724)">
<stop stop-color="#68B22E"/>
<stop offset="0.13" stop-color="#4BAC32" stop-opacity="0.89"/>
<stop offset="0.49" stop-color="#009B3D" stop-opacity="0.6"/>
<stop offset="0.69" stop-color="#025736" stop-opacity="0.31"/>
<stop offset="0.87" stop-color="#042130" stop-opacity="0.09"/>
<stop offset="0.97" stop-color="#050D2E" stop-opacity="0"/>
</radialGradient>
<radialGradient id="paint18_radial" cx="0" cy="0" r="1" gradientUnits="userSpaceOnUse" gradientTransform="translate(543.217 224.077) rotate(-150.22) scale(98.9079 5.93447)">
<stop stop-color="#E4007C"/>
<stop offset="0.08" stop-color="#E4007C" stop-opacity="0.93"/>
<stop offset="0.49" stop-color="#E4007D" stop-opacity="0.6"/>
<stop offset="0.58" stop-color="#AF036A" stop-opacity="0.46"/>
<stop offset="0.76" stop-color="#54084A" stop-opacity="0.21"/>
<stop offset="0.9" stop-color="#1B0C36" stop-opacity="0.06"/>
<stop offset="0.97" stop-color="#050D2E" stop-opacity="0"/>
</radialGradient>
<radialGradient id="paint19_radial" cx="0" cy="0" r="1" gradientUnits="userSpaceOnUse" gradientTransform="translate(-11870.8 127017) rotate(-150.22) scale(3440.02 2009.61)">
<stop stop-color="#E4007C"/>
<stop offset="0.08" stop-color="#E4007C" stop-opacity="0.93"/>
<stop offset="0.49" stop-color="#E4007D" stop-opacity="0.6"/>
<stop offset="0.58" stop-color="#AF036A" stop-opacity="0.46"/>
<stop offset="0.76" stop-color="#54084A" stop-opacity="0.21"/>
<stop offset="0.9" stop-color="#1B0C36" stop-opacity="0.06"/>
<stop offset="0.97" stop-color="#050D2E" stop-opacity="0"/>
</radialGradient>
<linearGradient id="paint20_linear" x1="1111" y1="69.8144" x2="962.188" y2="197.451" gradientUnits="userSpaceOnUse">
<stop stop-color="#7E00FF"/>
<stop offset="1" stop-color="white" stop-opacity="0"/>
</linearGradient>
<linearGradient id="paint21_linear" x1="1024.78" y1="196.136" x2="913.694" y2="197.434" gradientUnits="userSpaceOnUse">
<stop stop-color="#CAE2FF"/>
<stop offset="1" stop-color="white" stop-opacity="0"/>
</linearGradient>
<clipPath id="clip0">
<rect width="61" height="61" fill="white" transform="translate(34 61.3143)"/>
</clipPath>
</defs>
</svg>
