<svg xmlns="http://www.w3.org/2000/svg" xmlns:xlink="http://www.w3.org/1999/xlink" viewBox="0 0 13 13"><defs><style>.cls-1{mask:url(#mask);filter:url(#luminosity-noclip-5);}.cls-2,.cls-4,.cls-6,.cls-8{mix-blend-mode:multiply;}.cls-2{fill:url(#linear-gradient);}.cls-3{mask:url(#mask-2);filter:url(#luminosity-noclip-6);}.cls-4{fill:url(#linear-gradient-2);}.cls-5{mask:url(#mask-3);filter:url(#luminosity-noclip-7);}.cls-6{fill:url(#linear-gradient-3);}.cls-7{mask:url(#mask-4);filter:url(#luminosity-noclip-8);}.cls-8{fill:url(#linear-gradient-4);}.cls-9{fill:url(#linear-gradient-5);}.cls-10{fill:url(#linear-gradient-6);}.cls-11{mask:url(#mask-5);}.cls-12{fill:url(#linear-gradient-7);}.cls-13{mask:url(#mask-6);}.cls-14,.cls-15{opacity:0.5;}.cls-14{fill:url(#linear-gradient-8);}.cls-15{fill:#8c005d;}.cls-16{mask:url(#mask-7);}.cls-17{fill:url(#linear-gradient-9);}.cls-18{mask:url(#mask-8);}.cls-19{fill:url(#linear-gradient-10);}.cls-20{fill:#5d25b7;}.cls-21{fill:#ff0;}.cls-22{fill:url(#linear-gradient-11);}.cls-23{fill:red;opacity:0.2;}.cls-24{opacity:0.99;fill:url(#linear-gradient-12);}.cls-25{fill:#1a1a1a;}.cls-25,.cls-28,.cls-29{opacity:0.1;}.cls-26,.cls-31{opacity:0.8;}.cls-26{fill:url(#linear-gradient-13);}.cls-27{fill:url(#linear-gradient-14);}.cls-28{fill:#d787fa;}.cls-29{fill:#dfa8fb;}.cls-30{fill:url(#linear-gradient-15);}.cls-31{fill:url(#linear-gradient-16);}.cls-32{fill:url(#linear-gradient-17);}.cls-33{fill:url(#linear-gradient-18);}.cls-34{filter:url(#luminosity-noclip-4);}.cls-35{filter:url(#luminosity-noclip-3);}.cls-36{filter:url(#luminosity-noclip-2);}.cls-37{filter:url(#luminosity-noclip);}</style><filter id="luminosity-noclip" x="4.19" y="-9709.34" width="4.97" height="32766" filterUnits="userSpaceOnUse" color-interpolation-filters="sRGB"><feFlood flood-color="#fff" result="bg"/><feBlend in="SourceGraphic" in2="bg"/></filter><mask id="mask" x="4.19" y="-9709.34" width="4.97" height="32766" maskUnits="userSpaceOnUse"><g class="cls-37"/></mask><linearGradient id="linear-gradient" x1="11.92" y1="3.03" x2="3.38" y2="4.6" gradientUnits="userSpaceOnUse"><stop offset="0.01" stop-color="#fff"/><stop offset="1"/></linearGradient><filter id="luminosity-noclip-2" x="1.86" y="-9709.34" width="6.98" height="32766" filterUnits="userSpaceOnUse" color-interpolation-filters="sRGB"><feFlood flood-color="#fff" result="bg"/><feBlend in="SourceGraphic" in2="bg"/></filter><mask id="mask-2" x="1.86" y="-9709.34" width="6.98" height="32766" maskUnits="userSpaceOnUse"><g class="cls-36"/></mask><linearGradient id="linear-gradient-2" x1="10.33" y1="1.37" x2="2.54" y2="2.71" xlink:href="#linear-gradient"/><filter id="luminosity-noclip-3" x="0" y="-9709.34" width="6.87" height="32766" filterUnits="userSpaceOnUse" color-interpolation-filters="sRGB"><feFlood flood-color="#fff" result="bg"/><feBlend in="SourceGraphic" in2="bg"/></filter><mask id="mask-3" x="0" y="-9709.34" width="6.87" height="32766" maskUnits="userSpaceOnUse"><g class="cls-35"/></mask><linearGradient id="linear-gradient-3" x1="-5.89" y1="1.93" x2="9.55" y2="1.93" xlink:href="#linear-gradient"/><filter id="luminosity-noclip-4" x="0" y="-9709.34" width="4.09" height="32766" filterUnits="userSpaceOnUse" color-interpolation-filters="sRGB"><feFlood flood-color="#fff" result="bg"/><feBlend in="SourceGraphic" in2="bg"/></filter><mask id="mask-4" x="0" y="-9709.34" width="4.09" height="32766" maskUnits="userSpaceOnUse"><g class="cls-34"/></mask><linearGradient id="linear-gradient-4" x1="-3.51" y1="1.93" x2="5.68" y2="1.93" xlink:href="#linear-gradient"/><linearGradient id="linear-gradient-5" x1="6.56" y1="17.49" x2="6.56" y2="-3.12" gradientUnits="userSpaceOnUse"><stop offset="0" stop-color="#0049e7"/><stop offset="0.49" stop-color="#9d15f8"/><stop offset="1" stop-color="#ff4cf9"/></linearGradient><linearGradient id="linear-gradient-6" x1="12.64" y1="3.25" x2="-0.94" y2="3.25" xlink:href="#linear-gradient-5"/><filter id="luminosity-noclip-5" x="4.19" y="1.11" width="4.97" height="5.39" filterUnits="userSpaceOnUse" color-interpolation-filters="sRGB"><feFlood flood-color="#fff" result="bg"/><feBlend in="SourceGraphic" in2="bg"/></filter><mask id="mask-5" x="4.19" y="1.11" width="4.97" height="5.39" maskUnits="userSpaceOnUse"><g class="cls-1"><path class="cls-2" d="M9.16,6.5A2.86,2.86,0,0,0,8,4.24a2.3,2.3,0,0,0-1.08-.38H4.19c0-.16.48-2.95,2.41-2.74h0a6.52,6.52,0,0,1,2.11,3A7.18,7.18,0,0,1,9.16,6.5Z"/></g></mask><linearGradient id="linear-gradient-7" x1="11.92" y1="3.03" x2="3.38" y2="4.6" gradientUnits="userSpaceOnUse"><stop offset="0.01" stop-color="#cc0680"/><stop offset="1" stop-color="#cc0680"/></linearGradient><filter id="luminosity-noclip-6" x="1.86" y="0" width="6.98" height="4.46" filterUnits="userSpaceOnUse" color-interpolation-filters="sRGB"><feFlood flood-color="#fff" result="bg"/><feBlend in="SourceGraphic" in2="bg"/></filter><mask id="mask-6" x="1.86" y="0" width="6.98" height="4.46" maskUnits="userSpaceOnUse"><g class="cls-3"><path class="cls-4" d="M8.84,4.46C7.05,2.18,1.86,0,1.86,0H3.38a5.52,5.52,0,0,1,.71.05A5.37,5.37,0,0,1,6.6,1.12h0a6.52,6.52,0,0,1,2.11,3C8.76,4.2,8.8,4.32,8.84,4.46Z"/></g></mask><linearGradient id="linear-gradient-8" x1="10.33" y1="1.37" x2="2.54" y2="2.71" gradientUnits="userSpaceOnUse"><stop offset="0" stop-color="#4d0087"/><stop offset="1" stop-color="#4d0087"/></linearGradient><filter id="luminosity-noclip-7" x="0" y="0" width="6.87" height="3.86" filterUnits="userSpaceOnUse" color-interpolation-filters="sRGB"><feFlood flood-color="#fff" result="bg"/><feBlend in="SourceGraphic" in2="bg"/></filter><mask id="mask-7" x="0" y="0" width="6.87" height="3.86" maskUnits="userSpaceOnUse"><g class="cls-5"><path class="cls-6" d="M6.87,3.86H1.93L1,2.09,0,0S5.05,1.37,6.87,3.86Z"/></g></mask><linearGradient id="linear-gradient-9" x1="-5.89" y1="1.93" x2="9.55" y2="1.93" gradientUnits="userSpaceOnUse"><stop offset="0" stop-color="#f9f"/><stop offset="1" stop-color="#f9f"/></linearGradient><filter id="luminosity-noclip-8" x="0" y="0" width="4.09" height="3.86" filterUnits="userSpaceOnUse" color-interpolation-filters="sRGB"><feFlood flood-color="#fff" result="bg"/><feBlend in="SourceGraphic" in2="bg"/></filter><mask id="mask-8" x="0" y="0" width="4.09" height="3.86" maskUnits="userSpaceOnUse"><g class="cls-7"><path class="cls-8" d="M1.92,3.86,1,2.09,0,0H3.38a5.52,5.52,0,0,1,.71.05C1.82.71,1.92,3.86,1.92,3.86Z"/></g></mask><linearGradient id="linear-gradient-10" x1="-3.51" y1="1.93" x2="5.68" y2="1.93" xlink:href="#linear-gradient-8"/><linearGradient id="linear-gradient-11" x1="3.44" y1="9.29" x2="8.97" y2="9.29" gradientUnits="userSpaceOnUse"><stop offset="0" stop-color="#6727f2"/><stop offset="1" stop-color="#8217e6"/></linearGradient><linearGradient id="linear-gradient-12" x1="0.01" y1="11.86" x2="11.09" y2="11.86" gradientUnits="userSpaceOnUse"><stop offset="0" stop-color="#4d12af"/><stop offset="1" stop-color="#5b18ca"/></linearGradient><linearGradient id="linear-gradient-13" x1="10.31" y1="11.08" x2="11.63" y2="11.08" gradientUnits="userSpaceOnUse"><stop offset="0" stop-color="#7c2ecf"/><stop offset="1" stop-color="#7c2ecf"/></linearGradient><linearGradient id="linear-gradient-14" y1="6.5" x2="6.65" y2="6.5" gradientUnits="userSpaceOnUse"><stop offset="0" stop-color="#4447f4"/><stop offset="1" stop-color="#df92fa"/></linearGradient><linearGradient id="linear-gradient-15" x1="11.62" y1="2.2" x2="11.8" y2="8.99" gradientUnits="userSpaceOnUse"><stop offset="0" stop-color="#ed72fd"/><stop offset="0.99" stop-color="#ac48f8"/></linearGradient><linearGradient id="linear-gradient-16" x1="8.71" y1="2.42" x2="10.27" y2="7.36" gradientUnits="userSpaceOnUse"><stop offset="0" stop-color="#e86afc"/><stop offset="0.99" stop-color="#c747fb"/></linearGradient><linearGradient id="linear-gradient-17" x1="9.16" y1="11.34" x2="9.79" y2="4" gradientUnits="userSpaceOnUse"><stop offset="0" stop-color="#6727f2"/><stop offset="1" stop-color="#b723f8"/></linearGradient><linearGradient id="linear-gradient-18" x1="10.7" y1="3.78" x2="5.54" y2="-0.28" gradientUnits="userSpaceOnUse"><stop offset="0" stop-color="#fc8ffe"/><stop offset="0.99" stop-color="#f483fe"/></linearGradient></defs><g id="Layer_2" data-name="Layer 2"><g id="Layer_1-2" data-name="Layer 1"><path class="cls-9" d="M11,1.91a6.48,6.48,0,0,0-.62-.54A6.75,6.75,0,0,0,6.31,0H2.43A6.74,6.74,0,0,1,7,1.78a6.43,6.43,0,0,1,2.11,4.6h0v.07a2.62,2.62,0,0,1-.18,1,2.19,2.19,0,0,1-.33.6h0A2.79,2.79,0,0,1,6.34,9.22H3.55l0,0L.12,13H6.35a6.72,6.72,0,0,0,4.72-1.92h0a6.09,6.09,0,0,0,.54-.6A6.35,6.35,0,0,0,11,1.91Z"/><path class="cls-10" d="M9.16,6.5A2.86,2.86,0,0,0,8,4.24a2.3,2.3,0,0,0-1.08-.38H1.92L1,2.09,0,0,3.38,0a5.54,5.54,0,0,1,.71,0A5.37,5.37,0,0,1,6.6,1.12h0a6.52,6.52,0,0,1,2.11,3c0,.13.09.25.13.39A7.19,7.19,0,0,1,9.16,6.5Z"/><g class="cls-11"><path class="cls-12" d="M9.16,6.5A2.86,2.86,0,0,0,8,4.24a2.3,2.3,0,0,0-1.08-.38H4.19c0-.16.48-2.95,2.41-2.74h0a6.52,6.52,0,0,1,2.11,3A7.18,7.18,0,0,1,9.16,6.5Z"/></g><g class="cls-13"><path class="cls-14" d="M8.84,4.46C7.05,2.18,1.86,0,1.86,0L3.38,0a5.54,5.54,0,0,1,.71,0A5.37,5.37,0,0,1,6.6,1.12h0a6.52,6.52,0,0,1,2.11,3C8.76,4.2,8.8,4.32,8.84,4.46Z"/></g><path class="cls-15" d="M9.16,6.5A2.86,2.86,0,0,0,8,4.24,5.53,5.53,0,0,0,3.38,0a5.54,5.54,0,0,1,.71,0,5.94,5.94,0,0,1,4.62,4A7.18,7.18,0,0,1,9.16,6.5Z"/><g class="cls-16"><path class="cls-17" d="M6.87,3.86H1.93L1,2.09,0,0S5.05,1.37,6.87,3.86Z"/></g><g class="cls-18"><path class="cls-19" d="M1.92,3.86,1,2.09,0,0,3.38,0c.26,0,.48,0,.71,0C1.82.71,1.92,3.86,1.92,3.86Z"/></g><path class="cls-20" d="M3.49,9.26H3.44l-.8.78L.8,11.84c.08.09.08.11.17.2-.14,0-.2,0-.34,0l-.27.27.26.09a7.58,7.58,0,0,0,.94.23c.23,0,.46.06.69.08h.43A6.59,6.59,0,0,0,6.33,11.6l.38-.27.21-.18h0A7,7,0,0,1,3.49,9.26Z"/><path class="cls-21" d="M5.79,10.78l0,0-.11-.09Z"/><path class="cls-22" d="M7.81,10.09a6.31,6.31,0,0,0,.58-.93A6.21,6.21,0,0,0,9,7.46a2.7,2.7,0,0,1-.49.81l0,.05-.12.12a2.37,2.37,0,0,1-.39.32,2.76,2.76,0,0,1-.81.39l-.38.08-.39,0H3.44a6.83,6.83,0,0,0,3.38,1.86A6,6,0,0,0,7.81,10.09Z"/><path class="cls-23" d="M5.9,6.23l.39,0-.74-.72a3.1,3.1,0,0,1-1,.38A2.61,2.61,0,0,0,5.9,6.23Z"/><path class="cls-24" d="M8.78,11.3h-.4c-.22,0-.43,0-.64,0l-.23,0a5.25,5.25,0,0,1-.69-.13l-.21.17a4.33,4.33,0,0,1-.37.27A6.42,6.42,0,0,1,4,12.5a6.45,6.45,0,0,1-1.33.14H2.22l-.67-.08h0a7.54,7.54,0,0,1-.82-.2l-.1,0-.31-.05-.19.2L0,13H6.64A6.9,6.9,0,0,0,10,11.93l.31-.21a5,5,0,0,0,.78-1A6.34,6.34,0,0,1,8.78,11.3Z"/><polygon class="cls-25" points="3.81 9.26 0.8 12.99 0 12.99 3.81 9.26"/><path class="cls-26" d="M11.1,10.72h0a5,5,0,0,1-.78,1l.31-.24.44-.39a7,7,0,0,0,.57-.65C11.46,10.54,11.28,10.63,11.1,10.72Z"/><polygon class="cls-27" points="6.66 6.6 4.13 8.96 3.96 9.13 3.85 9.23 3.76 9.32 3.75 9.33 3.67 9.41 3.66 9.42 3.63 9.44 3.63 9.45 2.85 10.21 2.11 10.94 0.95 12.07 0.64 12.37 0.01 12.99 0 13 0 12.99 0 12.99 0.01 12.93 0.12 12.41 0.13 12.36 0.16 12.22 0.22 11.91 0.4 11.06 0.72 9.45 0.92 8.47 1 8.11 1.02 8.09 1.36 7.75 1.88 7.24 2.54 6.6 1.96 6.03 1.28 5.37 0.97 5.07 0.97 5.06 0.85 4.48 0.79 4.17 0.75 3.96 0.36 1.95 0.16 0.83 0.13 0.65 0.08 0.4 0.05 0.24 0.04 0.21 0.04 0.17 0 0 0 0 0.03 0.03 2.19 2.15 2.2 2.17 2.73 2.68 2.83 2.79 3.37 3.31 3.37 3.31 3.69 3.63 3.79 3.73 3.92 3.86 4.05 3.98 5.55 5.45 6.13 6.05 6.28 6.21 6.66 6.6"/><polygon class="cls-28" points="5.17 6.66 3.28 8.51 0.36 11.33 1.02 8.09 1.36 7.75 1.88 7.24 2.54 6.6 1.96 6.03 1.28 5.37 0.97 5.07 0.97 5.06 0.79 4.17 0.69 3.62 0.36 1.95 1.38 2.94 1.56 3.12 2.31 3.86 3.25 4.77 5.17 6.66"/><polygon class="cls-29" points="6.66 6.6 3.96 9.13 3.28 8.51 1.88 7.24 2.54 6.6 1.96 6.03 3.25 4.77 4.05 3.98 5.55 5.48 6.27 6.21 6.66 6.6"/><polygon class="cls-29" points="0.69 3.62 2.19 2.15 0 0 0.69 3.62"/><polygon class="cls-29" points="0.56 10.24 1.69 11.35 0 13 0.56 10.24"/><path class="cls-30" d="M10.34,1.31A6.3,6.3,0,0,1,10.55,3a6.45,6.45,0,0,1-.11,1.17,6,6,0,0,1,1.35,3.8,6,6,0,0,1-.69,2.8c.18-.09.36-.18.53-.28A6.31,6.31,0,0,0,13,7.24a6,6,0,0,0,0-.73A6.47,6.47,0,0,0,10.34,1.31Z"/><path class="cls-31" d="M10.44,4.12A6.14,6.14,0,0,0,7.67,2.18l-.26-.09A6.28,6.28,0,0,1,8.61,4h0A6,6,0,0,1,8.9,5.38a3.39,3.39,0,0,1,.15.41,2.46,2.46,0,0,1,.1.72,2.83,2.83,0,0,1,0,.41A6.26,6.26,0,0,0,10.44,4.12Z"/><path class="cls-32" d="M10.44,4.12a6.26,6.26,0,0,1-1.32,2.8A2.39,2.39,0,0,1,9,7.46a6.21,6.21,0,0,1-.58,1.7,6.31,6.31,0,0,1-.58.93,6,6,0,0,1-1,1,5.25,5.25,0,0,0,.69.13l.23,0c.21,0,.42,0,.64,0h.4a6.6,6.6,0,0,0,2.32-.58,6,6,0,0,0-.66-6.6Z"/><path class="cls-33" d="M10.34,1.31A6.65,6.65,0,0,0,6.55,0H3.13l.4.06c.22,0,.45.07.67.12A6.25,6.25,0,0,1,5.51.68a6.32,6.32,0,0,1,1.9,1.41l.26.09a6.14,6.14,0,0,1,2.77,1.94,6.47,6.47,0,0,0,.11-1.18A6.28,6.28,0,0,0,10.34,1.31Z"/><polygon class="cls-25" points="3.92 3.86 0.4 0 0 0 3.92 3.86"/></g></g></svg>