<svg width="43" height="47" viewBox="0 0 43 47" fill="none" xmlns="http://www.w3.org/2000/svg">
<circle cx="25.5" cy="29.5" r="17.5" fill="#37EDA0" fill-opacity="0.1"/>
<g clip-path="url(#clip0)">
<path d="M23.3102 28.2098L20.3959 31.0309L21.0799 34.9909L17.5012 33.1225L13.9226 34.9909L14.6064 31.0309L11.6922 28.2098L15.7179 27.6289L17.5012 24.0406L19.2845 27.6289L23.3102 28.2098ZM34.9966 28.2189L30.9709 27.638L29.1876 24.0496L27.4043 27.638L23.3786 28.2189L26.2929 31.04L25.609 35L29.1877 33.1316L32.7664 35L32.0825 31.04L34.9966 28.2189ZM7.59815 27.5986L5.81477 24.0077L4.03147 27.5986L0.0057373 28.1799L2.92003 31.0029L2.23613 34.9656L5.81484 33.096L9.39355 34.9656L8.70966 31.0029L11.6239 28.1799L7.59815 27.5986ZM7.83871 22.3794L5.20906 21.6323C5.95775 18.9969 7.57348 16.6228 9.7587 14.9476C10.6492 14.2649 11.6087 13.7098 12.6191 13.2869C10.9677 11.9068 9.91527 9.83287 9.91527 7.51746C9.91527 3.37226 13.2877 -0.00012207 17.4328 -0.00012207C21.578 -0.00012207 24.9504 3.37226 24.9504 7.51746C24.9504 9.79105 23.9358 11.8319 22.3357 13.2116C23.402 13.6382 24.4137 14.211 25.3496 14.924C27.5281 16.5837 29.147 18.939 29.9081 21.5558L27.2831 22.3192C26.0358 18.0305 22.0415 15.0351 17.5695 15.0351C13.0686 15.0351 9.06708 18.0551 7.83871 22.3794ZM12.6489 7.51753C12.6489 10.1554 14.795 12.3014 17.4328 12.3014C20.0707 12.3014 22.2168 10.1554 22.2168 7.51753C22.2168 4.87968 20.0707 2.73361 17.4328 2.73361C14.795 2.73361 12.6489 4.87968 12.6489 7.51753Z" fill="#37EDA0"/>
</g>
<defs>
<clipPath id="clip0">
<rect width="35" height="35" fill="white"/>
</clipPath>
</defs>
</svg>
