<svg width="22" height="25" viewBox="0 0 22 25" fill="none" xmlns="http://www.w3.org/2000/svg">
<path d="M20.5797 5.42126H16.5787V1.42126C16.5787 1.30971 16.5345 1.20271 16.4557 1.12374C16.3769 1.04477 16.27 1.00027 16.1585 1H1.42126C1.30954 1 1.20239 1.04438 1.12339 1.12339C1.04438 1.20239 1 1.30954 1 1.42126V19.1053C1 19.217 1.04438 19.3242 1.12339 19.4032C1.20239 19.4822 1.30954 19.5266 1.42126 19.5266H5.42126V23.5266C5.42126 23.5819 5.43216 23.6367 5.45333 23.6878C5.4745 23.7389 5.50553 23.7853 5.54465 23.8245C5.58377 23.8636 5.63021 23.8946 5.68132 23.9158C5.73243 23.9369 5.78721 23.9478 5.84253 23.9478H20.5797C20.6913 23.9476 20.7982 23.9031 20.877 23.8241C20.9558 23.7451 21 23.6381 21 23.5266V5.83749C20.9989 5.72673 20.9542 5.62087 20.8755 5.54293C20.7968 5.46498 20.6905 5.42126 20.5797 5.42126V5.42126ZM15.7372 1.84152V18.6851H1.84152V1.84152H15.7372ZM16.1585 19.5266C16.27 19.5263 16.3769 19.4818 16.4557 19.4028C16.5345 19.3239 16.5787 19.2169 16.5787 19.1053V6.26279H20.1585V23.1063H6.26279V19.5266H16.1585Z" fill="#34C636" stroke="#34C636" stroke-width="0.75"/>
</svg>
