<svg width="20" height="24" viewBox="0 0 20 24" fill="none" xmlns="http://www.w3.org/2000/svg">
<g clip-path="url(#clip0)">
<path d="M19.9733 5.99579V5.98038C19.9609 5.31875 19.9486 4.69307 19.9486 4.08589C19.9483 3.95246 19.8952 3.82457 19.8009 3.73022C19.7065 3.63587 19.5786 3.58275 19.4452 3.58248C15.6542 3.58248 12.7672 2.48934 10.3508 0.142808C10.257 0.0512495 10.1311 0 9.99997 0C9.86886 0 9.74295 0.0512495 9.64912 0.142808C7.23477 2.48934 4.34578 3.58248 0.555776 3.58248C0.422167 3.58247 0.294016 3.63548 0.199444 3.72986C0.104872 3.82424 0.0516048 3.95228 0.0513327 4.08589C0.0513327 4.70232 0.0400315 5.33108 0.0266756 5.99682C-0.0329124 9.13649 -0.102774 12.6964 1.11159 15.9758C2.51293 19.7658 5.36597 22.3609 9.83507 23.9102C9.9419 23.9472 10.058 23.9472 10.1649 23.9102C14.634 22.3609 17.487 19.7658 18.8883 15.9758C20.1017 12.6953 20.0339 9.13649 19.9733 5.99579ZM10.1227 22.8571L9.99945 22.9013L9.87719 22.8571C0.775636 19.55 0.912277 12.3594 1.03351 6.01531V6.00504C1.03967 5.63518 1.04686 5.27765 1.052 4.92629V4.58623L1.39206 4.57184C4.78242 4.42904 7.4423 3.42323 9.75802 1.40546L9.99432 1.19998L10.2306 1.40546C12.5474 3.42323 15.2052 4.42904 18.5986 4.57184L18.9377 4.58623L18.9428 4.92629C18.9428 5.28073 18.9541 5.64545 18.9613 6.01531C19.0877 12.3594 19.2253 19.55 10.1227 22.8571Z" fill="#A346ED" stroke="#A346ED" stroke-width="0.5"/>
<path d="M13.5822 9.07788C13.5162 9.07765 13.4508 9.09052 13.3898 9.11574C13.3288 9.14096 13.2733 9.17803 13.2268 9.2248L8.80902 13.6425L6.77481 11.6093C6.67944 11.5148 6.55042 11.462 6.41613 11.4626C6.28184 11.4632 6.15328 11.5171 6.05873 11.6124C5.96418 11.7078 5.91138 11.8368 5.91196 11.9711C5.91254 12.1054 5.96644 12.234 6.06181 12.3285L8.44944 14.7161C8.54398 14.8103 8.67198 14.8632 8.80542 14.8632C8.93886 14.8632 9.06687 14.8103 9.16141 14.7161L13.9377 9.93986C14.008 9.86939 14.0558 9.77969 14.0751 9.68207C14.0944 9.58445 14.0843 9.4833 14.0462 9.39139C14.008 9.29949 13.9435 9.22095 13.8607 9.16569C13.778 9.11044 13.6807 9.08096 13.5812 9.08097L13.5822 9.07788Z" fill="#A346ED" stroke="#A346ED" stroke-width="0.5"/>
</g>
<defs>
<clipPath id="clip0">
<rect width="20" height="23.9379" fill="white"/>
</clipPath>
</defs>
</svg>
