<svg width="23" height="23" viewBox="0 0 23 23" fill="none" xmlns="http://www.w3.org/2000/svg">
<path d="M12.5733 22.9429H10.4267C9.70121 22.9429 9.08883 22.4009 9.00258 21.6811L8.77354 19.8877C8.31642 19.7395 7.87558 19.5569 7.45679 19.3438L6.02504 20.4536C5.44429 20.902 4.62683 20.8503 4.12275 20.3332L2.61337 18.8275C2.09875 18.3295 2.047 17.5141 2.49646 16.9357L3.60908 15.5066C3.39442 15.0888 3.21137 14.6491 3.06379 14.1931L1.26213 13.9646C0.543375 13.8766 0 13.2658 0 12.5421V10.4008C0 9.67714 0.543375 9.06628 1.265 8.98024L3.06283 8.75177C3.21137 8.29578 3.39442 7.85604 3.60812 7.43829L2.49646 6.01009C2.04604 5.43078 2.09875 4.6144 2.61817 4.11156L4.12754 2.60593C4.62683 2.09259 5.44525 2.04192 6.02408 2.48931L7.45583 3.60013C7.87463 3.38695 8.31546 3.20436 8.77354 3.05619L9.00258 1.25899C9.08883 0.542027 9.70121 0 10.4267 0H12.5733C13.2988 0 13.9112 0.542027 13.9974 1.26186L14.2265 3.05523C14.6845 3.20341 15.1254 3.38599 15.5442 3.59917L16.9759 2.48931C17.5576 2.04096 18.3741 2.09259 18.8782 2.61071L20.3876 4.11634C20.9022 4.6144 20.954 5.42983 20.5045 6.00818L19.3919 7.43733C19.6065 7.85508 19.7896 8.29482 19.9372 8.75082L21.7388 8.97929C22.4566 9.06628 23 9.67714 23 10.4008V12.5421C23 13.2658 22.4566 13.8766 21.735 13.9627L19.9372 14.1912C19.7886 14.6471 19.6056 15.0869 19.3919 15.5046L20.5045 16.9328C20.9549 17.5121 20.9022 18.3276 20.3828 18.8304L18.8734 20.336C18.3741 20.8494 17.5557 20.902 16.9769 20.4527L15.5442 19.3428C15.1254 19.5569 14.6845 19.7395 14.2274 19.8867L13.9984 21.6839C13.9112 22.4009 13.2988 22.9429 12.5733 22.9429ZM7.40792 18.297C7.48746 18.297 7.56892 18.3171 7.64175 18.3572C8.16979 18.6516 8.74192 18.8887 9.34183 19.0608C9.52583 19.1134 9.66096 19.2701 9.68492 19.4594L9.95325 21.5625C9.982 21.8025 10.19 21.987 10.4267 21.987H12.5733C12.81 21.987 13.018 21.8025 13.0458 21.5673L13.3151 19.4604C13.339 19.2711 13.4742 19.1143 13.6582 19.0618C14.2581 18.8897 14.8302 18.6526 15.3582 18.3582C15.526 18.2645 15.7349 18.2807 15.8853 18.3983L17.5624 19.6984C17.755 19.8475 18.0253 19.8351 18.1901 19.6659L19.7091 18.1507C19.8825 17.9825 19.896 17.7129 19.7465 17.5198L18.4431 15.8469C18.3253 15.6958 18.309 15.4884 18.4029 15.3211C18.698 14.7944 18.9357 14.2237 19.1082 13.6252C19.1609 13.4417 19.3181 13.3069 19.5078 13.283L21.6162 13.0153C21.8567 12.9857 22.0417 12.7783 22.0417 12.5421V10.4008C22.0417 10.1647 21.8567 9.95723 21.621 9.92951L19.5088 9.66088C19.319 9.63699 19.1619 9.5022 19.1092 9.31865C18.9367 8.72022 18.699 8.14952 18.4038 7.62279C18.3099 7.4555 18.3253 7.24805 18.4441 7.09701L19.7474 5.42409C19.8979 5.23099 19.8845 4.96141 19.7158 4.7989L18.1968 3.28371C18.0291 3.10972 17.7579 3.09634 17.5643 3.24642L15.8872 4.54652C15.7349 4.66411 15.5269 4.68036 15.3592 4.58667C14.8331 4.29224 14.261 4.05612 13.6591 3.88309C13.4751 3.83051 13.34 3.67374 13.316 3.48446L13.0477 1.38136C13.018 1.14045 12.81 0.955955 12.5733 0.955955H10.4267C10.19 0.955955 9.982 1.14045 9.95421 1.37562L9.68492 3.48255C9.66096 3.67182 9.52583 3.8286 9.34183 3.88213C8.74 4.05421 8.16788 4.29128 7.64175 4.58476C7.47404 4.6794 7.26608 4.66219 7.11371 4.54557L5.43662 3.24547C5.24304 3.09538 4.97375 3.10877 4.80988 3.27701L3.29092 4.79316C3.11746 4.96141 3.10404 5.23099 3.25354 5.42409L4.55688 7.09701C4.67475 7.24805 4.69104 7.4555 4.59713 7.62279C4.301 8.14952 4.06429 8.72022 3.89179 9.31865C3.83908 9.5022 3.68192 9.63699 3.49217 9.66088L1.38383 9.92855C1.14329 9.95723 0.958333 10.1647 0.958333 10.4008V12.5421C0.958333 12.7783 1.14329 12.9857 1.37904 13.0134L3.49121 13.282C3.68096 13.3059 3.83812 13.4407 3.89083 13.6243C4.06333 14.2227 4.301 14.7934 4.59617 15.3201C4.69008 15.4874 4.67475 15.6949 4.55592 15.8459L3.25258 17.5188C3.10212 17.7119 3.11554 17.9815 3.28421 18.144L4.80317 19.6592C4.97087 19.8323 5.24017 19.8456 5.43567 19.6965L7.11275 18.3964C7.19996 18.3314 7.30346 18.297 7.40792 18.297Z" fill="#FFA30D"/>
<path fill-rule="evenodd" clip-rule="evenodd" d="M11.5 17.7341C14.9588 17.7341 17.7627 14.9302 17.7627 11.4714C17.7627 8.01263 14.9588 5.20872 11.5 5.20872C8.0412 5.20872 5.23729 8.01263 5.23729 11.4714C5.23729 14.9302 8.0412 17.7341 11.5 17.7341ZM11.5 18.5247C15.3954 18.5247 18.5532 15.3668 18.5532 11.4714C18.5532 7.57605 15.3954 4.41821 11.5 4.41821C7.60461 4.41821 4.44678 7.57605 4.44678 11.4714C4.44678 15.3668 7.60461 18.5247 11.5 18.5247Z" fill="#FFA30D"/>
<path fill-rule="evenodd" clip-rule="evenodd" d="M11.5 15.9901C13.9956 15.9901 16.0186 13.967 16.0186 11.4715C16.0186 8.97591 13.9956 6.95286 11.5 6.95286C9.00448 6.95286 6.98143 8.97591 6.98143 11.4715C6.98143 13.967 9.00448 15.9901 11.5 15.9901ZM11.5 16.7806C14.4322 16.7806 16.8092 14.4036 16.8092 11.4715C16.8092 8.53933 14.4322 6.16235 11.5 6.16235C8.56789 6.16235 6.19092 8.53933 6.19092 11.4715C6.19092 14.4036 8.56789 16.7806 11.5 16.7806Z" fill="#FFA30D"/>
<path d="M11.0453 12.4583C11.0611 12.4926 11.069 12.5268 11.069 12.5611C11.069 12.6217 11.044 12.6731 10.9939 12.7152C10.9465 12.7574 10.8911 12.7785 10.8279 12.7785C10.7857 12.7785 10.7462 12.7679 10.7093 12.7469C10.6724 12.7231 10.6434 12.6876 10.6224 12.6401L10.3852 12.1105H8.9939L8.75674 12.6401C8.73566 12.6876 8.70668 12.7231 8.66979 12.7469C8.6329 12.7679 8.59205 12.7785 8.54726 12.7785C8.48665 12.7785 8.43132 12.7574 8.38125 12.7152C8.33119 12.6731 8.30615 12.6217 8.30615 12.5611C8.30615 12.5268 8.31406 12.4926 8.32987 12.4583L9.42077 10.1144C9.44449 10.0617 9.48006 10.0222 9.52749 9.99587C9.57756 9.96689 9.63026 9.95239 9.68559 9.95239C9.74093 9.95239 9.79231 9.96689 9.83974 9.99587C9.88981 10.0222 9.9267 10.0617 9.95042 10.1144L11.0453 12.4583ZM9.16781 11.7152H10.2113L9.68955 10.5413L9.16781 11.7152Z" fill="#FFA30D"/>
<path d="M11.6073 12.7864C11.5309 12.7864 11.4689 12.764 11.4215 12.7192C11.3767 12.6718 11.3543 12.6085 11.3543 12.5295V10.2172C11.3543 10.1408 11.3754 10.0815 11.4176 10.0393C11.4624 9.99719 11.523 9.97611 11.5994 9.97611H12.5717C12.8695 9.97611 13.1013 10.0512 13.2674 10.2014C13.4334 10.349 13.5164 10.5571 13.5164 10.8259C13.5164 11.0947 13.4334 11.3042 13.2674 11.4544C13.1013 11.6046 12.8695 11.6797 12.5717 11.6797H11.8642V12.5295C11.8642 12.6085 11.8405 12.6718 11.793 12.7192C11.7483 12.764 11.6863 12.7864 11.6073 12.7864ZM12.5085 11.2884C12.8589 11.2884 13.0342 11.1355 13.0342 10.8299C13.0342 10.5242 12.8589 10.3714 12.5085 10.3714H11.8642V11.2884H12.5085Z" fill="#FFA30D"/>
<path d="M14.1178 12.7864C14.0414 12.7864 13.9794 12.7627 13.932 12.7152C13.8872 12.6678 13.8648 12.6059 13.8648 12.5295V10.2093C13.8648 10.1329 13.8872 10.0723 13.932 10.0275C13.9794 9.98006 14.0414 9.95635 14.1178 9.95635C14.1968 9.95635 14.2587 9.98006 14.3035 10.0275C14.351 10.0723 14.3747 10.1329 14.3747 10.2093V12.5295C14.3747 12.6059 14.351 12.6678 14.3035 12.7152C14.2587 12.7627 14.1968 12.7864 14.1178 12.7864Z" fill="#FFA30D"/>
</svg>
