<svg width="22" height="14" viewBox="0 0 22 14" fill="none" xmlns="http://www.w3.org/2000/svg">
<path d="M22 11L22 3C22 1.34312 20.6569 -5.87099e-08 19 -1.31134e-07L3 -8.30516e-07C1.34312 -9.02941e-07 -5.87099e-08 1.34312 -1.31134e-07 3L-4.80825e-07 11C-5.5325e-07 12.6569 1.34312 14 3 14L19 14C20.6569 14 22 12.6569 22 11ZM3 12C2.44775 12 2 11.5522 2 11L2 3C2 2.44775 2.44775 2 3 2L19 2C19.5522 2 20 2.44775 20 3L20 11C20 11.5522 19.5522 12 19 12L3 12Z" fill="#9EA0A7"/>
<circle cx="18" cy="7" r="1" fill="#9EA0A7"/>
</svg>
