<svg width="38" height="46" viewBox="0 0 38 46" fill="none" xmlns="http://www.w3.org/2000/svg">
<circle cx="20.5" cy="28.5" r="17.5" fill="#5DA5FA" fill-opacity="0.1"/>
<g clip-path="url(#clip0)">
<path d="M35.5785 9.72489C35.3485 9.72489 35.1217 9.61831 34.9765 9.4177C34.7364 9.08557 34.8108 8.62155 35.1429 8.38138L36.823 7.16598C37.1552 6.92558 37.6192 7.00025 37.8594 7.3323C38.0996 7.66443 38.0252 8.12844 37.6931 8.36861L36.0129 9.58402C35.8814 9.67909 35.7292 9.72489 35.5785 9.72489Z" fill="#7283FE"/>
<path d="M2.4218 9.72482C2.27099 9.72482 2.11884 9.67903 1.98732 9.58396L0.307232 8.36855C-0.0248968 8.1283 -0.0993382 7.66436 0.140908 7.33224C0.381228 7.00018 0.845244 6.92567 1.1773 7.16591L2.85746 8.38124C3.18959 8.62149 3.26403 9.08543 3.02379 9.41756C2.87861 9.61817 2.6518 9.72482 2.4218 9.72482Z" fill="#7283FE"/>
<path d="M19 3.63857C18.5902 3.63857 18.2578 3.30629 18.2578 2.89638V1.125C18.2578 0.71509 18.5902 0.382812 19 0.382812C19.4098 0.382812 19.7422 0.71509 19.7422 1.125V2.8963C19.7422 3.30621 19.4098 3.63857 19 3.63857Z" fill="#7283FE"/>
<path d="M36.5637 15.9776L30.8118 6.03603C30.6792 5.80669 30.4344 5.66553 30.1695 5.66553H7.83066C7.56578 5.66553 7.32093 5.80669 7.1883 6.03603L1.4365 15.9776C1.28123 16.2458 1.30906 16.5822 1.50619 16.8213L18.4274 37.3471C18.5683 37.5182 18.7784 37.6172 19.0001 37.6172C19.2218 37.6172 19.4317 37.5182 19.5727 37.3471L25.9282 29.638L26.003 29.6676L27.6783 33.9254C27.79 34.2092 28.064 34.3958 28.369 34.3958C28.674 34.3958 28.948 34.2092 29.0597 33.9254L30.7349 29.6676L34.9823 27.9885C35.2656 27.8765 35.4517 27.6029 35.4517 27.2983C35.4517 26.9937 35.2656 26.72 34.9824 26.6081L30.7349 24.929L30.4361 24.1697L36.4939 16.8213C36.6911 16.5822 36.719 16.2459 36.5637 15.9776ZM34.6345 15.6071H26.1807L30.1689 7.88897L34.6345 15.6071ZM19.0001 34.0774L13.993 17.0915H15.645C16.0548 17.0915 16.3872 16.7592 16.3872 16.3493C16.3872 15.9394 16.0548 15.6071 15.645 15.6071H14.3608L19.0001 8.00513L23.6393 15.6071H22.3553C21.9454 15.6071 21.6131 15.9393 21.6131 16.3492C21.6131 16.7592 21.9454 17.0914 22.3553 17.0914H24.0074L19.0001 34.0774ZM24.908 14.8365L20.2171 7.1499H28.8801L24.908 14.8365ZM12.4454 17.0914L17.3396 33.6939L3.65259 17.0914H12.4454ZM13.092 14.8365L9.12007 7.1499H17.783L13.092 14.8365ZM7.83118 7.88897L11.8194 15.6071H3.36574L7.83118 7.88897ZM20.6606 33.694L22.2813 28.1963L24.4773 29.0644L20.6606 33.694ZM32.6907 27.2983L29.8896 28.4056C29.6983 28.4812 29.5471 28.6327 29.4717 28.824L28.3691 31.6265L27.2664 28.824C27.1911 28.6327 27.0398 28.4811 26.8485 28.4056L24.0475 27.2983L26.8486 26.1909C27.0398 26.1153 27.1911 25.9638 27.2664 25.7725L28.3691 22.97L29.4717 25.7725C29.5471 25.9638 29.6983 26.1154 29.8895 26.1909L32.6907 27.2983ZM29.0597 20.6712C28.948 20.3874 28.674 20.2008 28.369 20.2008C28.064 20.2008 27.79 20.3874 27.6783 20.6712L26.003 24.929L22.8806 26.1633L25.5548 17.0914H34.3475L29.8146 22.5901L29.0597 20.6712Z" fill="#7283FE"/>
<path d="M19.0133 17.0919C18.7076 17.0919 18.4272 16.8961 18.3194 16.6108C18.2087 16.3177 18.2994 15.974 18.5425 15.7754C18.7826 15.5793 19.1286 15.5537 19.3946 15.7129C19.6605 15.8721 19.8025 16.1899 19.7415 16.4944C19.6729 16.8365 19.3628 17.0919 19.0133 17.0919Z" fill="#7283FE"/>
</g>
<defs>
<clipPath id="clip0">
<rect width="38" height="38" fill="white"/>
</clipPath>
</defs>
</svg>
