<svg width="56" height="49" viewBox="0 0 56 49" fill="none" xmlns="http://www.w3.org/2000/svg">
<circle cx="38.5" cy="17.5" r="17.5" fill="#7268E5" fill-opacity="0.1"/>
<path d="M45 38.3652H42.3633V14.6348H45V6.72461H0V14.6348H2.63681V38.3652H0V46.2754H45V38.3652ZM42.3633 11.998H37.8809V9.36133H42.3633V11.998ZM9.75586 11.998V9.36133H14.1504V11.998H9.75586ZM16.7871 9.36133H21.1816V11.998H16.7871V9.36133ZM23.8184 9.36133H28.2129V11.998H23.8184V9.36133ZM30.8496 9.36133H35.2441V11.998H30.8496V9.36133ZM2.63672 9.36133H7.11914V11.998H2.63672V9.36133ZM5.27344 14.6348H39.7267V38.3652H5.27344V14.6348ZM14.1504 41.002V43.6387H9.75586V41.002H14.1504ZM16.7871 41.002H21.1816V43.6387H16.7871V41.002ZM23.8184 41.002H28.2129V43.6387H23.8184V41.002ZM30.8496 41.002H35.2441V43.6387H30.8496V41.002ZM2.63672 41.002H7.11914V43.6387H2.63672V41.002ZM42.3633 43.6387H37.8809V41.002H42.3633V43.6387Z" fill="#7268E5"/>
<path d="M18.5449 18.7632V34.2369L30.1502 26.5001L18.5449 18.7632ZM21.1816 23.69L25.3967 26.5001L21.1816 29.3101V23.69Z" fill="#7268E5"/>
</svg>
