<svg xmlns="http://www.w3.org/2000/svg" xmlns:xlink="http://www.w3.org/1999/xlink" width="336" height="46" viewBox="0 0 336 46">
    <defs>
        <path id="ngpztkfxta" d="M0.091 0.27L18.643 0.27 18.643 28.713 0.091 28.713z"/>
        <path id="3orzh2dpjc" d="M0.235 0.27L28.571 0.27 28.571 28.713 0.235 28.713z"/>
        <path id="f4t7qnnt4e" d="M0.249 0.237L6.679 0.237 6.679 10 0.249 10z"/>
        <path id="1gjwgnnthg" d="M0.34 0.284L8.423 0.284 8.423 9.985 0.34 9.985z"/>
        <path id="nuv6jq1fki" d="M0.161 0.27L22.983 0.27 22.983 28.713 0.161 28.713z"/>
    </defs>
    <g fill="none" fill-rule="evenodd">
        <g>
            <g>
                <path fill="#FFF" d="M21.647 1.36c.234.238.353.549.353.931 0 .358-.119.657-.353.896-.235.24-.54.358-.915.358h-8.378v24.057c0 .382-.13.71-.387.985-.258.276-.587.413-.986.413-.375 0-.697-.137-.968-.413-.27-.274-.405-.603-.405-.985V3.545H1.266c-.375 0-.68-.119-.915-.358C.117 2.948 0 2.65 0 2.291c0-.382.117-.693.351-.932C.585 1.121.891 1 1.266 1h19.466c.375 0 .68.12.915.36M39.722 10.25c1.337.716 2.384 1.762 3.142 3.137.757 1.374 1.136 3.017 1.136 4.93v9.32c0 .383-.13.706-.39.969s-.58.394-.959.394c-.403 0-.733-.131-.994-.394-.26-.263-.39-.586-.39-.968v-9.322c0-2.127-.586-3.747-1.758-4.858-1.172-1.111-2.705-1.667-4.597-1.667-1.16 0-2.208.227-3.143.681-.935.454-1.675 1.082-2.219 1.883-.544.8-.817 1.69-.817 2.67v10.613c0 .406-.123.735-.372.986-.249.25-.575.376-.977.376s-.734-.125-.993-.376c-.262-.251-.391-.58-.391-.986V2.398c0-.406.129-.74.39-1.004.26-.263.592-.394.994-.394s.728.131.977.394.372.598.372 1.004v9.608c.781-.884 1.728-1.577 2.84-2.079 1.112-.502 2.32-.753 3.623-.753 1.679 0 3.188.359 4.526 1.076M53.772 13.165c-1.17 1.126-1.884 2.61-2.14 4.452h12.842c-.188-1.843-.843-3.326-1.966-4.452-1.122-1.125-2.56-1.687-4.315-1.687-1.778 0-3.252.562-4.421 1.687m9.017-2.926c1.333.826 2.369 1.969 3.105 3.429.737 1.46 1.106 3.124 1.106 4.99 0 .384-.118.69-.351.917-.235.228-.538.34-.912.34H51.562c.186 1.964.935 3.555 2.245 4.776 1.31 1.221 2.947 1.831 4.913 1.831.841 0 1.689-.15 2.543-.448.854-.3 1.537-.677 2.052-1.131.304-.24.62-.36.947-.36.257 0 .515.096.773.288.303.287.456.61.456.97 0 .31-.129.586-.386.825-.772.67-1.754 1.227-2.948 1.67-1.192.443-2.339.664-3.437.664-1.872 0-3.545-.425-5.018-1.275-1.475-.85-2.627-2.034-3.456-3.554-.83-1.52-1.246-3.238-1.246-5.153 0-1.939.392-3.669 1.175-5.189s1.872-2.705 3.263-3.554C54.83 9.425 56.415 9 58.193 9c1.73 0 3.263.412 4.596 1.239" transform="translate(-792 -26) translate(792 26)"/>
                <g transform="translate(-792 -26) translate(792 26) translate(81)">
                    <mask id="b0gs2smv7b" fill="#fff">
                        <use xlink:href="#ngpztkfxta"/>
                    </mask>
                    <path fill="#FFF" d="M14.497 1.513c1.381.828 2.463 1.906 3.247 3.231.161.26.242.545.242.852 0 .45-.207.806-.622 1.066-.184.094-.392.142-.622.142-.254 0-.489-.066-.708-.196-.22-.13-.397-.313-.536-.55-1.29-2.083-3.236-3.136-5.838-3.16-1.866 0-3.339.402-4.422 1.207-1.083.805-1.623 1.953-1.623 3.444 0 2.77 2.177 4.451 6.528 5.043 2.857.426 4.987 1.326 6.392 2.699 1.405 1.373 2.108 3.184 2.108 5.433 0 1.657-.393 3.089-1.176 4.296-.782 1.208-1.854 2.126-3.212 2.752-1.36.628-2.88.941-4.56.941-2.189 0-4.128-.479-5.82-1.438C2.18 26.316.965 25.02.23 23.387c-.092-.165-.139-.355-.139-.568 0-.332.12-.61.362-.835.242-.225.57-.337.985-.337.277 0 .536.077.778.23.241.155.42.374.535.658.53 1.065 1.411 1.924 2.642 2.574 1.233.652 2.667.977 4.302.977 1.888 0 3.408-.468 4.56-1.403 1.151-.935 1.727-2.243 1.727-3.923 0-1.492-.535-2.746-1.606-3.765-1.071-1.018-2.677-1.669-4.82-1.953-2.672-.33-4.772-1.19-6.303-2.575C1.72 11.083.955 9.385.955 7.372c0-1.42.375-2.669 1.122-3.747.749-1.077 1.785-1.905 3.11-2.485C6.51.56 8.014.27 9.695.27c1.82 0 3.42.415 4.802 1.243" mask="url(#b0gs2smv7b)"/>
                </g>
                <path fill="#FFF" d="M124.618 26.688c.254.25.382.567.382.95 0 .382-.128.705-.382.968-.255.263-.579.394-.973.394h-16.29c-.371 0-.69-.137-.956-.412-.267-.275-.399-.604-.399-.986V2.398c0-.406.132-.74.399-1.004.266-.263.585-.394.956-.394h16.29c.394 0 .718.131.973.394.254.263.382.586.382.968 0 .383-.128.7-.382.95-.255.251-.579.377-.973.377H108.71v9.895h10.872c.393 0 .718.131.972.394.256.264.382.586.382.968 0 .383-.133.705-.399.968-.267.263-.585.395-.955.395h-10.872V26.31h14.936c.394 0 .718.126.973.377" transform="translate(-792 -26) translate(792 26)"/>
                <g transform="translate(-792 -26) translate(792 26) translate(128)">
                    <mask id="om969ddd1d" fill="#fff">
                        <use xlink:href="#3orzh2dpjc"/>
                    </mask>
                    <path fill="#FFF" d="M8.526 4.424C6.787 5.443 5.42 6.834 4.425 8.597c-.994 1.763-1.49 3.723-1.49 5.877 0 2.178.496 4.15 1.49 5.912.994 1.764 2.362 3.155 4.101 4.173 1.74 1.018 3.7 1.527 5.877 1.527 2.155 0 4.101-.51 5.842-1.527 1.74-1.018 3.108-2.41 4.101-4.173.994-1.763 1.492-3.734 1.492-5.912 0-2.154-.498-4.114-1.492-5.877-.993-1.763-2.361-3.154-4.1-4.173-1.742-1.017-3.688-1.527-5.843-1.527-2.178 0-4.137.51-5.877 1.527m13.139-2.307c2.166 1.23 3.858 2.923 5.078 5.078 1.22 2.153 1.828 4.58 1.828 7.279 0 2.698-.609 5.13-1.828 7.298-1.22 2.165-2.912 3.864-5.078 5.095-2.167 1.231-4.587 1.846-7.262 1.846-2.699 0-5.125-.615-7.279-1.846-2.155-1.23-3.84-2.93-5.06-5.095-1.22-2.167-1.83-4.6-1.83-7.298 0-2.7.61-5.126 1.83-7.28 1.22-2.154 2.905-3.846 5.06-5.077C9.278.886 11.704.27 14.404.27c2.674 0 5.094.616 7.26 1.847" mask="url(#om969ddd1d)"/>
                </g>
                <path fill="#FFF" d="M247.5 42.11c.478 0 .912-.117 1.303-.35.39-.234.696-.552.919-.954.222-.403.334-.855.334-1.355 0-.501-.112-.952-.334-1.356-.223-.403-.53-.718-.92-.947-.39-.23-.824-.344-1.303-.344-.662 0-1.227.212-1.693.636-.466.425-.74.967-.825 1.63 0 .024-.004.046-.012.062-.008.069-.013.175-.013.319 0 .5.112.952.334 1.355.223.402.527.72.913.953.386.234.818.35 1.296.35m-3.486-5.763v-2.85c0-.144.043-.262.131-.356.089-.093.204-.14.346-.14.143 0 .261.047.353.14.092.094.138.212.138.356v3.728c.294-.407.668-.727 1.12-.96.454-.233.954-.35 1.5-.35.637 0 1.214.155 1.73.464.517.31.924.734 1.222 1.272.298.539.447 1.139.447 1.8 0 .662-.154 1.265-.46 1.807-.306.543-.725.97-1.259 1.28-.533.309-1.127.463-1.782.463-.654 0-1.248-.154-1.781-.464-.533-.31-.953-.736-1.26-1.28-.305-.541-.458-1.144-.458-1.805v-2.99c0-.05.004-.09.013-.115" transform="translate(-792 -26) translate(792 26)"/>
                <g transform="translate(-792 -26) translate(792 26) translate(251 36)">
                    <mask id="yxlci901nf" fill="#fff">
                        <use xlink:href="#f4t7qnnt4e"/>
                    </mask>
                    <path fill="#FFF" d="M6.679.647c0 .075-.017.149-.05.224l-3.99 8.844c-.074.19-.194.285-.358.285-.082 0-.156-.016-.222-.05-.188-.074-.282-.198-.282-.372 0-.075.015-.15.049-.224l1.219-2.72v-.012L.298.883C.266.817.248.743.248.659c0-.173.09-.298.272-.372.066-.033.139-.05.222-.05.172 0 .295.087.37.261l2.4 5.105L5.805.511c.082-.183.205-.274.37-.274.073 0 .147.017.221.05.19.074.284.195.284.36" mask="url(#yxlci901nf)"/>
                </g>
                <path fill="#FFF" d="M267.435 33.437c.522.291.93.67 1.226 1.136.06.092.09.192.09.3 0 .158-.078.283-.233.374-.07.033-.148.05-.235.05-.095 0-.185-.023-.268-.069-.082-.045-.15-.11-.201-.193-.487-.732-1.221-1.103-2.203-1.11-.704 0-1.26.14-1.668.424-.409.282-.613.686-.613 1.21 0 .974.821 1.565 2.463 1.773 1.078.15 1.881.466 2.411.95.53.482.796 1.118.796 1.909 0 .583-.148 1.087-.444 1.511-.295.424-.699.747-1.21.967-.515.221-1.087.331-1.722.331-.825 0-1.557-.168-2.196-.506-.64-.337-1.098-.792-1.376-1.367-.035-.057-.052-.124-.052-.2 0-.116.046-.213.138-.293.09-.078.214-.118.371-.118.104 0 .201.027.293.081.092.055.158.131.201.23.2.376.533.678.999.906.463.229 1.005.343 1.622.343.712 0 1.285-.164 1.721-.493.434-.328.65-.788.65-1.38 0-.524-.2-.965-.605-1.322-.405-.358-1.01-.587-1.819-.687-1.007-.117-1.8-.418-2.378-.906-.578-.486-.867-1.083-.867-1.791 0-.5.14-.938.424-1.317.282-.379.673-.67 1.173-.874.5-.204 1.066-.306 1.701-.306.686 0 1.29.145 1.811.437M277.86 42.174c.093.09.14.203.14.34 0 .136-.047.251-.14.345-.095.094-.215.141-.36.141h-6.002c-.136 0-.253-.05-.351-.147-.099-.098-.147-.216-.147-.353v-9c0-.146.048-.265.147-.36.098-.093.215-.14.351-.14h6.003c.144 0 .264.047.358.14.094.095.141.21.141.346 0 .137-.047.25-.14.34-.095.089-.215.134-.36.134h-5.502v3.534h4.005c.145 0 .264.047.359.141.094.094.141.209.141.345 0 .137-.05.253-.148.347-.099.094-.216.14-.352.14h-4.005v3.572h5.503c.144 0 .264.045.358.135M281.926 34.46c-.613.358-1.097.848-1.447 1.467-.35.62-.526 1.31-.526 2.067 0 .765.175 1.458.526 2.079.35.62.834 1.109 1.447 1.467.614.357 1.305.536 2.075.536.759 0 1.446-.179 2.06-.536.615-.358 1.097-.847 1.448-1.467.352-.62.527-1.314.527-2.08 0-.757-.175-1.445-.527-2.066-.351-.62-.833-1.109-1.447-1.467-.615-.357-1.302-.536-2.061-.536-.77 0-1.46.179-2.075.536m4.637-.811c.765.433 1.361 1.028 1.792 1.785.43.758.645 1.61.645 2.56 0 .949-.214 1.804-.645 2.565-.431.762-1.027 1.359-1.792 1.792-.765.433-1.619.649-2.562.649-.953 0-1.81-.216-2.57-.65-.76-.432-1.355-1.03-1.785-1.79-.43-.762-.646-1.617-.646-2.566 0-.95.216-1.802.646-2.56.43-.757 1.025-1.352 1.785-1.785.76-.433 1.617-.649 2.57-.649.943 0 1.797.216 2.562.649M296.412 41.496c.393-.363.59-.848.59-1.454 0-.58-.197-1.044-.59-1.39-.394-.345-.906-.518-1.537-.518h-2.864v3.905h2.864c.63 0 1.143-.18 1.537-.543m-.467-4.764c.333-.294.5-.698.5-1.21 0-.495-.165-.879-.493-1.152-.329-.273-.761-.41-1.296-.41h-2.645v3.214h2.645c.526 0 .956-.148 1.289-.442m.117-3.406c.419.218.752.519.998.903s.369.815.369 1.293c0 .453-.123.858-.369 1.216-.246.36-.577.637-.992.833.596.162 1.068.454 1.413.877.346.422.519.954.519 1.594 0 .572-.134 1.082-.402 1.53-.268.449-.637.799-1.109 1.05-.471.252-1.009.378-1.614.378h-3.305c-.173 0-.312-.045-.415-.135-.103-.09-.155-.21-.155-.365v-9c0-.146.047-.265.142-.36.095-.093.217-.14.363-.14h3.15c.518 0 .988.109 1.407.326M300.142 33.138c.095-.092.215-.138.362-.138.146 0 .267.046.363.138.094.092.142.209.142.351v6.073c0 .485.126.918.381 1.299.253.38.608.677 1.065.89.457.213.978.32 1.565.32.576 0 1.09-.107 1.538-.32.448-.213.8-.51 1.053-.89.254-.381.38-.814.38-1.3V33.49c0-.142.05-.259.144-.351.094-.092.214-.138.362-.138.146 0 .266.046.362.138.094.092.141.209.141.351v6.073c0 .66-.17 1.252-.51 1.775-.34.523-.812.93-1.415 1.223-.604.293-1.288.44-2.055.44-.776 0-1.469-.147-2.08-.44-.613-.292-1.09-.7-1.43-1.223-.34-.523-.51-1.114-.51-1.775v-6.073c0-.142.048-.259.142-.351M315.005 41.573c.622-.355 1.108-.843 1.458-1.466.35-.623.525-1.327.525-2.113s-.175-1.49-.525-2.113c-.35-.623-.836-1.11-1.458-1.46-.622-.35-1.332-.525-2.128-.525h-1.852v8.208h1.852c.796 0 1.506-.177 2.128-.531m.525-7.933c.78.427 1.386 1.018 1.82 1.774.433.755.65 1.615.65 2.58 0 .964-.217 1.827-.65 2.586-.434.76-1.04 1.353-1.82 1.78-.779.427-1.663.64-2.653.64h-2.366c-.148 0-.27-.047-.366-.14-.098-.095-.145-.214-.145-.36v-9c0-.145.047-.265.145-.359.096-.094.218-.141.366-.141h2.366c.99 0 1.874.213 2.653.64M324.005 41.573c.622-.355 1.108-.843 1.458-1.466.351-.623.526-1.327.526-2.113s-.175-1.49-.526-2.113c-.35-.623-.836-1.11-1.458-1.46-.62-.35-1.33-.525-2.128-.525h-1.851v8.208h1.851c.797 0 1.507-.177 2.128-.531m.526-7.933c.78.427 1.385 1.018 1.82 1.774.433.755.649 1.615.649 2.58 0 .964-.216 1.827-.65 2.586-.434.76-1.04 1.353-1.819 1.78-.78.427-1.664.64-2.654.64h-2.364c-.15 0-.271-.047-.368-.14-.096-.095-.145-.214-.145-.36v-9c0-.145.049-.265.145-.359.097-.094.218-.141.368-.141h2.364c.99 0 1.874.213 2.654.64" transform="translate(-792 -26) translate(792 26)"/>
                <g transform="translate(-792 -26) translate(792 26) translate(327 33)">
                    <mask id="8eugsdizmh" fill="#fff">
                        <use xlink:href="#1gjwgnnthg"/>
                    </mask>
                    <path fill="#FFF" d="M8.303.415c.081.087.12.192.12.317 0 .116-.03.22-.088.31L4.876 6.395v3.106c0 .132-.046.246-.139.341-.094.095-.211.143-.355.143-.135 0-.25-.048-.348-.143-.097-.095-.146-.209-.146-.341V6.395L.442 1.042C.374.935.34.832.34.732c0-.125.047-.23.14-.317.092-.087.207-.13.342-.13.093 0 .17.018.234.056.063.037.124.097.184.18L4.395 5.5 7.537.545c.068-.09.134-.157.203-.198.067-.042.151-.063.252-.063.127 0 .231.044.311.13" mask="url(#8eugsdizmh)"/>
                </g>
                <g transform="translate(-792 -26) translate(792 26) translate(170)">
                    <mask id="1sycvazbvj" fill="#fff">
                        <use xlink:href="#nuv6jq1fki"/>
                    </mask>
                    <path fill="#FFF" d="M18.56 1.015c1.391.498 2.736 1.291 4.034 2.38.259.19.389.461.389.816 0 .19-.047.362-.142.515-.094.155-.224.267-.389.338-.047.166-.153.296-.318.39-.166.096-.342.142-.531.142-.353 0-.65-.106-.885-.32-.92-.828-1.923-1.432-3.007-1.81-1.086-.379-2.347-.568-3.786-.568-1.983 0-3.822.527-5.521 1.58C6.706 5.53 5.355 6.946 4.353 8.72c-1.003 1.776-1.504 3.693-1.504 5.753 0 2.107.495 4.048 1.486 5.824.992 1.775 2.336 3.184 4.035 4.225 1.698 1.042 3.55 1.563 5.555 1.563 2.57 0 4.894-.829 6.97-2.486.26-.19.52-.284.778-.284.354 0 .66.124.92.373.26.248.39.574.39.976 0 .38-.13.71-.39.995-2.217 2.036-5.106 3.053-8.668 3.053-2.501 0-4.801-.639-6.901-1.917-2.1-1.278-3.767-3.006-5.007-5.185C.779 19.434.161 17.055.161 14.474.16 11.917.773 9.55 2 7.372c1.227-2.178 2.889-3.906 4.989-5.185C9.089.91 11.399.27 13.925.27c1.698 0 3.243.248 4.635.745" mask="url(#1sycvazbvj)"/>
                </g>
                <path fill="#FFF" d="M212.722 10.25c1.337.717 2.384 1.762 3.142 3.137.757 1.374 1.136 3.017 1.136 4.93v9.32c0 .383-.13.706-.39.969-.262.263-.58.394-.96.394-.402 0-.733-.13-.993-.394-.26-.263-.391-.586-.391-.968v-9.322c0-2.127-.586-3.746-1.757-4.858-1.172-1.111-2.705-1.667-4.599-1.667-1.159 0-2.207.227-3.14.681-.937.455-1.676 1.082-2.22 1.883-.545.8-.817 1.69-.817 2.67v10.613c0 .406-.123.735-.372.986-.249.25-.575.376-.977.376-.403 0-.734-.125-.993-.376-.262-.251-.391-.58-.391-.986V2.398c0-.406.129-.74.39-1.004.26-.263.591-.394.994-.394.402 0 .728.131.977.394.249.264.372.598.372 1.004v9.608c.781-.884 1.728-1.577 2.84-2.079 1.112-.502 2.32-.753 3.622-.753 1.68 0 3.19.359 4.527 1.076M226.772 13.165c-1.17 1.126-1.884 2.61-2.14 4.453h12.842c-.188-1.844-.843-3.327-1.965-4.453-1.123-1.124-2.562-1.687-4.316-1.687-1.778 0-3.251.563-4.42 1.687m9.017-2.926c1.333.826 2.368 1.97 3.105 3.429.737 1.46 1.105 3.124 1.105 4.99 0 .384-.118.69-.35.917-.235.228-.538.34-.913.34H224.56c.187 1.964.935 3.555 2.246 4.776 1.31 1.221 2.948 1.831 4.912 1.831.843 0 1.69-.149 2.544-.448.854-.3 1.538-.677 2.053-1.131.303-.24.62-.36.947-.36.257 0 .514.096.773.288.303.287.455.61.455.97 0 .311-.13.586-.386.825-.772.67-1.754 1.227-2.947 1.67-1.193.443-2.339.664-3.439.664-1.87 0-3.543-.425-5.018-1.275-1.473-.849-2.625-2.034-3.456-3.554-.83-1.52-1.245-3.237-1.245-5.153 0-1.939.392-3.668 1.175-5.189.784-1.52 1.871-2.705 3.264-3.554C227.83 9.425 229.415 9 231.193 9c1.731 0 3.263.413 4.597 1.239M259.713 12.447c.191.215.287.467.287.754 0 .383-.203.718-.61 1.005-.214.144-.441.216-.681.216-.358 0-.705-.18-1.04-.539-.717-.79-1.506-1.382-2.367-1.777s-1.818-.593-2.87-.593c-1.314 0-2.487.318-3.514.952-1.028.634-1.823 1.526-2.385 2.675-.563 1.149-.843 2.442-.843 3.878 0 1.412.299 2.688.897 3.824.596 1.137 1.434 2.029 2.51 2.675 1.076.646 2.307.97 3.694.97 1.913 0 3.456-.515 4.627-1.544.31-.264.634-.395.969-.395.286 0 .55.095.79.287.333.287.5.61.5.97 0 .31-.12.574-.358.79C257.598 28.197 255.42 29 252.79 29c-1.865 0-3.539-.436-5.02-1.31-1.484-.874-2.65-2.071-3.498-3.591-.85-1.52-1.273-3.214-1.273-5.081 0-1.915.406-3.632 1.219-5.153.812-1.52 1.937-2.71 3.372-3.572C249.026 9.43 250.639 9 252.432 9c2.99 0 5.417 1.149 7.281 3.447M280 27.716c0 .357-.166.678-.499.963-.283.214-.568.321-.852.321-.38 0-.7-.166-.96-.5l-7.323-9.024-2.666 2.426v5.6c0 .404-.124.731-.372.98-.25.25-.575.375-.978.375s-.729-.125-.977-.374c-.25-.25-.373-.577-.373-.981V2.355c0-.404.124-.73.373-.98.248-.25.574-.375.977-.375s.729.125.978.375c.248.25.372.576.372.98v16.23l10.024-9.096c.262-.238.545-.357.854-.357.355 0 .651.143.889.429.26.309.39.594.39.856 0 .332-.154.63-.462.891l-7.109 6.456 7.394 9.132c.212.237.32.51.32.82M284.393 1.376c.261-.25.583-.376.964-.376.404 0 .732.125.982.376s.374.58.374.986v20.436c0 1.027.21 1.864.626 2.51.416.645.946.967 1.589.967h.893c.357 0 .643.126.857.377.215.25.322.58.322.986s-.149.735-.446.986c-.298.25-.686.376-1.162.376h-.464c-1.452 0-2.637-.579-3.554-1.739-.916-1.159-1.374-2.647-1.374-4.463V2.362c0-.406.13-.735.393-.986M295.991 9.958c.269-.26.61-.39 1.028-.39.415 0 .752.13 1.009.39.257.261.384.592.384.995v16.661c0 .404-.127.735-.384.995-.257.261-.594.391-1.01.391-.416 0-.758-.13-1.027-.39-.27-.26-.403-.592-.403-.996V10.953c0-.403.134-.734.403-.995m2.421-7.425c.391.355.588.817.588 1.385 0 .546-.197 1.008-.588 1.386-.392.379-.868.568-1.43.568-.563 0-1.034-.19-1.413-.568-.38-.378-.569-.84-.569-1.386 0-.568.196-1.03.588-1.385.39-.355.867-.533 1.43-.533.538 0 1.002.178 1.394.533M315.491 9.808c1.124.538 2.03 1.287 2.717 2.244.184.312.276.587.276.826 0 .407-.184.73-.55.97-.161.12-.378.179-.654.179-.482 0-.884-.18-1.204-.539-1.124-1.34-2.66-2.01-4.61-2.01-1.262 0-2.27.269-3.028.807-.757.54-1.135 1.215-1.135 2.03 0 .86.355 1.55 1.067 2.064.71.515 1.972.928 3.784 1.239 2.454.43 4.209 1.13 5.263 2.1 1.055.97 1.583 2.172 1.583 3.609 0 1.1-.316 2.082-.946 2.944-.63.862-1.509 1.532-2.632 2.01-1.124.48-2.397.719-3.819.719-1.422 0-2.786-.251-4.093-.754-1.308-.503-2.363-1.208-3.166-2.119-.23-.287-.344-.561-.344-.825 0-.407.183-.766.551-1.078.274-.215.56-.323.86-.323.39 0 .723.168.997.503.55.67 1.279 1.185 2.185 1.544.906.359 1.91.539 3.01.539 1.605 0 2.81-.288 3.613-.862.802-.575 1.215-1.329 1.239-2.262 0-.862-.402-1.58-1.204-2.155-.804-.574-2.077-1.005-3.82-1.292-2.248-.383-3.928-1.047-5.04-1.993-1.112-.946-1.669-2.088-1.669-3.43 0-1.746.649-3.1 1.944-4.057C307.962 9.48 309.585 9 311.535 9c1.513 0 2.832.27 3.956.808M333.654 26.62c.23.264.346.601.346 1.01 0 .384-.139.709-.416.973-.277.265-.622.397-1.036.397h-.727c-1.222 0-2.317-.307-3.285-.92-.969-.613-1.724-1.442-2.265-2.488-.541-1.046-.813-2.23-.813-3.552v-9.628h-2.248c-.37 0-.662-.114-.88-.343-.22-.228-.33-.51-.33-.847 0-.36.11-.655.33-.884.218-.228.51-.342.88-.342h2.248v-5.59c0-.408.122-.744.364-1.01.242-.264.558-.396.95-.396.391 0 .715.132.969.397s.38.6.38 1.01v5.589h3.908c.368 0 .662.114.881.342.22.23.329.523.329.884 0 .336-.11.619-.329.847-.22.229-.513.343-.881.343h-3.909v9.628c0 1.226.347 2.23 1.038 3.011.691.782 1.58 1.172 2.663 1.172h.934c.368 0 .669.133.9.397" transform="translate(-792 -26) translate(792 26)"/>
                <path fill="#69AD5C" d="M184.905 21c-.484 0-.966-.194-1.32-.575l-7.115-7.691c-.668-.721-.618-1.842.11-2.503.73-.66 1.862-.61 2.528.11l5.933 6.41 12.988-11.31c.742-.645 1.873-.574 2.525.16.653.735.58 1.854-.161 2.5L186.086 20.56c-.339.295-.76.441-1.18.441" transform="translate(-792 -26) translate(792 26)"/>
            </g>
        </g>
    </g>
</svg>
