<svg xmlns="http://www.w3.org/2000/svg" xmlns:xlink="http://www.w3.org/1999/xlink" x="0px" y="0px" width="1077px" height="635px" viewBox="0 0 1077 635" xml:space="preserve">
<g id="BACKGROUND">
</g>
<g id="OBJECTS">
	<g>
		<g>
			<rect x="551.813" y="20.556" fill="#FFFFFF" width="400.093" height="325.699"></rect>
		</g>
		<linearGradient id="SVGID_1_" gradientUnits="userSpaceOnUse" x1="161.2256" y1="532.6875" x2="3.2534" y2="638.0024">
			<stop offset="0" style="stop-color:#4A50C2;stop-opacity:0.02"></stop>
			<stop offset="1" style="stop-color:#444BCC;stop-opacity:0.64"></stop>
		</linearGradient>
		<ellipse opacity="0.5" fill="url(#SVGID_1_)" cx="107.206" cy="568.701" rx="48.317" ry="6.75"></ellipse>
		<linearGradient id="SVGID_2_" gradientUnits="userSpaceOnUse" x1="1049.9297" y1="534.8428" x2="891.9575" y2="640.1577">
			<stop offset="0" style="stop-color:#4A50C2;stop-opacity:0.02"></stop>
			<stop offset="1" style="stop-color:#444BCC;stop-opacity:0.64"></stop>
		</linearGradient>
		<path opacity="0.5" fill="url(#SVGID_2_)" d="M1044.228,570.855c0,3.729-21.633,6.75-48.316,6.75    c-26.685,0-48.318-3.021-48.318-6.75c0-3.725,21.634-6.748,48.318-6.748C1022.595,564.107,1044.228,567.131,1044.228,570.855z"></path>
		<g>
			<rect x="118.264" y="20.556" fill="#FFFFFF" width="400.092" height="325.699"></rect>
		</g>
		<polygon fill="#EFF2F7" points="951.906,133.732 909.205,133.732 909.205,215.56 856.577,215.56 856.577,238.681 813.646,238.681     813.646,114.203 762.045,114.203 762.045,268.953 712.543,268.953 712.543,134.022 673.765,134.022 673.765,245.288     664.07,245.288 664.07,222.166 613.721,222.166 613.721,268.411 594.824,268.411 594.824,107.192 551.893,107.192     551.893,238.681 551.813,238.681 551.813,346.253 951.906,346.253   "></polygon>
		<polygon fill="#EFF2F7" points="518.355,133.732 484.282,133.732 484.282,215.56 431.655,215.56 431.655,238.681 388.722,238.681     388.722,114.203 337.122,114.203 337.122,268.953 287.622,268.953 287.622,134.022 248.844,134.022 248.844,245.288     239.148,245.288 239.148,222.166 188.798,222.166 188.798,268.411 169.901,268.411 169.901,107.192 118.264,107.192     118.264,302.543 118.264,346.253 518.355,346.253   "></polygon>
		<g>
			<path fill="#5BB59B" d="M69.724,359.623c0,0-14.994,66.227,8.747,111.21c23.74,44.983,23.74,44.983,23.74,44.983     S108.46,403.357,69.724,359.623z"></path>
			<path fill="#FFFFFF" d="M70.737,532.518c1.442,8.121,3.291,16.312,7.31,23.515c4.02,7.203,10.513,13.387,18.528,15.328     c3.634,0.881,7.42,0.867,11.157,0.768c4.104-0.111,8.39-0.371,11.924-2.455c4.609-2.713,7.025-7.951,8.899-12.961     c3.167-8.477,5.571-17.24,7.173-26.147c0.926-5.141,1.523-10.714-0.877-15.355c-3.253-6.286-10.872-8.815-17.857-9.954     c-11.605-1.893-27.588-2.862-38.708,1.864C68.577,511.247,69.163,523.652,70.737,532.518z"></path>
			<path fill="#524F63" d="M97.062,516.033c9.21,0.538,19.189-0.875,24.988-3.997c1.16-0.624,2.191-1.426,1.644-2.189     c-0.646-0.904-3.101-1.277-5.238-1.498c-11.072-1.142-23.334-1.659-34.171,0.18C68.407,511.219,88.634,515.54,97.062,516.033z"></path>
			<path fill="#63A590" d="M92.215,343.378c0,0-7.497,126.204,9.996,172.438C102.211,515.816,113.457,403.357,92.215,343.378z"></path>
			<path fill="#5BB59B" d="M100.002,514.894h4.059c5.973-24.984,23.838-105.913,14.396-143.685c0,0-29.989,106.214-22.492,129.955     C97.795,507.392,99.087,511.782,100.002,514.894z"></path>
		</g>
		<g>
			<path fill="#5BB59B" d="M960.551,363.936c0,0-14.994,66.226,8.747,111.21c23.741,44.985,23.741,44.985,23.741,44.985     S999.286,407.67,960.551,363.936z"></path>
			<path fill="#FFFFFF" d="M961.563,536.832c1.444,8.122,3.292,16.315,7.31,23.516c4.02,7.203,10.514,13.385,18.529,15.326     c3.635,0.881,7.42,0.867,11.158,0.768c4.102-0.109,8.389-0.371,11.923-2.451c4.609-2.717,7.024-7.953,8.898-12.963     c3.168-8.479,5.571-17.24,7.173-26.146c0.926-5.143,1.524-10.717-0.876-15.358c-3.254-6.283-10.873-8.814-17.857-9.953     c-11.605-1.894-27.589-2.86-38.709,1.864C959.403,515.56,959.988,527.965,961.563,536.832z"></path>
			<path fill="#524F63" d="M987.888,520.345c9.21,0.538,19.19-0.872,24.988-3.996c1.161-0.625,2.191-1.426,1.645-2.189     c-0.647-0.904-3.101-1.276-5.239-1.496c-11.072-1.144-23.333-1.661-34.17,0.179C959.236,515.533,979.461,519.853,987.888,520.345     z"></path>
			<path fill="#63A590" d="M983.043,347.693c0,0-7.498,126.203,9.996,172.438C993.039,520.131,1004.285,407.67,983.043,347.693z"></path>
			<path fill="#5BB59B" d="M990.829,519.208h4.059c5.972-24.984,23.838-105.911,14.396-143.685c0,0-29.988,106.214-22.492,129.955     C988.622,511.706,989.914,516.095,990.829,519.208z"></path>
		</g>
		<linearGradient id="SVGID_3_" gradientUnits="userSpaceOnUse" x1="304.6523" y1="508.4971" x2="-51.2481" y2="745.7644">
			<stop offset="0" style="stop-color:#4A50C2;stop-opacity:0.02"></stop>
			<stop offset="1" style="stop-color:#444BCC;stop-opacity:0.64"></stop>
		</linearGradient>
		<ellipse opacity="0.5" fill="url(#SVGID_3_)" cx="182.95" cy="589.633" rx="108.927" ry="14.021"></ellipse>
		<linearGradient id="SVGID_4_" gradientUnits="userSpaceOnUse" x1="1029.3926" y1="519.2832" x2="673.4931" y2="756.5499">
			<stop offset="0" style="stop-color:#4A50C2;stop-opacity:0.02"></stop>
			<stop offset="1" style="stop-color:#444BCC;stop-opacity:0.64"></stop>
		</linearGradient>
		<ellipse opacity="0.5" fill="url(#SVGID_4_)" cx="907.69" cy="600.418" rx="108.927" ry="14.02"></ellipse>
		<linearGradient id="SVGID_5_" gradientUnits="userSpaceOnUse" x1="554.8623" y1="505.2598" x2="198.9614" y2="742.5274">
			<stop offset="0" style="stop-color:#4A50C2;stop-opacity:0.02"></stop>
			<stop offset="1" style="stop-color:#444BCC;stop-opacity:0.64"></stop>
		</linearGradient>
		<path opacity="0.5" fill="url(#SVGID_5_)" d="M542.086,586.395c0,7.744-48.77,14.021-108.929,14.021    c-60.158,0-108.926-6.277-108.926-14.021c0-7.74,48.768-14.018,108.926-14.018C493.316,572.377,542.086,578.654,542.086,586.395z"></path>
		<linearGradient id="SVGID_6_" gradientUnits="userSpaceOnUse" x1="841.7363" y1="500.9458" x2="485.8378" y2="738.2119">
			<stop offset="0" style="stop-color:#4A50C2;stop-opacity:0.02"></stop>
			<stop offset="1" style="stop-color:#444BCC;stop-opacity:0.64"></stop>
		</linearGradient>
		<ellipse opacity="0.5" fill="url(#SVGID_6_)" cx="720.035" cy="582.082" rx="108.926" ry="14.02"></ellipse>
		<linearGradient id="SVGID_7_" gradientUnits="userSpaceOnUse" x1="621.5957" y1="509.834" x2="407.5882" y2="652.5059">
			<stop offset="0" style="stop-color:#4A50C2;stop-opacity:0.02"></stop>
			<stop offset="1" style="stop-color:#444BCC;stop-opacity:0.64"></stop>
		</linearGradient>
		<ellipse opacity="0.5" fill="url(#SVGID_7_)" cx="548.414" cy="558.621" rx="65.067" ry="14.02"></ellipse>
		<g>
			<path fill="#E0E4ED" d="M202.389,214.003l41.097,6.665l-19.553-17.855l9.347-10.426l35.545,31.792     c4.901,5.147,1.404,13.668-5.699,13.891l-49.797,1.555L202.389,214.003z"></path>
			<polygon fill="#524F63" points="219.552,319.337 218.733,587.621 204.618,588.629 194.816,361.02 181.709,362.027      168.32,586.611 154.205,585.605 155.986,314.481    "></polygon>
			<path fill="#E0E4ED" d="M202.389,214.003l-47.466-1.996c-4.906-0.207-9.634,1.864-12.808,5.611l13.871,108.685l64.871,1.306     l-5.924-99.619C214.934,227.99,204.115,214.078,202.389,214.003z"></path>
			<path fill="#FFFFFF" d="M223.774,193.185c-2.606,2.068-5.924,3.984-6.448,7.271c-0.453,2.843,1.641,5.676,4.33,6.705     c2.688,1.028,5.762,0.535,8.39-0.642c4.235-1.894,7.729-5.732,8.509-10.306c0.571-3.353-0.924-9.797-4.817-10.972     C229.321,183.91,226.973,190.648,223.774,193.185z"></path>
			<polygon fill="#424051" points="154.205,585.605 126.738,593.807 127.746,596.156 167.704,591.791 168.32,586.611    "></polygon>
			<path fill="#EEBCC5" d="M65.426,214.845l-4.353-7.401l4.789-10.015c0,0,2.612-6.966,2.612-9.143c0-2.176-2.178-5.225-4.354-1.307     c-2.178,3.92-4.354,6.967-4.354,6.967l-12.909-19.156c-0.368-0.545-0.981-0.871-1.639-0.871l0,0c-1.494,0-2.446,1.594-1.738,2.91     l2.952,5.496c0.982,1.824-1.151,3.736-2.857,2.561l-0.594-0.407c-3.25-2.236-7.692-1.455-9.986,1.755l-0.223,0.312l0.218,6.513     c0.139,4.178,2.063,8.09,5.294,10.742c7.622,6.255,21.17,17.207,21.482,16.27C60.202,218.763,65.426,214.845,65.426,214.845z"></path>
			<path fill="#EEBCC5" d="M212.707,172.089c-1.782-0.881-4.104-0.027-5.223,1.617s-1.16,3.853-0.496,5.727     c1.237,3.498,5.045,5.981,8.714,5.432c3.668-0.549,6.641-4.282,6.1-7.953c-0.388-2.631-2.409-4.876-4.888-5.841     c-2.479-0.965-5.33-0.737-7.777,0.306"></path>
			<path fill="#EEBCC5" d="M211.765,176.21l21.358,16.781c0,0,0.509,9.154-4.576,10.17c-1.526,1.018-21.358-19.832-21.358-19.832     L211.765,176.21z"></path>
			<path fill="#424051" d="M204.618,588.629l0.693,4.506l34.586,5.709c0,0,1.679-2.688,0.671-3.021     c-1.007-0.336-21.835-8.201-21.835-8.201L204.618,588.629z"></path>
			<path fill="#EEBCC5" d="M170.867,191.048l1.09,29.572c0,3.432,2.496,6.354,5.886,6.89l0,0c3.872,0.612,7.488-2.087,8.004-5.974     l1.499-25.571L170.867,191.048z"></path>
			<g>
				
					<rect x="196.636" y="164.801" transform="matrix(0.9831 0.1828 -0.1828 0.9831 36.515 -34.298)" fill="#524F63" width="15.254" height="32.158"></rect>
				
					<rect x="196.65" y="164.646" transform="matrix(0.9831 0.1829 -0.1829 0.9831 36.478 -34.1528)" fill="#524F63" width="13.565" height="32.158"></rect>
			</g>
			<path fill="#FFFFFF" d="M169.154,216.283c0,0-2.164,1.854-2.319,2.473c-0.154,0.618,8.347,13.91,8.347,13.91l5.719-9.119     l7.109,9.119l2.938-16.537l-4.791-1.083l-5.411,6.183l-9.583-7.729L169.154,216.283z"></path>
			<polygon fill="#9092EC" points="180.9,223.546 177.346,229.419 179.817,233.903 178.428,237.303 179.817,280.889      184.764,286.454 189.247,281.199 184.61,237.148 181.982,233.593 185.229,229.111    "></polygon>
			<path fill="#EEBCC5" d="M158.538,159.416c-3,6.932-2.665,14.879-1.087,22.264c1.715,8.023,5.076,16.077,11.433,21.267     c6.357,5.189,16.22,6.663,22.769,1.72c3.901-2.943,6.104-7.611,7.589-12.27c2.952-9.263,3.555-19.613-0.292-28.543     C191.896,147.476,166.96,139.957,158.538,159.416z"></path>
			<polygon fill="#E0E4ED" points="147.928,248.853 96.972,265.302 59.939,224.958 69.168,217.335 103.304,245.323 142.115,217.619      148.73,229.193    "></polygon>
			<polygon fill="#FFFFFF" points="54.106,222.247 58.024,228.341 75.44,218.329 68.475,211.363    "></polygon>
			<path fill="#EEBCC5" d="M149.816,172.546c-2.2,0.966-3.281,3.624-3.037,6.014c0.243,2.39,1.551,4.537,3.023,6.436     c0.815,1.053,1.712,2.075,2.846,2.775c1.098,0.678,2.376,1.022,3.658,1.192c1.573,0.209,3.428,0.042,4.347-1.251     c0.485-0.682,0.609-1.549,0.709-2.381c0.482-3.939-0.535-5.502-2.814-8.354C156.457,174.359,153.709,170.834,149.816,172.546z"></path>
			<path fill="#524F63" d="M164.39,172.813c-0.328,4.114-2.275,8.321-5.886,10.323c-2.691-3.451-4.113-7.772-4.592-12.123     c-0.592-5.377,0.285-11.092,3.427-15.492c3.586-5.025,9.775-7.775,15.933-8.223c6.157-0.445,12.301,1.184,18.014,3.525     c2.477,1.016,5.651,2.051,7.539,0.151c0.985,1.856,1.513,3.954,1.521,6.058c0.008,1.613-0.308,3.272-1.201,4.615     c-1.511,2.267-3.959,4.796-6.618,5.391c-20.099,4.49-29.439-6.42-29.532-6.118c-0.329,1.075,0.316,2.416,0.565,3.509     C164.186,167.175,164.616,169.991,164.39,172.813z"></path>
		</g>
		<g>
			<path fill="#EAD18C" d="M460.068,398.297l-5.709-111.235c0,0-28.6-1.713-37.111-1.713c-4.635,0-12.556,2.2-18.808,4.203     c-5.874,1.883-10.753,1.716-13.607,7.186l-46.903,89.898l28.818,2.742l9.607-10.977l-4.887-7.408l17.521-41.323l-0.283,70.001     L460.068,398.297z"></path>
			<linearGradient id="SVGID_8_" gradientUnits="userSpaceOnUse" x1="357.2793" y1="347.1621" x2="388.9893" y2="347.1621">
				<stop offset="0" style="stop-color:#EAD18C;stop-opacity:0"></stop>
				<stop offset="1" style="stop-color:#524F63;stop-opacity:0.7"></stop>
			</linearGradient>
			<path opacity="0.5" fill="url(#SVGID_8_)" d="M388.369,313.281l-31.09,56.169l9.681,11.341c0,0,3.936,0.791,7.675-0.423     l1.721-1.966l-4.887-7.408l17.521-41.323L388.369,313.281z"></path>
			<path fill="#91616A" d="M413.159,375.808c-1.203-0.402-10.83-6.018-18.05-6.018s-16.045,7.622-16.045,7.622     s-1.203,4.011,3.609,3.208c4.814-0.802,8.022-1.204,8.022-1.204s-8.423,4.413-2.807,5.216c5.614,0.801,29.281,0,29.281,0     L413.159,375.808z"></path>
			<path fill="#5B61D3" d="M411.385,392.125h-92.667v-6.795h92.667c1.877,0,3.397,1.521,3.397,3.398l0,0     C414.782,390.604,413.262,392.125,411.385,392.125z"></path>
			<path fill="#8385E6" d="M385.962,392.125h-89.36c-3.952,0-7.41-2.659-8.424-6.48l-15.771-59.42     c-1.469-5.529,2.701-10.949,8.423-10.949h78.03c3.952,0,7.409,2.659,8.424,6.477L385.962,392.125z"></path>
			<linearGradient id="SVGID_9_" gradientUnits="userSpaceOnUse" x1="272.1104" y1="352.7202" x2="345.4395" y2="352.7202">
				<stop offset="0" style="stop-color:#484EC2;stop-opacity:0"></stop>
				<stop offset="1" style="stop-color:#444BCC;stop-opacity:0.5018"></stop>
			</linearGradient>
			<path fill="url(#SVGID_9_)" d="M280.83,315.275c-5.722,0-9.892,5.42-8.423,10.949l15.771,59.42     c0.487,1.832,1.545,3.388,2.941,4.521l54.32-74.891H280.83z"></path>
			<path fill="#FFFFFF" d="M333.336,358.96c0.979,3.875-1.459,7.019-5.447,7.019c-3.987,0-8.014-3.144-8.992-7.019     c-0.978-3.875,1.461-7.019,5.447-7.019C328.333,351.942,332.357,355.085,333.336,358.96z"></path>
			<path fill="#91616A" d="M414.362,271.517c0.803,1.605,6.418,23.666,6.418,23.666s2.005,3.609,6.82,3.209     c4.812-0.401,6.817-7.221,6.817-7.221l-8.424-27.676L414.362,271.517z"></path>
			<path fill="#91616A" d="M444.051,257.931c0,15.196-16.135,32.015-31.332,32.015s-23.701-16.818-23.701-32.015     c0-15.198,12.32-27.518,27.517-27.518S444.051,242.733,444.051,257.931z"></path>
			<path fill="#FFFFFF" d="M418.775,288.364l-3.21,8.423l2.006,8.826l6.418-9.227l6.418,10.428l7.221-12.834l-4.813-8.424     c0,0-2.407,5.615-7.622,6.818C419.979,293.579,418.775,288.364,418.775,288.364z"></path>
			<polygon fill="#8385E6" points="423.989,296.386 419.176,302.404 421.583,306.012 417.974,313.634 418.775,363.774      423.588,373.801 430.407,362.572 428.804,314.837 425.192,305.613 428.001,301.601    "></polygon>
			<linearGradient id="SVGID_10_" gradientUnits="userSpaceOnUse" x1="374.2402" y1="387.6211" x2="530.5452" y2="325.7958">
				<stop offset="0" style="stop-color:#EAD18C;stop-opacity:0"></stop>
				<stop offset="1" style="stop-color:#524F63;stop-opacity:0.7"></stop>
			</linearGradient>
			<polygon fill="url(#SVGID_10_)" points="457.745,310.272 459.485,398.221 418.124,397.785    "></polygon>
			<path fill="#EAD18C" d="M454.359,287.062l3.814,82.889l-38.307,7.806l5.224,10.015l54.833,3.188l-7.489-81.986     c-0.772-8.448-5.88-15.889-13.487-19.645L454.359,287.062z"></path>
			<polygon fill="#FFFFFF" points="413.159,375.808 420.78,376.61 427.601,387.84 414.782,388.728    "></polygon>
			<path fill="#524F63" d="M374.966,413.326l-67.799,17.25l34.494,135.596l11.896-5.947l-10.111-116.566l60.662-19.032     l-35.089,20.22l0.595,110.623h10.705c0,0,29.737-108.243,32.71-108.243c2.975,0,52.931-33.304,52.931-33.304L374.966,413.326z"></path>
			<polygon fill="#524F63" points="305.178,576.848 352.326,573.498 353.622,558.645 303.226,570.113    "></polygon>
			<polygon fill="#524F63" points="343.445,585.205 352.961,586.393 379.725,576.283 380.318,555.469 369.613,555.469      364.855,568.551 350.431,577.268    "></polygon>
			<path fill="#4A4549" d="M388.062,248.148c-1.077,1.977-2.179,4.281-1.377,6.385c0.979,2.568,4.178,3.355,6.909,3.675     c4.716,0.554,9.466,0.799,14.215,0.735c3.149-0.043,6.315-0.224,9.382-0.941c5.016-1.174,9.579-3.736,14.065-6.268     c3.197-1.805,6.737-4.078,7.318-7.704c0.575-3.597-2.032-6.845-4.466-9.552c-1.384-1.539-2.779-3.088-4.445-4.314     c-4.07-2.992-9.474-3.771-14.462-2.967C402.812,229.193,393.847,237.542,388.062,248.148z"></path>
			<path fill="#4A4549" d="M433.084,257.054c0.427-1.451,2.244-2.201,3.682-1.728c1.436,0.476,2.409,1.917,2.634,3.411     c0.225,1.496-0.199,3.025-0.857,4.387c-0.322,0.664-0.702,1.31-0.876,2.025c-0.144,0.602-0.135,1.227-0.125,1.846     c0.044,2.689,0.087,5.379,0.131,8.067c2.22-0.845,3.516-3.104,4.634-5.2c2.453-4.602,4.978-9.503,4.691-14.711     c-0.236-4.312-2.38-8.262-4.554-11.994c-0.468-0.802-0.962-1.627-1.721-2.16c-1.078-0.757-2.535-0.792-3.795-0.408     c-1.261,0.385-2.37,1.137-3.459,1.879c-1.067,0.729-2.136,1.457-3.203,2.184c-1.04,0.709-2.122,1.466-2.685,2.591     c-1.018,2.034,0.397,2.894,1.586,4.126C429.771,251.994,428.705,265.361,433.084,257.054z"></path>
			<g>
				<path fill="#EFF2F7" d="M392.631,280.077c-3.638,0-7.698-3.092-9.05-6.894c-0.72-2.023-0.571-3.979,0.406-5.361      c0.862-1.223,2.28-1.896,3.996-1.896c3.638,0,7.696,3.094,9.048,6.895c0.72,2.024,0.573,3.979-0.404,5.361      C395.766,279.404,394.345,280.077,392.631,280.077z M387.983,267.004c-1.354,0-2.461,0.511-3.116,1.438      c-0.772,1.095-0.871,2.69-0.271,4.377c1.214,3.407,4.816,6.18,8.035,6.18c1.354,0,2.459-0.512,3.114-1.439      c0.772-1.093,0.872-2.689,0.271-4.377C394.805,269.776,391.201,267.004,387.983,267.004z"></path>
			</g>
			<g>
				<path fill="#EFF2F7" d="M410.879,280.077c-3.638,0-7.697-3.092-9.05-6.894c-0.718-2.023-0.571-3.979,0.406-5.361      c0.862-1.223,2.282-1.896,3.996-1.896c3.639,0,7.698,3.094,9.049,6.895c0.72,2.024,0.572,3.979-0.404,5.361      C414.014,279.404,412.594,280.077,410.879,280.077z M406.231,267.004c-1.354,0-2.461,0.511-3.115,1.438      c-0.772,1.095-0.871,2.69-0.271,4.377c1.212,3.407,4.814,6.18,8.033,6.18c1.354,0,2.461-0.512,3.116-1.439      c0.771-1.093,0.87-2.689,0.271-4.377C413.053,269.776,409.45,267.004,406.231,267.004z"></path>
			</g>
		</g>
		<g>
			<path fill="#524F63" d="M511.425,214.949c0.284,4.32,2.653,8.617,1.46,12.781c-0.977,3.411-4.158,5.85-5.141,9.26     c-1.113,3.87,0.852,7.891,2.756,11.438c1.594,2.97,3.823,6.343,7.193,6.358c1.474,0.008,2.852-0.669,4.17-1.33     c3.207-1.607,6.413-3.215,9.619-4.824c1.385-0.693,2.793-1.404,3.911-2.475c1.667-1.597,2.533-3.832,3.321-6.002     c2.467-6.793,4.675-13.91,4.104-21.115c-0.569-7.206-4.508-14.57-11.224-17.244c-3.759-1.496-14.755-2.831-17.983,0.387     c-1.438,1.433-0.72,2.956-0.901,4.781C512.438,209.707,511.238,212.114,511.425,214.949z"></path>
			<path fill="#EEBCC5" d="M519.213,236.532l-3.274,0.896c-13.618,8.865-21.587,21.183-23.305,37.341l-6.94,112.42l10.438-4.669     L519.213,236.532z"></path>
			<path fill="#8385E6" d="M588.079,235.677l-55.608-2.265c-4.7-0.191-12.973,1.481-17.477,2.833l-7.087,3.307l12.478,59.57h-0.001     c-11.36,19.258-17.034,41.342-16.362,63.69l6.602,81.229h62.333l7.938-85.676c0.671-17.541-2.568-35.015-9.482-51.147     l-3.391-7.916L588.079,235.677z"></path>
			<linearGradient id="SVGID_11_" gradientUnits="userSpaceOnUse" x1="529.2422" y1="288.6426" x2="558.5287" y2="211.1747">
				<stop offset="0" style="stop-color:#484EC2;stop-opacity:0"></stop>
				<stop offset="1" style="stop-color:#444BCC;stop-opacity:0.5018"></stop>
			</linearGradient>
			<path fill="url(#SVGID_11_)" d="M521.28,259.58c1.505,2.838,3.617,5.424,6.381,7.061c3.708,2.195,8.311,2.502,12.525,1.615     c4.215-0.889,8.116-2.879,11.833-5.059c6.696-3.928,13.066-8.607,17.94-14.653c3.425-4.248,6.083-10.302,3.302-14.997     c-1.784-3.01-5.302-4.498-8.68-5.406C546.528,223.292,507.489,233.58,521.28,259.58z"></path>
			<path fill="#EEBCC5" d="M564.146,206.664c0,14.779-15.762,34.847-30.541,34.847s-22.982-20.067-22.982-34.847     s11.982-26.762,26.762-26.762S564.146,191.884,564.146,206.664z"></path>
			<path fill="#EEBCC5" d="M588.079,235.677l38.57,50.276c4.043,5.271,2.631,12.878-3.034,16.345l-45.092,27.588l-5.567-8.696     l30.934-24.8c2.248-1.802,2.722-5.036,1.087-7.408l-23.461-33.244L588.079,235.677z"></path>
			<path fill="#EEBCC5" d="M464.36,392.144h24.217c3.876,0,7.093-2.997,7.361-6.863l0.193-2.762L464.36,392.144z"></path>
			<path fill="#EEBCC5" d="M530.176,224.656c-0.358-0.893,6.393,17.66,6.393,17.66s1.522,7.613,7.917,5.785     c6.395-1.826,2.436-28.925,1.523-29.229C545.094,218.567,530.783,226.179,530.176,224.656z"></path>
			<path fill="#524F63" d="M546.049,203.146c-12.387,7.541-25.421,15.293-39.896,16.176c3.257-4.042,2.604-9.818,3.201-14.975     c0.978-8.438,5.963-16.322,13.168-20.822c7.204-4.5,16.477-5.523,24.488-2.701c2.991,1.055,5.895,2.692,7.741,5.271     C560.076,193.53,551.802,199.644,546.049,203.146z"></path>
			<path fill="#524F63" d="M544.926,232.852c0.827,3.978,3.351,7.501,3.805,11.537c0.294,2.62-0.309,5.248-0.91,7.813     c-0.726,3.102-1.453,6.203-2.178,9.303c4.309-0.855,8.235-3.109,11.67-5.846c12.398-9.874,18.802-26.745,16.08-42.357     c-0.777-4.455-2.231-8.763-3.821-12.998c-1.225-3.264-2.569-6.551-4.766-9.258c-2.198-2.707-5.396-4.797-8.882-4.887     c-4.168-0.107-7.956,2.64-10.398,6.016c-1.666,2.303-2.887,5.043-2.829,7.885c0.056,2.842,1.048,12.51,3.653,13.647     c3.295-1.997,8.228-0.228,9.504,3.407c2.013,5.738-3.123,6.838-6.551,8.804C545.043,228.363,544.002,228.409,544.926,232.852z"></path>
			<path fill="#524F63" d="M573.354,215.405c2.626,1.974,5.619,3.483,7.931,5.816c2.312,2.332,3.849,5.872,2.626,8.919     c-0.771,1.919-2.463,3.275-3.923,4.74c-1.459,1.463-2.812,3.351-2.578,5.404c0.156,1.36,0.98,2.533,1.735,3.674     c1.971,2.982,3.672,6.475,3.087,10c-0.47,2.841-2.447,5.319-4.97,6.707c-2.523,1.389-5.533,1.747-8.382,1.332     c-1.656-0.241-3.292-0.732-4.962-0.66c-4.407,0.189-7.872,4.174-12.254,4.688c-2.483,0.292-5.082-0.649-6.801-2.464     c-1.72-1.814-2.522-4.46-2.1-6.924c0.693-4.033,4.223-6.87,7.472-9.359c3.247-2.488,6.721-5.453,7.2-9.518     c0.358-3.033-1.072-6.069-0.699-9.102c0.536-4.346,4.573-7.529,5.548-11.799c0.554-2.427-0.332-8.562,3.473-8.482     C568.665,208.439,571.198,213.784,573.354,215.405z"></path>
			<path fill="#524F63" d="M541.396,210.557c-0.784,1.468-1.787,2.81-2.782,4.144c-1.406,1.881-2.812,3.762-4.218,5.643     c1.017-3.613,1.355-7.416,0.996-11.151c-0.055-0.57-0.124-1.153,0.013-1.71c0.259-1.055,1.195-1.787,2.101-2.387     c1.291-0.856,4.609-3.62,5.922-1.842C544.461,204.649,542.09,209.258,541.396,210.557z"></path>
		</g>
		<g>
			<polygon fill="#524F63" points="574.02,313.012 571.474,315.275 580.324,325.621    "></polygon>
			<path fill="#D98E9D" d="M762.041,398.297l-5.707-111.235c0,0-28.6-6.027-37.111-6.027c-4.635,0-12.557,2.2-18.807,4.204     c-5.875,1.883-10.756,6.029-13.609,11.499l-46.902,89.898l28.819,2.742l9.605-10.977l-4.886-7.408l17.521-41.323l-0.284,70.001     L762.041,398.297z"></path>
			<path fill="#EEBCC5" d="M758.216,254.866c0,15.196-12.319,27.517-27.518,27.517c-8.41,0-14.244-8.73-19.292-14.678     c-4.072-4.799-7.28-6.156-7.28-12.941c0-15.197,11.377-27.414,26.572-27.414C745.896,227.349,758.216,239.668,758.216,254.866z"></path>
			<polygon fill="#524F63" points="687.936,392.125 591.871,392.125 571.474,315.275 667.539,315.275    "></polygon>
			<polygon fill="#FFFFFF" points="687.936,392.125 594.872,392.125 574.02,313.012 668.174,315.275    "></polygon>
			<rect x="592.65" y="386.554" fill="#524F63" width="65.864" height="5.57"></rect>
			<linearGradient id="SVGID_12_" gradientUnits="userSpaceOnUse" x1="690.6797" y1="350.9712" x2="760.1592" y2="350.9712">
				<stop offset="0" style="stop-color:#B6567A;stop-opacity:0"></stop>
				<stop offset="1" style="stop-color:#C45771"></stop>
			</linearGradient>
			<path fill="url(#SVGID_12_)" d="M723.351,379.179l36.809-17.586l-3.046-59.322l-6.365,0.386l-47.711,50.072     c0,0-7.115,18.574-12.302,33.204l-0.056,13.738l49.473-0.951L723.351,379.179z"></path>
			<polygon fill="#8385E6" points="662.354,374.358 611.088,374.358 599.604,330.779 651.468,332.024    "></polygon>
			<path fill="#9092EC" d="M676.941,413.326l-67.798,17.25l34.494,135.596l11.894-5.947l-10.11-116.566l60.662-19.032l-35.089,20.22     l0.595,110.623h10.705c0,0,29.736-108.243,32.71-108.243s52.931-33.304,52.931-33.304L676.941,413.326z"></path>
			<polygon fill="#524F63" points="607.152,576.848 654.303,573.498 655.598,558.645 605.199,570.113    "></polygon>
			<path fill="#EFF2F7" d="M713.379,292.653c0.426,5.332,1.426,10.621,2.976,15.741c0.344,1.127,0.757,2.316,1.687,3.039     c1.906,1.491,4.675,0.239,6.658-1.146c3.459-2.412,6.678-5.201,9.368-8.451c1.727-2.089,3.264-4.438,3.794-7.096     c0.531-2.657-0.113-5.678-2.164-7.449c-3.173-2.737-10.002-2.638-13.994-2.73C716.086,284.429,712.909,286.75,713.379,292.653z"></path>
			<polygon fill="#524F63" points="645.421,585.205 654.936,586.393 681.7,576.283 682.294,555.469 671.589,555.469 666.83,568.551      652.404,577.268    "></polygon>
			<path fill="#EEBCC5" d="M720.343,268.74l-2.035,23.194c0,0,1.629,9.766,7.325,8.14c5.696-1.629,6.51-6.105,6.51-6.105     l2.442-27.67L720.343,268.74z"></path>
			<path fill="#4A4549" d="M740.943,245.95c4.332-0.173,8.787-0.474,12.694-2.354s7.177-5.721,7.104-10.056     c-0.07-4.334-4.545-8.418-8.668-7.078c-0.939,0.305-1.799,0.848-2.762,1.074c-1.5,0.349-3.055-0.107-4.53-0.543     c-11.126-3.281-23.573-5.463-33.963-0.303c-1.931,0.959-3.817,2.236-4.831,4.137c-0.791,1.482-0.979,3.203-1.13,4.875     c-0.411,4.494-0.683,9-0.814,13.511c3.009-1.63,5.997-3.567,9.125-4.948c3.055-1.35,5.017-0.015,8.268,0.66     C727.838,246.255,734.44,246.209,740.943,245.95z"></path>
			<path opacity="0.7" fill="#4A4549" d="M715.104,238.593c-2.834-0.521-5.825,0.396-8.037,2.231     c-2.067,3.474-3.401,7.43-3.766,11.673c0.265,1.495,0.595,2.998,0.557,4.422c-0.025,0.904,0.351,2.289,0.934,3.837     c1.579,2.383,4.109,3.996,6.615,6.948c0.102,0.119,0.206,0.247,0.31,0.369c2.664-4.602,7.005-15.102,7.813-16.158     c1.243-1.614,5.242-6.467,4.521-8.618C723.359,241.233,717.076,238.954,715.104,238.593z"></path>
			<path fill="#EEBCC5" d="M715.138,249.8c-0.213-0.312-0.443-0.633-0.773-0.823c-0.404-0.232-0.895-0.238-1.36-0.238     c-1.81,0-3.893,0.13-4.981,1.575c-0.462,0.611-0.666,1.378-0.812,2.131c-0.35,1.795-0.436,3.643-0.251,5.463     c0.283,2.798,1.63,5.939,4.371,6.572c1.631,0.377,3.38-0.287,4.618-1.414C720.253,259.151,717.955,253.957,715.138,249.8z"></path>
			<path fill="#4A4549" d="M749.921,264.182c1.41-0.329,2.883-0.622,4.294-0.29c1.407,0.33,2.733,1.457,2.826,2.902     c0.045,0.705-0.197,1.392-0.314,2.088c-0.361,2.166,0.504,4.322,1.259,6.383c1.647,4.502,2.733,9.88,0.002,13.819     c-2.569,3.707-7.624,4.737-12.13,4.53c-13.366-0.61-25.873-10.17-29.973-22.908c-1.43-4.441-1.892-9.324-0.443-13.758     c0.441-1.349,1.589-2.896,2.927-2.43c0.775,5.164,4.147,9.869,8.79,12.26C735.367,271.009,742.015,266.025,749.921,264.182z"></path>
			<g>
				<path fill="#524F63" d="M577.042,315.399l89.327,2.146l18.582,72.265h-88.296L577.042,315.399 M574.02,313.012l20.853,79.112      h93.063l-19.762-76.85L574.02,313.012L574.02,313.012z"></path>
			</g>
			<path fill="#FFFFFF" d="M724.759,392.125H592.65v-5.57h132.108c1.536,0,2.783,1.248,2.783,2.786l0,0     C727.542,390.877,726.295,392.125,724.759,392.125z"></path>
			<path fill="#5B61D3" d="M657.887,392.125H592.65v-5.57h65.236c1.539,0,2.785,1.248,2.785,2.786l0,0     C660.672,390.877,659.426,392.125,657.887,392.125z"></path>
			<path fill="#D98E9D" d="M756.334,287.062l-24.026,63.519l-61.277,8.156l2.413,12.257l78.416-2.559l21.179-55.848     c1.044-2.752,1.253-5.791,0.385-8.602c-1.957-6.325-6.436-11.663-12.503-14.658L756.334,287.062z"></path>
			<path fill="#EEBCC5" d="M671.03,358.737l-33.049-17.653c0,0-1.775,2.63,0.836,4.808c2.612,2.178,10.979,8.365,10.979,8.365v4.809     c2.76,9.024,11.28,13.286,20.659,12.256l2.987-0.327L671.03,358.737z"></path>
		</g>
		<g>
			<path fill="#75454F" d="M805.669,391.989h-39.468c0,0-1.144-2.86,5.149-4.004c6.29-1.144,24.021-1.715,24.021-1.715l4.575-5.149     l6.294,1.717L805.669,391.989z"></path>
			<path fill="#8284E5" d="M838.071,271.359l-42.058,113.492l10.381,2.594l64.612-110.598c0,0-1.853-7.163-12.832-14.025     C847.195,255.96,838.071,271.359,838.071,271.359z"></path>
			<path fill="#91616A" d="M839.229,219.341c-8.205-12.801-25.233-16.527-38.036-8.323c-7.174,4.599-11.771,12.812-12.601,21.223     c-0.421,4.264-0.441,5.756,1.287,9.694c1.754,4,6.582,9.466,3.814,17.406c-0.646,1.856-0.108,4.703,2.061,5.569     c2.157,0.86,4.057-1.484,6.148-1.579c3.968-0.182,11.768,5.898,14.605,8.291c1.219,1.026,2.528,2.094,4.106,2.296     c1.351,0.173,2.7-0.323,3.909-0.951c6.042-3.135,9.723-9.401,12.741-15.501c2.824-5.707,5.368-11.751,5.796-18.072     C844.348,232.705,843.193,225.531,839.229,219.341z"></path>
			<path fill="#91616A" d="M838.187,272.55c1.161,1.194,2.616,2.455,4.266,2.209c0.76-0.111,1.431-0.537,2.061-0.975     c1.682-1.171,3.247-2.506,4.671-3.982c0.863-0.896,1.718-1.953,1.742-3.195c0.014-0.702-0.244-1.377-0.528-2.018     c-2.784-6.271-8.492-11.048-10.507-17.606c-0.913-2.972-1.011-6.158-2.029-9.095c-1.021-2.938-3.39-5.774-6.496-5.896     c-1.838-0.073-3.579,0.818-5.053,1.916c-4.795,3.577-7.559,9.713-7.06,15.675c0.454,5.411,3.56,10.366,8.002,13.421     C831.498,265.923,834.535,268.8,838.187,272.55z"></path>
			<path fill="#4A4549" d="M801.192,211.019c-5.104,3.271-8.871,8.384-10.937,14.084c5.277,2.608,18.739-3.186,22.393-5.396     c-0.399,9.248,4.628,18.535,12.595,23.251c4.836,2.864,10.539,4.112,15.376,6.894c1.267-3.391,2.199-6.877,2.441-10.457     c1.287-6.689,0.133-13.863-3.832-20.053C831.023,206.541,813.995,202.814,801.192,211.019z"></path>
			<path fill="#91616A" d="M815.949,238.939c-1.547-2.855-0.006-6.787,2.904-8.231c2.908-1.442,6.65-0.555,8.971,1.721     c2.315,2.274,3.295,5.688,3.066,8.929c-0.289,4.094-3.269,8.511-7.366,8.301c-2.256-0.117-4.248-1.637-5.512-3.51     c-1.261-1.873-1.911-4.079-2.544-6.247"></path>
			<polygon fill="#FFFFFF" points="853.294,258.341 845.446,249.23 833.046,272.007 837.602,286.433 854.051,267.958    "></polygon>
			<path fill="#9092EC" d="M862.26,259.583l73.635,81.961l-45.09,39.601l-55.228-84.841c-5.64-8.125,2.989-26.051,8.629-34.176l0,0     C848.332,256.181,856.648,255.008,862.26,259.583z"></path>
			<polygon fill="#37354C" points="933.344,592.875 913.55,481.328 890.805,381.145 935.895,341.544 933.314,480.074      944.32,587.387    "></polygon>
			<polygon fill="#524F63" points="935.895,341.544 898.777,596.428 887.511,594.6 890.805,381.145    "></polygon>
			<polygon fill="#524F63" points="866.869,604.535 896.612,603.389 898.327,594.238 889.747,593.096 861.15,601.104      861.723,605.107    "></polygon>
			<polygon fill="#37354C" points="944.32,587.387 945.182,595.998 910.775,598.129 910.47,595.389 940.918,585.645    "></polygon>
			<path fill="#91616A" d="M790.961,391.989h-39.466c0,0-1.143-2.86,5.148-4.004c6.292-1.144,25.381-1.572,25.381-1.572l3.218-5.292     l8.609,3.297L790.961,391.989z"></path>
			<path fill="#9092EC" d="M847.154,266.908l-29.945,56.523l-35.902,62.717l11.68,0.432l32.007-44.118l42.38-54.167     c5.464-4.345,7.139-11.92,4.018-18.162l0,0C866.72,260.793,854.103,259.115,847.154,266.908z"></path>
			<linearGradient id="SVGID_13_" gradientUnits="userSpaceOnUse" x1="852.3887" y1="347.1147" x2="862.2232" y2="286.5708">
				<stop offset="0" style="stop-color:#484EC2;stop-opacity:0"></stop>
				<stop offset="1" style="stop-color:#444BCC;stop-opacity:0.5018"></stop>
			</linearGradient>
			<path fill="url(#SVGID_13_)" d="M864.237,340.333c-0.827-11.481-4.865-47.191-4.865-47.191l-12.337,20.763L864.237,340.333z"></path>
		</g>
		<g>
			<path fill="#EEBCC5" d="M537.848,434.358c-2.014,0-18.132,6.716-18.132,6.716l12.594,103.399     c-2.854,1.346-6.817,2.133-9.497,2.902c-6.184,1.77-11.729,2.406-17.191,6.049c-0.443,0.316-0.578,1.885-0.659,2.422     c-0.178,1.186,1.433,1.711,2.63,1.766c7.462,0.324,14.937,0.359,22.399,0.096c4.761-0.166,8.647-2.596,12.886-4.771     c2.46-1.264,3.396-5.004,3.258-6.756C546.092,545.646,539.75,434.358,537.848,434.358z"></path>
			<path fill="#524F63" d="M524,553.826c7.188-0.66,16.863-3.871,22.467-8.424c0.5,4.77-0.906,9.352-9.985,11.68     c-10.481,2.689-21.711,5.67-32.086,2.592c-1.107-0.328-2.387-1.027-2.359-2.186c0.013-0.521,0.308-0.992,0.621-1.41     c1.846-2.463,7.307-6.854,10.549-5.785c1.687,0.559,2.896,2.506,4.815,3.098C519.928,553.975,522.029,554.008,524,553.826z"></path>
		</g>
		<g>
			<path fill="#EEBCC5" d="M537.79,557.611"></path>
			<path fill="#EEBCC5" d="M576.332,546.18c-0.044-0.533-6.384-111.822-8.286-111.822c-2.015,0-18.134,6.716-18.134,6.716     l12.595,103.399c2.12,5.578,3.938,10.895,7.03,15.996c3.092,5.102,7.227,9.719,12.516,12.48c0.57,0.297,1.291,0.564,1.822,0.201     c0.304-0.213,0.454-0.584,0.558-0.941c0.89-3.066-0.419-6.297-1.704-9.221C580.388,557.65,576.795,551.99,576.332,546.18z"></path>
			<path fill="#524F63" d="M565.807,559.84c3.211,5.957,7.163,12.029,13.331,14.814c1.054,0.475,2.22,0.85,3.35,0.615     c1.521-0.316,2.65-1.713,3.031-3.221c0.385-1.504,0.143-3.102-0.25-4.605c-0.597-2.27-1.538-4.447-2.781-6.439     c-0.297-0.471-0.671-0.979-1.223-1.062c-0.708-0.113-1.291,0.5-1.874,0.918c-1.597,1.15-3.872,0.939-5.588-0.025     c-1.715-0.965-2.979-2.555-4.137-4.145c-2.339-3.219-4.418-9.129-7.667-10.984C560.989,550.533,563.547,555.646,565.807,559.84z"></path>
		</g>
		<g>
			<circle fill="#524F63" cx="389.071" cy="576.596" r="7.695"></circle>
			<circle fill="#524F63" cx="481.69" cy="576.596" r="7.695"></circle>
			<circle fill="#524F63" cx="433.42" cy="576.596" r="7.695"></circle>
			<path fill="none" stroke="#524F63" stroke-width="2.3138" stroke-miterlimit="10" d="M389.071,576.596v-3.988     c0-8.91,7.221-16.129,16.13-16.129h30.268v-78.391"></path>
			<path fill="none" stroke="#524F63" stroke-width="2.3138" stroke-miterlimit="10" d="M480.835,576.596v-3.988     c0-8.91-7.221-16.129-16.13-16.129h-30.268v-78.391"></path>
			
				<line fill="none" stroke="#524F63" stroke-width="2.3138" stroke-miterlimit="10" x1="433.421" y1="576.596" x2="433.421" y2="556.479"></line>
			<rect x="425.226" y="516.866" fill="#524F63" width="17.073" height="38.929"></rect>
			<rect x="427.956" y="478.77" fill="#524F63" width="10.929" height="44.242"></rect>
		</g>
		<g>
			<circle fill="#524F63" cx="684.243" cy="576.596" r="7.695"></circle>
			<circle fill="#524F63" cx="776.861" cy="576.596" r="7.695"></circle>
			<circle fill="#524F63" cx="728.591" cy="576.596" r="7.695"></circle>
			<path fill="none" stroke="#524F63" stroke-width="2.3138" stroke-miterlimit="10" d="M684.241,576.596v-3.988     c0-8.91,7.223-16.129,16.13-16.129h30.269v-78.391"></path>
			<path fill="none" stroke="#524F63" stroke-width="2.3138" stroke-miterlimit="10" d="M776.005,576.596v-3.988     c0-8.91-7.221-16.129-16.128-16.129h-30.27v-78.391"></path>
			
				<line fill="none" stroke="#524F63" stroke-width="2.3138" stroke-miterlimit="10" x1="728.591" y1="576.596" x2="728.591" y2="556.479"></line>
			<rect x="720.395" y="516.866" fill="#524F63" width="17.074" height="38.929"></rect>
			<rect x="723.127" y="478.77" fill="#524F63" width="10.927" height="44.242"></rect>
		</g>
		<g>
			<rect x="265.198" y="400.358" fill="#BCBACE" width="528.351" height="83.713"></rect>
			<rect x="265.955" y="401.018" fill="#524F63" width="8.894" height="213.425"></rect>
			<rect x="790.629" y="401.018" fill="#524F63" width="8.893" height="213.425"></rect>
			<linearGradient id="SVGID_14_" gradientUnits="userSpaceOnUse" x1="529.2207" y1="438.2549" x2="566.6082" y2="265.6968">
				<stop offset="0" style="stop-color:#676475;stop-opacity:0"></stop>
				<stop offset="1" style="stop-color:#524F63;stop-opacity:0.7"></stop>
			</linearGradient>
			<polygon fill="url(#SVGID_14_)" points="799.482,449.789 264.555,400.898 799.482,400.898    "></polygon>
			<rect x="244.612" y="392.125" fill="#E0E4ED" width="574.474" height="14.229"></rect>
		</g>
	</g>
</g>
<g id="DESIGNED_BY_FREEPIK">
</g>
</svg>