<svg xmlns="http://www.w3.org/2000/svg" viewBox="0 0 32 32" width="32" height="32"><title>Rocket</title><g class="nc-icon-wrapper" stroke-linecap="square" stroke-linejoin="miter" stroke-width="2" fill="#00d563" stroke="#00d563"><line data-cap="butt" x1="20.456" y1="3.723" x2="28.246" y2="11.513" fill="none" stroke="#00d563" stroke-miterlimit="10" stroke-linecap="butt"></line><path data-cap="butt" d="M17.3,5.371C12.75,3.723,8,4.708,4,10l4.164,4.174" fill="none" stroke="#00d563" stroke-miterlimit="10" stroke-linecap="butt"></path><path data-cap="butt" d="M17.826,23.836,22,28c5.292-4,6.277-8.75,4.629-13.3" fill="none" stroke="#00d563" stroke-miterlimit="10" stroke-linecap="butt"></path><path d="M14,26,6,18S12.493,2.292,30.656,1.344C29.629,19.429,14,26,14,26Z" fill="none" stroke="#00d563" stroke-miterlimit="10"></path><circle data-color="color-2" cx="18.5" cy="13.5" r="2.5" fill="none" stroke-miterlimit="10"></circle><path data-color="color-2" d="M2.879,24.879a3,3,0,0,1,4.242,4.242c-1.171,1.172-5.949,1.707-5.949,1.707S1.707,26.05,2.879,24.879Z" fill="none" stroke-miterlimit="10"></path></g></svg>