<svg xmlns="http://www.w3.org/2000/svg" width="512.000000pt" height="512.000000pt" viewBox="0 0 512.000000 512.000000" preserveAspectRatio="xMidYMid meet"><g transform="translate(0.000000,512.000000) scale(0.100000,-0.100000)" fill="#000000" stroke="none"><path d="M320 4947 c-49 -16 -133 -102 -148 -153 -18 -60 -18 -4408 0 -4468 16 -55 99 -138 154 -154 60 -17 2328 -17 2388 0 55 16 138 99 154 154 9 31 12 203 12 658 l0 616 240 0 240 0 0 -489 0 -489 -30 -12 c-42 -17 -104 -90 -118 -138 -34 -112 18 -235 120 -288 42 -22 124 -29 177 -14 90 24 171 132 171 228 0 83 -62 184 -130 212 l-30 12 0 489 0 489 240 0 240 0 0 -375 0 -376 25 -24 24 -25 225 0 c218 0 225 -1 231 -21 11 -33 65 -88 109 -112 57 -30 155 -30 212 1 79 41 134 128 134 212 0 124 -116 240 -240 240 -81 0 -182 -62 -210 -130 l-12 -30 -169 0 -169 0 0 318 0 318 101 12 c203 24 373 107 519 252 256 256 328 624 189 961 -84 206 -271 391 -472 470 -63 24 -72 31 -97 78 -16 28 -45 73 -65 101 -37 50 -151 160 -167 160 -4 0 -8 119 -8 265 l0 265 169 0 169 0 12 -30 c28 -68 129 -130 212 -130 96 0 204 81 228 171 15 53 8 135 -14 177 -53 102 -176 154 -288 120 -48 -14 -121 -76 -138 -118 l-12 -30 -225 0 -224 0 -24 -25 -25 -24 0 -276 c0 -265 -1 -276 -19 -270 -55 17 -164 35 -218 35 -58 0 -187 -20 -225 -35 -17 -7 -18 15 -18 383 l0 390 30 12 c68 28 130 129 130 212 0 82 -58 174 -134 216 -43 23 -170 23 -213 -1 -104 -56 -155 -177 -121 -289 14 -48 76 -121 118 -138 l30 -12 0 -315 0 -315 -52 45 c-103 87 -250 167 -370 202 l-58 16 0 311 c0 215 -4 323 -12 352 -16 55 -99 138 -154 154 -56 16 -2341 16 -2394 -1z m291 -284 c24 -97 41 -145 56 -160 l22 -23 831 0 831 0 22 23 c15 15 32 63 56 160 l33 137 94 0 c103 0 136 -10 153 -47 7 -16 11 -121 11 -307 l0 -283 -122 -6 c-205 -10 -370 -63 -534 -173 -203 -135 -368 -361 -426 -586 -11 -44 -15 -48 -47 -54 -114 -22 -282 -101 -384 -182 -83 -66 -181 -192 -232 -297 -141 -288 -114 -633 71 -892 138 -193 352 -326 584 -363 38 -6 277 -10 578 -10 l512 0 0 -605 c0 -421 -3 -611 -11 -628 -6 -14 -22 -30 -36 -36 -17 -8 -350 -11 -1164 -11 l-1140 0 -24 25 -25 24 0 2191 0 2191 25 24 c22 23 31 25 129 25 l104 0 33 -137z m1679 130 c0 -5 -9 -39 -18 -78 l-18 -70 -735 -3 -735 -2 -17 72 c-10 40 -17 76 -17 81 0 4 347 7 770 7 424 0 770 -3 770 -7z m2464 -484 c58 -27 55 -115 -5 -139 -63 -26 -125 36 -100 99 19 44 60 60 105 40z m-2071 -340 c129 -65 272 -192 347 -308 18 -28 34 -51 36 -51 1 0 23 9 48 20 36 15 175 50 200 50 2 0 25 -31 50 -69 26 -38 53 -72 62 -75 29 -11 75 -6 112 13 20 10 61 24 90 31 l53 12 55 -37 c29 -20 70 -55 90 -77 46 -51 110 -150 123 -191 10 -29 20 -35 82 -57 154 -52 315 -182 404 -325 233 -373 126 -856 -242 -1096 l-76 -49 -1183 0 c-792 0 -1208 4 -1260 11 -276 38 -503 228 -591 494 -23 71 -26 96 -26 215 0 119 3 144 26 215 51 154 155 293 286 379 98 65 178 96 300 115 78 13 97 28 111 94 35 170 110 315 223 434 165 174 341 256 605 282 7 0 41 -13 75 -30z m2071 -3020 c58 -27 55 -115 -5 -139 -63 -26 -125 36 -100 99 19 44 60 60 105 40z"></path><path d="M2871 3423 c-42 -160 -311 -1246 -309 -1248 13 -10 151 -36 157 -29 14 16 322 1267 314 1274 -7 6 -132 40 -147 40 -3 0 -10 -17 -15 -37z"></path><path d="M2172 3087 c-231 -231 -252 -256 -252 -287 0 -31 21 -56 252 -287 l252 -253 58 57 58 58 -212 212 -213 213 213 213 212 212 -58 58 -58 57 -252 -253z"></path><path d="M3117 3283 l-57 -58 212 -212 213 -213 -213 -213 -212 -212 58 -58 58 -57 252 253 c231 232 252 256 252 287 0 31 -21 55 -252 287 l-253 253 -58 -57z"></path></g></svg>