<?xml version="1.0" encoding="utf-8"?>
<!-- Generator: Adobe Illustrator 24.1.1, SVG Export Plug-In . SVG Version: 6.00 Build 0)  -->
<svg version="1.1" id="Layer_1" xmlns="http://www.w3.org/2000/svg" xmlns:xlink="http://www.w3.org/1999/xlink" x="0px" y="0px"
	 viewBox="0 0 30 30" style="enable-background:new 0 0 30 30;" xml:space="preserve">
<style type="text/css">
	.st0{fill:url(#SVGID_1_);}
	.st1{fill:url(#SVGID_2_);}
	.st2{fill:#FFFFFF;}
	.st3{opacity:0.1;fill:url(#SVGID_3_);enable-background:new    ;}
	.st4{display:none;opacity:0.1;fill:url(#SVGID_4_);enable-background:new    ;}
	.st5{opacity:0.1;fill:url(#SVGID_5_);enable-background:new    ;}
	.st6{fill:url(#SVGID_6_);}
</style>
<linearGradient id="SVGID_1_" gradientUnits="userSpaceOnUse" x1="4.5205" y1="973.2694" x2="25.3705" y2="992.6294" gradientTransform="matrix(1 0 0 1 0 -968)">
	<stop  offset="0" style="stop-color:#550BDB"/>
	<stop  offset="1" style="stop-color:#B723F8"/>
</linearGradient>
<path class="st0" d="M15,0L15,0c8.3,0,15,6.7,15,15l0,0c0,8.3-6.7,15-15,15l0,0C6.7,30,0,23.3,0,15l0,0C0,6.7,6.7,0,15,0z"/>
<linearGradient id="SVGID_2_" gradientUnits="userSpaceOnUse" x1="7.18" y1="16.9" x2="24.6763" y2="16.9" gradientTransform="matrix(1 0 0 -1 0 32)">
	<stop  offset="0.16" style="stop-color:#B4AFB3"/>
	<stop  offset="0.21" style="stop-color:#C8C4C7"/>
	<stop  offset="0.28" style="stop-color:#DCDADB"/>
	<stop  offset="0.36" style="stop-color:#ECEBEC"/>
	<stop  offset="0.46" style="stop-color:#F7F6F7"/>
	<stop  offset="0.61" style="stop-color:#FDFDFD"/>
	<stop  offset="1" style="stop-color:#FFFFFF"/>
</linearGradient>
<path class="st1" d="M24.5,15.1L24.5,15.1c0,4.7-3.8,8.6-8.5,8.7H7.3L7.4,23l0.2-0.2l0,0L8.5,22l0.7-0.7l1.6-1.5l1.1-1H12v-0.1h3.8
	c1.2,0,2.4-0.6,3.1-1.6c0.2-0.3,0.3-0.5,0.4-0.8c0.2-0.4,0.3-0.9,0.2-1.4v-0.1c0-0.2,0-0.4,0-0.5c-0.2-1-0.7-1.8-1.6-2.4
	c-0.4-0.3-0.9-0.5-1.5-0.5H9.8l-0.6-1.3L8.6,9l-1-1.8L7.2,6.4h8.6C20.6,6.4,24.5,10.3,24.5,15.1z"/>
<g>
	<polygon class="st2" points="16.2,15.1 12.8,18.4 12.6,18.6 12.4,18.7 12.4,18.7 12.3,18.8 12.3,18.9 12.3,18.9 12.2,19 12.2,19 
		12.1,19 11.1,20 10.1,21 9.5,21.6 8.5,22.5 8.5,22.5 8.1,22.9 8.1,22.9 7.2,23.8 7.2,23.8 7.2,23.8 7.2,23.8 7.2,23.7 7.4,23 
		7.4,22.8 7.4,22.7 7.5,22.3 8,20.1 8.2,19 8.4,17.7 8.6,17.1 10.6,15.1 9.3,13.8 8.5,13.1 8.2,11.7 8.1,11.2 7.9,10 7.4,7.5 
		7.4,7.3 7.3,7.1 7.3,6.9 7.2,6.7 7.2,6.6 7.2,6.6 7.2,6.5 7.2,6.5 7.2,6.4 7.2,6.4 7.5,6.7 7.6,6.8 8.1,7.2 10.2,9.2 10.2,9.3 
		10.9,9.9 11.1,10.1 11.8,10.8 12.2,11.2 12.4,11.4 12.5,11.5 12.7,11.7 12.7,11.7 	"/>
	
		<linearGradient id="SVGID_3_" gradientUnits="userSpaceOnUse" x1="7.18" y1="976.8" x2="10.17" y2="976.8" gradientTransform="matrix(1 0 0 1 0 -968)">
		<stop  offset="0" style="stop-color:#DBDBDB"/>
		<stop  offset="1" style="stop-color:#FFFFFF"/>
	</linearGradient>
	<polygon class="st3" points="8.1,11.2 10.2,9.2 7.2,6.4 	"/>
</g>
<linearGradient id="SVGID_4_" gradientUnits="userSpaceOnUse" x1="7.18" y1="990" x2="9.47" y2="990" gradientTransform="matrix(1 0 0 1 0 -968)">
	<stop  offset="0" style="stop-color:#DBDBDB"/>
	<stop  offset="1" style="stop-color:#FFFFFF"/>
</linearGradient>
<polygon class="st4" points="7.9,20.1 9.5,21.6 7.2,23.9 "/>
<linearGradient id="SVGID_5_" gradientUnits="userSpaceOnUse" x1="10.6" y1="983.05" x2="16.18" y2="983.05" gradientTransform="matrix(1 0 0 1 0 -968)">
	<stop  offset="0" style="stop-color:#DBDBDB"/>
	<stop  offset="1" style="stop-color:#FFFFFF"/>
</linearGradient>
<polygon class="st5" points="10.6,15.1 13.4,12.3 16.2,15.1 13.4,17.8 "/>
<linearGradient id="SVGID_6_" gradientUnits="userSpaceOnUse" x1="7.1935" y1="23.1736" x2="7.9344" y2="23.1736">
	<stop  offset="0" style="stop-color:#DBDBDB"/>
	<stop  offset="1" style="stop-color:#FFFFFF"/>
</linearGradient>
<polygon class="st6" points="7.4,22.7 7.2,23.8 7.9,23.1 7.9,22.5 "/>
</svg>
